<svg width="19" height="18" viewBox="0 0 19 18" fill="none" xmlns="http://www.w3.org/2000/svg">
<path fill-rule="evenodd" clip-rule="evenodd" d="M15.4662 4.35961C15.8323 4.72573 15.8323 5.31932 15.4662 5.68544L14.5768 6.57485C14.6622 6.75323 14.7384 6.93682 14.8049 7.125H16.0625C16.5803 7.125 17 7.54473 17 8.0625V9.9375C17 10.4553 16.5803 10.875 16.0625 10.875H14.8049C14.7384 11.0632 14.6622 11.2468 14.5768 11.4252L15.4662 12.3146C15.8323 12.6807 15.8323 13.2743 15.4662 13.6404L14.1404 14.9662C13.7743 15.3323 13.1807 15.3323 12.8146 14.9662L11.9252 14.0768C11.7468 14.1622 11.5632 14.2384 11.375 14.3049V15.5625C11.375 16.0803 10.9553 16.5 10.4375 16.5H8.5625C8.04473 16.5 7.625 16.0803 7.625 15.5625V14.3049C7.43682 14.2384 7.25323 14.1622 7.07485 14.0768L6.18544 14.9662C5.81932 15.3323 5.22573 15.3323 4.85961 14.9662L3.53379 13.6404C3.16767 13.2743 3.16767 12.6807 3.53379 12.3146L4.4232 11.4252C4.33783 11.2468 4.26159 11.0632 4.19507 10.875H2.9375C2.41973 10.875 2 10.4553 2 9.9375V8.0625C2 7.54473 2.41973 7.125 2.9375 7.125H4.19507C4.26159 6.93682 4.33783 6.75323 4.4232 6.57484L3.53379 5.68544C3.16767 5.31932 3.16767 4.72573 3.53379 4.35961L4.85961 3.03379C5.22573 2.66767 5.81932 2.66767 6.18544 3.03379L7.07485 3.9232C7.25323 3.83783 7.43682 3.76159 7.625 3.69507V2.4375C7.625 1.91973 8.04473 1.5 8.5625 1.5H10.4375C10.9553 1.5 11.375 1.91973 11.375 2.4375V3.69507C11.5632 3.76159 11.7468 3.83783 11.9252 3.9232L12.8146 3.03379C13.1807 2.66767 13.7743 2.66767 14.1404 3.03379L15.4662 4.35961ZM9.5 12C11.1569 12 12.5 10.6569 12.5 9C12.5 7.34315 11.1569 6 9.5 6C7.84315 6 6.5 7.34315 6.5 9C6.5 10.6569 7.84315 12 9.5 12Z" fill="#FF5824"/>
</svg>
