<svg width="82" height="74" viewBox="0 0 82 74" fill="none" xmlns="http://www.w3.org/2000/svg">
<path d="M0 70.9999L5.00783 73.8731L4.99213 68.0996L0 70.9999ZM5.12728 71.4287C5.81464 71.4093 6.49875 71.3859 7.17952 71.3583L7.13914 70.3592C6.46247 70.3865 5.78242 70.4098 5.09903 70.4291L5.12728 71.4287ZM11.2734 71.1407C11.9561 71.0954 12.6351 71.0458 13.3105 70.9917L13.2307 69.9949C12.5599 70.0486 11.8854 70.0979 11.2072 70.1429L11.2734 71.1407ZM17.3927 70.6053C18.0785 70.5301 18.7602 70.4499 19.4378 70.3648L19.3131 69.3726C18.6409 69.4571 17.9643 69.5366 17.2837 69.6113L17.3927 70.6053ZM23.4996 69.7861C24.1764 69.6779 24.8487 69.5643 25.5164 69.4452L25.3409 68.4607C24.6791 68.5787 24.0127 68.6913 23.3417 68.7986L23.4996 69.7861ZM29.5452 68.6479C30.2188 68.5009 30.8873 68.3478 31.5507 68.1886L31.3173 67.2162C30.6608 67.3738 29.9989 67.5253 29.3319 67.6709L29.5452 68.6479ZM35.5221 67.1437C36.1842 66.9536 36.8406 66.7567 37.4912 66.5531L37.1925 65.5988C36.5496 65.8 35.9007 65.9946 35.2461 66.1826L35.5221 67.1437ZM41.3836 65.2275C42.0274 64.9896 42.6649 64.7444 43.296 64.4917L42.9243 63.5634C42.3017 63.8127 41.6726 64.0547 41.037 64.2895L41.3836 65.2275ZM47.074 62.853C47.6984 62.5602 48.3157 62.2593 48.9258 61.9501L48.4737 61.0581C47.8729 61.3626 47.2647 61.6591 46.6494 61.9476L47.074 62.853ZM52.5351 59.9734C53.1289 59.6225 53.7149 59.2627 54.293 58.8939L53.7552 58.0509C53.1868 58.4134 52.6105 58.7673 52.0264 59.1125L52.5351 59.9734ZM57.6859 56.5573C58.2382 56.1471 58.782 55.7274 59.3174 55.2982L58.6918 54.518C58.1662 54.9394 57.6321 55.3516 57.0896 55.7546L57.6859 56.5573ZM62.4341 52.6C62.936 52.1309 63.4291 51.6519 63.9132 51.1631L63.2026 50.4594C62.7276 50.9391 62.2438 51.409 61.7512 51.8694L62.4341 52.6ZM66.6978 48.1233C67.1416 47.5993 67.5763 47.0654 68.0018 46.5214L67.2141 45.9053C66.7966 46.4391 66.3701 46.963 65.9347 47.4771L66.6978 48.1233ZM70.4143 43.1798C70.7928 42.6109 71.1624 42.0323 71.5228 41.4439L70.6701 40.9215C70.3161 41.4993 69.9533 42.0674 69.5817 42.6258L70.4143 43.1798ZM73.5471 37.8502C73.8593 37.2459 74.1629 36.6324 74.4577 36.0095L73.5538 35.5817C73.2639 36.1942 72.9655 36.7973 72.6587 37.3911L73.5471 37.8502ZM76.093 32.2305C76.3437 31.5945 76.5861 30.9497 76.8201 30.2959L75.8785 29.9589C75.6481 30.6028 75.4094 31.2378 75.1627 31.8638L76.093 32.2305ZM78.0884 26.3838C78.2784 25.7328 78.4609 25.0737 78.6356 24.4065L77.6682 24.1532C77.4958 24.8115 77.3159 25.4616 77.1284 26.1035L78.0884 26.3838ZM79.5704 20.4029C79.708 19.7361 79.8384 19.0618 79.9616 18.3799L78.9775 18.2021C78.8558 18.876 78.7269 19.5422 78.591 20.2009L79.5704 20.4029ZM80.5978 14.3181C80.6871 13.6492 80.7699 12.9734 80.8462 12.2908L79.8523 12.1798C79.7768 12.8554 79.6949 13.5241 79.6066 14.1858L80.5978 14.3181ZM81.2186 8.20334C81.2672 7.52113 81.3097 6.8325 81.3459 6.1374L80.3473 6.08529C80.3113 6.77416 80.2693 7.45649 80.2212 8.13232L81.2186 8.20334ZM81.4866 2.04648C81.4925 1.70059 81.497 1.35319 81.5 1.00427L80.5 0.995606C80.497 1.34173 80.4926 1.68632 80.4867 2.02938L81.4866 2.04648Z" fill="#7C8192"/>
</svg>
