<svg width="1508" height="335" viewBox="0 0 1508 335" fill="none" xmlns="http://www.w3.org/2000/svg">
<g clip-path="url(#clip0)">
<g filter="url(#filter0_dd)">
<rect width="1507.5" height="335" rx="12" fill="#242731"/>
</g>
<mask id="mask0" mask-type="alpha" maskUnits="userSpaceOnUse" x="0" y="0" width="1508" height="335">
<rect width="1507.5" height="335" rx="12" fill="#242731"/>
</mask>
<g mask="url(#mask0)">
<g filter="url(#filter1_f)">
<path d="M347.357 221.947C248.061 204.465 259.082 157.377 150.329 149.635C-36.9667 136.301 62.4661 262.561 150.329 322.511C319.987 438.27 1193.38 448.153 1095.01 322.511C1053.47 269.452 993.215 226.001 841.353 213.707C731.105 204.782 672.701 238.089 559.613 237.419C474.988 236.917 423.111 235.284 347.357 221.947Z" fill="#242DFF"/>
</g>
<g filter="url(#filter2_f)">
<path d="M347.357 238.092C248.061 220.61 259.082 173.522 150.329 165.78C-36.9667 152.446 62.4661 278.706 150.329 338.656C319.987 454.415 1193.38 464.298 1095.01 338.656C1053.47 285.597 993.215 242.146 841.353 229.852C731.105 220.926 672.701 254.234 559.613 253.563C474.988 253.062 423.111 251.429 347.357 238.092Z" fill="#FF5824"/>
</g>
<g filter="url(#filter3_f)">
<ellipse cx="1106.2" cy="318.001" rx="468.297" ry="109.813" fill="#FF4545"/>
</g>
<g filter="url(#filter4_f)">
<ellipse cx="1012.93" cy="318.169" rx="359.789" ry="84.42" fill="#FF5824"/>
</g>
</g>
<mask id="mask1" mask-type="alpha" maskUnits="userSpaceOnUse" x="0" y="0" width="650" height="335">
<rect width="649.062" height="335" rx="12" fill="url(#paint0_linear)"/>
</mask>
<g mask="url(#mask1)">
<path d="M387.481 261.597C387.481 261.597 343.368 296.906 329.57 262.341C320.357 239.149 250.507 186.048 207.378 147.962C186.097 129.171 171.355 114.051 173.582 108.014C173.631 107.835 173.723 107.659 173.816 107.526C175.589 103.848 181.283 103.073 189.564 104.5C195.664 105.522 203.125 107.736 211.505 110.868C244.274 123.01 290.342 148.808 317.544 170.679C319.83 172.516 322.069 174.397 324.308 176.37C329.357 180.727 334.264 185.347 339.035 190.057C372.915 223.921 387.481 261.597 387.481 261.597Z" fill="url(#paint1_linear)"/>
<path d="M392.172 313.527C391.207 338.565 368.251 399.442 353.521 427.918C349.308 436.009 346.64 440.965 346.64 440.965L329.832 427.099C327.657 423.888 325.6 420.796 323.58 417.829C318.904 409.753 311.2 397.163 304.31 389.64C302.315 387.472 300.116 385.301 297.759 383.087C297.759 383.047 297.722 383.007 297.682 383.007C287.356 373.248 274.659 362.035 267.784 340.323C266.319 335.761 264.617 325.221 263.411 321.667C259.26 303.987 257.468 297.736 258.535 290.782C259.603 283.827 263.566 276.135 272.093 264.684C279.714 254.459 293.475 251.131 306.827 240.708C319.731 230.635 333.52 222.306 344.633 219.369C353.049 217.099 359.998 217.967 363.847 223.501C368.125 229.603 373.46 236.694 378.784 244.504C391.173 262.646 393.042 291.091 392.172 313.527Z" fill="url(#paint2_linear)"/>
<g filter="url(#filter5_ii)">
<path d="M325.517 286.079L322.893 286.139L288.265 287.009L274.536 287.353L244.463 288.114L229.633 288.489L229.125 288.514C217.197 288.83 207.147 279.29 206.884 267.304L200.927 33.0833C200.661 21.1468 210.182 11.1295 222.11 10.8173L318.502 8.38226C330.476 8.0735 340.473 17.6522 340.75 29.5465L345.645 223.684L346.7 263.809C346.97 275.749 337.449 285.763 325.517 286.079Z" fill="url(#paint3_radial)"/>
</g>
<g filter="url(#filter6_ii)">
<path d="M322.491 258.189L230.745 260.378C221.501 260.613 213.747 253.231 213.512 243.975L208.571 45.4966C208.336 36.2408 215.709 28.4761 224.953 28.241L316.698 26.0516C325.942 25.8165 333.697 33.1988 333.932 42.4546L338.873 240.933C339.107 250.192 331.735 257.957 322.491 258.189Z" fill="url(#paint4_linear)"/>
</g>
<path d="M279.396 280.254C282.98 279.963 285.649 276.818 285.359 273.229C285.068 269.641 281.928 266.967 278.344 267.258C274.76 267.549 272.09 270.694 272.381 274.283C272.671 277.871 275.812 280.544 279.396 280.254Z" fill="#0A1331"/>
<path d="M292.353 16.1532L254.207 17.1181C253.514 17.1357 252.963 17.7181 252.981 18.4093L252.995 18.9672C253.012 19.6619 253.594 20.2128 254.284 20.1952L292.431 19.2303C293.124 19.2128 293.675 18.6304 293.657 17.9392L293.643 17.3813C293.626 16.6866 293.044 16.1357 292.353 16.1532Z" fill="#31478B"/>
<g filter="url(#filter7_ii)">
<path d="M311.827 85.3028L234.603 87.2536C228.86 87.3975 224.045 82.8152 223.901 77.0645L223.463 59.7177C223.32 53.967 227.896 49.1461 233.639 49.0022L310.864 47.0514C316.607 46.9075 321.422 51.4898 321.565 57.2405L322.004 74.5874C322.147 80.3345 317.571 85.1555 311.827 85.3028Z" fill="url(#paint5_linear)"/>
</g>
<path d="M258.686 67.0542C258.675 73.1628 254.919 78.3943 249.62 80.6152C247.875 81.3556 245.969 81.738 243.968 81.7345C241.936 81.731 239.998 81.3065 238.225 80.5591C232.965 78.3171 229.265 73.0751 229.275 66.9946C229.289 58.8475 235.891 52.2652 244.028 52.2827C252.129 52.2968 258.703 58.9071 258.686 67.0542Z" fill="#E5EBFF"/>
<path d="M248.13 67.9744C249.152 65.4115 247.906 62.5038 245.347 61.4799C242.787 60.456 239.883 61.7035 238.86 64.2664C237.838 66.8293 239.084 69.737 241.643 70.761C244.203 71.7849 247.107 70.5373 248.13 67.9744Z" fill="#BAC9F9"/>
<path d="M234.704 78.4278C234.909 77.6424 235.231 76.8982 235.657 76.2119C237.582 74.1791 240.373 72.9393 243.451 72.9444C246.623 72.9494 249.456 74.2494 251.376 76.3826C251.869 77.2131 252.205 78.1295 252.365 79.1039C251.511 79.6998 250.592 80.2077 249.622 80.6146C247.877 81.355 245.97 81.7374 243.97 81.7339C241.937 81.7304 239.999 81.3058 238.226 80.5585C236.95 80.0146 235.766 79.294 234.704 78.4278Z" fill="#BAC9F9"/>
<path d="M264.067 59.7743L304.971 58.7397" stroke="white" stroke-linecap="round"/>
<path d="M264.069 64.9392L287.264 64.3535" stroke="white" stroke-linecap="round"/>
<path d="M264.067 70.1052L297.571 69.5195" stroke="white" stroke-linecap="round"/>
<path d="M264.069 77.8541L275.667 77.5613" stroke="white" stroke-linecap="round"/>
<g filter="url(#filter8_ii)">
<path d="M319.475 74.2364C323.745 74.2364 327.206 70.7674 327.206 66.4881C327.206 62.2088 323.745 58.7397 319.475 58.7397C315.205 58.7397 311.743 62.2088 311.743 66.4881C311.743 70.7674 315.205 74.2364 319.475 74.2364Z" fill="url(#paint6_linear)"/>
</g>
<path d="M319.473 69.0607C319.209 69.0216 318.976 68.8979 318.83 68.709L317.052 66.4298C316.764 66.0587 316.894 65.567 317.34 65.3293C317.785 65.0949 318.381 65.2056 318.673 65.567L319.631 66.7978L321.564 64.2776C321.852 63.9064 322.431 63.7925 322.893 64.0302C323.342 64.2679 323.476 64.7563 323.192 65.1274L320.455 68.6993C320.282 68.9304 319.974 69.0672 319.647 69.0705C319.584 69.0737 319.528 69.0672 319.473 69.0607Z" fill="white"/>
<g filter="url(#filter9_ii)">
<path d="M311.825 181.217L234.601 183.167C228.858 183.311 224.043 178.729 223.899 172.978L223.461 155.631C223.318 149.881 227.894 145.06 233.637 144.916L310.862 142.965C316.605 142.821 321.42 147.404 321.564 153.154L322.002 170.501C322.145 176.248 317.569 181.069 311.825 181.217Z" fill="url(#paint7_linear)"/>
</g>
<path d="M258.683 162.968C258.672 169.076 254.916 174.308 249.618 176.529C247.872 177.269 245.966 177.651 243.965 177.648C241.933 177.644 239.995 177.22 238.222 176.472C232.962 174.23 229.262 168.988 229.272 162.908C229.286 154.761 235.888 148.179 244.025 148.196C252.126 148.21 258.7 154.82 258.683 162.968Z" fill="#E5EBFF"/>
<path d="M248.128 163.888C249.15 161.325 247.904 158.417 245.345 157.393C242.785 156.369 239.881 157.617 238.859 160.18C237.836 162.743 239.082 165.65 241.641 166.674C244.201 167.698 247.105 166.451 248.128 163.888Z" fill="#BAC9F9"/>
<path d="M234.701 174.342C234.906 173.556 235.228 172.812 235.654 172.126C237.579 170.093 240.37 168.853 243.448 168.858C246.62 168.863 249.453 170.163 251.373 172.297C251.866 173.127 252.202 174.044 252.362 175.018C251.508 175.614 250.589 176.122 249.619 176.529C247.874 177.269 245.967 177.651 243.967 177.648C241.934 177.644 239.996 177.22 238.223 176.473C236.947 175.929 235.763 175.208 234.701 174.342Z" fill="#BAC9F9"/>
<path d="M264.067 155.688L304.971 154.653" stroke="white" stroke-linecap="round"/>
<path d="M264.069 160.853L287.264 160.268" stroke="white" stroke-linecap="round"/>
<path d="M264.067 166.018L297.571 165.433" stroke="white" stroke-linecap="round"/>
<path d="M264.069 173.767L275.667 173.474" stroke="white" stroke-linecap="round"/>
<g filter="url(#filter10_ii)">
<path d="M319.475 170.15C323.745 170.15 327.206 166.681 327.206 162.402C327.206 158.122 323.745 154.653 319.475 154.653C315.205 154.653 311.743 158.122 311.743 162.402C311.743 166.681 315.205 170.15 319.475 170.15Z" fill="url(#paint8_linear)"/>
</g>
<path d="M319.473 164.974C319.209 164.935 318.976 164.811 318.83 164.622L317.052 162.343C316.764 161.972 316.894 161.48 317.34 161.243C317.785 161.008 318.381 161.119 318.673 161.48L319.631 162.711L321.564 160.191C321.852 159.82 322.431 159.706 322.893 159.944C323.342 160.181 323.476 160.67 323.192 161.041L320.455 164.613C320.282 164.844 319.974 164.981 319.647 164.984C319.584 164.987 319.528 164.981 319.473 164.974Z" fill="white"/>
<g filter="url(#filter11_ii)">
<path d="M311.196 133.26L233.971 135.21C228.228 135.354 223.413 130.772 223.269 125.021L222.831 107.674C222.688 101.924 227.264 97.1028 233.007 96.959L310.232 95.0082C315.975 94.8643 320.79 99.4466 320.934 105.197L321.372 122.544C321.515 128.291 316.939 133.112 311.196 133.26Z" fill="url(#paint9_linear)"/>
</g>
<path d="M258.049 115.011C258.038 121.119 254.282 126.351 248.984 128.572C247.239 129.312 245.332 129.695 243.332 129.691C241.299 129.688 239.361 129.263 237.588 128.516C232.329 126.274 228.628 121.032 228.639 114.951C228.653 106.804 235.255 100.222 243.391 100.239C251.493 100.253 258.066 106.864 258.049 115.011Z" fill="#E5EBFF"/>
<path d="M247.49 115.931C248.513 113.368 247.267 110.46 244.707 109.436C242.148 108.412 239.243 109.66 238.221 112.223C237.198 114.786 238.444 117.694 241.004 118.718C243.563 119.741 246.467 118.494 247.49 115.931Z" fill="#BAC9F9"/>
<path d="M234.063 126.385C234.267 125.6 234.59 124.856 235.015 124.169C236.941 122.137 239.732 120.897 242.81 120.902C245.982 120.907 248.814 122.207 250.734 124.34C251.227 125.171 251.564 126.087 251.723 127.061C250.87 127.657 249.951 128.165 248.98 128.572C247.235 129.312 245.329 129.695 243.328 129.691C241.296 129.688 239.358 129.263 237.585 128.516C236.309 127.972 235.124 127.252 234.063 126.385Z" fill="#BAC9F9"/>
<path d="M263.43 107.731L304.334 106.697" stroke="white" stroke-linecap="round"/>
<path d="M263.43 112.896L286.625 112.31" stroke="white" stroke-linecap="round"/>
<path d="M263.428 118.062L296.931 117.476" stroke="white" stroke-linecap="round"/>
<path d="M263.43 125.811L275.027 125.518" stroke="white" stroke-linecap="round"/>
<g filter="url(#filter12_ii)">
<path d="M318.842 122.193C323.112 122.193 326.574 118.724 326.574 114.445C326.574 110.166 323.112 106.697 318.842 106.697C314.572 106.697 311.11 110.166 311.11 114.445C311.11 118.724 314.572 122.193 318.842 122.193Z" fill="url(#paint10_linear)"/>
</g>
<path d="M318.838 117.017C318.573 116.978 318.341 116.854 318.195 116.666L316.416 114.386C316.128 114.015 316.258 113.524 316.704 113.286C317.149 113.051 317.745 113.162 318.037 113.524L318.995 114.754L320.928 112.234C321.216 111.863 321.796 111.749 322.257 111.987C322.707 112.224 322.841 112.713 322.557 113.084L319.82 116.656C319.646 116.887 319.338 117.024 319.011 117.027C318.948 117.03 318.893 117.024 318.838 117.017Z" fill="white"/>
<g filter="url(#filter13_ii)">
<path d="M311.196 229.174L233.971 231.125C228.228 231.269 223.413 226.687 223.269 220.936L222.831 203.589C222.688 197.839 227.264 193.018 233.007 192.874L310.232 190.923C315.975 190.779 320.79 195.361 320.934 201.112L321.372 218.459C321.515 224.206 316.939 229.027 311.196 229.174Z" fill="url(#paint11_linear)"/>
</g>
<path d="M258.051 210.925C258.04 217.034 254.284 222.265 248.986 224.486C247.241 225.227 245.334 225.609 243.334 225.606C241.301 225.602 239.363 225.178 237.59 224.43C232.331 222.188 228.63 216.946 228.641 210.866C228.655 202.719 235.256 196.136 243.393 196.154C251.495 196.168 258.068 202.778 258.051 210.925Z" fill="#E5EBFF"/>
<path d="M247.49 211.845C248.513 209.283 247.267 206.375 244.707 205.351C242.147 204.327 239.243 205.575 238.221 208.138C237.198 210.7 238.444 213.608 241.004 214.632C243.563 215.656 246.467 214.408 247.49 211.845Z" fill="#BAC9F9"/>
<path d="M234.066 222.299C234.271 221.513 234.594 220.769 235.019 220.083C236.944 218.05 239.736 216.81 242.814 216.815C245.985 216.82 248.818 218.12 250.738 220.253C251.231 221.084 251.568 222 251.727 222.975C250.874 223.571 249.955 224.079 248.984 224.485C247.239 225.226 245.333 225.608 243.332 225.605C241.299 225.601 239.362 225.177 237.589 224.429C236.312 223.885 235.128 223.165 234.066 222.299Z" fill="#BAC9F9"/>
<path d="M263.432 203.646L304.336 202.611" stroke="white" stroke-linecap="round"/>
<path d="M263.432 208.81L286.627 208.225" stroke="white" stroke-linecap="round"/>
<path d="M263.43 213.976L296.933 213.39" stroke="white" stroke-linecap="round"/>
<path d="M263.43 221.725L275.027 221.432" stroke="white" stroke-linecap="round"/>
<g filter="url(#filter14_ii)">
<path d="M318.842 218.108C323.112 218.108 326.574 214.639 326.574 210.359C326.574 206.08 323.112 202.611 318.842 202.611C314.572 202.611 311.11 206.08 311.11 210.359C311.11 214.639 314.572 218.108 318.842 218.108Z" fill="url(#paint12_linear)"/>
</g>
<path d="M318.836 212.931C318.571 212.892 318.339 212.768 318.193 212.579L316.414 210.3C316.126 209.929 316.256 209.437 316.702 209.199C317.148 208.965 317.743 209.076 318.035 209.437L318.993 210.668L320.926 208.148C321.214 207.777 321.794 207.663 322.255 207.9C322.705 208.138 322.839 208.626 322.555 208.998L319.818 212.569C319.644 212.801 319.336 212.937 319.009 212.941C318.946 212.944 318.891 212.937 318.836 212.931Z" fill="white"/>
<path d="M323.695 416.966C325.715 419.934 327.772 423.025 329.946 426.237C344.243 447.509 361.551 486.657 377.889 521.387C392.607 552.673 429.782 562.252 459.594 544.759C495.903 523.455 502.912 473.636 474.686 442.395C451.269 416.477 431.089 393.432 427.56 388.355C412.01 365.978 336.01 266.719 331.532 289.358C330.005 297.143 326.282 306.648 322.825 316.92C317.656 332.367 313.094 349.469 317.696 364.922L317.736 364.962C318.893 368.955 320.694 372.843 323.26 376.545C324.389 378.173 325.197 379.634 325.73 380.968C325.881 381.372 326.032 381.737 326.147 382.098C330.332 394.534 307.669 390.572 297.563 381.86C297.643 381.944 297.72 382.024 297.797 382.147C297.837 382.147 297.874 382.187 297.874 382.228C301.708 386.557 309.131 395.451 316.666 406.556C318.88 409.808 321.209 413.267 323.695 416.966Z" fill="url(#paint13_linear)"/>
<path d="M422.998 382.988C422.998 382.988 395.515 316.608 395.481 297.764C395.444 278.917 406.759 262.736 393.158 219.582C379.56 176.425 358.316 162.547 356.571 147.94C354.825 133.333 355.217 112.281 349.209 112.291C343.201 112.303 324.335 118.368 323.971 152.31C323.607 186.252 331.694 176.175 336.049 209.681C340.404 243.188 317.254 232.228 319.974 309.993C322.697 387.759 396.104 403.089 397.818 401.795C399.533 400.504 422.998 382.988 422.998 382.988Z" fill="url(#paint14_linear)"/>
<path opacity="0.4" d="M352.775 116.042C352.775 116.042 349.377 113.686 345.188 119.065C341 124.445 344.88 144.845 346.582 147.529C348.285 150.212 354.891 149.23 355.69 146.652C356.489 144.073 354.561 116.542 352.775 116.042Z" fill="white"/>
<path d="M211.419 267.469C205.257 270.922 189.484 268.948 182.305 258.106C178.348 252.109 179.464 246.235 181.222 242.183C182.668 238.941 184.568 236.853 184.568 236.853C190.185 230.859 195.906 236.649 207.481 242.786C210.574 244.419 212.73 246.692 214.124 249.227C217.958 256.139 215.925 264.924 211.419 267.469Z" fill="url(#paint15_linear)"/>
<path d="M214.131 249.231C203.537 253.498 189.797 247.554 181.229 242.187C182.676 238.944 184.576 236.856 184.576 236.856C190.192 230.862 195.913 236.653 207.488 242.789C210.578 244.422 212.734 246.695 214.131 249.231Z" fill="url(#paint16_linear)"/>
<path opacity="0.4" d="M192.732 258.016C193.244 256.738 194.419 255.994 195.544 256.145C198.863 256.593 208.535 255.91 208.751 260.234C209.028 265.767 207.354 268.494 205.553 268.284C201.228 267.778 192.741 265.749 192.266 262.105C192.044 260.388 192.331 259.02 192.732 258.016Z" fill="white"/>
<path d="M207.493 243.882C200.347 246.837 183.468 242.609 177.071 229.852C171.248 218.222 180.35 208.859 182.021 207.266C182.206 207.09 182.296 207.019 182.296 207.019C189.177 201.238 194.648 208.288 206.466 216.481C208.388 217.793 209.878 219.328 210.988 220.977C217.021 229.559 213.52 241.423 207.493 243.882Z" fill="url(#paint17_linear)"/>
<path opacity="0.4" d="M185.404 230.029C186.083 228.337 187.634 227.355 189.124 227.556C193.513 228.149 206.3 227.247 206.586 232.963C206.953 240.282 204.742 243.886 202.358 243.608C196.643 242.938 185.417 240.254 184.794 235.44C184.498 233.164 184.874 231.354 185.404 230.029Z" fill="white"/>
<path d="M210.99 220.977C209.18 221.218 207.073 221.255 204.695 220.934C197.913 220.017 187.748 212.41 182.021 207.266C182.206 207.09 182.295 207.019 182.295 207.019C189.176 201.237 194.647 208.288 206.466 216.481C208.39 217.793 209.88 219.331 210.99 220.977Z" fill="url(#paint18_linear)"/>
<path d="M204.232 145.843C204.232 145.843 182.127 141.294 177.557 157.667C175.91 163.568 176.635 183.629 179.854 190.262C188.163 207.386 195.892 219.875 208.658 215.035C221.46 210.184 217.626 195.895 212.796 187.449C207.967 179.003 204.142 175.112 204.676 173.929C205.213 172.746 204.232 145.843 204.232 145.843Z" fill="url(#paint19_linear)"/>
<path opacity="0.4" d="M188.055 188.833C189.338 187.604 191.302 187.484 192.804 188.429C197.227 191.217 208.484 199.231 206.862 204.697C204.786 211.692 199.744 215.286 197.927 213.131C196.114 210.975 184.625 198.354 185.587 193.555C186.044 191.285 187.052 189.794 188.055 188.833Z" fill="white"/>
<path d="M361.644 172.43C362.822 173.452 363.793 174.44 364.342 175.03C381.382 193.389 389.259 218.789 390.863 243.8C392.467 268.811 388.331 293.8 384.127 318.505C383.924 319.694 383.532 321.105 382.375 321.439C380.522 321.97 379.513 319.333 379.458 317.403C379.004 301.579 381.857 285.845 382.258 270.021C383.054 238.602 373.885 207.001 356.4 180.9C355 178.81 349.979 171.914 352.764 169.422C354.972 167.452 358.874 170.033 361.644 172.43Z" fill="url(#paint20_linear)"/>
<path opacity="0.3" d="M294.562 279.112C296.271 273.513 298.022 267.55 299.814 261.296C315.158 207.208 295.543 198.7 295.543 198.7L259.143 280.004L257.071 284.634L254.395 287.96L292.208 286.669C292.594 285.469 292.981 284.25 293.362 283.015C293.763 281.734 294.161 280.434 294.562 279.112Z" fill="#14275F"/>
<path d="M294.147 396.091C303.224 383.324 342.001 357.915 342.001 357.915C354.804 348.972 344.225 340.865 316.511 344.475C310.055 345.3 302.592 346.714 294.332 348.953C278.23 353.326 254.069 379.986 243.57 394.299C241.408 397.162 236.89 395.618 236.97 392.03C237.562 370.308 239.869 339.76 246.444 323.377C246.867 322.343 247.336 321.271 247.848 320.169C262.121 286.872 293.83 242.344 298.555 223.204C299.02 221.243 302.626 210.691 302.715 208.841C302.808 207.84 302.863 206.837 302.863 205.947C302.57 188.96 285.419 184.049 275.346 201.21C266.35 216.413 239.829 255.565 231.107 281.029C229.478 285.782 225.867 289.76 221.022 291.066C219.251 291.545 217.632 291.56 216.337 290.865C209.215 287.07 198.899 276.125 185.785 290.368C172.594 304.598 165.269 300.21 159.455 298.088C153.534 295.871 145.799 289.442 137.629 299.379C130.082 308.591 122.112 314.347 115.003 312.859C107.851 311.364 101.735 313.288 95.9493 333.092C95.7982 333.599 95.644 334.146 95.5298 334.695C89.9537 355.945 85.0406 414.172 84.9974 430.628C84.982 447.493 83.6219 453.376 70.3414 474.835C66.1152 481.281 60.2608 495.91 54.3599 512.555C42.8247 545.094 63.4783 579.611 97.1933 586.967C127.239 593.523 157.327 576.088 166.596 546.751L181.89 498.354L182.948 494.411C188.067 481.027 206.467 491.65 227.585 477.966C233.695 474.02 241.038 466.602 248.61 457.798C267.405 435.869 287.671 405.163 294.147 396.091Z" fill="url(#paint21_linear)"/>
<path opacity="0.4" d="M294.592 203.777C294.413 204.515 294.114 205.281 293.719 206.087C291.689 210.203 288.476 218.52 282.742 217.899C280.636 217.67 278.884 216.04 277.632 214.431C276.296 212.711 276.182 211.661 276.639 209.564C277.564 205.312 279.55 199.938 282.65 196.779C285.604 193.768 289.925 194.775 292.624 197.579C294.619 199.648 295.122 201.593 294.592 203.777Z" fill="white"/>
<path d="M240.138 406.653C245.896 404.463 265.286 371.534 286.591 359.327C297.923 352.833 307.755 349.429 316.517 344.47C310.068 345.285 302.592 346.706 294.33 348.963C278.227 353.333 254.06 379.974 243.561 394.288C241.418 397.172 236.909 395.616 236.986 392.046C237.562 370.311 239.866 339.764 246.463 323.369C246.87 322.343 247.355 321.259 247.839 320.179C262.119 286.864 293.827 242.333 298.57 223.189C299.039 221.225 302.617 210.704 302.737 208.829C302.805 207.826 302.873 206.822 302.857 205.942C284.503 236.477 238.179 307.038 230.617 342.83C216.032 411.878 234.389 408.777 240.138 406.653Z" fill="url(#paint22_linear)"/>
<path d="M221.174 298.521C216.598 307.878 212.048 316.324 208.128 325.209C206.136 329.609 204.171 334.025 202.398 338.583C200.492 343.117 198.959 347.783 196.791 352.619C195.826 347.474 195.782 342.153 196.711 337.024C197.513 331.858 199.064 326.805 201.257 322.068C203.397 317.303 206.188 312.844 209.485 308.82C212.767 304.802 216.57 301.118 221.174 298.521Z" fill="url(#paint23_linear)"/>
<path d="M169.631 305.612C167.9 313.317 165.624 319.882 163.33 326.62C162.189 329.971 160.93 333.285 159.663 336.663C158.275 340.023 157.026 343.448 155.052 346.968C152.763 339.313 153.732 331.37 156.196 324.122C157.442 320.484 159.206 317.029 161.38 313.845C163.607 310.704 166.189 307.724 169.631 305.612Z" fill="url(#paint24_linear)"/>
<path d="M124.27 316.914C124.73 320.024 124.563 322.812 124.273 325.542C123.94 328.257 123.404 330.866 122.716 333.411C122.019 335.958 121.158 338.432 120.181 340.887C119.166 343.364 118.04 345.726 116.631 348.515C114.864 345.85 114.441 342.762 114.327 339.874C114.262 336.953 114.678 334.118 115.431 331.413C116.177 328.698 117.251 326.098 118.666 323.646C120.122 321.216 121.797 318.872 124.27 316.914Z" fill="url(#paint25_linear)"/>
<path d="M120.69 465.472C121.424 471.114 87.9821 456.998 84.4693 460.568C80.9564 464.138 39.4219 558.703 39.4219 558.703L39.4373 558.583C49.6737 526.154 62.9109 486.771 70.3407 474.832C83.6211 453.373 84.9812 447.49 84.9967 430.625C85.0398 414.169 89.9529 355.942 95.5291 334.692C92.519 369.839 87.976 431.879 92.0748 441.616C97.8237 455.297 119.916 459.827 120.69 465.472Z" fill="url(#paint26_linear)"/>
<path d="M263.776 276.073C261.478 277.478 259.06 278.013 256.648 278.167C254.224 278.371 251.785 278.034 249.407 277.278C247.05 276.515 244.685 275.289 242.822 273.279C240.95 271.386 239.556 268.585 240.059 265.883L240.077 265.781C240.096 265.679 240.197 265.608 240.299 265.629C240.361 265.642 240.413 265.685 240.438 265.74C241.332 267.766 242.89 269.384 244.679 270.635C246.477 271.898 248.543 272.76 250.656 273.405C252.756 274.1 254.927 274.622 257.129 274.962C259.328 275.295 261.552 275.555 263.776 275.672C263.881 275.678 263.961 275.768 263.955 275.873C263.952 275.937 263.915 275.993 263.865 276.024L263.776 276.073Z" fill="#EF7C7A"/>
<path d="M264.175 269.026C262.321 269.715 260.409 269.916 258.506 269.891C256.594 269.891 254.694 269.539 252.828 268.971C251.906 268.665 250.993 268.26 250.105 267.831C249.254 267.285 248.369 266.812 247.635 266.068C246.123 264.718 244.933 262.779 244.92 260.769V260.735C244.92 260.679 244.964 260.636 245.019 260.636C245.059 260.636 245.096 260.661 245.112 260.698C245.799 262.381 247.073 263.742 248.554 264.758C250.031 265.799 251.724 266.503 253.451 267.034C256.893 268.171 260.542 268.693 264.172 268.822C264.227 268.826 264.271 268.872 264.267 268.924C264.267 268.968 264.24 269.002 264.203 269.014L264.175 269.026Z" fill="#EF7C7A"/>
<path d="M263.756 264.891C263.102 263.545 262.162 262.436 261.11 261.457C260.067 260.46 258.843 259.66 257.529 258.993C256.866 258.678 256.157 258.425 255.447 258.193C254.698 258.048 253.967 257.844 253.177 257.866C251.648 257.813 249.988 258.252 248.934 259.345L248.915 259.363C248.887 259.394 248.887 259.441 248.915 259.469C248.937 259.49 248.971 259.496 248.998 259.484C250.251 258.925 251.657 258.845 252.995 259.061C254.346 259.265 255.639 259.762 256.86 260.376C259.333 261.553 261.597 263.177 263.651 264.999C263.682 265.027 263.731 265.024 263.756 264.993C263.778 264.968 263.781 264.938 263.768 264.91L263.756 264.891Z" fill="#EF7C7A"/>
</g>
<g filter="url(#filter15_f)">
<path d="M427.569 189.742C404.188 190.81 374.21 186.481 360.666 180.081C347.122 173.681 355.084 167.636 378.466 166.568C401.847 165.5 431.825 169.829 445.369 176.229C458.913 182.629 450.951 188.673 427.569 189.742Z" fill="url(#paint27_linear)"/>
</g>
<path d="M349.51 58.9772C354.695 54.6152 362.062 51.5236 371.357 50.2725L455.386 84.4963C461.162 91.8854 464.272 99.2444 464.934 105.988L467.414 106.95L460.205 125.609C456.727 135.014 447.324 142.077 432.83 144.654C417.54 147.354 401.88 145.397 385.669 138.626C369.34 132.144 354.517 121.685 345.464 109.071C336.894 97.1007 335.103 85.4778 339.185 76.3192L347.063 57.9332L349.51 58.9772Z" fill="url(#paint28_linear)"/>
<path d="M464.498 107.332C464.382 105.746 464.121 104.139 463.73 102.476L447.683 139.438C449.181 138.589 450.583 137.514 451.836 136.517L464.498 107.332Z" fill="url(#paint29_linear)"/>
<path d="M371.8 50.3713C367.711 50.9437 364.006 51.9336 360.678 53.169L340.151 99.6096C340.619 100.745 341.138 101.859 341.69 102.988L363.65 53.36L368.513 55.4168L345.034 108.436C345.227 108.731 345.455 109.041 345.649 109.336C346.052 109.89 346.489 110.458 346.926 111.027L371.082 56.5031L375.946 58.5599L350.734 115.415C351.413 116.171 352.108 116.891 352.803 117.611L378.499 59.6821L383.362 61.7389L356.914 121.439C357.641 122.088 358.385 122.701 359.128 123.313L385.931 62.8252L390.795 64.882L363.428 126.54C364.204 127.081 364.98 127.622 365.756 128.163L393.347 66.0041L398.211 68.0609L370.314 131.062C371.122 131.531 371.93 132.001 372.738 132.47L400.764 69.183L405.627 71.2398L377.374 134.913C378.215 135.311 379.055 135.709 379.895 136.107L408.196 72.3261L413.06 74.3829L384.791 138.315C385.648 138.677 386.52 139.003 387.392 139.33L415.629 75.4692L420.492 77.526L392.318 141.007C393.207 141.298 394.111 141.553 395.016 141.807L423.077 78.5765L427.941 80.6333L400.125 143.227C401.045 143.446 401.982 143.629 402.919 143.812L430.51 81.7196L435.373 83.7764L408.261 144.766C409.214 144.913 410.184 145.123 411.169 145.198L437.942 84.8628L442.806 86.9195L416.774 145.608C417.775 145.648 418.826 145.666 419.809 145.656L445.375 88.0059L450.238 90.0627L425.649 145.592C426.749 145.503 427.82 145.474 428.867 145.32L452.807 91.149L457.671 93.2058L435.153 144.249C436.384 143.96 437.499 143.729 438.608 143.346L460.256 94.2563L460.701 94.4446C459.431 91.6485 457.82 88.7937 455.802 85.9373C451.855 80.3899 446.783 75.2614 440.927 70.6967L393.318 50.5634C386.003 49.5159 378.693 49.3652 371.8 50.3713Z" fill="url(#paint30_linear)"/>
<path d="M352.225 55.6141C351.125 56.3455 350.091 57.1051 349.14 57.9417L348.421 57.6328L337.239 83.9112C337.151 85.7836 337.066 87.8782 337.4 89.8493L352.225 55.6141Z" fill="url(#paint31_linear)"/>
<path d="M437.759 127.03C408.182 130.993 370.307 114.832 353.152 90.9284C335.997 67.0243 346.085 44.3951 375.679 40.3956C405.256 36.4317 443.132 52.5927 460.286 76.4967C477.425 100.436 467.353 123.03 437.759 127.03Z" fill="url(#paint32_linear)"/>
<path opacity="0.2" d="M417.086 95.5443C438.865 92.6168 450.055 79.5687 447.643 63.3467C428.221 46.9946 399.121 37.1646 375.362 40.3927C353.584 43.3202 342.393 56.3683 344.805 72.5903C364.262 88.9571 393.343 98.7368 417.086 95.5443Z" fill="white"/>
<path opacity="0.7" d="M438.055 126.698C408.399 130.741 370.451 114.469 353.284 90.3491C344.977 78.686 343.105 67.3391 346.686 58.2446C342.039 67.6108 343.61 79.7288 352.453 92.2219C369.62 116.342 407.569 132.614 437.225 128.571C452.536 126.478 462.652 119.328 466.47 109.607C462.164 118.39 452.4 124.748 438.055 126.698Z" fill="white"/>
<path d="M430.515 116.894C407.854 119.953 378.8 107.556 365.673 89.2264C352.547 70.8972 360.263 53.5866 382.924 50.5277C405.586 47.4688 434.64 59.8659 447.766 78.1951C460.893 96.5243 453.176 113.835 430.515 116.894Z" fill="url(#paint33_linear)"/>
<path d="M381.432 53.1724C404.192 50.0714 433.367 62.579 446.543 81.0863C452.727 89.7968 454.296 98.2866 451.872 105.156C455.759 97.896 454.638 88.3958 447.663 78.5601C434.488 60.0528 405.313 47.5452 382.553 50.6463C370.493 52.2755 362.632 57.971 359.865 65.712C363.353 59.2516 370.749 54.6053 381.432 53.1724Z" fill="url(#paint34_linear)"/>
<g filter="url(#filter16_f)">
<path d="M413.269 90.9019C405.519 79.1419 397.666 62.9137 395.743 54.6847C393.819 46.4556 398.534 49.3134 406.284 61.0734C414.034 72.8335 421.887 89.0616 423.81 97.2907C425.734 105.52 421.018 102.662 413.269 90.9019Z" fill="url(#paint35_linear)"/>
</g>
<path d="M446.413 15.7875C449.986 17.6727 453.805 21.0166 457.553 25.803L473.016 78.8281C472.041 83.5516 470.15 86.8194 467.653 88.6237L468.129 90.1786L458.067 90.2546C453.05 90.3778 446.914 86.7777 440.817 79.4479C434.392 71.7115 429.723 62.7766 426.807 52.5106C423.735 42.2425 422.795 31.9416 424.74 24.3167C426.593 17.0929 430.669 13.6289 435.798 13.8874L445.982 14.2332L446.413 15.7875Z" fill="url(#paint36_linear)"/>
<path d="M467.133 88.7965C467.736 88.3933 468.297 87.9061 468.834 87.3359L448.231 86.5251C449.1 87.1594 450.026 87.6923 450.868 88.1613L467.133 88.7965Z" fill="url(#paint37_linear)"/>
<path d="M457.817 26.0604C456.155 23.9552 454.458 22.1482 452.793 20.6004L426.779 19.3828C426.482 19.8815 426.211 20.403 425.947 20.9463L453.755 22.2605L454.621 25.3521L424.906 23.9377C424.855 24.1065 424.809 24.297 424.757 24.4658C424.673 24.8043 424.595 25.1647 424.518 25.5251L455.079 26.985L455.946 30.0767L424.07 28.5413C424.001 29.0736 423.952 29.6071 423.903 30.1405L456.384 31.7085L457.25 34.8002L423.787 33.2018C423.779 33.7374 423.79 34.2741 423.802 34.8108L457.708 36.4331L458.575 39.5247L423.997 37.8465C424.049 38.3854 424.101 38.9242 424.153 39.4631L459.012 41.1566L459.879 44.2482L424.571 42.5687C424.663 43.1098 424.755 43.6508 424.847 44.1919L460.317 45.8801L461.184 48.9717L425.478 47.2428C425.611 47.786 425.743 48.3292 425.876 48.8725L461.641 50.6046L462.508 53.6963L426.692 52.0144C426.845 52.5587 427.018 53.1041 427.19 53.6495L462.966 55.3292L463.833 58.4208L428.233 56.6937C428.426 57.2402 428.639 57.7877 428.852 58.3353L464.311 60.0548L465.177 63.1465L430.062 61.4239C430.296 61.9726 430.549 62.5223 430.802 63.072L465.635 64.7794L466.502 67.8711L432.284 66.1875C432.557 66.7383 432.812 67.3122 433.126 67.8652L466.96 69.504L467.826 72.5956L434.919 71.0068C435.253 71.5609 435.614 72.1378 435.962 72.6712L468.284 74.2285L469.151 77.3202L438.03 75.8399C438.451 76.42 438.837 76.9972 439.265 77.5349L469.609 78.9531L470.475 82.0448L441.898 80.7305C442.446 81.3389 442.929 81.8968 443.473 82.4192L470.953 83.6788L471.033 83.9618C471.722 82.6695 472.317 81.179 472.77 79.4665C473.639 76.1253 473.945 72.2605 473.749 68.0899L465.265 37.8265C463.131 33.6159 460.636 29.6002 457.817 26.0604Z" fill="url(#paint38_linear)"/>
<path d="M448.845 16.5189C448.164 16.0768 447.494 15.6763 446.822 15.3373L446.696 14.8797L432.128 14.4267C431.337 14.7805 430.458 15.1837 429.775 15.7889L448.845 16.5189Z" fill="url(#paint39_linear)"/>
<path d="M450.66 77.0554C438.781 61.8571 432.131 37.8575 435.805 23.4438C439.479 9.03006 452.108 9.66713 464.007 24.8664C475.886 40.0647 482.536 64.0643 478.862 78.478C475.168 92.8907 462.558 92.2547 450.66 77.0554Z" fill="url(#paint40_linear)"/>
<path opacity="0.2" d="M458.334 58.2232C466.856 69.2146 475.77 72.439 481.325 67.7482C481.173 53.9652 475.183 36.3944 465.871 24.4107C457.348 13.4193 448.435 10.1949 442.879 14.8857C443.038 28.6902 449.041 46.2405 458.334 58.2232Z" fill="white"/>
<path opacity="0.7" d="M450.127 77.582C438.427 62.5669 431.93 38.8335 435.615 24.5651C437.394 17.6623 441.241 14.2692 446.055 14.2684C440.77 13.7562 436.517 17.1509 434.592 24.5155C430.907 38.7838 437.404 62.5172 449.104 77.5323C455.147 85.2836 461.419 89.1892 466.561 89.1831C461.623 88.7303 455.784 84.8458 450.127 77.582Z" fill="white"/>
<path d="M452.228 70.9603C443.118 59.3208 438.017 40.9105 440.844 29.8732C443.671 18.8358 453.331 19.3231 462.441 30.9626C471.551 42.6021 476.653 61.0123 473.826 72.0497C470.999 83.0871 461.338 82.5998 452.228 70.9603Z" fill="url(#paint41_linear)"/>
<path d="M461.362 30.5314C470.347 42.0601 475.345 60.3133 472.518 71.268C471.181 76.4147 468.359 79.0447 464.816 79.1954C469.012 79.7452 472.386 77.142 473.899 71.3351C476.726 60.3804 471.727 42.1272 462.743 30.5985C457.988 24.4869 453.056 21.48 449.052 21.6313C452.796 22.1361 457.154 25.1152 461.362 30.5314Z" fill="url(#paint42_linear)"/>
<g filter="url(#filter17_f)">
<path d="M102.95 245.806C89.8103 246.254 73.3035 243.276 66.1108 239.161C58.918 235.045 63.7311 231.352 76.8707 230.905C90.0103 230.458 106.517 233.435 113.71 237.551C120.903 241.666 116.089 245.359 102.95 245.806Z" fill="url(#paint43_linear)"/>
</g>
<path d="M64.9323 169.432C67.9961 166.917 72.1701 165.167 77.2835 164.514L120.883 185.337C123.59 189.725 124.852 194.072 124.822 198.036L126.111 198.622L121.125 209.512C118.696 215.002 113.188 219.066 105.179 220.452C96.73 221.903 88.3496 220.617 79.9477 216.501C71.4654 212.553 64.0292 206.285 59.8471 198.801C55.8901 191.7 55.5889 184.862 58.3317 179.522L63.6654 168.798L64.9323 169.432Z" fill="url(#paint44_linear)"/>
<path d="M124.417 198.802C124.445 197.871 124.397 196.926 124.28 195.947L113.458 217.485C114.318 217 115.14 216.382 115.876 215.808L124.417 198.802Z" fill="url(#paint45_linear)"/>
<path d="M77.4845 164.586C75.2365 164.886 73.1719 165.434 71.2984 166.13L57.5025 193.187C57.6906 193.857 57.9071 194.515 58.1413 195.182L72.8969 166.268L75.4131 167.516L59.6387 198.406C59.7265 198.581 59.832 198.765 59.9199 198.939C60.1063 199.268 60.3105 199.605 60.5147 199.942L76.742 168.176L79.2581 169.425L62.3242 202.549C62.6485 202.998 62.9837 203.427 63.3188 203.855L80.5763 170.105L83.0924 171.354L65.3247 206.136C65.6814 206.523 66.0489 206.889 66.4164 207.255L84.4214 172.013L86.9375 173.262L68.5599 209.184C68.9489 209.509 69.338 209.833 69.727 210.157L88.2557 173.942L90.7719 175.191L72.029 211.897C72.4396 212.179 72.8503 212.462 73.2609 212.744L92.09 175.872L94.6062 177.12L75.6319 214.217C76.0641 214.458 76.4963 214.699 76.9285 214.939L95.9351 177.78L98.4512 179.029L79.4537 216.277C79.8967 216.497 80.3504 216.696 80.8042 216.895L99.7802 179.688L102.296 180.937L83.3759 217.922C83.8404 218.1 84.3158 218.257 84.7911 218.414L103.636 181.576L106.152 182.824L87.4768 219.292C87.9629 219.428 88.4598 219.544 88.9567 219.659L107.481 183.484L109.997 184.733L91.7956 220.265C92.3033 220.36 92.8169 220.491 93.3462 220.544L111.326 185.392L113.842 186.641L96.3584 220.833C96.8984 220.866 97.467 220.886 98.0001 220.888L115.171 187.301L117.687 188.549L101.167 220.902C101.768 220.859 102.35 220.851 102.926 220.77L119.016 189.209L121.533 190.458L106.393 220.197C107.077 220.038 107.694 219.913 108.317 219.698L122.872 191.096L123.103 191.211C122.576 189.56 121.868 187.871 120.939 186.178C119.121 182.89 116.669 179.838 113.759 177.11L89.1296 164.886C85.2276 164.208 81.2763 164.056 77.4845 164.586Z" fill="url(#paint46_linear)"/>
<path d="M66.5781 167.49C65.9404 167.909 65.3364 168.346 64.7727 168.828L64.4015 168.64L56.8298 183.955C56.674 185.052 56.5073 186.28 56.5747 187.439L66.5781 167.49Z" fill="url(#paint47_linear)"/>
<path d="M108.501 210.508C92.2066 212.578 72.5686 202.751 64.6324 188.554C56.6963 174.358 63.4832 161.149 79.7881 159.058C96.0823 156.987 115.72 166.815 123.656 181.012C131.582 195.229 124.806 208.417 108.501 210.508Z" fill="url(#paint48_linear)"/>
<path opacity="0.2" d="M98.3718 192.147C110.491 190.603 117.392 182.96 117.016 173.314C107.316 163.44 91.9254 157.35 78.7024 159.056C66.5833 160.6 59.6822 168.243 60.0581 177.889C69.7766 187.772 85.1595 193.831 98.3718 192.147Z" fill="white"/>
<path opacity="0.7" d="M109.121 210.243C92.6511 212.374 72.825 202.41 64.8329 187.983C60.9648 181.007 60.6011 174.275 63.0913 168.924C60.0018 174.426 60.1559 181.612 64.2691 189.084C72.2613 203.511 92.0873 213.475 108.557 211.344C117.061 210.241 123.016 206.098 125.672 200.379C122.803 205.539 117.087 209.215 109.121 210.243Z" fill="white"/>
<path d="M105.152 204.489C92.6671 206.088 77.6027 198.549 71.5322 187.664C65.4617 176.779 70.6534 166.674 83.1385 165.075C95.6237 163.476 110.688 171.015 116.759 181.9C122.829 192.785 117.637 202.89 105.152 204.489Z" fill="url(#paint49_linear)"/>
<path d="M81.8733 166.635C94.5107 165.001 109.75 172.659 115.883 183.726C118.76 188.934 119.124 193.972 117.397 198.015C119.948 193.753 119.887 188.122 116.643 182.241C110.51 171.174 95.2711 163.517 82.6337 165.151C75.9385 166.008 71.3042 169.309 69.3391 173.865C71.6243 170.073 75.9428 167.389 81.8733 166.635Z" fill="url(#paint50_linear)"/>
<path d="M572.609 68.8438H563.266V75.8438H574.188V79H559.312V56.25H574.078V59.4375H563.266V65.7188H572.609V68.8438ZM587.141 79C586.974 78.6771 586.828 78.151 586.703 77.4219C585.495 78.6823 584.016 79.3125 582.266 79.3125C580.568 79.3125 579.182 78.8281 578.109 77.8594C577.036 76.8906 576.5 75.6927 576.5 74.2656C576.5 72.4635 577.167 71.0833 578.5 70.125C579.844 69.1562 581.76 68.6719 584.25 68.6719H586.578V67.5625C586.578 66.6875 586.333 65.9896 585.844 65.4688C585.354 64.9375 584.609 64.6719 583.609 64.6719C582.745 64.6719 582.036 64.8906 581.484 65.3281C580.932 65.7552 580.656 66.3021 580.656 66.9688H576.859C576.859 66.0417 577.167 65.1771 577.781 64.375C578.396 63.5625 579.229 62.9271 580.281 62.4688C581.344 62.0104 582.526 61.7812 583.828 61.7812C585.807 61.7812 587.385 62.2812 588.562 63.2812C589.74 64.2708 590.344 65.6667 590.375 67.4688V75.0938C590.375 76.6146 590.589 77.8281 591.016 78.7344V79H587.141ZM582.969 76.2656C583.719 76.2656 584.422 76.0833 585.078 75.7188C585.745 75.3542 586.245 74.8646 586.578 74.25V71.0625H584.531C583.125 71.0625 582.068 71.3073 581.359 71.7969C580.651 72.2865 580.297 72.9792 580.297 73.875C580.297 74.6042 580.536 75.1875 581.016 75.625C581.505 76.0521 582.156 76.2656 582.969 76.2656ZM603.203 65.5625C602.703 65.4792 602.188 65.4375 601.656 65.4375C599.917 65.4375 598.745 66.1042 598.141 67.4375V79H594.344V62.0938H597.969L598.062 63.9844C598.979 62.5156 600.25 61.7812 601.875 61.7812C602.417 61.7812 602.865 61.8542 603.219 62L603.203 65.5625ZM609.125 62.0938L609.234 64.0469C610.484 62.5365 612.125 61.7812 614.156 61.7812C617.677 61.7812 619.469 63.7969 619.531 67.8281V79H615.734V68.0469C615.734 66.974 615.5 66.1823 615.031 65.6719C614.573 65.151 613.818 64.8906 612.766 64.8906C611.234 64.8906 610.094 65.5833 609.344 66.9688V79H605.547V62.0938H609.125ZM634.953 62.0938L635.062 63.8594C636.25 62.474 637.875 61.7812 639.938 61.7812C642.198 61.7812 643.745 62.6458 644.578 64.375C645.807 62.6458 647.536 61.7812 649.766 61.7812C651.63 61.7812 653.016 62.2969 653.922 63.3281C654.839 64.3594 655.307 65.8802 655.328 67.8906V79H651.531V68C651.531 66.9271 651.297 66.1406 650.828 65.6406C650.359 65.1406 649.583 64.8906 648.5 64.8906C647.635 64.8906 646.927 65.125 646.375 65.5938C645.833 66.0521 645.453 66.6562 645.234 67.4062L645.25 79H641.453V67.875C641.401 65.8854 640.385 64.8906 638.406 64.8906C636.885 64.8906 635.807 65.5104 635.172 66.75V79H631.375V62.0938H634.953ZM658.516 70.3906C658.516 68.7344 658.844 67.2448 659.5 65.9219C660.156 64.5885 661.078 63.5677 662.266 62.8594C663.453 62.1406 664.818 61.7812 666.359 61.7812C668.641 61.7812 670.49 62.5156 671.906 63.9844C673.333 65.4531 674.104 67.401 674.219 69.8281L674.234 70.7188C674.234 72.3854 673.911 73.875 673.266 75.1875C672.63 76.5 671.714 77.5156 670.516 78.2344C669.328 78.9531 667.953 79.3125 666.391 79.3125C664.005 79.3125 662.094 78.5208 660.656 76.9375C659.229 75.3438 658.516 73.224 658.516 70.5781V70.3906ZM662.312 70.7188C662.312 72.4583 662.672 73.8229 663.391 74.8125C664.109 75.7917 665.109 76.2812 666.391 76.2812C667.672 76.2812 668.667 75.7812 669.375 74.7812C670.094 73.7812 670.453 72.3177 670.453 70.3906C670.453 68.6823 670.083 67.3281 669.344 66.3281C668.615 65.3281 667.62 64.8281 666.359 64.8281C665.12 64.8281 664.135 65.3229 663.406 66.3125C662.677 67.2917 662.312 68.7604 662.312 70.7188ZM686.297 65.5625C685.797 65.4792 685.281 65.4375 684.75 65.4375C683.01 65.4375 681.839 66.1042 681.234 67.4375V79H677.438V62.0938H681.062L681.156 63.9844C682.073 62.5156 683.344 61.7812 684.969 61.7812C685.51 61.7812 685.958 61.8542 686.312 62L686.297 65.5625ZM695.828 79.3125C693.422 79.3125 691.469 78.5573 689.969 77.0469C688.479 75.526 687.734 73.5052 687.734 70.9844V70.5156C687.734 68.8281 688.057 67.3229 688.703 66C689.359 64.6667 690.276 63.6302 691.453 62.8906C692.63 62.151 693.943 61.7812 695.391 61.7812C697.693 61.7812 699.469 62.5156 700.719 63.9844C701.979 65.4531 702.609 67.5312 702.609 70.2188V71.75H691.562C691.677 73.1458 692.141 74.25 692.953 75.0625C693.776 75.875 694.807 76.2812 696.047 76.2812C697.786 76.2812 699.203 75.5781 700.297 74.1719L702.344 76.125C701.667 77.1354 700.76 77.9219 699.625 78.4844C698.5 79.0365 697.234 79.3125 695.828 79.3125ZM695.375 64.8281C694.333 64.8281 693.49 65.1927 692.844 65.9219C692.208 66.651 691.802 67.6667 691.625 68.9688H698.859V68.6875C698.776 67.4167 698.438 66.4583 697.844 65.8125C697.25 65.1562 696.427 64.8281 695.375 64.8281ZM728.391 73.7656L731.078 62.0938H734.781L730.172 79H727.047L723.422 67.3906L719.859 79H716.734L712.109 62.0938H715.812L718.547 73.6406L722.016 62.0938H724.875L728.391 73.7656ZM741.359 79H737.562V62.0938H741.359V79ZM737.328 57.7031C737.328 57.1198 737.51 56.6354 737.875 56.25C738.25 55.8646 738.781 55.6719 739.469 55.6719C740.156 55.6719 740.688 55.8646 741.062 56.25C741.438 56.6354 741.625 57.1198 741.625 57.7031C741.625 58.276 741.438 58.7552 741.062 59.1406C740.688 59.5156 740.156 59.7031 739.469 59.7031C738.781 59.7031 738.25 59.5156 737.875 59.1406C737.51 58.7552 737.328 58.276 737.328 57.7031ZM750.266 57.9844V62.0938H753.25V64.9062H750.266V74.3438C750.266 74.9896 750.391 75.4583 750.641 75.75C750.901 76.0312 751.359 76.1719 752.016 76.1719C752.453 76.1719 752.896 76.1198 753.344 76.0156V78.9531C752.479 79.1927 751.646 79.3125 750.844 79.3125C747.927 79.3125 746.469 77.7031 746.469 74.4844V64.9062H743.688V62.0938H746.469V57.9844H750.266ZM759.906 63.9375C761.146 62.5 762.714 61.7812 764.609 61.7812C768.214 61.7812 770.042 63.8385 770.094 67.9531V79H766.297V68.0938C766.297 66.9271 766.042 66.1042 765.531 65.625C765.031 65.1354 764.292 64.8906 763.312 64.8906C761.792 64.8906 760.656 65.5677 759.906 66.9219V79H756.109V55H759.906V63.9375ZM781.203 70.3906C781.203 68.7344 781.531 67.2448 782.188 65.9219C782.844 64.5885 783.766 63.5677 784.953 62.8594C786.141 62.1406 787.505 61.7812 789.047 61.7812C791.328 61.7812 793.177 62.5156 794.594 63.9844C796.021 65.4531 796.792 67.401 796.906 69.8281L796.922 70.7188C796.922 72.3854 796.599 73.875 795.953 75.1875C795.318 76.5 794.401 77.5156 793.203 78.2344C792.016 78.9531 790.641 79.3125 789.078 79.3125C786.693 79.3125 784.781 78.5208 783.344 76.9375C781.917 75.3438 781.203 73.224 781.203 70.5781V70.3906ZM785 70.7188C785 72.4583 785.359 73.8229 786.078 74.8125C786.797 75.7917 787.797 76.2812 789.078 76.2812C790.359 76.2812 791.354 75.7812 792.062 74.7812C792.781 73.7812 793.141 72.3177 793.141 70.3906C793.141 68.6823 792.771 67.3281 792.031 66.3281C791.302 65.3281 790.307 64.8281 789.047 64.8281C787.807 64.8281 786.823 65.3229 786.094 66.3125C785.365 67.2917 785 68.7604 785 70.7188ZM810.375 77.3438C809.26 78.6562 807.677 79.3125 805.625 79.3125C803.792 79.3125 802.401 78.776 801.453 77.7031C800.516 76.6302 800.047 75.0781 800.047 73.0469V62.0938H803.844V73C803.844 75.1458 804.734 76.2188 806.516 76.2188C808.359 76.2188 809.604 75.5573 810.25 74.2344V62.0938H814.047V79H810.469L810.375 77.3438ZM826.766 65.5625C826.266 65.4792 825.75 65.4375 825.219 65.4375C823.479 65.4375 822.307 66.1042 821.703 67.4375V79H817.906V62.0938H821.531L821.625 63.9844C822.542 62.5156 823.812 61.7812 825.438 61.7812C825.979 61.7812 826.427 61.8542 826.781 62L826.766 65.5625ZM845.984 65.5625C845.484 65.4792 844.969 65.4375 844.438 65.4375C842.698 65.4375 841.526 66.1042 840.922 67.4375V79H837.125V62.0938H840.75L840.844 63.9844C841.76 62.5156 843.031 61.7812 844.656 61.7812C845.198 61.7812 845.646 61.8542 846 62L845.984 65.5625ZM855.516 79.3125C853.109 79.3125 851.156 78.5573 849.656 77.0469C848.167 75.526 847.422 73.5052 847.422 70.9844V70.5156C847.422 68.8281 847.745 67.3229 848.391 66C849.047 64.6667 849.964 63.6302 851.141 62.8906C852.318 62.151 853.63 61.7812 855.078 61.7812C857.38 61.7812 859.156 62.5156 860.406 63.9844C861.667 65.4531 862.297 67.5312 862.297 70.2188V71.75H851.25C851.365 73.1458 851.828 74.25 852.641 75.0625C853.464 75.875 854.495 76.2812 855.734 76.2812C857.474 76.2812 858.891 75.5781 859.984 74.1719L862.031 76.125C861.354 77.1354 860.448 77.9219 859.312 78.4844C858.188 79.0365 856.922 79.3125 855.516 79.3125ZM855.062 64.8281C854.021 64.8281 853.177 65.1927 852.531 65.9219C851.896 66.651 851.49 67.6667 851.312 68.9688H858.547V68.6875C858.464 67.4167 858.125 66.4583 857.531 65.8125C856.938 65.1562 856.115 64.8281 855.062 64.8281ZM866.594 79V64.9062H864.016V62.0938H866.594V60.5469C866.594 58.6719 867.115 57.224 868.156 56.2031C869.198 55.1823 870.656 54.6719 872.531 54.6719C873.198 54.6719 873.906 54.7656 874.656 54.9531L874.562 57.9219C874.146 57.8385 873.661 57.7969 873.109 57.7969C871.297 57.7969 870.391 58.7292 870.391 60.5938V62.0938H873.828V64.9062H870.391V79H866.594ZM883.672 79.3125C881.266 79.3125 879.312 78.5573 877.812 77.0469C876.323 75.526 875.578 73.5052 875.578 70.9844V70.5156C875.578 68.8281 875.901 67.3229 876.547 66C877.203 64.6667 878.12 63.6302 879.297 62.8906C880.474 62.151 881.786 61.7812 883.234 61.7812C885.536 61.7812 887.312 62.5156 888.562 63.9844C889.823 65.4531 890.453 67.5312 890.453 70.2188V71.75H879.406C879.521 73.1458 879.984 74.25 880.797 75.0625C881.62 75.875 882.651 76.2812 883.891 76.2812C885.63 76.2812 887.047 75.5781 888.141 74.1719L890.188 76.125C889.51 77.1354 888.604 77.9219 887.469 78.4844C886.344 79.0365 885.078 79.3125 883.672 79.3125ZM883.219 64.8281C882.177 64.8281 881.333 65.1927 880.688 65.9219C880.052 66.651 879.646 67.6667 879.469 68.9688H886.703V68.6875C886.62 67.4167 886.281 66.4583 885.688 65.8125C885.094 65.1562 884.271 64.8281 883.219 64.8281ZM902.266 65.5625C901.766 65.4792 901.25 65.4375 900.719 65.4375C898.979 65.4375 897.807 66.1042 897.203 67.4375V79H893.406V62.0938H897.031L897.125 63.9844C898.042 62.5156 899.312 61.7812 900.938 61.7812C901.479 61.7812 901.927 61.8542 902.281 62L902.266 65.5625ZM913.516 65.5625C913.016 65.4792 912.5 65.4375 911.969 65.4375C910.229 65.4375 909.057 66.1042 908.453 67.4375V79H904.656V62.0938H908.281L908.375 63.9844C909.292 62.5156 910.562 61.7812 912.188 61.7812C912.729 61.7812 913.177 61.8542 913.531 62L913.516 65.5625ZM925.547 79C925.38 78.6771 925.234 78.151 925.109 77.4219C923.901 78.6823 922.422 79.3125 920.672 79.3125C918.974 79.3125 917.589 78.8281 916.516 77.8594C915.443 76.8906 914.906 75.6927 914.906 74.2656C914.906 72.4635 915.573 71.0833 916.906 70.125C918.25 69.1562 920.167 68.6719 922.656 68.6719H924.984V67.5625C924.984 66.6875 924.74 65.9896 924.25 65.4688C923.76 64.9375 923.016 64.6719 922.016 64.6719C921.151 64.6719 920.443 64.8906 919.891 65.3281C919.339 65.7552 919.062 66.3021 919.062 66.9688H915.266C915.266 66.0417 915.573 65.1771 916.188 64.375C916.802 63.5625 917.635 62.9271 918.688 62.4688C919.75 62.0104 920.932 61.7812 922.234 61.7812C924.214 61.7812 925.792 62.2812 926.969 63.2812C928.146 64.2708 928.75 65.6667 928.781 67.4688V75.0938C928.781 76.6146 928.995 77.8281 929.422 78.7344V79H925.547ZM921.375 76.2656C922.125 76.2656 922.828 76.0833 923.484 75.7188C924.151 75.3542 924.651 74.8646 924.984 74.25V71.0625H922.938C921.531 71.0625 920.474 71.3073 919.766 71.7969C919.057 72.2865 918.703 72.9792 918.703 73.875C918.703 74.6042 918.943 75.1875 919.422 75.625C919.911 76.0521 920.562 76.2656 921.375 76.2656ZM936.797 79H933V55H936.797V79ZM963.719 70.7188C963.719 73.3333 963.125 75.4219 961.938 76.9844C960.75 78.5365 959.156 79.3125 957.156 79.3125C955.302 79.3125 953.818 78.7031 952.703 77.4844V85.5H948.906V62.0938H952.406L952.562 63.8125C953.677 62.4583 955.193 61.7812 957.109 61.7812C959.172 61.7812 960.786 62.5521 961.953 64.0938C963.13 65.625 963.719 67.7552 963.719 70.4844V70.7188ZM959.938 70.3906C959.938 68.7031 959.599 67.3646 958.922 66.375C958.255 65.3854 957.297 64.8906 956.047 64.8906C954.495 64.8906 953.38 65.5312 952.703 66.8125V74.3125C953.391 75.625 954.516 76.2812 956.078 76.2812C957.286 76.2812 958.229 75.7969 958.906 74.8281C959.594 73.849 959.938 72.3698 959.938 70.3906ZM975.797 65.5625C975.297 65.4792 974.781 65.4375 974.25 65.4375C972.51 65.4375 971.339 66.1042 970.734 67.4375V79H966.938V62.0938H970.562L970.656 63.9844C971.573 62.5156 972.844 61.7812 974.469 61.7812C975.01 61.7812 975.458 61.8542 975.812 62L975.797 65.5625ZM976.922 70.3906C976.922 68.7344 977.25 67.2448 977.906 65.9219C978.562 64.5885 979.484 63.5677 980.672 62.8594C981.859 62.1406 983.224 61.7812 984.766 61.7812C987.047 61.7812 988.896 62.5156 990.312 63.9844C991.74 65.4531 992.51 67.401 992.625 69.8281L992.641 70.7188C992.641 72.3854 992.318 73.875 991.672 75.1875C991.036 76.5 990.12 77.5156 988.922 78.2344C987.734 78.9531 986.359 79.3125 984.797 79.3125C982.411 79.3125 980.5 78.5208 979.062 76.9375C977.635 75.3438 976.922 73.224 976.922 70.5781V70.3906ZM980.719 70.7188C980.719 72.4583 981.078 73.8229 981.797 74.8125C982.516 75.7917 983.516 76.2812 984.797 76.2812C986.078 76.2812 987.073 75.7812 987.781 74.7812C988.5 73.7812 988.859 72.3177 988.859 70.3906C988.859 68.6823 988.49 67.3281 987.75 66.3281C987.021 65.3281 986.026 64.8281 984.766 64.8281C983.526 64.8281 982.542 65.3229 981.812 66.3125C981.083 67.2917 980.719 68.7604 980.719 70.7188ZM995.188 70.4219C995.188 67.7969 995.802 65.7031 997.031 64.1406C998.271 62.5677 999.911 61.7812 1001.95 61.7812C1003.88 61.7812 1005.4 62.4531 1006.5 63.7969L1006.67 62.0938H1010.09V78.4844C1010.09 80.7031 1009.4 82.4531 1008.02 83.7344C1006.64 85.0156 1004.78 85.6562 1002.44 85.6562C1001.2 85.6562 999.984 85.3958 998.797 84.875C997.62 84.3646 996.724 83.6927 996.109 82.8594L997.906 80.5781C999.073 81.9635 1000.51 82.6562 1002.22 82.6562C1003.48 82.6562 1004.47 82.3125 1005.2 81.625C1005.93 80.9479 1006.3 79.9479 1006.3 78.625V77.4844C1005.2 78.7031 1003.74 79.3125 1001.92 79.3125C999.943 79.3125 998.323 78.526 997.062 76.9531C995.812 75.3802 995.188 73.2031 995.188 70.4219ZM998.969 70.75C998.969 72.4479 999.312 73.7865 1000 74.7656C1000.7 75.7344 1001.66 76.2188 1002.89 76.2188C1004.42 76.2188 1005.56 75.5625 1006.3 74.25V66.8125C1005.58 65.5312 1004.45 64.8906 1002.92 64.8906C1001.67 64.8906 1000.7 65.3854 1000 66.375C999.312 67.3646 998.969 68.8229 998.969 70.75ZM1022.86 65.5625C1022.36 65.4792 1021.84 65.4375 1021.31 65.4375C1019.57 65.4375 1018.4 66.1042 1017.8 67.4375V79H1014V62.0938H1017.62L1017.72 63.9844C1018.64 62.5156 1019.91 61.7812 1021.53 61.7812C1022.07 61.7812 1022.52 61.8542 1022.88 62L1022.86 65.5625ZM1034.89 79C1034.72 78.6771 1034.58 78.151 1034.45 77.4219C1033.24 78.6823 1031.77 79.3125 1030.02 79.3125C1028.32 79.3125 1026.93 78.8281 1025.86 77.8594C1024.79 76.8906 1024.25 75.6927 1024.25 74.2656C1024.25 72.4635 1024.92 71.0833 1026.25 70.125C1027.59 69.1562 1029.51 68.6719 1032 68.6719H1034.33V67.5625C1034.33 66.6875 1034.08 65.9896 1033.59 65.4688C1033.1 64.9375 1032.36 64.6719 1031.36 64.6719C1030.49 64.6719 1029.79 64.8906 1029.23 65.3281C1028.68 65.7552 1028.41 66.3021 1028.41 66.9688H1024.61C1024.61 66.0417 1024.92 65.1771 1025.53 64.375C1026.15 63.5625 1026.98 62.9271 1028.03 62.4688C1029.09 62.0104 1030.28 61.7812 1031.58 61.7812C1033.56 61.7812 1035.14 62.2812 1036.31 63.2812C1037.49 64.2708 1038.09 65.6667 1038.12 67.4688V75.0938C1038.12 76.6146 1038.34 77.8281 1038.77 78.7344V79H1034.89ZM1030.72 76.2656C1031.47 76.2656 1032.17 76.0833 1032.83 75.7188C1033.49 75.3542 1033.99 74.8646 1034.33 74.25V71.0625H1032.28C1030.88 71.0625 1029.82 71.3073 1029.11 71.7969C1028.4 72.2865 1028.05 72.9792 1028.05 73.875C1028.05 74.6042 1028.29 75.1875 1028.77 75.625C1029.26 76.0521 1029.91 76.2656 1030.72 76.2656ZM1045.67 62.0938L1045.78 63.8594C1046.97 62.474 1048.59 61.7812 1050.66 61.7812C1052.92 61.7812 1054.46 62.6458 1055.3 64.375C1056.53 62.6458 1058.26 61.7812 1060.48 61.7812C1062.35 61.7812 1063.73 62.2969 1064.64 63.3281C1065.56 64.3594 1066.03 65.8802 1066.05 67.8906V79H1062.25V68C1062.25 66.9271 1062.02 66.1406 1061.55 65.6406C1061.08 65.1406 1060.3 64.8906 1059.22 64.8906C1058.35 64.8906 1057.65 65.125 1057.09 65.5938C1056.55 66.0521 1056.17 66.6562 1055.95 67.4062L1055.97 79H1052.17V67.875C1052.12 65.8854 1051.1 64.8906 1049.12 64.8906C1047.6 64.8906 1046.53 65.5104 1045.89 66.75V79H1042.09V62.0938H1045.67Z" fill="white"/>
<path d="M1097.88 76.75L1105.13 69.5L1097.87 62.25" stroke="white" stroke-width="1.5" stroke-linecap="round" stroke-linejoin="round"/>
</g>
<defs>
<filter id="filter0_dd" x="-38" y="-26" width="1583.5" height="411" filterUnits="userSpaceOnUse" color-interpolation-filters="sRGB">
<feFlood flood-opacity="0" result="BackgroundImageFix"/>
<feColorMatrix in="SourceAlpha" type="matrix" values="0 0 0 0 0 0 0 0 0 0 0 0 0 0 0 0 0 0 127 0"/>
<feMorphology radius="4" operator="erode" in="SourceAlpha" result="effect1_dropShadow"/>
<feOffset dy="12"/>
<feGaussianBlur stdDeviation="21"/>
<feColorMatrix type="matrix" values="0 0 0 0 0.0941176 0 0 0 0 0.152941 0 0 0 0 0.294118 0 0 0 0.08 0"/>
<feBlend mode="normal" in2="BackgroundImageFix" result="effect1_dropShadow"/>
<feColorMatrix in="SourceAlpha" type="matrix" values="0 0 0 0 0 0 0 0 0 0 0 0 0 0 0 0 0 0 127 0"/>
<feMorphology radius="6" operator="erode" in="SourceAlpha" result="effect2_dropShadow"/>
<feOffset dy="8"/>
<feGaussianBlur stdDeviation="9"/>
<feColorMatrix type="matrix" values="0 0 0 0 0.0941176 0 0 0 0 0.152941 0 0 0 0 0.294118 0 0 0 0.04 0"/>
<feBlend mode="normal" in2="effect1_dropShadow" result="effect2_dropShadow"/>
<feBlend mode="normal" in="SourceGraphic" in2="effect2_dropShadow" result="shape"/>
</filter>
<filter id="filter1_f" x="-64.9776" y="39.7099" width="1276.64" height="482.311" filterUnits="userSpaceOnUse" color-interpolation-filters="sRGB">
<feFlood flood-opacity="0" result="BackgroundImageFix"/>
<feBlend mode="normal" in="SourceGraphic" in2="BackgroundImageFix" result="shape"/>
<feGaussianBlur stdDeviation="54.4732" result="effect1_foregroundBlur"/>
</filter>
<filter id="filter2_f" x="-64.9776" y="55.8547" width="1276.64" height="482.311" filterUnits="userSpaceOnUse" color-interpolation-filters="sRGB">
<feFlood flood-opacity="0" result="BackgroundImageFix"/>
<feBlend mode="normal" in="SourceGraphic" in2="BackgroundImageFix" result="shape"/>
<feGaussianBlur stdDeviation="54.4732" result="effect1_foregroundBlur"/>
</filter>
<filter id="filter3_f" x="528.96" y="99.2417" width="1154.49" height="437.519" filterUnits="userSpaceOnUse" color-interpolation-filters="sRGB">
<feFlood flood-opacity="0" result="BackgroundImageFix"/>
<feBlend mode="normal" in="SourceGraphic" in2="BackgroundImageFix" result="shape"/>
<feGaussianBlur stdDeviation="54.4732" result="effect1_foregroundBlur"/>
</filter>
<filter id="filter4_f" x="544.19" y="124.803" width="937.471" height="386.733" filterUnits="userSpaceOnUse" color-interpolation-filters="sRGB">
<feFlood flood-opacity="0" result="BackgroundImageFix"/>
<feBlend mode="normal" in="SourceGraphic" in2="BackgroundImageFix" result="shape"/>
<feGaussianBlur stdDeviation="54.4732" result="effect1_foregroundBlur"/>
</filter>
<filter id="filter5_ii" x="200.922" y="8.375" width="145.784" height="280.147" filterUnits="userSpaceOnUse" color-interpolation-filters="sRGB">
<feFlood flood-opacity="0" result="BackgroundImageFix"/>
<feBlend mode="normal" in="SourceGraphic" in2="BackgroundImageFix" result="shape"/>
<feColorMatrix in="SourceAlpha" type="matrix" values="0 0 0 0 0 0 0 0 0 0 0 0 0 0 0 0 0 0 127 0" result="hardAlpha"/>
<feOffset dx="-1" dy="1"/>
<feComposite in2="hardAlpha" operator="arithmetic" k2="-1" k3="1"/>
<feColorMatrix type="matrix" values="0 0 0 0 1 0 0 0 0 0.654167 0 0 0 0 0.717045 0 0 0 0.6 0"/>
<feBlend mode="normal" in2="shape" result="effect1_innerShadow"/>
<feColorMatrix in="SourceAlpha" type="matrix" values="0 0 0 0 0 0 0 0 0 0 0 0 0 0 0 0 0 0 127 0" result="hardAlpha"/>
<feOffset dx="1" dy="-1"/>
<feComposite in2="hardAlpha" operator="arithmetic" k2="-1" k3="1"/>
<feColorMatrix type="matrix" values="0 0 0 0 0 0 0 0 0 0.064853 0 0 0 0 0.2625 0 0 0 0.6 0"/>
<feBlend mode="normal" in2="effect1_innerShadow" result="effect2_innerShadow"/>
</filter>
<filter id="filter6_ii" x="208.565" y="26.0461" width="130.313" height="234.337" filterUnits="userSpaceOnUse" color-interpolation-filters="sRGB">
<feFlood flood-opacity="0" result="BackgroundImageFix"/>
<feBlend mode="normal" in="SourceGraphic" in2="BackgroundImageFix" result="shape"/>
<feColorMatrix in="SourceAlpha" type="matrix" values="0 0 0 0 0 0 0 0 0 0 0 0 0 0 0 0 0 0 127 0" result="hardAlpha"/>
<feOffset dx="-1" dy="1"/>
<feComposite in2="hardAlpha" operator="arithmetic" k2="-1" k3="1"/>
<feColorMatrix type="matrix" values="0 0 0 0 0.325486 0 0 0 0 0.419659 0 0 0 0 0.716667 0 0 0 1 0"/>
<feBlend mode="normal" in2="shape" result="effect1_innerShadow"/>
<feColorMatrix in="SourceAlpha" type="matrix" values="0 0 0 0 0 0 0 0 0 0 0 0 0 0 0 0 0 0 127 0" result="hardAlpha"/>
<feOffset dx="1" dy="-1"/>
<feComposite in2="hardAlpha" operator="arithmetic" k2="-1" k3="1"/>
<feColorMatrix type="matrix" values="0 0 0 0 0.460417 0 0 0 0 0.556401 0 0 0 0 0.85 0 0 0 1 0"/>
<feBlend mode="normal" in2="effect1_innerShadow" result="effect2_innerShadow"/>
</filter>
<filter id="filter7_ii" x="223.46" y="47.0481" width="98.5468" height="40.2088" filterUnits="userSpaceOnUse" color-interpolation-filters="sRGB">
<feFlood flood-opacity="0" result="BackgroundImageFix"/>
<feBlend mode="normal" in="SourceGraphic" in2="BackgroundImageFix" result="shape"/>
<feColorMatrix in="SourceAlpha" type="matrix" values="0 0 0 0 0 0 0 0 0 0 0 0 0 0 0 0 0 0 127 0" result="hardAlpha"/>
<feOffset dx="-1" dy="1"/>
<feComposite in2="hardAlpha" operator="arithmetic" k2="-1" k3="1"/>
<feColorMatrix type="matrix" values="0 0 0 0 0.875 0 0 0 0 0.904661 0 0 0 0 1 0 0 0 1 0"/>
<feBlend mode="normal" in2="shape" result="effect1_innerShadow"/>
<feColorMatrix in="SourceAlpha" type="matrix" values="0 0 0 0 0 0 0 0 0 0 0 0 0 0 0 0 0 0 127 0" result="hardAlpha"/>
<feOffset dx="1" dy="-1"/>
<feComposite in2="hardAlpha" operator="arithmetic" k2="-1" k3="1"/>
<feColorMatrix type="matrix" values="0 0 0 0 0.460417 0 0 0 0 0.556401 0 0 0 0 0.85 0 0 0 1 0"/>
<feBlend mode="normal" in2="effect1_innerShadow" result="effect2_innerShadow"/>
</filter>
<filter id="filter8_ii" x="311.743" y="58.7397" width="15.4632" height="15.4967" filterUnits="userSpaceOnUse" color-interpolation-filters="sRGB">
<feFlood flood-opacity="0" result="BackgroundImageFix"/>
<feBlend mode="normal" in="SourceGraphic" in2="BackgroundImageFix" result="shape"/>
<feColorMatrix in="SourceAlpha" type="matrix" values="0 0 0 0 0 0 0 0 0 0 0 0 0 0 0 0 0 0 127 0" result="hardAlpha"/>
<feOffset dx="0.2" dy="0.5"/>
<feComposite in2="hardAlpha" operator="arithmetic" k2="-1" k3="1"/>
<feColorMatrix type="matrix" values="0 0 0 0 1 0 0 0 0 1 0 0 0 0 1 0 0 0 0.5 0"/>
<feBlend mode="normal" in2="shape" result="effect1_innerShadow"/>
<feColorMatrix in="SourceAlpha" type="matrix" values="0 0 0 0 0 0 0 0 0 0 0 0 0 0 0 0 0 0 127 0" result="hardAlpha"/>
<feOffset dx="-0.3" dy="-0.3"/>
<feComposite in2="hardAlpha" operator="arithmetic" k2="-1" k3="1"/>
<feColorMatrix type="matrix" values="0 0 0 0 0.0601852 0 0 0 0 0.270833 0 0 0 0 0 0 0 0 0.3 0"/>
<feBlend mode="normal" in2="effect1_innerShadow" result="effect2_innerShadow"/>
</filter>
<filter id="filter9_ii" x="223.458" y="142.962" width="98.5468" height="40.2088" filterUnits="userSpaceOnUse" color-interpolation-filters="sRGB">
<feFlood flood-opacity="0" result="BackgroundImageFix"/>
<feBlend mode="normal" in="SourceGraphic" in2="BackgroundImageFix" result="shape"/>
<feColorMatrix in="SourceAlpha" type="matrix" values="0 0 0 0 0 0 0 0 0 0 0 0 0 0 0 0 0 0 127 0" result="hardAlpha"/>
<feOffset dx="-1" dy="1"/>
<feComposite in2="hardAlpha" operator="arithmetic" k2="-1" k3="1"/>
<feColorMatrix type="matrix" values="0 0 0 0 0.875 0 0 0 0 0.904661 0 0 0 0 1 0 0 0 1 0"/>
<feBlend mode="normal" in2="shape" result="effect1_innerShadow"/>
<feColorMatrix in="SourceAlpha" type="matrix" values="0 0 0 0 0 0 0 0 0 0 0 0 0 0 0 0 0 0 127 0" result="hardAlpha"/>
<feOffset dx="1" dy="-1"/>
<feComposite in2="hardAlpha" operator="arithmetic" k2="-1" k3="1"/>
<feColorMatrix type="matrix" values="0 0 0 0 0.460417 0 0 0 0 0.556401 0 0 0 0 0.85 0 0 0 1 0"/>
<feBlend mode="normal" in2="effect1_innerShadow" result="effect2_innerShadow"/>
</filter>
<filter id="filter10_ii" x="311.743" y="154.653" width="15.4632" height="15.4967" filterUnits="userSpaceOnUse" color-interpolation-filters="sRGB">
<feFlood flood-opacity="0" result="BackgroundImageFix"/>
<feBlend mode="normal" in="SourceGraphic" in2="BackgroundImageFix" result="shape"/>
<feColorMatrix in="SourceAlpha" type="matrix" values="0 0 0 0 0 0 0 0 0 0 0 0 0 0 0 0 0 0 127 0" result="hardAlpha"/>
<feOffset dx="0.2" dy="0.5"/>
<feComposite in2="hardAlpha" operator="arithmetic" k2="-1" k3="1"/>
<feColorMatrix type="matrix" values="0 0 0 0 1 0 0 0 0 1 0 0 0 0 1 0 0 0 0.5 0"/>
<feBlend mode="normal" in2="shape" result="effect1_innerShadow"/>
<feColorMatrix in="SourceAlpha" type="matrix" values="0 0 0 0 0 0 0 0 0 0 0 0 0 0 0 0 0 0 127 0" result="hardAlpha"/>
<feOffset dx="-0.3" dy="-0.3"/>
<feComposite in2="hardAlpha" operator="arithmetic" k2="-1" k3="1"/>
<feColorMatrix type="matrix" values="0 0 0 0 0.0601852 0 0 0 0 0.270833 0 0 0 0 0 0 0 0 0.3 0"/>
<feBlend mode="normal" in2="effect1_innerShadow" result="effect2_innerShadow"/>
</filter>
<filter id="filter11_ii" x="222.828" y="95.0049" width="98.5468" height="40.2088" filterUnits="userSpaceOnUse" color-interpolation-filters="sRGB">
<feFlood flood-opacity="0" result="BackgroundImageFix"/>
<feBlend mode="normal" in="SourceGraphic" in2="BackgroundImageFix" result="shape"/>
<feColorMatrix in="SourceAlpha" type="matrix" values="0 0 0 0 0 0 0 0 0 0 0 0 0 0 0 0 0 0 127 0" result="hardAlpha"/>
<feOffset dx="-1" dy="1"/>
<feComposite in2="hardAlpha" operator="arithmetic" k2="-1" k3="1"/>
<feColorMatrix type="matrix" values="0 0 0 0 0.875 0 0 0 0 0.904661 0 0 0 0 1 0 0 0 1 0"/>
<feBlend mode="normal" in2="shape" result="effect1_innerShadow"/>
<feColorMatrix in="SourceAlpha" type="matrix" values="0 0 0 0 0 0 0 0 0 0 0 0 0 0 0 0 0 0 127 0" result="hardAlpha"/>
<feOffset dx="1" dy="-1"/>
<feComposite in2="hardAlpha" operator="arithmetic" k2="-1" k3="1"/>
<feColorMatrix type="matrix" values="0 0 0 0 0.460417 0 0 0 0 0.556401 0 0 0 0 0.85 0 0 0 1 0"/>
<feBlend mode="normal" in2="effect1_innerShadow" result="effect2_innerShadow"/>
</filter>
<filter id="filter12_ii" x="311.11" y="106.697" width="15.4632" height="15.4967" filterUnits="userSpaceOnUse" color-interpolation-filters="sRGB">
<feFlood flood-opacity="0" result="BackgroundImageFix"/>
<feBlend mode="normal" in="SourceGraphic" in2="BackgroundImageFix" result="shape"/>
<feColorMatrix in="SourceAlpha" type="matrix" values="0 0 0 0 0 0 0 0 0 0 0 0 0 0 0 0 0 0 127 0" result="hardAlpha"/>
<feOffset dx="0.2" dy="0.5"/>
<feComposite in2="hardAlpha" operator="arithmetic" k2="-1" k3="1"/>
<feColorMatrix type="matrix" values="0 0 0 0 1 0 0 0 0 1 0 0 0 0 1 0 0 0 0.5 0"/>
<feBlend mode="normal" in2="shape" result="effect1_innerShadow"/>
<feColorMatrix in="SourceAlpha" type="matrix" values="0 0 0 0 0 0 0 0 0 0 0 0 0 0 0 0 0 0 127 0" result="hardAlpha"/>
<feOffset dx="-0.3" dy="-0.3"/>
<feComposite in2="hardAlpha" operator="arithmetic" k2="-1" k3="1"/>
<feColorMatrix type="matrix" values="0 0 0 0 0.0601852 0 0 0 0 0.270833 0 0 0 0 0 0 0 0 0.3 0"/>
<feBlend mode="normal" in2="effect1_innerShadow" result="effect2_innerShadow"/>
</filter>
<filter id="filter13_ii" x="222.828" y="190.92" width="98.5468" height="40.2088" filterUnits="userSpaceOnUse" color-interpolation-filters="sRGB">
<feFlood flood-opacity="0" result="BackgroundImageFix"/>
<feBlend mode="normal" in="SourceGraphic" in2="BackgroundImageFix" result="shape"/>
<feColorMatrix in="SourceAlpha" type="matrix" values="0 0 0 0 0 0 0 0 0 0 0 0 0 0 0 0 0 0 127 0" result="hardAlpha"/>
<feOffset dx="-1" dy="1"/>
<feComposite in2="hardAlpha" operator="arithmetic" k2="-1" k3="1"/>
<feColorMatrix type="matrix" values="0 0 0 0 0.875 0 0 0 0 0.904661 0 0 0 0 1 0 0 0 1 0"/>
<feBlend mode="normal" in2="shape" result="effect1_innerShadow"/>
<feColorMatrix in="SourceAlpha" type="matrix" values="0 0 0 0 0 0 0 0 0 0 0 0 0 0 0 0 0 0 127 0" result="hardAlpha"/>
<feOffset dx="1" dy="-1"/>
<feComposite in2="hardAlpha" operator="arithmetic" k2="-1" k3="1"/>
<feColorMatrix type="matrix" values="0 0 0 0 0.460417 0 0 0 0 0.556401 0 0 0 0 0.85 0 0 0 1 0"/>
<feBlend mode="normal" in2="effect1_innerShadow" result="effect2_innerShadow"/>
</filter>
<filter id="filter14_ii" x="311.11" y="202.611" width="15.4632" height="15.4967" filterUnits="userSpaceOnUse" color-interpolation-filters="sRGB">
<feFlood flood-opacity="0" result="BackgroundImageFix"/>
<feBlend mode="normal" in="SourceGraphic" in2="BackgroundImageFix" result="shape"/>
<feColorMatrix in="SourceAlpha" type="matrix" values="0 0 0 0 0 0 0 0 0 0 0 0 0 0 0 0 0 0 127 0" result="hardAlpha"/>
<feOffset dx="0.2" dy="0.5"/>
<feComposite in2="hardAlpha" operator="arithmetic" k2="-1" k3="1"/>
<feColorMatrix type="matrix" values="0 0 0 0 1 0 0 0 0 1 0 0 0 0 1 0 0 0 0.5 0"/>
<feBlend mode="normal" in2="shape" result="effect1_innerShadow"/>
<feColorMatrix in="SourceAlpha" type="matrix" values="0 0 0 0 0 0 0 0 0 0 0 0 0 0 0 0 0 0 127 0" result="hardAlpha"/>
<feOffset dx="-0.3" dy="-0.3"/>
<feComposite in2="hardAlpha" operator="arithmetic" k2="-1" k3="1"/>
<feColorMatrix type="matrix" values="0 0 0 0 0.0601852 0 0 0 0 0.270833 0 0 0 0 0 0 0 0 0.3 0"/>
<feBlend mode="normal" in2="effect1_innerShadow" result="effect2_innerShadow"/>
</filter>
<filter id="filter15_f" x="314.064" y="126.406" width="177.906" height="103.497" filterUnits="userSpaceOnUse" color-interpolation-filters="sRGB">
<feFlood flood-opacity="0" result="BackgroundImageFix"/>
<feBlend mode="normal" in="SourceGraphic" in2="BackgroundImageFix" result="shape"/>
<feGaussianBlur stdDeviation="20" result="effect1_foregroundBlur"/>
</filter>
<filter id="filter16_f" x="355.312" y="9.98547" width="108.927" height="132.004" filterUnits="userSpaceOnUse" color-interpolation-filters="sRGB">
<feFlood flood-opacity="0" result="BackgroundImageFix"/>
<feBlend mode="normal" in="SourceGraphic" in2="BackgroundImageFix" result="shape"/>
<feGaussianBlur stdDeviation="20" result="effect1_foregroundBlur"/>
</filter>
<filter id="filter17_f" x="22.7725" y="190.861" width="134.276" height="94.9903" filterUnits="userSpaceOnUse" color-interpolation-filters="sRGB">
<feFlood flood-opacity="0" result="BackgroundImageFix"/>
<feBlend mode="normal" in="SourceGraphic" in2="BackgroundImageFix" result="shape"/>
<feGaussianBlur stdDeviation="20" result="effect1_foregroundBlur"/>
</filter>
<linearGradient id="paint0_linear" x1="324.531" y1="0" x2="324.531" y2="335" gradientUnits="userSpaceOnUse">
<stop stop-color="#242731"/>
<stop offset="1" stop-color="#242731" stop-opacity="0.3"/>
</linearGradient>
<linearGradient id="paint1_linear" x1="169.994" y1="94.8983" x2="195.807" y2="129.384" gradientUnits="userSpaceOnUse">
<stop stop-color="#FFDDCA"/>
<stop offset="0.415822" stop-color="#FFB4AF"/>
<stop offset="1" stop-color="#FF8383"/>
</linearGradient>
<linearGradient id="paint2_linear" x1="220.25" y1="302.812" x2="297.567" y2="298.954" gradientUnits="userSpaceOnUse">
<stop stop-color="#FFDDCA"/>
<stop offset="0.322848" stop-color="#FFB4AF"/>
<stop offset="1" stop-color="#E86969"/>
</linearGradient>
<radialGradient id="paint3_radial" cx="0" cy="0" r="1" gradientUnits="userSpaceOnUse" gradientTransform="translate(274.372 265.362) rotate(-91.116) scale(297.722 144.966)">
<stop stop-color="#142969"/>
<stop offset="0.770833" stop-color="#6981CD"/>
<stop offset="1" stop-color="#FF5824"/>
</radialGradient>
<linearGradient id="paint4_linear" x1="223.534" y1="247.928" x2="405.018" y2="186.111" gradientUnits="userSpaceOnUse">
<stop offset="0.0001" stop-color="#A8B8EE"/>
<stop offset="0.625359" stop-color="#C6D3FF"/>
<stop offset="1" stop-color="#D2DDFF"/>
</linearGradient>
<linearGradient id="paint5_linear" x1="234.78" y1="85.1197" x2="281.855" y2="14.4493" gradientUnits="userSpaceOnUse">
<stop offset="0.0001" stop-color="#A8B8EE"/>
<stop offset="0.625359" stop-color="#C6D3FF"/>
<stop offset="1" stop-color="#D2DDFF"/>
</linearGradient>
<linearGradient id="paint6_linear" x1="322.696" y1="71.6536" x2="319.462" y2="62.5408" gradientUnits="userSpaceOnUse">
<stop stop-color="#79B169"/>
<stop offset="1" stop-color="#9EC657"/>
</linearGradient>
<linearGradient id="paint7_linear" x1="234.778" y1="181.034" x2="281.854" y2="110.363" gradientUnits="userSpaceOnUse">
<stop offset="0.0001" stop-color="#A8B8EE"/>
<stop offset="0.625359" stop-color="#C6D3FF"/>
<stop offset="1" stop-color="#D2DDFF"/>
</linearGradient>
<linearGradient id="paint8_linear" x1="322.696" y1="167.567" x2="319.462" y2="158.454" gradientUnits="userSpaceOnUse">
<stop stop-color="#79B169"/>
<stop offset="1" stop-color="#9EC657"/>
</linearGradient>
<linearGradient id="paint9_linear" x1="234.148" y1="133.076" x2="281.224" y2="62.4061" gradientUnits="userSpaceOnUse">
<stop offset="0.0001" stop-color="#A8B8EE"/>
<stop offset="0.625359" stop-color="#C6D3FF"/>
<stop offset="1" stop-color="#D2DDFF"/>
</linearGradient>
<linearGradient id="paint10_linear" x1="322.063" y1="119.61" x2="318.83" y2="110.498" gradientUnits="userSpaceOnUse">
<stop stop-color="#79B169"/>
<stop offset="1" stop-color="#9EC657"/>
</linearGradient>
<linearGradient id="paint11_linear" x1="234.148" y1="228.991" x2="281.224" y2="158.321" gradientUnits="userSpaceOnUse">
<stop offset="0.0001" stop-color="#A8B8EE"/>
<stop offset="0.625359" stop-color="#C6D3FF"/>
<stop offset="1" stop-color="#D2DDFF"/>
</linearGradient>
<linearGradient id="paint12_linear" x1="322.063" y1="215.525" x2="318.83" y2="206.412" gradientUnits="userSpaceOnUse">
<stop stop-color="#79B169"/>
<stop offset="1" stop-color="#9EC657"/>
</linearGradient>
<linearGradient id="paint13_linear" x1="492.907" y1="421.403" x2="454.859" y2="440.707" gradientUnits="userSpaceOnUse">
<stop stop-color="#FFDDCA"/>
<stop offset="0.415822" stop-color="#FFB4AF"/>
<stop offset="1" stop-color="#FF8383"/>
</linearGradient>
<linearGradient id="paint14_linear" x1="385.193" y1="198.855" x2="347.126" y2="225.251" gradientUnits="userSpaceOnUse">
<stop stop-color="#FFDDCA"/>
<stop offset="0.415822" stop-color="#FFB4AF"/>
<stop offset="1" stop-color="#FF8383"/>
</linearGradient>
<linearGradient id="paint15_linear" x1="175.15" y1="251.156" x2="193.811" y2="251.377" gradientUnits="userSpaceOnUse">
<stop stop-color="#FFDDCA"/>
<stop offset="0.415822" stop-color="#FFB4AF"/>
<stop offset="1" stop-color="#FF8383"/>
</linearGradient>
<linearGradient id="paint16_linear" x1="197.68" y1="234.334" x2="197.68" y2="250.688" gradientUnits="userSpaceOnUse">
<stop stop-color="#EF7C7A"/>
<stop offset="1" stop-color="#EF7C7A" stop-opacity="0"/>
</linearGradient>
<linearGradient id="paint17_linear" x1="174.89" y1="218.72" x2="189.644" y2="222.733" gradientUnits="userSpaceOnUse">
<stop stop-color="#FFDDCA"/>
<stop offset="0.415822" stop-color="#FFB4AF"/>
<stop offset="1" stop-color="#FF8383"/>
</linearGradient>
<linearGradient id="paint18_linear" x1="196.505" y1="204.905" x2="196.505" y2="221.166" gradientUnits="userSpaceOnUse">
<stop stop-color="#EF7C7A"/>
<stop offset="1" stop-color="#EF7C7A" stop-opacity="0"/>
</linearGradient>
<linearGradient id="paint19_linear" x1="176.435" y1="169.799" x2="192.544" y2="172.371" gradientUnits="userSpaceOnUse">
<stop stop-color="#FFDDCA"/>
<stop offset="0.415822" stop-color="#FFB4AF"/>
<stop offset="1" stop-color="#FF8383"/>
</linearGradient>
<linearGradient id="paint20_linear" x1="371.576" y1="168.724" x2="371.576" y2="321.508" gradientUnits="userSpaceOnUse">
<stop stop-color="white"/>
<stop offset="1" stop-color="white" stop-opacity="0"/>
</linearGradient>
<linearGradient id="paint21_linear" x1="134.523" y1="331.062" x2="246.725" y2="395.004" gradientUnits="userSpaceOnUse">
<stop stop-color="#FFDDCA"/>
<stop offset="0.331067" stop-color="#FFB4AF"/>
<stop offset="0.864455" stop-color="#FF8383"/>
<stop offset="1" stop-color="#F87A7A"/>
</linearGradient>
<linearGradient id="paint22_linear" x1="225.41" y1="437.116" x2="330.148" y2="228.092" gradientUnits="userSpaceOnUse">
<stop stop-color="#D56765"/>
<stop offset="1" stop-color="#EF7C7A" stop-opacity="0"/>
</linearGradient>
<linearGradient id="paint23_linear" x1="208.607" y1="298.521" x2="208.607" y2="352.619" gradientUnits="userSpaceOnUse">
<stop stop-color="#EF7C7A"/>
<stop offset="1" stop-color="#EF7C7A" stop-opacity="0"/>
</linearGradient>
<linearGradient id="paint24_linear" x1="161.693" y1="305.612" x2="161.693" y2="346.968" gradientUnits="userSpaceOnUse">
<stop stop-color="#EF7C7A"/>
<stop offset="1" stop-color="#EF7C7A" stop-opacity="0"/>
</linearGradient>
<linearGradient id="paint25_linear" x1="119.438" y1="316.914" x2="119.438" y2="348.515" gradientUnits="userSpaceOnUse">
<stop stop-color="#EF7C7A"/>
<stop offset="1" stop-color="#EF7C7A" stop-opacity="0"/>
</linearGradient>
<linearGradient id="paint26_linear" x1="80.0618" y1="334.692" x2="80.0618" y2="558.703" gradientUnits="userSpaceOnUse">
<stop stop-color="white"/>
<stop offset="1" stop-color="white" stop-opacity="0"/>
</linearGradient>
<linearGradient id="paint27_linear" x1="352.944" y1="159.757" x2="359.237" y2="201.081" gradientUnits="userSpaceOnUse">
<stop stop-color="#FBEEB8"/>
<stop offset="0.317708" stop-color="#F6D240"/>
<stop offset="0.508658" stop-color="#F2BC3C"/>
<stop offset="0.6864" stop-color="#E98C35"/>
<stop offset="0.8237" stop-color="#E2632E"/>
<stop offset="0.8238" stop-color="#E2632E"/>
<stop offset="1" stop-color="#D3344A"/>
</linearGradient>
<linearGradient id="paint28_linear" x1="341.16" y1="89.7751" x2="442.197" y2="145.585" gradientUnits="userSpaceOnUse">
<stop stop-color="#FBEEB8"/>
<stop offset="0.178709" stop-color="#F6D240"/>
<stop offset="0.267289" stop-color="#F2BC3C"/>
<stop offset="0.467301" stop-color="#E98C35"/>
<stop offset="0.8237" stop-color="#E2632E"/>
<stop offset="0.8238" stop-color="#E2632E"/>
<stop offset="1" stop-color="#D3344A"/>
</linearGradient>
<linearGradient id="paint29_linear" x1="335.703" y1="22.5361" x2="402.908" y2="163.086" gradientUnits="userSpaceOnUse">
<stop stop-color="#FBEEB8"/>
<stop offset="0.317708" stop-color="#F6D240"/>
<stop offset="0.508658" stop-color="#F2BC3C"/>
<stop offset="0.6864" stop-color="#E98C35"/>
<stop offset="0.8237" stop-color="#E2632E"/>
<stop offset="0.8238" stop-color="#E2632E"/>
<stop offset="1" stop-color="#D3344A"/>
</linearGradient>
<linearGradient id="paint30_linear" x1="335.703" y1="22.5361" x2="402.908" y2="163.086" gradientUnits="userSpaceOnUse">
<stop stop-color="#FBEEB8"/>
<stop offset="0.317708" stop-color="#F6D240"/>
<stop offset="0.508658" stop-color="#F2BC3C"/>
<stop offset="0.6864" stop-color="#E98C35"/>
<stop offset="0.8237" stop-color="#E2632E"/>
<stop offset="0.8238" stop-color="#E2632E"/>
<stop offset="1" stop-color="#D3344A"/>
</linearGradient>
<linearGradient id="paint31_linear" x1="335.703" y1="22.5361" x2="402.908" y2="163.086" gradientUnits="userSpaceOnUse">
<stop stop-color="#FBEEB8"/>
<stop offset="0.317708" stop-color="#F6D240"/>
<stop offset="0.508658" stop-color="#F2BC3C"/>
<stop offset="0.6864" stop-color="#E98C35"/>
<stop offset="0.8237" stop-color="#E2632E"/>
<stop offset="0.8238" stop-color="#E2632E"/>
<stop offset="1" stop-color="#D3344A"/>
</linearGradient>
<linearGradient id="paint32_linear" x1="424.767" y1="39.9628" x2="401.92" y2="150.486" gradientUnits="userSpaceOnUse">
<stop stop-color="#FEFFFF"/>
<stop offset="0.2019" stop-color="#FBEEB8"/>
<stop offset="0.5238" stop-color="#F6D240"/>
<stop offset="0.5718" stop-color="#F2BC3C"/>
<stop offset="0.6864" stop-color="#E98C35"/>
<stop offset="0.7741" stop-color="#E46E30"/>
<stop offset="0.8237" stop-color="#E2632E"/>
<stop offset="0.8248" stop-color="#E2632E"/>
<stop offset="0.8916" stop-color="#DA493E"/>
<stop offset="0.952" stop-color="#D53947"/>
<stop offset="1" stop-color="#D3344A"/>
</linearGradient>
<linearGradient id="paint33_linear" x1="358.19" y1="31.0218" x2="403.5" y2="131.724" gradientUnits="userSpaceOnUse">
<stop stop-color="#FBEEB8"/>
<stop offset="0.317708" stop-color="#F6D240"/>
<stop offset="0.508658" stop-color="#F2BC3C"/>
<stop offset="0.6864" stop-color="#E98C35"/>
<stop offset="0.8237" stop-color="#E2632E"/>
<stop offset="0.8238" stop-color="#E2632E"/>
<stop offset="1" stop-color="#D3344A"/>
</linearGradient>
<linearGradient id="paint34_linear" x1="362.805" y1="72.9049" x2="427.149" y2="117.563" gradientUnits="userSpaceOnUse">
<stop stop-color="#FBEEB8"/>
<stop offset="0.178709" stop-color="#F6D240"/>
<stop offset="0.267289" stop-color="#F2BC3C"/>
<stop offset="0.467301" stop-color="#E98C35"/>
<stop offset="0.8237" stop-color="#E2632E"/>
<stop offset="0.8238" stop-color="#E2632E"/>
<stop offset="1" stop-color="#D3344A"/>
</linearGradient>
<linearGradient id="paint35_linear" x1="400.741" y1="46.6268" x2="386.907" y2="57.2698" gradientUnits="userSpaceOnUse">
<stop stop-color="#FBEEB8"/>
<stop offset="0.317708" stop-color="#F6D240"/>
<stop offset="0.508658" stop-color="#F2BC3C"/>
<stop offset="0.6864" stop-color="#E98C35"/>
<stop offset="0.8237" stop-color="#E2632E"/>
<stop offset="0.8238" stop-color="#E2632E"/>
<stop offset="1" stop-color="#D3344A"/>
</linearGradient>
<linearGradient id="paint36_linear" x1="431.044" y1="17.8436" x2="421.844" y2="81.5852" gradientUnits="userSpaceOnUse">
<stop stop-color="#FBEEB8"/>
<stop offset="0.178709" stop-color="#F6D240"/>
<stop offset="0.267289" stop-color="#F2BC3C"/>
<stop offset="0.467301" stop-color="#E98C35"/>
<stop offset="0.8237" stop-color="#E2632E"/>
<stop offset="0.8238" stop-color="#E2632E"/>
<stop offset="1" stop-color="#D3344A"/>
</linearGradient>
<linearGradient id="paint37_linear" x1="456.483" y1="0.416668" x2="410.447" y2="57.0054" gradientUnits="userSpaceOnUse">
<stop stop-color="#FBEEB8"/>
<stop offset="0.317708" stop-color="#F6D240"/>
<stop offset="0.508658" stop-color="#F2BC3C"/>
<stop offset="0.6864" stop-color="#E98C35"/>
<stop offset="0.8237" stop-color="#E2632E"/>
<stop offset="0.8238" stop-color="#E2632E"/>
<stop offset="1" stop-color="#D3344A"/>
</linearGradient>
<linearGradient id="paint38_linear" x1="456.483" y1="0.416668" x2="410.447" y2="57.0054" gradientUnits="userSpaceOnUse">
<stop stop-color="#FBEEB8"/>
<stop offset="0.317708" stop-color="#F6D240"/>
<stop offset="0.508658" stop-color="#F2BC3C"/>
<stop offset="0.6864" stop-color="#E98C35"/>
<stop offset="0.8237" stop-color="#E2632E"/>
<stop offset="0.8238" stop-color="#E2632E"/>
<stop offset="1" stop-color="#D3344A"/>
</linearGradient>
<linearGradient id="paint39_linear" x1="456.483" y1="0.416668" x2="410.447" y2="57.0054" gradientUnits="userSpaceOnUse">
<stop stop-color="#FBEEB8"/>
<stop offset="0.317708" stop-color="#F6D240"/>
<stop offset="0.508658" stop-color="#F2BC3C"/>
<stop offset="0.6864" stop-color="#E98C35"/>
<stop offset="0.8237" stop-color="#E2632E"/>
<stop offset="0.8238" stop-color="#E2632E"/>
<stop offset="1" stop-color="#D3344A"/>
</linearGradient>
<linearGradient id="paint40_linear" x1="481.244" y1="51.4033" x2="433.399" y2="72.9547" gradientUnits="userSpaceOnUse">
<stop stop-color="#FEFFFF"/>
<stop offset="0.2019" stop-color="#FBEEB8"/>
<stop offset="0.5238" stop-color="#F6D240"/>
<stop offset="0.5718" stop-color="#F2BC3C"/>
<stop offset="0.6864" stop-color="#E98C35"/>
<stop offset="0.7741" stop-color="#E46E30"/>
<stop offset="0.8237" stop-color="#E2632E"/>
<stop offset="0.8248" stop-color="#E2632E"/>
<stop offset="0.8916" stop-color="#DA493E"/>
<stop offset="0.952" stop-color="#D53947"/>
<stop offset="1" stop-color="#D3344A"/>
</linearGradient>
<linearGradient id="paint41_linear" x1="461.708" y1="13.3766" x2="428.654" y2="52.5507" gradientUnits="userSpaceOnUse">
<stop stop-color="#FBEEB8"/>
<stop offset="0.317708" stop-color="#F6D240"/>
<stop offset="0.508658" stop-color="#F2BC3C"/>
<stop offset="0.6864" stop-color="#E98C35"/>
<stop offset="0.8237" stop-color="#E2632E"/>
<stop offset="0.8238" stop-color="#E2632E"/>
<stop offset="1" stop-color="#D3344A"/>
</linearGradient>
<linearGradient id="paint42_linear" x1="447.21" y1="24.7216" x2="436.998" y2="64.8963" gradientUnits="userSpaceOnUse">
<stop stop-color="#FBEEB8"/>
<stop offset="0.178709" stop-color="#F6D240"/>
<stop offset="0.267289" stop-color="#F2BC3C"/>
<stop offset="0.467301" stop-color="#E98C35"/>
<stop offset="0.8237" stop-color="#E2632E"/>
<stop offset="0.8238" stop-color="#E2632E"/>
<stop offset="1" stop-color="#D3344A"/>
</linearGradient>
<linearGradient id="paint43_linear" x1="63.0043" y1="226.422" x2="66.828" y2="251.819" gradientUnits="userSpaceOnUse">
<stop stop-color="#FBEEB8"/>
<stop offset="0.317708" stop-color="#F6D240"/>
<stop offset="0.508658" stop-color="#F2BC3C"/>
<stop offset="0.6864" stop-color="#E98C35"/>
<stop offset="0.8237" stop-color="#E2632E"/>
<stop offset="0.8238" stop-color="#E2632E"/>
<stop offset="1" stop-color="#D3344A"/>
</linearGradient>
<linearGradient id="paint44_linear" x1="58.6265" y1="187.437" x2="111.091" y2="219.637" gradientUnits="userSpaceOnUse">
<stop stop-color="#FBEEB8"/>
<stop offset="0.178709" stop-color="#F6D240"/>
<stop offset="0.267289" stop-color="#F2BC3C"/>
<stop offset="0.467301" stop-color="#E98C35"/>
<stop offset="0.8237" stop-color="#E2632E"/>
<stop offset="0.8238" stop-color="#E2632E"/>
<stop offset="1" stop-color="#D3344A"/>
</linearGradient>
<linearGradient id="paint45_linear" x1="59.5344" y1="147.946" x2="97.0575" y2="226.564" gradientUnits="userSpaceOnUse">
<stop stop-color="#FBEEB8"/>
<stop offset="0.317708" stop-color="#F6D240"/>
<stop offset="0.508658" stop-color="#F2BC3C"/>
<stop offset="0.6864" stop-color="#E98C35"/>
<stop offset="0.8237" stop-color="#E2632E"/>
<stop offset="0.8238" stop-color="#E2632E"/>
<stop offset="1" stop-color="#D3344A"/>
</linearGradient>
<linearGradient id="paint46_linear" x1="59.5344" y1="147.946" x2="97.0575" y2="226.564" gradientUnits="userSpaceOnUse">
<stop stop-color="#FBEEB8"/>
<stop offset="0.317708" stop-color="#F6D240"/>
<stop offset="0.508658" stop-color="#F2BC3C"/>
<stop offset="0.6864" stop-color="#E98C35"/>
<stop offset="0.8237" stop-color="#E2632E"/>
<stop offset="0.8238" stop-color="#E2632E"/>
<stop offset="1" stop-color="#D3344A"/>
</linearGradient>
<linearGradient id="paint47_linear" x1="59.5344" y1="147.946" x2="97.0575" y2="226.564" gradientUnits="userSpaceOnUse">
<stop stop-color="#FBEEB8"/>
<stop offset="0.317708" stop-color="#F6D240"/>
<stop offset="0.508658" stop-color="#F2BC3C"/>
<stop offset="0.6864" stop-color="#E98C35"/>
<stop offset="0.8237" stop-color="#E2632E"/>
<stop offset="0.8238" stop-color="#E2632E"/>
<stop offset="1" stop-color="#D3344A"/>
</linearGradient>
<linearGradient id="paint48_linear" x1="106.476" y1="159.233" x2="90.4378" y2="224.654" gradientUnits="userSpaceOnUse">
<stop stop-color="#FEFFFF"/>
<stop offset="0.2019" stop-color="#FBEEB8"/>
<stop offset="0.5238" stop-color="#F6D240"/>
<stop offset="0.5718" stop-color="#F2BC3C"/>
<stop offset="0.6864" stop-color="#E98C35"/>
<stop offset="0.7741" stop-color="#E46E30"/>
<stop offset="0.8237" stop-color="#E2632E"/>
<stop offset="0.8248" stop-color="#E2632E"/>
<stop offset="0.8916" stop-color="#DA493E"/>
<stop offset="0.952" stop-color="#D53947"/>
<stop offset="1" stop-color="#D3344A"/>
</linearGradient>
<linearGradient id="paint49_linear" x1="70.831" y1="153.397" x2="96.2503" y2="209.99" gradientUnits="userSpaceOnUse">
<stop stop-color="#FBEEB8"/>
<stop offset="0.317708" stop-color="#F6D240"/>
<stop offset="0.508658" stop-color="#F2BC3C"/>
<stop offset="0.6864" stop-color="#E98C35"/>
<stop offset="0.8237" stop-color="#E2632E"/>
<stop offset="0.8238" stop-color="#E2632E"/>
<stop offset="1" stop-color="#D3344A"/>
</linearGradient>
<linearGradient id="paint50_linear" x1="70.5293" y1="178.147" x2="104.386" y2="203.478" gradientUnits="userSpaceOnUse">
<stop stop-color="#FBEEB8"/>
<stop offset="0.178709" stop-color="#F6D240"/>
<stop offset="0.267289" stop-color="#F2BC3C"/>
<stop offset="0.467301" stop-color="#E98C35"/>
<stop offset="0.8237" stop-color="#E2632E"/>
<stop offset="0.8238" stop-color="#E2632E"/>
<stop offset="1" stop-color="#D3344A"/>
</linearGradient>
<clipPath id="clip0">
<rect width="1507.5" height="335" fill="white"/>
</clipPath>
</defs>
</svg>
