<svg width="720" height="160" viewBox="0 0 720 160" fill="none" xmlns="http://www.w3.org/2000/svg">
<g clip-path="url(#clip0)">
<g filter="url(#filter0_dd)">
<rect width="720" height="160" rx="12" fill="#242731"/>
</g>
<mask id="mask0" mask-type="alpha" maskUnits="userSpaceOnUse" x="0" y="0" width="720" height="160">
<rect width="720" height="160" rx="12" fill="#242731"/>
</mask>
<g mask="url(#mask0)">
<g filter="url(#filter1_f)">
<path d="M165.902 106.005C118.477 97.655 123.741 75.1653 71.7989 71.4675C-17.6557 65.0992 29.8345 125.402 71.7989 154.035C152.829 209.323 569.974 214.043 522.992 154.035C503.151 128.694 474.371 107.941 401.84 102.069C349.185 97.8061 321.29 113.714 267.278 113.394C226.86 113.154 202.083 112.375 165.902 106.005Z" fill="#242DFF"/>
</g>
<g filter="url(#filter2_f)">
<path d="M165.902 113.715C118.477 105.366 123.741 82.876 71.7989 79.1782C-17.6557 72.8099 29.8345 133.113 71.7989 161.746C152.829 217.034 569.974 221.754 522.992 161.746C503.151 136.404 474.371 115.652 401.84 109.78C349.185 105.517 321.29 121.425 267.278 121.105C226.86 120.865 202.083 120.085 165.902 113.715Z" fill="#FF5824"/>
</g>
<g filter="url(#filter3_f)">
<ellipse cx="528.336" cy="151.881" rx="223.664" ry="52.4481" fill="#FF4545"/>
</g>
<g filter="url(#filter4_f)">
<ellipse cx="483.786" cy="151.962" rx="171.84" ry="40.32" fill="#FF5824"/>
</g>
</g>
<mask id="mask1" mask-type="alpha" maskUnits="userSpaceOnUse" x="0" y="0" width="310" height="160">
<rect width="310" height="160" rx="12" fill="url(#paint0_linear)"/>
</mask>
<g mask="url(#mask1)">
<path d="M185.066 124.942C185.066 124.942 163.997 141.806 157.407 125.297C153.007 114.22 119.645 88.859 99.0465 70.6686C88.8825 61.6937 81.8414 54.4724 82.905 51.5889C82.9285 51.5033 82.9727 51.4193 83.0169 51.3558C83.8639 49.5992 86.5831 49.229 90.5382 49.9104C93.4519 50.3986 97.0152 51.4561 101.017 52.9517C116.668 58.7512 138.671 71.0728 151.663 81.5182C152.755 82.3958 153.824 83.2941 154.894 84.2365C157.305 86.3177 159.649 88.5242 161.927 90.7734C178.109 106.948 185.066 124.942 185.066 124.942Z" fill="url(#paint1_linear)"/>
<path d="M187.306 149.744C186.845 161.703 175.881 190.778 168.846 204.379C166.833 208.243 165.559 210.61 165.559 210.61L157.531 203.988C156.493 202.454 155.51 200.977 154.545 199.56C152.312 195.703 148.633 189.69 145.342 186.097C144.389 185.061 143.338 184.024 142.213 182.967C142.213 182.948 142.195 182.929 142.176 182.929C137.244 178.268 131.18 172.912 127.897 162.542C127.197 160.364 126.384 155.33 125.808 153.632C123.825 145.188 122.97 142.202 123.479 138.881C123.989 135.559 125.882 131.885 129.955 126.416C133.595 121.533 140.167 119.943 146.544 114.965C152.707 110.154 159.293 106.176 164.6 104.773C168.62 103.689 171.939 104.104 173.777 106.747C175.82 109.661 178.369 113.048 180.911 116.778C186.828 125.443 187.721 139.029 187.306 149.744Z" fill="url(#paint2_linear)"/>
<g filter="url(#filter5_ii)">
<path d="M155.47 136.635L154.217 136.663L137.678 137.079L131.121 137.243L116.758 137.607L109.675 137.786L109.432 137.798C103.735 137.948 98.9352 133.392 98.8097 127.668L95.9645 15.801C95.8373 10.1 100.385 5.3156 106.082 5.16646L152.12 4.00347C157.838 3.856 162.613 8.43088 162.745 14.1118L165.084 106.834L165.587 125.999C165.716 131.701 161.169 136.484 155.47 136.635Z" fill="url(#paint3_radial)"/>
</g>
<g filter="url(#filter6_ii)">
<path d="M154.025 123.314L110.207 124.36C105.792 124.472 102.088 120.946 101.976 116.525L99.6159 21.7297C99.5038 17.309 103.025 13.6005 107.44 13.4882L151.259 12.4426C155.674 12.3303 159.378 15.8561 159.49 20.2768L161.85 115.072C161.962 119.495 158.44 123.203 154.025 123.314Z" fill="url(#paint4_linear)"/>
</g>
<path d="M133.442 133.852C135.153 133.713 136.428 132.211 136.29 130.497C136.151 128.783 134.651 127.507 132.939 127.646C131.227 127.785 129.952 129.287 130.091 131.001C130.23 132.714 131.73 133.991 133.442 133.852Z" fill="#0A1331"/>
<path d="M139.631 7.71504L121.412 8.17588C121.081 8.18426 120.818 8.46243 120.826 8.79256L120.833 9.05902C120.841 9.39082 121.119 9.65392 121.449 9.64554L139.668 9.1847C139.999 9.17632 140.262 8.89814 140.254 8.56801L140.247 8.30156C140.239 7.96976 139.961 7.70666 139.631 7.71504Z" fill="#31478B"/>
<g filter="url(#filter7_ii)">
<path d="M148.932 40.7416L112.049 41.6734C109.306 41.7421 107.006 39.5535 106.937 36.8069L106.728 28.5218C106.66 25.7752 108.845 23.4727 111.588 23.404L148.472 22.4723C151.215 22.4036 153.514 24.5921 153.583 27.3387L153.792 35.6238C153.861 38.3687 151.675 40.6712 148.932 40.7416Z" fill="url(#paint5_linear)"/>
</g>
<path d="M123.551 32.0258C123.546 34.9433 121.751 37.4419 119.221 38.5027C118.387 38.8562 117.477 39.0389 116.521 39.0372C115.551 39.0356 114.625 38.8328 113.778 38.4758C111.266 37.405 109.499 34.9014 109.504 31.9973C109.511 28.1061 112.664 24.9623 116.55 24.9707C120.419 24.9774 123.559 28.1346 123.551 32.0258Z" fill="#E5EBFF"/>
<path d="M118.509 32.4652C118.997 31.2412 118.402 29.8524 117.18 29.3634C115.957 28.8743 114.57 29.4702 114.082 30.6943C113.593 31.9183 114.188 33.3071 115.411 33.7961C116.633 34.2852 118.02 33.6893 118.509 32.4652Z" fill="#BAC9F9"/>
<path d="M112.097 37.4581C112.194 37.083 112.349 36.7275 112.552 36.3997C113.471 35.4288 114.804 34.8367 116.274 34.8391C117.789 34.8415 119.142 35.4624 120.059 36.4813C120.295 36.8779 120.455 37.3156 120.532 37.781C120.124 38.0656 119.685 38.3082 119.222 38.5025C118.388 38.8561 117.478 39.0388 116.522 39.0371C115.551 39.0354 114.626 38.8327 113.779 38.4757C113.169 38.2159 112.604 37.8718 112.097 37.4581Z" fill="#BAC9F9"/>
<path d="M126.121 28.5488L145.657 28.0547" stroke="white" stroke-linecap="round"/>
<path d="M126.122 31.0156L137.2 30.7358" stroke="white" stroke-linecap="round"/>
<path d="M126.121 33.4828L142.123 33.2031" stroke="white" stroke-linecap="round"/>
<path d="M126.122 37.1838L131.661 37.0439" stroke="white" stroke-linecap="round"/>
<g filter="url(#filter8_ii)">
<path d="M152.584 35.4561C154.624 35.4561 156.277 33.7992 156.277 31.7554C156.277 29.7115 154.624 28.0547 152.584 28.0547C150.545 28.0547 148.892 29.7115 148.892 31.7554C148.892 33.7992 150.545 35.4561 152.584 35.4561Z" fill="url(#paint6_linear)"/>
</g>
<path d="M152.583 32.984C152.457 32.9654 152.346 32.9063 152.276 32.8161L151.427 31.7275C151.289 31.5502 151.351 31.3154 151.564 31.2019C151.777 31.0899 152.061 31.1428 152.201 31.3154L152.659 31.9032L153.582 30.6996C153.719 30.5223 153.996 30.4679 154.216 30.5814C154.431 30.6949 154.495 30.9282 154.36 31.1055L153.052 32.8114C152.969 32.9218 152.823 32.9871 152.666 32.9887C152.636 32.9902 152.61 32.9871 152.583 32.984Z" fill="white"/>
<g filter="url(#filter9_ii)">
<path d="M148.931 86.5512L112.048 87.4829C109.305 87.5516 107.005 85.3631 106.936 82.6165L106.727 74.3314C106.659 71.5848 108.844 69.2823 111.587 69.2136L148.471 68.2818C151.214 68.2131 153.513 70.4017 153.582 73.1483L153.791 81.4334C153.86 84.1783 151.674 86.4808 148.931 86.5512Z" fill="url(#paint7_linear)"/>
</g>
<path d="M123.549 77.8353C123.544 80.7529 121.75 83.2515 119.219 84.3122C118.386 84.6658 117.475 84.8485 116.519 84.8468C115.549 84.8451 114.623 84.6424 113.776 84.2854C111.264 83.2146 109.497 80.711 109.502 77.8068C109.509 73.9157 112.662 70.7719 116.548 70.7803C120.417 70.787 123.557 73.9442 123.549 77.8353Z" fill="#E5EBFF"/>
<path d="M118.508 78.2748C118.996 77.0507 118.401 75.662 117.179 75.1729C115.956 74.6839 114.569 75.2798 114.081 76.5038C113.592 77.7279 114.187 79.1167 115.41 79.6057C116.632 80.0947 118.019 79.4989 118.508 78.2748Z" fill="#BAC9F9"/>
<path d="M112.095 83.2679C112.192 82.8928 112.347 82.5373 112.55 82.2096C113.469 81.2387 114.802 80.6465 116.272 80.6489C117.787 80.6513 119.14 81.2722 120.057 82.2911C120.293 82.6877 120.453 83.1254 120.53 83.5908C120.122 83.8754 119.683 84.118 119.22 84.3123C118.386 84.6659 117.476 84.8486 116.52 84.8469C115.549 84.8452 114.624 84.6425 113.777 84.2855C113.167 84.0257 112.602 83.6816 112.095 83.2679Z" fill="#BAC9F9"/>
<path d="M126.121 74.3581L145.657 73.864" stroke="white" stroke-linecap="round"/>
<path d="M126.122 76.8251L137.2 76.5454" stroke="white" stroke-linecap="round"/>
<path d="M126.121 79.2922L142.123 79.0125" stroke="white" stroke-linecap="round"/>
<path d="M126.122 82.9931L131.661 82.8533" stroke="white" stroke-linecap="round"/>
<g filter="url(#filter10_ii)">
<path d="M152.584 81.2657C154.624 81.2657 156.277 79.6088 156.277 77.5649C156.277 75.5211 154.624 73.8643 152.584 73.8643C150.545 73.8643 148.892 75.5211 148.892 77.5649C148.892 79.6088 150.545 81.2657 152.584 81.2657Z" fill="url(#paint8_linear)"/>
</g>
<path d="M152.583 78.7936C152.457 78.7749 152.346 78.7158 152.276 78.6256L151.427 77.5371C151.289 77.3598 151.351 77.125 151.564 77.0114C151.777 76.8995 152.061 76.9524 152.201 77.125L152.659 77.7128L153.582 76.5092C153.719 76.3319 153.996 76.2774 154.216 76.391C154.431 76.5045 154.495 76.7378 154.36 76.915L153.052 78.621C152.969 78.7314 152.823 78.7967 152.666 78.7983C152.636 78.7998 152.61 78.7967 152.583 78.7936Z" fill="white"/>
<g filter="url(#filter11_ii)">
<path d="M148.631 63.6464L111.748 64.5781C109.005 64.6468 106.705 62.4583 106.637 59.7117L106.427 51.4266C106.359 48.68 108.544 46.3775 111.288 46.3088L148.171 45.3771C150.914 45.3084 153.214 47.4969 153.282 50.2435L153.491 58.5286C153.56 61.2735 151.374 63.576 148.631 63.6464Z" fill="url(#paint9_linear)"/>
</g>
<path d="M123.248 54.9305C123.243 57.8481 121.449 60.3467 118.918 61.4074C118.085 61.761 117.174 61.9437 116.219 61.942C115.248 61.9403 114.322 61.7376 113.476 61.3806C110.964 60.3098 109.196 57.8062 109.201 54.9021C109.208 51.0109 112.361 47.8671 116.247 47.8755C120.117 47.8822 123.256 51.0394 123.248 54.9305Z" fill="#E5EBFF"/>
<path d="M118.205 55.37C118.693 54.146 118.098 52.7572 116.876 52.2682C115.653 51.7791 114.266 52.375 113.778 53.599C113.29 54.8231 113.885 56.2119 115.107 56.7009C116.33 57.19 117.717 56.5941 118.205 55.37Z" fill="#BAC9F9"/>
<path d="M111.792 60.3631C111.89 59.988 112.044 59.6325 112.247 59.3048C113.167 58.3339 114.5 57.7418 115.97 57.7441C117.485 57.7465 118.838 58.3674 119.755 59.3863C119.99 59.783 120.151 60.2207 120.227 60.686C119.819 60.9706 119.38 61.2132 118.917 61.4076C118.083 61.7612 117.173 61.9438 116.217 61.9421C115.247 61.9405 114.321 61.7377 113.474 61.3808C112.865 61.121 112.299 60.7768 111.792 60.3631Z" fill="#BAC9F9"/>
<path d="M125.817 51.4536L145.354 50.9595" stroke="white" stroke-linecap="round"/>
<path d="M125.817 53.9203L136.896 53.6406" stroke="white" stroke-linecap="round"/>
<path d="M125.816 56.3876L141.818 56.1079" stroke="white" stroke-linecap="round"/>
<path d="M125.817 60.0886L131.356 59.9487" stroke="white" stroke-linecap="round"/>
<g filter="url(#filter12_ii)">
<path d="M152.284 58.3609C154.323 58.3609 155.976 56.704 155.976 54.6602C155.976 52.6163 154.323 50.9595 152.284 50.9595C150.244 50.9595 148.591 52.6163 148.591 54.6602C148.591 56.704 150.244 58.3609 152.284 58.3609Z" fill="url(#paint10_linear)"/>
</g>
<path d="M152.282 55.8886C152.155 55.8699 152.044 55.8108 151.974 55.7206L151.125 54.632C150.987 54.4548 151.05 54.2199 151.262 54.1064C151.475 53.9945 151.76 54.0473 151.899 54.2199L152.357 54.8078L153.28 53.6041C153.417 53.4268 153.694 53.3724 153.915 53.4859C154.129 53.5995 154.193 53.8327 154.058 54.01L152.751 55.7159C152.668 55.8264 152.521 55.8917 152.364 55.8932C152.334 55.8948 152.308 55.8917 152.282 55.8886Z" fill="white"/>
<g filter="url(#filter13_ii)">
<path d="M148.631 109.456L111.748 110.388C109.005 110.457 106.705 108.268 106.637 105.521L106.427 97.2364C106.359 94.4898 108.544 92.1873 111.288 92.1186L148.171 91.1869C150.914 91.1182 153.214 93.3067 153.282 96.0533L153.491 104.338C153.56 107.083 151.374 109.386 148.631 109.456Z" fill="url(#paint11_linear)"/>
</g>
<path d="M123.249 100.74C123.244 103.658 121.45 106.156 118.919 107.217C118.086 107.571 117.175 107.754 116.22 107.752C115.249 107.75 114.323 107.547 113.477 107.19C110.964 106.12 109.197 103.616 109.202 100.712C109.209 96.8207 112.362 93.6769 116.248 93.6853C120.118 93.692 123.257 96.8492 123.249 100.74Z" fill="#E5EBFF"/>
<path d="M118.205 101.18C118.693 99.9558 118.098 98.567 116.876 98.078C115.653 97.5889 114.266 98.1848 113.778 99.4089C113.29 100.633 113.885 102.022 115.107 102.511C116.33 103 117.717 102.404 118.205 101.18Z" fill="#BAC9F9"/>
<path d="M111.794 106.173C111.892 105.798 112.046 105.442 112.249 105.114C113.169 104.143 114.502 103.551 115.972 103.554C117.487 103.556 118.84 104.177 119.757 105.196C119.992 105.593 120.153 106.03 120.229 106.496C119.821 106.78 119.382 107.023 118.919 107.217C118.085 107.571 117.175 107.753 116.219 107.752C115.249 107.75 114.323 107.547 113.476 107.19C112.867 106.931 112.301 106.586 111.794 106.173Z" fill="#BAC9F9"/>
<path d="M125.818 97.2632L145.355 96.769" stroke="white" stroke-linecap="round"/>
<path d="M125.818 99.7299L136.897 99.4502" stroke="white" stroke-linecap="round"/>
<path d="M125.817 102.197L141.819 101.917" stroke="white" stroke-linecap="round"/>
<path d="M125.817 105.898L131.356 105.758" stroke="white" stroke-linecap="round"/>
<g filter="url(#filter14_ii)">
<path d="M152.284 104.171C154.323 104.171 155.976 102.514 155.976 100.47C155.976 98.4261 154.323 96.7693 152.284 96.7693C150.244 96.7693 148.591 98.4261 148.591 100.47C148.591 102.514 150.244 104.171 152.284 104.171Z" fill="url(#paint12_linear)"/>
</g>
<path d="M152.281 101.698C152.154 101.68 152.043 101.621 151.974 101.53L151.124 100.442C150.986 100.265 151.049 100.03 151.261 99.9162C151.474 99.8043 151.759 99.8571 151.898 100.03L152.356 100.618L153.279 99.4139C153.416 99.2367 153.693 99.1822 153.914 99.2957C154.128 99.4093 154.193 99.6425 154.057 99.8198L152.75 101.526C152.667 101.636 152.52 101.701 152.363 101.703C152.333 101.705 152.307 101.701 152.281 101.698Z" fill="white"/>
<path d="M154.6 199.148C155.565 200.565 156.548 202.042 157.586 203.576C164.414 213.736 172.681 232.433 180.484 249.021C187.514 263.963 205.269 268.538 219.507 260.184C236.849 250.008 240.197 226.214 226.715 211.293C215.531 198.914 205.893 187.908 204.208 185.483C196.781 174.795 160.482 127.388 158.343 138.201C157.614 141.919 155.836 146.459 154.185 151.365C151.716 158.742 149.537 166.91 151.735 174.291L151.754 174.31C152.307 176.217 153.167 178.074 154.392 179.843C154.932 180.62 155.318 181.317 155.572 181.955C155.645 182.148 155.717 182.322 155.771 182.494C157.77 188.434 146.946 186.542 142.119 182.381C142.157 182.421 142.194 182.459 142.231 182.518C142.25 182.518 142.268 182.537 142.268 182.556C144.099 184.624 147.645 188.872 151.243 194.176C152.301 195.729 153.413 197.381 154.6 199.148Z" fill="url(#paint13_linear)"/>
<path d="M202.029 182.92C202.029 182.92 188.902 151.216 188.886 142.216C188.869 133.214 194.273 125.486 187.777 104.875C181.282 84.2628 171.136 77.6344 170.302 70.658C169.469 63.6815 169.656 53.6269 166.786 53.6313C163.917 53.6372 154.906 56.534 154.732 72.745C154.559 88.956 158.421 84.1433 160.501 100.146C162.581 116.149 151.524 110.915 152.823 148.057C154.124 185.198 189.184 192.52 190.003 191.902C190.822 191.285 202.029 182.92 202.029 182.92Z" fill="url(#paint14_linear)"/>
<path opacity="0.4" d="M168.49 55.4234C168.49 55.4234 166.866 54.298 164.866 56.8673C162.866 59.4367 164.719 69.1801 165.532 70.4618C166.345 71.7435 169.5 71.2745 169.882 70.0429C170.263 68.8113 169.343 55.6623 168.49 55.4234Z" fill="white"/>
<path d="M100.977 127.746C98.0335 129.395 90.5004 128.453 87.0712 123.274C85.1813 120.41 85.7145 117.605 86.5541 115.67C87.245 114.121 88.1524 113.124 88.1524 113.124C90.8348 110.261 93.5673 113.027 99.0956 115.957C100.573 116.738 101.603 117.823 102.268 119.034C104.099 122.335 103.129 126.531 100.977 127.746Z" fill="url(#paint15_linear)"/>
<path d="M102.272 119.035C97.2121 121.074 90.6497 118.235 86.5576 115.671C87.2485 114.122 88.1559 113.125 88.1559 113.125C90.8383 110.263 93.5707 113.028 99.0991 115.959C100.575 116.739 101.605 117.825 102.272 119.035Z" fill="url(#paint16_linear)"/>
<path opacity="0.4" d="M92.0504 123.232C92.2949 122.621 92.8562 122.266 93.3938 122.338C94.9788 122.552 99.5983 122.226 99.7014 124.291C99.8339 126.934 99.0341 128.236 98.1738 128.136C96.1086 127.894 92.0548 126.925 91.828 125.184C91.7219 124.364 91.8589 123.711 92.0504 123.232Z" fill="white"/>
<path d="M99.1017 116.481C95.6887 117.892 87.6268 115.873 84.5717 109.78C81.7906 104.226 86.1375 99.7536 86.9359 98.9925C87.0243 98.9085 87.067 98.8745 87.067 98.8745C90.3533 96.1135 92.9665 99.4807 98.6112 103.394C99.5289 104.021 100.24 104.754 100.771 105.541C103.652 109.64 101.98 115.307 99.1017 116.481Z" fill="url(#paint17_linear)"/>
<path opacity="0.4" d="M88.5504 109.864C88.8745 109.056 89.6154 108.587 90.3269 108.683C92.423 108.966 98.5302 108.536 98.6672 111.266C98.8425 114.761 97.7863 116.482 96.6477 116.35C93.9181 116.03 88.5563 114.748 88.2587 112.449C88.1173 111.361 88.297 110.497 88.5504 109.864Z" fill="white"/>
<path d="M100.772 105.541C99.9071 105.656 98.901 105.674 97.7653 105.521C94.5261 105.083 89.671 101.45 86.9355 98.9925C87.0239 98.9085 87.0666 98.8745 87.0666 98.8745C90.353 96.1135 92.9662 99.4807 98.6108 103.394C99.53 104.021 100.241 104.755 100.772 105.541Z" fill="url(#paint18_linear)"/>
<path d="M97.543 69.6561C97.543 69.6561 86.9858 67.4835 84.8027 75.3036C84.0161 78.1222 84.3623 87.7033 85.9002 90.8715C89.8685 99.05 93.5599 105.015 99.6568 102.703C105.771 100.386 103.94 93.5618 101.634 89.5278C99.3269 85.4939 97.5003 83.6355 97.7552 83.0706C98.0115 82.5057 97.543 69.6561 97.543 69.6561Z" fill="url(#paint19_linear)"/>
<path opacity="0.4" d="M89.817 90.1887C90.4298 89.6017 91.3681 89.5441 92.0855 89.9955C94.1978 91.3273 99.5744 95.1548 98.7996 97.7654C97.8082 101.106 95.3998 102.823 94.5322 101.793C93.6661 100.764 88.179 94.7359 88.6386 92.4439C88.8566 91.3598 89.3383 90.6474 89.817 90.1887Z" fill="white"/>
<path d="M172.725 82.3545C173.288 82.8427 173.752 83.3147 174.014 83.5964C182.152 92.3649 185.915 104.496 186.681 116.442C187.447 128.387 185.471 140.322 183.463 152.122C183.366 152.69 183.179 153.364 182.627 153.523C181.741 153.777 181.26 152.517 181.233 151.595C181.017 144.038 182.379 136.523 182.571 128.965C182.951 113.959 178.572 98.8664 170.221 86.4003C169.552 85.4018 167.154 82.1082 168.484 80.918C169.539 79.9769 171.402 81.21 172.725 82.3545Z" fill="url(#paint20_linear)"/>
<path opacity="0.3" d="M140.686 133.307C141.502 130.633 142.339 127.785 143.195 124.799C150.523 98.965 141.155 94.9016 141.155 94.9016L123.77 133.734L122.78 135.945L121.502 137.534L139.562 136.917C139.746 136.343 139.931 135.761 140.113 135.172C140.305 134.56 140.495 133.939 140.686 133.307Z" fill="#14275F"/>
<path d="M140.488 189.178C144.823 183.08 163.344 170.945 163.344 170.945C169.458 166.673 164.406 162.802 151.169 164.526C148.086 164.92 144.521 165.595 140.577 166.664C132.886 168.753 121.346 181.486 116.332 188.322C115.299 189.69 113.141 188.952 113.18 187.238C113.462 176.864 114.564 162.274 117.705 154.449C117.907 153.955 118.13 153.443 118.375 152.917C125.192 137.014 140.336 115.747 142.593 106.605C142.816 105.669 144.538 100.629 144.58 99.7452C144.624 99.2674 144.651 98.788 144.651 98.3632C144.511 90.2496 136.319 87.9045 131.509 96.1007C127.212 103.362 114.545 122.061 110.379 134.223C109.602 136.493 107.877 138.393 105.562 139.017C104.717 139.245 103.944 139.253 103.325 138.921C99.9237 137.108 94.9964 131.881 88.733 138.683C82.4329 145.48 78.9344 143.384 76.1577 142.371C73.3295 141.312 69.6351 138.241 65.733 142.987C62.1285 147.387 58.3222 150.136 54.9268 149.425C51.5109 148.712 48.5898 149.63 45.8264 159.089C45.7543 159.331 45.6806 159.592 45.6261 159.855C42.9628 170.004 40.6163 197.814 40.5957 205.674C40.5883 213.728 39.9387 216.538 33.5958 226.787C31.5773 229.866 28.7812 236.853 25.9628 244.803C20.4535 260.344 30.3179 276.829 46.4206 280.343C60.7709 283.474 75.1413 275.147 79.5684 261.135L86.8726 238.02L87.3778 236.137C89.8231 229.744 98.6112 234.818 108.697 228.283C111.615 226.398 115.122 222.855 118.739 218.65C127.715 208.176 137.395 193.511 140.488 189.178Z" fill="url(#paint21_linear)"/>
<path opacity="0.4" d="M140.701 97.3262C140.616 97.6787 140.473 98.0445 140.284 98.4295C139.315 100.396 137.78 104.368 135.042 104.071C134.035 103.962 133.199 103.183 132.601 102.415C131.963 101.593 131.908 101.092 132.126 100.09C132.568 98.0593 133.517 95.4929 134.997 93.984C136.409 92.546 138.472 93.0268 139.761 94.366C140.714 95.3542 140.954 96.2834 140.701 97.3262Z" fill="white"/>
<path d="M114.693 194.222C117.443 193.177 126.704 177.449 136.88 171.619C142.292 168.517 146.988 166.892 151.173 164.523C148.093 164.912 144.522 165.591 140.576 166.669C132.885 168.756 121.342 181.48 116.328 188.317C115.304 189.694 113.151 188.951 113.187 187.246C113.463 176.865 114.563 162.275 117.714 154.445C117.909 153.955 118.14 153.437 118.371 152.921C125.191 137.01 140.335 115.741 142.601 106.598C142.825 105.66 144.534 100.635 144.591 99.7394C144.623 99.2601 144.656 98.7807 144.649 98.3604C135.883 112.945 113.757 146.645 110.146 163.74C103.18 196.718 111.947 195.237 114.693 194.222Z" fill="url(#paint22_linear)"/>
<path d="M105.635 142.577C103.449 147.046 101.277 151.08 99.4044 155.324C98.4528 157.426 97.5145 159.535 96.6675 161.712C95.7572 163.877 95.0251 166.106 93.9895 168.415C93.5285 165.958 93.5079 163.417 93.9512 160.967C94.3342 158.499 95.0752 156.086 96.1225 153.824C97.1448 151.548 98.4779 149.418 100.053 147.496C101.62 145.577 103.436 143.818 105.635 142.577Z" fill="url(#paint23_linear)"/>
<path d="M81.0175 145.964C80.1911 149.644 79.1041 152.78 78.0081 155.998C77.4631 157.598 76.8621 159.181 76.2567 160.794C75.5938 162.399 74.9972 164.035 74.0545 165.716C72.9615 162.06 73.424 158.266 74.601 154.805C75.1961 153.067 76.0387 151.417 77.0772 149.896C78.1407 148.396 79.3736 146.973 81.0175 145.964Z" fill="url(#paint24_linear)"/>
<path d="M59.3528 151.362C59.5723 152.847 59.4927 154.179 59.3543 155.483C59.1952 156.779 58.9389 158.026 58.6104 159.241C58.2775 160.458 57.8665 161.639 57.3995 162.812C56.9149 163.995 56.3773 165.123 55.7041 166.455C54.86 165.182 54.6582 163.707 54.6037 162.328C54.5728 160.933 54.7717 159.579 55.1311 158.287C55.4876 156.99 56.0002 155.749 56.6763 154.577C57.3716 153.417 58.1714 152.297 59.3528 151.362Z" fill="url(#paint25_linear)"/>
<path d="M57.6426 222.315C57.9932 225.01 42.0211 218.268 40.3433 219.973C38.6655 221.678 18.8281 266.844 18.8281 266.844L18.8355 266.786C23.7245 251.298 30.0468 232.488 33.5953 226.786C39.9382 216.537 40.5878 213.727 40.5952 205.672C40.6158 197.812 42.9624 170.003 45.6256 159.854C44.1879 176.64 42.0181 206.271 43.9758 210.922C46.7215 217.456 57.2729 219.619 57.6426 222.315Z" fill="url(#paint26_linear)"/>
<path d="M125.983 131.856C124.885 132.527 123.73 132.782 122.578 132.856C121.421 132.953 120.255 132.793 119.12 132.431C117.994 132.067 116.864 131.481 115.975 130.521C115.081 129.617 114.415 128.279 114.655 126.989L114.664 126.94C114.673 126.891 114.721 126.858 114.77 126.868C114.799 126.874 114.824 126.894 114.836 126.921C115.263 127.889 116.007 128.661 116.862 129.259C117.72 129.862 118.707 130.274 119.716 130.582C120.719 130.914 121.756 131.163 122.808 131.325C123.858 131.484 124.92 131.608 125.983 131.664C126.033 131.667 126.071 131.71 126.068 131.76C126.067 131.791 126.049 131.818 126.025 131.833L125.983 131.856Z" fill="#EF7C7A"/>
<path d="M126.173 128.49C125.288 128.819 124.375 128.915 123.466 128.903C122.552 128.903 121.645 128.735 120.754 128.464C120.313 128.318 119.877 128.125 119.453 127.92C119.047 127.658 118.624 127.433 118.273 127.077C117.551 126.433 116.983 125.507 116.977 124.546V124.53C116.977 124.504 116.998 124.483 117.024 124.483C117.043 124.483 117.061 124.495 117.068 124.512C117.397 125.316 118.005 125.967 118.712 126.452C119.418 126.949 120.226 127.285 121.051 127.539C122.695 128.082 124.438 128.331 126.172 128.393C126.198 128.394 126.219 128.417 126.217 128.442C126.217 128.462 126.204 128.479 126.186 128.484L126.173 128.49Z" fill="#EF7C7A"/>
<path d="M125.973 126.515C125.661 125.872 125.212 125.343 124.709 124.875C124.211 124.399 123.627 124.017 122.999 123.698C122.682 123.548 122.344 123.427 122.005 123.316C121.647 123.247 121.298 123.15 120.921 123.16C120.19 123.135 119.397 123.344 118.894 123.866L118.885 123.875C118.872 123.89 118.872 123.912 118.885 123.925C118.895 123.936 118.911 123.939 118.925 123.933C119.523 123.666 120.194 123.628 120.834 123.731C121.479 123.828 122.096 124.066 122.679 124.359C123.861 124.921 124.942 125.697 125.923 126.567C125.938 126.58 125.961 126.579 125.973 126.564C125.983 126.552 125.985 126.538 125.979 126.524L125.973 126.515Z" fill="#EF7C7A"/>
</g>
<g filter="url(#filter15_f)">
<path d="M204.212 90.6231C193.045 91.1333 178.727 89.0658 172.258 86.009C165.79 82.9522 169.592 80.0653 180.76 79.5551C191.927 79.045 206.245 81.1125 212.714 84.1693C219.183 87.2261 215.38 90.113 204.212 90.6231Z" fill="url(#paint27_linear)"/>
</g>
<path d="M166.93 28.1683C169.407 26.0849 172.925 24.6083 177.365 24.0107L217.498 40.3565C220.256 43.8856 221.742 47.4003 222.058 50.621L223.243 51.0808L219.799 59.9922C218.138 64.4841 213.647 67.8578 206.725 69.0884C199.422 70.378 191.943 69.4433 184.2 66.2094C176.401 63.1134 169.321 58.1184 164.998 52.0934C160.905 46.3765 160.049 40.8253 161.999 36.451L165.762 27.6696L166.93 28.1683Z" fill="url(#paint28_linear)"/>
<path d="M221.849 51.263C221.794 50.5056 221.669 49.7381 221.482 48.9438L213.818 66.5973C214.534 66.1916 215.203 65.6782 215.802 65.2023L221.849 51.263Z" fill="url(#paint29_linear)"/>
<path d="M177.576 24.0579C175.623 24.3313 173.853 24.8041 172.264 25.3941L162.46 47.5747C162.683 48.117 162.931 48.6491 163.195 49.1882L173.683 25.4853L176.006 26.4677L164.792 51.7905C164.884 51.9314 164.993 52.0791 165.085 52.22C165.278 52.4846 165.487 52.7562 165.696 53.0277L177.233 26.9865L179.556 27.9689L167.514 55.1233C167.838 55.4844 168.171 55.8284 168.503 56.1724L180.775 28.5048L183.098 29.4872L170.466 58.0007C170.813 58.3105 171.168 58.6032 171.523 58.8959L184.325 30.006L186.648 30.9884L173.577 60.4369C173.948 60.6954 174.318 60.9539 174.689 61.2123L187.867 31.5243L190.19 32.5066L176.866 62.5966C177.252 62.8209 177.638 63.0451 178.023 63.2694L191.409 33.0426L193.732 34.0249L180.238 64.4361C180.639 64.6261 181.041 64.8162 181.442 65.0063L194.959 34.5438L197.282 35.5261L183.78 66.0608C184.189 66.2338 184.606 66.3896 185.023 66.5455L198.509 36.045L200.832 37.0273L187.375 67.3468C187.8 67.4855 188.232 67.6072 188.664 67.7288L202.066 37.529L204.389 38.5114L191.104 68.4071C191.544 68.5116 191.991 68.5991 192.438 68.6865L205.616 39.0302L207.939 40.0126L194.99 69.1417C195.445 69.2121 195.908 69.3123 196.379 69.3484L209.166 40.5314L211.489 41.5138L199.056 69.544C199.534 69.563 200.036 69.5718 200.505 69.5668L212.716 42.0326L215.039 43.015L203.295 69.5365C203.82 69.494 204.331 69.4801 204.832 69.4067L216.266 43.5338L218.589 44.5161L207.834 68.8952C208.422 68.757 208.954 68.6468 209.484 68.4638L219.823 45.0179L220.036 45.1078C219.429 43.7724 218.66 42.4089 217.696 41.0446C215.811 38.3951 213.388 35.9457 210.592 33.7655L187.853 24.1496C184.359 23.6493 180.868 23.5774 177.576 24.0579Z" fill="url(#paint30_linear)"/>
<path d="M168.226 26.5619C167.701 26.9113 167.207 27.274 166.753 27.6736L166.41 27.5261L161.069 40.0769C161.027 40.9712 160.986 41.9716 161.146 42.9131L168.226 26.5619Z" fill="url(#paint31_linear)"/>
<path d="M209.08 60.6706C194.953 62.5638 176.863 54.8451 168.67 43.4282C160.477 32.0114 165.295 21.2034 179.429 19.2932C193.556 17.4 211.645 25.1186 219.839 36.5355C228.024 47.9694 223.214 58.7604 209.08 60.6706Z" fill="url(#paint32_linear)"/>
<path opacity="0.2" d="M199.206 45.6331C209.607 44.2349 214.952 38.003 213.8 30.2551C204.524 22.4452 190.626 17.7502 179.278 19.2921C168.876 20.6903 163.532 26.9222 164.684 34.67C173.976 42.487 187.866 47.1579 199.206 45.6331Z" fill="white"/>
<path opacity="0.7" d="M209.22 60.5127C195.056 62.4437 176.932 54.6721 168.733 43.1521C164.765 37.5816 163.871 32.1622 165.581 27.8186C163.362 32.292 164.112 38.0797 168.336 44.0465C176.535 55.5666 194.659 63.3382 208.824 61.4071C216.137 60.4076 220.968 56.9928 222.792 52.3497C220.735 56.5448 216.071 59.5812 209.22 60.5127Z" fill="white"/>
<path d="M205.62 55.8299C194.796 57.2908 180.92 51.3698 174.65 42.6156C168.381 33.8613 172.067 25.5936 182.89 24.1326C193.713 22.6716 207.59 28.5927 213.859 37.3469C220.128 46.1012 216.443 54.3689 205.62 55.8299Z" fill="url(#paint33_linear)"/>
<path d="M182.177 25.3955C193.047 23.9145 206.981 29.8882 213.274 38.7275C216.228 42.8878 216.977 46.9426 215.819 50.2238C217.676 46.7561 217.14 42.2186 213.809 37.521C207.516 28.6817 193.582 22.7079 182.712 24.189C176.952 24.9672 173.197 27.6874 171.876 31.3846C173.542 28.299 177.074 26.0799 182.177 25.3955Z" fill="url(#paint34_linear)"/>
<g filter="url(#filter16_f)">
<path d="M196.414 43.6173C192.964 38.2375 189.852 30.5883 189.468 26.5464C189.084 22.5044 191.565 23.5872 195.014 28.9671C198.464 34.347 201.576 41.9962 201.96 46.0381C202.345 50.0801 199.863 48.9972 196.414 43.6173Z" fill="url(#paint35_linear)"/>
</g>
<path d="M216.223 7.52783C217.951 8.18055 219.685 9.51994 221.26 11.5613L224.935 36.0557C224.02 38.4074 222.743 40.1222 221.27 41.1739L221.39 41.8905L216.067 42.6533C213.405 43.0749 210.468 41.779 207.868 38.6788C205.129 35.4059 203.419 31.4274 202.749 26.6795C201.995 21.9419 202.372 17.0345 204.047 13.2114C205.638 9.5887 208.086 7.62147 210.774 7.37621L216.127 6.80826L216.223 7.52783Z" fill="url(#paint36_linear)"/>
<path d="M220.904 41.254C221.256 41.0162 221.592 40.741 221.924 40.4274L211.133 41.5197C211.537 41.7629 211.98 41.9532 212.384 42.1186L220.904 41.254Z" fill="url(#paint37_linear)"/>
<path d="M221.304 11.6795C220.606 10.7843 219.864 10.0353 219.118 9.40896L205.509 10.6946C205.31 10.9564 205.123 11.2273 204.938 11.5082L219.484 10.14L219.679 11.5681L204.136 13.0253C204.095 13.1104 204.054 13.2055 204.013 13.2906C203.94 13.4599 203.869 13.6392 203.797 13.8185L219.782 12.3224L219.978 13.7505L203.306 15.3049C203.224 15.5665 203.153 15.8272 203.082 16.0879L220.07 14.5057L220.265 15.9338L202.762 17.5721C202.712 17.8309 202.673 18.0888 202.634 18.3467L220.368 16.6881L220.563 18.1162L202.48 19.7962C202.461 20.0522 202.443 20.3083 202.425 20.5644L220.656 18.8714L220.851 20.2995L202.382 22.0315C202.385 22.2857 202.388 22.5399 202.391 22.7941L220.944 21.0547L221.139 22.4828L202.465 24.2195C202.489 24.4719 202.513 24.7242 202.536 24.9766L221.242 23.2371L221.437 24.6651L202.701 26.4325C202.735 26.684 202.78 26.9344 202.825 27.1849L221.54 25.4194L221.735 26.8475L203.117 28.5775C203.172 28.8271 203.238 29.0758 203.304 29.3244L221.849 27.6009L222.044 29.029L203.681 30.7263C203.757 30.974 203.844 31.2208 203.931 31.4676L222.147 29.7832L222.342 31.2113L204.449 32.8629C204.546 33.1087 204.632 33.3671 204.75 33.6111L222.445 31.9656L222.641 33.3937L205.43 34.9965C205.559 35.2396 205.7 35.4918 205.838 35.7239L222.744 34.148L222.939 35.5761L206.66 37.1027C206.833 37.3521 206.988 37.6025 207.168 37.8309L223.042 36.3304L223.237 37.7584L208.285 39.1819C208.523 39.4359 208.73 39.67 208.972 39.8828L223.351 38.5118L223.368 38.6425C223.841 37.9699 224.281 37.2085 224.665 36.3503C225.406 34.6769 225.894 32.7916 226.144 30.7951L224.233 16.8159C223.465 14.9395 222.49 13.1832 221.304 11.6795Z" fill="url(#paint38_linear)"/>
<path d="M217.382 7.72544C217.061 7.56135 216.742 7.41649 216.416 7.30144L216.388 7.0899L208.748 7.92024C208.301 8.14769 207.804 8.40537 207.393 8.74626L217.382 7.72544Z" fill="url(#paint39_linear)"/>
<path d="M212.673 37.4537C207.668 30.9569 206.183 19.8213 209.355 12.5784C212.527 5.33557 219.167 4.72971 224.182 11.2255C229.187 17.7223 230.673 28.8578 227.501 36.1007C224.318 43.3445 217.689 43.9495 212.673 37.4537Z" fill="url(#paint40_linear)"/>
<path opacity="0.2" d="M217.202 28.3292C220.881 33.1037 225.443 34.0286 228.863 31.3093C229.969 24.5409 228.232 16.3423 224.209 11.1383C220.53 6.36379 215.968 5.43883 212.548 8.15815C211.443 14.9367 213.19 23.1242 217.202 28.3292Z" fill="white"/>
<path opacity="0.7" d="M212.766 37.4988C207.739 31.0024 206.272 19.8493 209.487 12.5844C211.041 9.06997 213.409 7.12328 216.008 6.76793C213.199 6.90657 210.611 8.88405 208.939 12.6355C205.724 19.9004 207.191 31.0535 212.218 37.5499C214.814 40.9033 217.864 42.355 220.641 41.9728C218.014 42.1151 215.196 40.6417 212.766 37.4988Z" fill="white"/>
<path d="M214.023 34.3895C210.183 29.4149 209.043 20.8727 211.479 15.3255C213.915 9.77823 218.995 9.31476 222.834 14.2894C226.674 19.264 227.814 27.8061 225.378 33.3534C222.942 38.9006 217.862 39.3641 214.023 34.3895Z" fill="url(#paint41_linear)"/>
<path d="M222.031 14.2777C225.888 19.264 227.017 27.8385 224.55 33.414C223.387 36.0341 221.638 37.5307 219.713 37.8656C221.93 37.8257 223.975 36.3016 225.29 33.3451C227.756 27.7696 226.627 19.1951 222.77 14.2089C220.73 11.565 218.327 10.4553 216.153 10.8245C218.13 10.7959 220.226 11.9343 222.031 14.2777Z" fill="url(#paint42_linear)"/>
<g filter="url(#filter17_f)">
<path d="M49.4664 117.264C43.1136 117.318 35.034 115.828 31.4348 113.937C27.8355 112.047 30.0641 110.473 36.4169 110.419C42.7697 110.365 50.8493 111.856 54.4486 113.746C58.0478 115.636 55.8192 117.21 49.4664 117.264Z" fill="url(#paint43_linear)"/>
</g>
<path d="M29.762 80.9261C31.2163 79.7913 33.247 79.0243 35.7787 78.7779L58.144 88.9461C59.6235 91.0161 60.3815 93.0509 60.4834 94.8933L61.144 95.1805L58.9773 100.187C57.9275 102.712 55.2999 104.539 51.3449 105.094C47.1727 105.674 42.954 104.982 38.6411 102.975C34.293 101.045 30.3983 98.0474 28.0913 94.5217C25.9077 91.1764 25.5558 87.9942 26.7667 85.5424L29.1113 80.6171L29.762 80.9261Z" fill="url(#paint44_linear)"/>
<path d="M60.3477 95.254C60.3347 94.8212 60.2824 94.3811 60.1955 93.9244L55.4256 103.823C55.8412 103.607 56.2331 103.328 56.5839 103.07L60.3477 95.254Z" fill="url(#paint45_linear)"/>
<path d="M35.8969 78.8099C34.783 78.9243 33.768 79.1562 32.8528 79.4587L26.7608 91.8918C26.8745 92.2056 27.002 92.5141 27.1387 92.8269L33.6553 79.5408L34.9488 80.15L27.9818 94.3439C28.0308 94.4262 28.0889 94.5127 28.138 94.5949C28.2408 94.7498 28.3527 94.909 28.4646 95.0682L35.6321 80.4717L36.9257 81.0809L29.4453 96.3011C29.6206 96.5138 29.8006 96.7169 29.9807 96.92L37.6041 81.4122L38.8977 82.0213L31.0499 98.0036C31.2394 98.1876 31.4338 98.3619 31.6281 98.5362L39.5809 82.3431L40.8745 82.9522L32.7557 99.4581C32.9596 99.6132 33.1635 99.7684 33.3674 99.9236L41.553 83.2835L42.8466 83.8927L34.5685 100.759C34.7819 100.895 34.9953 101.031 35.2088 101.167L43.525 84.224L44.8186 84.8331L36.4365 101.879C36.6595 101.995 36.8824 102.112 37.1054 102.229L45.5018 85.1548L46.7954 85.764L38.4061 102.88C38.6339 102.987 38.8664 103.085 39.0989 103.182L47.4786 86.0857L48.7722 86.6949L40.4137 103.689C40.651 103.777 40.893 103.855 41.1351 103.934L49.4602 87.007L50.7538 87.6161L42.5024 104.372C42.7492 104.441 43.0008 104.501 43.2524 104.56L51.437 87.9379L52.7306 88.547L44.6882 104.873C44.9446 104.923 45.205 104.99 45.4709 105.021L53.4138 88.8688L54.7074 89.4779L46.9839 105.189C47.2546 105.21 47.5392 105.226 47.8055 105.233L55.3906 89.7996L56.6842 90.4088L49.3878 105.275C49.6867 105.262 49.977 105.264 50.2624 105.233L57.3674 90.7305L58.661 91.3396L51.9772 105.005C52.3138 104.939 52.6183 104.888 52.9232 104.795L59.349 91.6518L59.4675 91.7076C59.1555 90.9336 58.752 90.1402 58.2383 89.3422C57.2331 87.7923 55.9182 86.3449 54.3847 85.043L41.7222 79.0803C39.7532 78.721 37.7752 78.6059 35.8969 78.8099Z" fill="url(#paint46_linear)"/>
<path d="M30.5353 80.0386C30.2292 80.2266 29.9404 80.4228 29.6731 80.6409L29.4821 80.5496L26.1523 87.5892C26.1069 88.098 26.0598 88.6673 26.1277 89.2072L30.5353 80.0386Z" fill="url(#paint47_linear)"/>
<path d="M52.8749 100.362C44.8183 101.142 34.7452 96.3581 30.3732 89.6763C26.0011 82.9945 28.9931 76.9359 37.0544 76.147C45.1111 75.3677 55.1842 80.1514 59.5562 86.8332C63.9235 93.5245 60.9363 99.5736 52.8749 100.362Z" fill="url(#paint48_linear)"/>
<path opacity="0.2" d="M47.6226 91.596C53.5574 91.0192 56.7394 87.577 56.272 83.1319C51.197 78.4788 43.425 75.5049 36.9502 76.1435C31.0153 76.7203 27.8334 80.1625 28.3007 84.6075C33.3849 89.265 41.1524 92.2251 47.6226 91.596Z" fill="white"/>
<path opacity="0.7" d="M52.9679 100.272C44.8865 101.073 34.7915 96.2547 30.4173 89.5093C28.3004 86.2475 27.9234 83.1372 28.998 80.6958C27.6315 83.2004 27.9182 86.5178 30.1708 90.0111C34.545 96.7565 44.64 101.575 52.7214 100.774C56.8939 100.359 59.7168 98.5137 60.8628 95.9039C59.5953 98.2532 56.8767 99.8862 52.9679 100.272Z" fill="white"/>
<path d="M51.0295 97.5295C44.8566 98.1326 37.1295 94.463 33.7844 89.3398C30.4394 84.2167 32.7282 79.5821 38.901 78.979C45.0739 78.3759 52.801 82.0455 56.1461 87.1687C59.4911 92.2919 57.2023 96.9264 51.0295 97.5295Z" fill="url(#paint49_linear)"/>
<path d="M38.4593 79.6849C44.6614 79.071 52.4224 82.7744 55.7797 87.95C57.3553 90.3858 57.683 92.7146 56.9472 94.5616C58.0838 92.6231 57.889 90.0235 56.1123 87.2732C52.7549 82.0975 44.994 78.3941 38.7919 79.0081C35.5058 79.3296 33.3105 80.8016 32.472 82.8824C33.4912 81.1577 35.5484 79.967 38.4593 79.6849Z" fill="url(#paint50_linear)"/>
<path d="M303.312 32.6H312.912V35.8H306.832V41.72H311.664V44.92H306.832V51.8H312.912V55H303.312V32.6ZM317.657 32.6H322.425L326.073 55H322.553L321.913 50.552V50.616H317.913L317.273 55H314.009L317.657 32.6ZM321.497 47.576L319.929 36.504H319.865L318.329 47.576H321.497ZM327.781 32.6H332.997C334.81 32.6 336.133 33.0267 336.965 33.88C337.797 34.712 338.213 36.0027 338.213 37.752V39.128C338.213 41.4533 337.445 42.9253 335.909 43.544V43.608C336.762 43.864 337.359 44.3867 337.701 45.176C338.063 45.9653 338.245 47.0213 338.245 48.344V52.28C338.245 52.92 338.266 53.4427 338.309 53.848C338.351 54.232 338.458 54.616 338.629 55H335.045C334.917 54.6373 334.831 54.296 334.789 53.976C334.746 53.656 334.725 53.08 334.725 52.248V48.152C334.725 47.128 334.554 46.4133 334.213 46.008C333.893 45.6027 333.327 45.4 332.517 45.4H331.301V55H327.781V32.6ZM332.581 42.2C333.285 42.2 333.807 42.0187 334.149 41.656C334.511 41.2933 334.693 40.6853 334.693 39.832V38.104C334.693 37.2933 334.543 36.7067 334.245 36.344C333.967 35.9813 333.519 35.8 332.901 35.8H331.301V42.2H332.581ZM340.687 32.6H345.103L348.527 46.008H348.591V32.6H351.727V55H348.111L343.887 38.648H343.823V55H340.687V32.6ZM359.468 32.6H364.492L366.732 48.632H366.796L369.036 32.6H374.06V55H370.732V38.04H370.668L368.108 55H365.164L362.604 38.04H362.54V55H359.468V32.6ZM381.775 55.32C380.047 55.32 378.724 54.8293 377.807 53.848C376.89 52.8667 376.431 51.48 376.431 49.688V37.912C376.431 36.12 376.89 34.7333 377.807 33.752C378.724 32.7707 380.047 32.28 381.775 32.28C383.503 32.28 384.826 32.7707 385.743 33.752C386.66 34.7333 387.119 36.12 387.119 37.912V49.688C387.119 51.48 386.66 52.8667 385.743 53.848C384.826 54.8293 383.503 55.32 381.775 55.32ZM381.775 52.12C382.991 52.12 383.599 51.384 383.599 49.912V37.688C383.599 36.216 382.991 35.48 381.775 35.48C380.559 35.48 379.951 36.216 379.951 37.688V49.912C379.951 51.384 380.559 52.12 381.775 52.12ZM389.5 32.6H394.716C396.529 32.6 397.852 33.0267 398.684 33.88C399.516 34.712 399.932 36.0027 399.932 37.752V39.128C399.932 41.4533 399.164 42.9253 397.628 43.544V43.608C398.481 43.864 399.078 44.3867 399.42 45.176C399.782 45.9653 399.964 47.0213 399.964 48.344V52.28C399.964 52.92 399.985 53.4427 400.028 53.848C400.07 54.232 400.177 54.616 400.348 55H396.764C396.636 54.6373 396.55 54.296 396.508 53.976C396.465 53.656 396.444 53.08 396.444 52.248V48.152C396.444 47.128 396.273 46.4133 395.932 46.008C395.612 45.6027 395.046 45.4 394.236 45.4H393.02V55H389.5V32.6ZM394.3 42.2C395.004 42.2 395.526 42.0187 395.868 41.656C396.23 41.2933 396.411 40.6853 396.411 39.832V38.104C396.411 37.2933 396.262 36.7067 395.964 36.344C395.686 35.9813 395.238 35.8 394.62 35.8H393.02V42.2H394.3ZM402.406 32.6H412.006V35.8H405.926V41.72H410.758V44.92H405.926V51.8H412.006V55H402.406V32.6ZM418.324 32.6H421.716L423.284 49.816H423.348L425.012 32.6H428.852L430.516 49.816H430.58L432.148 32.6H435.188L432.916 55H428.532L426.932 39.896H426.868L425.268 55H420.596L418.324 32.6ZM436.968 32.6H440.488V55H436.968V32.6ZM445.877 35.8H442.197V32.6H453.077V35.8H449.397V55H445.877V35.8ZM454.781 32.6H458.301V41.72H462.077V32.6H465.597V55H462.077V44.92H458.301V55H454.781V32.6ZM478.431 55.32C476.703 55.32 475.381 54.8293 474.463 53.848C473.546 52.8667 473.087 51.48 473.087 49.688V37.912C473.087 36.12 473.546 34.7333 474.463 33.752C475.381 32.7707 476.703 32.28 478.431 32.28C480.159 32.28 481.482 32.7707 482.399 33.752C483.317 34.7333 483.775 36.12 483.775 37.912V49.688C483.775 51.48 483.317 52.8667 482.399 53.848C481.482 54.8293 480.159 55.32 478.431 55.32ZM478.431 52.12C479.647 52.12 480.255 51.384 480.255 49.912V37.688C480.255 36.216 479.647 35.48 478.431 35.48C477.215 35.48 476.607 36.216 476.607 37.688V49.912C476.607 51.384 477.215 52.12 478.431 52.12ZM491.276 55.32C489.569 55.32 488.268 54.84 487.372 53.88C486.476 52.8987 486.028 51.5013 486.028 49.688V32.6H489.548V49.944C489.548 50.712 489.697 51.2667 489.996 51.608C490.316 51.9493 490.764 52.12 491.34 52.12C491.916 52.12 492.353 51.9493 492.652 51.608C492.972 51.2667 493.132 50.712 493.132 49.944V32.6H496.524V49.688C496.524 51.5013 496.076 52.8987 495.18 53.88C494.284 54.84 492.982 55.32 491.276 55.32ZM499.031 32.6H504.247C506.06 32.6 507.383 33.0267 508.215 33.88C509.047 34.712 509.463 36.0027 509.463 37.752V39.128C509.463 41.4533 508.695 42.9253 507.159 43.544V43.608C508.012 43.864 508.609 44.3867 508.951 45.176C509.313 45.9653 509.495 47.0213 509.495 48.344V52.28C509.495 52.92 509.516 53.4427 509.559 53.848C509.601 54.232 509.708 54.616 509.879 55H506.295C506.167 54.6373 506.081 54.296 506.039 53.976C505.996 53.656 505.975 53.08 505.975 52.248V48.152C505.975 47.128 505.804 46.4133 505.463 46.008C505.143 45.6027 504.577 45.4 503.767 45.4H502.551V55H499.031V32.6ZM503.831 42.2C504.535 42.2 505.057 42.0187 505.399 41.656C505.761 41.2933 505.943 40.6853 505.943 39.832V38.104C505.943 37.2933 505.793 36.7067 505.495 36.344C505.217 35.9813 504.769 35.8 504.151 35.8H502.551V42.2H503.831ZM517.062 32.6H522.278C524.091 32.6 525.414 33.0267 526.246 33.88C527.078 34.712 527.494 36.0027 527.494 37.752V39.128C527.494 41.4533 526.726 42.9253 525.19 43.544V43.608C526.043 43.864 526.641 44.3867 526.982 45.176C527.345 45.9653 527.526 47.0213 527.526 48.344V52.28C527.526 52.92 527.547 53.4427 527.59 53.848C527.633 54.232 527.739 54.616 527.91 55H524.326C524.198 54.6373 524.113 54.296 524.07 53.976C524.027 53.656 524.006 53.08 524.006 52.248V48.152C524.006 47.128 523.835 46.4133 523.494 46.008C523.174 45.6027 522.609 45.4 521.798 45.4H520.582V55H517.062V32.6ZM521.862 42.2C522.566 42.2 523.089 42.0187 523.43 41.656C523.793 41.2933 523.974 40.6853 523.974 39.832V38.104C523.974 37.2933 523.825 36.7067 523.526 36.344C523.249 35.9813 522.801 35.8 522.182 35.8H520.582V42.2H521.862ZM529.968 32.6H539.568V35.8H533.488V41.72H538.32V44.92H533.488V51.8H539.568V55H529.968V32.6ZM541.593 32.6H550.905V35.8H545.113V42.04H549.657V45.24H545.113V55H541.593V32.6ZM552.593 32.6H562.193V35.8H556.113V41.72H560.945V44.92H556.113V51.8H562.193V55H552.593V32.6ZM564.218 32.6H569.434C571.248 32.6 572.57 33.0267 573.402 33.88C574.234 34.712 574.65 36.0027 574.65 37.752V39.128C574.65 41.4533 573.882 42.9253 572.346 43.544V43.608C573.2 43.864 573.797 44.3867 574.138 45.176C574.501 45.9653 574.682 47.0213 574.682 48.344V52.28C574.682 52.92 574.704 53.4427 574.746 53.848C574.789 54.232 574.896 54.616 575.066 55H571.482C571.354 54.6373 571.269 54.296 571.226 53.976C571.184 53.656 571.162 53.08 571.162 52.248V48.152C571.162 47.128 570.992 46.4133 570.65 46.008C570.33 45.6027 569.765 45.4 568.954 45.4H567.738V55H564.218V32.6ZM569.018 42.2C569.722 42.2 570.245 42.0187 570.586 41.656C570.949 41.2933 571.13 40.6853 571.13 39.832V38.104C571.13 37.2933 570.981 36.7067 570.682 36.344C570.405 35.9813 569.957 35.8 569.338 35.8H567.738V42.2H569.018ZM577.125 32.6H582.341C584.154 32.6 585.477 33.0267 586.309 33.88C587.141 34.712 587.557 36.0027 587.557 37.752V39.128C587.557 41.4533 586.789 42.9253 585.253 43.544V43.608C586.106 43.864 586.703 44.3867 587.045 45.176C587.407 45.9653 587.589 47.0213 587.589 48.344V52.28C587.589 52.92 587.61 53.4427 587.653 53.848C587.695 54.232 587.802 54.616 587.973 55H584.389C584.261 54.6373 584.175 54.296 584.133 53.976C584.09 53.656 584.069 53.08 584.069 52.248V48.152C584.069 47.128 583.898 46.4133 583.557 46.008C583.237 45.6027 582.671 45.4 581.861 45.4H580.645V55H577.125V32.6ZM581.925 42.2C582.629 42.2 583.151 42.0187 583.493 41.656C583.855 41.2933 584.036 40.6853 584.036 39.832V38.104C584.036 37.2933 583.887 36.7067 583.589 36.344C583.311 35.9813 582.863 35.8 582.245 35.8H580.645V42.2H581.925ZM592.751 32.6H597.519L601.167 55H597.647L597.007 50.552V50.616H593.007L592.367 55H589.103L592.751 32.6ZM596.591 47.576L595.023 36.504H594.959L593.423 47.576H596.591ZM602.875 32.6H606.395V51.8H612.187V55H602.875V32.6ZM303.312 66.6H308.496C310.245 66.6 311.557 67.0693 312.432 68.008C313.307 68.9467 313.744 70.3227 313.744 72.136V74.344C313.744 76.1573 313.307 77.5333 312.432 78.472C311.557 79.4107 310.245 79.88 308.496 79.88H306.832V89H303.312V66.6ZM308.496 76.68C309.072 76.68 309.499 76.52 309.776 76.2C310.075 75.88 310.224 75.336 310.224 74.568V71.912C310.224 71.144 310.075 70.6 309.776 70.28C309.499 69.96 309.072 69.8 308.496 69.8H306.832V76.68H308.496ZM315.656 66.6H320.872C322.685 66.6 324.008 67.0267 324.84 67.88C325.672 68.712 326.088 70.0027 326.088 71.752V73.128C326.088 75.4533 325.32 76.9253 323.784 77.544V77.608C324.637 77.864 325.234 78.3867 325.576 79.176C325.938 79.9653 326.12 81.0213 326.12 82.344V86.28C326.12 86.92 326.141 87.4427 326.184 87.848C326.226 88.232 326.333 88.616 326.504 89H322.92C322.792 88.6373 322.706 88.296 322.664 87.976C322.621 87.656 322.6 87.08 322.6 86.248V82.152C322.6 81.128 322.429 80.4133 322.088 80.008C321.768 79.6027 321.202 79.4 320.392 79.4H319.176V89H315.656V66.6ZM320.456 76.2C321.16 76.2 321.682 76.0187 322.024 75.656C322.386 75.2933 322.568 74.6853 322.568 73.832V72.104C322.568 71.2933 322.418 70.7067 322.12 70.344C321.842 69.9813 321.394 69.8 320.776 69.8H319.176V76.2H320.456ZM333.65 89.32C331.922 89.32 330.599 88.8293 329.682 87.848C328.765 86.8667 328.306 85.48 328.306 83.688V71.912C328.306 70.12 328.765 68.7333 329.682 67.752C330.599 66.7707 331.922 66.28 333.65 66.28C335.378 66.28 336.701 66.7707 337.618 67.752C338.535 68.7333 338.994 70.12 338.994 71.912V83.688C338.994 85.48 338.535 86.8667 337.618 87.848C336.701 88.8293 335.378 89.32 333.65 89.32ZM333.65 86.12C334.866 86.12 335.474 85.384 335.474 83.912V71.688C335.474 70.216 334.866 69.48 333.65 69.48C332.434 69.48 331.826 70.216 331.826 71.688V83.912C331.826 85.384 332.434 86.12 333.65 86.12ZM346.367 89.32C344.66 89.32 343.359 88.84 342.463 87.88C341.567 86.8987 341.118 85.5013 341.118 83.688V71.912C341.118 70.0987 341.567 68.712 342.463 67.752C343.359 66.7707 344.66 66.28 346.367 66.28C348.073 66.28 349.375 66.7707 350.271 67.752C351.167 68.712 351.615 70.0987 351.615 71.912V73.832H348.286V71.688C348.286 70.216 347.679 69.48 346.463 69.48C345.247 69.48 344.639 70.216 344.639 71.688V83.944C344.639 85.3947 345.247 86.12 346.463 86.12C347.679 86.12 348.286 85.3947 348.286 83.944V79.56H346.527V76.36H351.615V83.688C351.615 85.5013 351.167 86.8987 350.271 87.88C349.375 88.84 348.073 89.32 346.367 89.32ZM353.875 66.6H359.091C360.904 66.6 362.227 67.0267 363.059 67.88C363.891 68.712 364.307 70.0027 364.307 71.752V73.128C364.307 75.4533 363.539 76.9253 362.003 77.544V77.608C362.856 77.864 363.453 78.3867 363.795 79.176C364.157 79.9653 364.339 81.0213 364.339 82.344V86.28C364.339 86.92 364.36 87.4427 364.403 87.848C364.445 88.232 364.552 88.616 364.723 89H361.139C361.011 88.6373 360.925 88.296 360.883 87.976C360.84 87.656 360.819 87.08 360.819 86.248V82.152C360.819 81.128 360.648 80.4133 360.307 80.008C359.987 79.6027 359.421 79.4 358.611 79.4H357.395V89H353.875V66.6ZM358.675 76.2C359.379 76.2 359.901 76.0187 360.243 75.656C360.605 75.2933 360.786 74.6853 360.786 73.832V72.104C360.786 71.2933 360.637 70.7067 360.339 70.344C360.061 69.9813 359.613 69.8 358.995 69.8H357.395V76.2H358.675ZM369.501 66.6H374.269L377.917 89H374.397L373.757 84.552V84.616H369.757L369.117 89H365.853L369.501 66.6ZM373.341 81.576L371.773 70.504H371.709L370.173 81.576H373.341ZM379.625 66.6H384.649L386.889 82.632H386.953L389.193 66.6H394.217V89H390.889V72.04H390.825L388.265 89H385.321L382.761 72.04H382.697V89H379.625V66.6Z" fill="white"/>
<path d="M316.556 123L316.542 115.86L313 121.81H312.356L308.814 115.902V123H307.47V113.2H308.618L312.706 120.088L316.738 113.2H317.886L317.9 123H316.556ZM323.823 123.084C323.086 123.084 322.423 122.921 321.835 122.594C321.247 122.267 320.785 121.819 320.449 121.25C320.122 120.671 319.959 120.018 319.959 119.29C319.959 118.562 320.122 117.913 320.449 117.344C320.785 116.765 321.247 116.317 321.835 116C322.423 115.673 323.086 115.51 323.823 115.51C324.56 115.51 325.218 115.673 325.797 116C326.385 116.317 326.842 116.765 327.169 117.344C327.505 117.913 327.673 118.562 327.673 119.29C327.673 120.018 327.505 120.671 327.169 121.25C326.842 121.819 326.385 122.267 325.797 122.594C325.218 122.921 324.56 123.084 323.823 123.084ZM323.823 121.908C324.299 121.908 324.724 121.801 325.097 121.586C325.48 121.362 325.778 121.054 325.993 120.662C326.208 120.261 326.315 119.803 326.315 119.29C326.315 118.777 326.208 118.324 325.993 117.932C325.778 117.531 325.48 117.223 325.097 117.008C324.724 116.793 324.299 116.686 323.823 116.686C323.347 116.686 322.918 116.793 322.535 117.008C322.162 117.223 321.863 117.531 321.639 117.932C321.424 118.324 321.317 118.777 321.317 119.29C321.317 119.803 321.424 120.261 321.639 120.662C321.863 121.054 322.162 121.362 322.535 121.586C322.918 121.801 323.347 121.908 323.823 121.908ZM330.82 116.826C331.053 116.397 331.398 116.07 331.856 115.846C332.313 115.622 332.868 115.51 333.522 115.51V116.812C333.447 116.803 333.344 116.798 333.214 116.798C332.486 116.798 331.912 117.017 331.492 117.456C331.081 117.885 330.876 118.501 330.876 119.304V123H329.532V115.58H330.82V116.826ZM341.816 119.332C341.816 119.435 341.807 119.57 341.788 119.738H335.768C335.852 120.391 336.137 120.919 336.622 121.32C337.117 121.712 337.728 121.908 338.456 121.908C339.343 121.908 340.057 121.609 340.598 121.012L341.34 121.88C341.004 122.272 340.584 122.571 340.08 122.776C339.585 122.981 339.03 123.084 338.414 123.084C337.63 123.084 336.935 122.925 336.328 122.608C335.721 122.281 335.25 121.829 334.914 121.25C334.587 120.671 334.424 120.018 334.424 119.29C334.424 118.571 334.583 117.923 334.9 117.344C335.227 116.765 335.67 116.317 336.23 116C336.799 115.673 337.439 115.51 338.148 115.51C338.857 115.51 339.487 115.673 340.038 116C340.598 116.317 341.032 116.765 341.34 117.344C341.657 117.923 341.816 118.585 341.816 119.332ZM338.148 116.644C337.504 116.644 336.963 116.84 336.524 117.232C336.095 117.624 335.843 118.137 335.768 118.772H340.528C340.453 118.147 340.197 117.638 339.758 117.246C339.329 116.845 338.792 116.644 338.148 116.644Z" fill="white"/>
<path d="M349.75 122.5L354.25 118L349.75 113.5" stroke="white" stroke-width="1.5" stroke-linecap="round" stroke-linejoin="round"/>
</g>
<defs>
<filter id="filter0_dd" x="-38" y="-26" width="796" height="236" filterUnits="userSpaceOnUse" color-interpolation-filters="sRGB">
<feFlood flood-opacity="0" result="BackgroundImageFix"/>
<feColorMatrix in="SourceAlpha" type="matrix" values="0 0 0 0 0 0 0 0 0 0 0 0 0 0 0 0 0 0 127 0"/>
<feMorphology radius="4" operator="erode" in="SourceAlpha" result="effect1_dropShadow"/>
<feOffset dy="12"/>
<feGaussianBlur stdDeviation="21"/>
<feColorMatrix type="matrix" values="0 0 0 0 0.0941176 0 0 0 0 0.152941 0 0 0 0 0.294118 0 0 0 0.08 0"/>
<feBlend mode="normal" in2="BackgroundImageFix" result="effect1_dropShadow"/>
<feColorMatrix in="SourceAlpha" type="matrix" values="0 0 0 0 0 0 0 0 0 0 0 0 0 0 0 0 0 0 127 0"/>
<feMorphology radius="6" operator="erode" in="SourceAlpha" result="effect2_dropShadow"/>
<feOffset dy="8"/>
<feGaussianBlur stdDeviation="9"/>
<feColorMatrix type="matrix" values="0 0 0 0 0.0941176 0 0 0 0 0.152941 0 0 0 0 0.294118 0 0 0 0.04 0"/>
<feBlend mode="normal" in2="effect1_dropShadow" result="effect2_dropShadow"/>
<feBlend mode="normal" in="SourceGraphic" in2="effect2_dropShadow" result="shape"/>
</filter>
<filter id="filter1_f" x="-87.9463" y="-37.9463" width="723.562" height="344.182" filterUnits="userSpaceOnUse" color-interpolation-filters="sRGB">
<feFlood flood-opacity="0" result="BackgroundImageFix"/>
<feBlend mode="normal" in="SourceGraphic" in2="BackgroundImageFix" result="shape"/>
<feGaussianBlur stdDeviation="54.4732" result="effect1_foregroundBlur"/>
</filter>
<filter id="filter2_f" x="-87.9463" y="-30.2356" width="723.562" height="344.182" filterUnits="userSpaceOnUse" color-interpolation-filters="sRGB">
<feFlood flood-opacity="0" result="BackgroundImageFix"/>
<feBlend mode="normal" in="SourceGraphic" in2="BackgroundImageFix" result="shape"/>
<feGaussianBlur stdDeviation="54.4732" result="effect1_foregroundBlur"/>
</filter>
<filter id="filter3_f" x="195.726" y="-9.51321" width="665.221" height="322.789" filterUnits="userSpaceOnUse" color-interpolation-filters="sRGB">
<feFlood flood-opacity="0" result="BackgroundImageFix"/>
<feBlend mode="normal" in="SourceGraphic" in2="BackgroundImageFix" result="shape"/>
<feGaussianBlur stdDeviation="54.4732" result="effect1_foregroundBlur"/>
</filter>
<filter id="filter4_f" x="203" y="2.69528" width="561.572" height="298.533" filterUnits="userSpaceOnUse" color-interpolation-filters="sRGB">
<feFlood flood-opacity="0" result="BackgroundImageFix"/>
<feBlend mode="normal" in="SourceGraphic" in2="BackgroundImageFix" result="shape"/>
<feGaussianBlur stdDeviation="54.4732" result="effect1_foregroundBlur"/>
</filter>
<filter id="filter5_ii" x="95.9619" y="4" width="69.628" height="133.801" filterUnits="userSpaceOnUse" color-interpolation-filters="sRGB">
<feFlood flood-opacity="0" result="BackgroundImageFix"/>
<feBlend mode="normal" in="SourceGraphic" in2="BackgroundImageFix" result="shape"/>
<feColorMatrix in="SourceAlpha" type="matrix" values="0 0 0 0 0 0 0 0 0 0 0 0 0 0 0 0 0 0 127 0" result="hardAlpha"/>
<feOffset dx="-1" dy="1"/>
<feComposite in2="hardAlpha" operator="arithmetic" k2="-1" k3="1"/>
<feColorMatrix type="matrix" values="0 0 0 0 1 0 0 0 0 0.654167 0 0 0 0 0.717045 0 0 0 0.6 0"/>
<feBlend mode="normal" in2="shape" result="effect1_innerShadow"/>
<feColorMatrix in="SourceAlpha" type="matrix" values="0 0 0 0 0 0 0 0 0 0 0 0 0 0 0 0 0 0 127 0" result="hardAlpha"/>
<feOffset dx="1" dy="-1"/>
<feComposite in2="hardAlpha" operator="arithmetic" k2="-1" k3="1"/>
<feColorMatrix type="matrix" values="0 0 0 0 0 0 0 0 0 0.064853 0 0 0 0 0.2625 0 0 0 0.6 0"/>
<feBlend mode="normal" in2="effect1_innerShadow" result="effect2_innerShadow"/>
</filter>
<filter id="filter6_ii" x="99.6133" y="12.4399" width="62.2389" height="111.922" filterUnits="userSpaceOnUse" color-interpolation-filters="sRGB">
<feFlood flood-opacity="0" result="BackgroundImageFix"/>
<feBlend mode="normal" in="SourceGraphic" in2="BackgroundImageFix" result="shape"/>
<feColorMatrix in="SourceAlpha" type="matrix" values="0 0 0 0 0 0 0 0 0 0 0 0 0 0 0 0 0 0 127 0" result="hardAlpha"/>
<feOffset dx="-1" dy="1"/>
<feComposite in2="hardAlpha" operator="arithmetic" k2="-1" k3="1"/>
<feColorMatrix type="matrix" values="0 0 0 0 0.325486 0 0 0 0 0.419659 0 0 0 0 0.716667 0 0 0 1 0"/>
<feBlend mode="normal" in2="shape" result="effect1_innerShadow"/>
<feColorMatrix in="SourceAlpha" type="matrix" values="0 0 0 0 0 0 0 0 0 0 0 0 0 0 0 0 0 0 127 0" result="hardAlpha"/>
<feOffset dx="1" dy="-1"/>
<feComposite in2="hardAlpha" operator="arithmetic" k2="-1" k3="1"/>
<feColorMatrix type="matrix" values="0 0 0 0 0.460417 0 0 0 0 0.556401 0 0 0 0 0.85 0 0 0 1 0"/>
<feBlend mode="normal" in2="effect1_innerShadow" result="effect2_innerShadow"/>
</filter>
<filter id="filter7_ii" x="106.727" y="22.4707" width="47.0671" height="19.2042" filterUnits="userSpaceOnUse" color-interpolation-filters="sRGB">
<feFlood flood-opacity="0" result="BackgroundImageFix"/>
<feBlend mode="normal" in="SourceGraphic" in2="BackgroundImageFix" result="shape"/>
<feColorMatrix in="SourceAlpha" type="matrix" values="0 0 0 0 0 0 0 0 0 0 0 0 0 0 0 0 0 0 127 0" result="hardAlpha"/>
<feOffset dx="-1" dy="1"/>
<feComposite in2="hardAlpha" operator="arithmetic" k2="-1" k3="1"/>
<feColorMatrix type="matrix" values="0 0 0 0 0.875 0 0 0 0 0.904661 0 0 0 0 1 0 0 0 1 0"/>
<feBlend mode="normal" in2="shape" result="effect1_innerShadow"/>
<feColorMatrix in="SourceAlpha" type="matrix" values="0 0 0 0 0 0 0 0 0 0 0 0 0 0 0 0 0 0 127 0" result="hardAlpha"/>
<feOffset dx="1" dy="-1"/>
<feComposite in2="hardAlpha" operator="arithmetic" k2="-1" k3="1"/>
<feColorMatrix type="matrix" values="0 0 0 0 0.460417 0 0 0 0 0.556401 0 0 0 0 0.85 0 0 0 1 0"/>
<feBlend mode="normal" in2="effect1_innerShadow" result="effect2_innerShadow"/>
</filter>
<filter id="filter8_ii" x="148.892" y="28.0547" width="7.38543" height="7.4014" filterUnits="userSpaceOnUse" color-interpolation-filters="sRGB">
<feFlood flood-opacity="0" result="BackgroundImageFix"/>
<feBlend mode="normal" in="SourceGraphic" in2="BackgroundImageFix" result="shape"/>
<feColorMatrix in="SourceAlpha" type="matrix" values="0 0 0 0 0 0 0 0 0 0 0 0 0 0 0 0 0 0 127 0" result="hardAlpha"/>
<feOffset dx="0.2" dy="0.5"/>
<feComposite in2="hardAlpha" operator="arithmetic" k2="-1" k3="1"/>
<feColorMatrix type="matrix" values="0 0 0 0 1 0 0 0 0 1 0 0 0 0 1 0 0 0 0.5 0"/>
<feBlend mode="normal" in2="shape" result="effect1_innerShadow"/>
<feColorMatrix in="SourceAlpha" type="matrix" values="0 0 0 0 0 0 0 0 0 0 0 0 0 0 0 0 0 0 127 0" result="hardAlpha"/>
<feOffset dx="-0.3" dy="-0.3"/>
<feComposite in2="hardAlpha" operator="arithmetic" k2="-1" k3="1"/>
<feColorMatrix type="matrix" values="0 0 0 0 0.0601852 0 0 0 0 0.270833 0 0 0 0 0 0 0 0 0.3 0"/>
<feBlend mode="normal" in2="effect1_innerShadow" result="effect2_innerShadow"/>
</filter>
<filter id="filter9_ii" x="106.726" y="68.2803" width="47.0671" height="19.2042" filterUnits="userSpaceOnUse" color-interpolation-filters="sRGB">
<feFlood flood-opacity="0" result="BackgroundImageFix"/>
<feBlend mode="normal" in="SourceGraphic" in2="BackgroundImageFix" result="shape"/>
<feColorMatrix in="SourceAlpha" type="matrix" values="0 0 0 0 0 0 0 0 0 0 0 0 0 0 0 0 0 0 127 0" result="hardAlpha"/>
<feOffset dx="-1" dy="1"/>
<feComposite in2="hardAlpha" operator="arithmetic" k2="-1" k3="1"/>
<feColorMatrix type="matrix" values="0 0 0 0 0.875 0 0 0 0 0.904661 0 0 0 0 1 0 0 0 1 0"/>
<feBlend mode="normal" in2="shape" result="effect1_innerShadow"/>
<feColorMatrix in="SourceAlpha" type="matrix" values="0 0 0 0 0 0 0 0 0 0 0 0 0 0 0 0 0 0 127 0" result="hardAlpha"/>
<feOffset dx="1" dy="-1"/>
<feComposite in2="hardAlpha" operator="arithmetic" k2="-1" k3="1"/>
<feColorMatrix type="matrix" values="0 0 0 0 0.460417 0 0 0 0 0.556401 0 0 0 0 0.85 0 0 0 1 0"/>
<feBlend mode="normal" in2="effect1_innerShadow" result="effect2_innerShadow"/>
</filter>
<filter id="filter10_ii" x="148.892" y="73.8643" width="7.38543" height="7.4014" filterUnits="userSpaceOnUse" color-interpolation-filters="sRGB">
<feFlood flood-opacity="0" result="BackgroundImageFix"/>
<feBlend mode="normal" in="SourceGraphic" in2="BackgroundImageFix" result="shape"/>
<feColorMatrix in="SourceAlpha" type="matrix" values="0 0 0 0 0 0 0 0 0 0 0 0 0 0 0 0 0 0 127 0" result="hardAlpha"/>
<feOffset dx="0.2" dy="0.5"/>
<feComposite in2="hardAlpha" operator="arithmetic" k2="-1" k3="1"/>
<feColorMatrix type="matrix" values="0 0 0 0 1 0 0 0 0 1 0 0 0 0 1 0 0 0 0.5 0"/>
<feBlend mode="normal" in2="shape" result="effect1_innerShadow"/>
<feColorMatrix in="SourceAlpha" type="matrix" values="0 0 0 0 0 0 0 0 0 0 0 0 0 0 0 0 0 0 127 0" result="hardAlpha"/>
<feOffset dx="-0.3" dy="-0.3"/>
<feComposite in2="hardAlpha" operator="arithmetic" k2="-1" k3="1"/>
<feColorMatrix type="matrix" values="0 0 0 0 0.0601852 0 0 0 0 0.270833 0 0 0 0 0 0 0 0 0.3 0"/>
<feBlend mode="normal" in2="effect1_innerShadow" result="effect2_innerShadow"/>
</filter>
<filter id="filter11_ii" x="106.426" y="45.3755" width="47.0671" height="19.2042" filterUnits="userSpaceOnUse" color-interpolation-filters="sRGB">
<feFlood flood-opacity="0" result="BackgroundImageFix"/>
<feBlend mode="normal" in="SourceGraphic" in2="BackgroundImageFix" result="shape"/>
<feColorMatrix in="SourceAlpha" type="matrix" values="0 0 0 0 0 0 0 0 0 0 0 0 0 0 0 0 0 0 127 0" result="hardAlpha"/>
<feOffset dx="-1" dy="1"/>
<feComposite in2="hardAlpha" operator="arithmetic" k2="-1" k3="1"/>
<feColorMatrix type="matrix" values="0 0 0 0 0.875 0 0 0 0 0.904661 0 0 0 0 1 0 0 0 1 0"/>
<feBlend mode="normal" in2="shape" result="effect1_innerShadow"/>
<feColorMatrix in="SourceAlpha" type="matrix" values="0 0 0 0 0 0 0 0 0 0 0 0 0 0 0 0 0 0 127 0" result="hardAlpha"/>
<feOffset dx="1" dy="-1"/>
<feComposite in2="hardAlpha" operator="arithmetic" k2="-1" k3="1"/>
<feColorMatrix type="matrix" values="0 0 0 0 0.460417 0 0 0 0 0.556401 0 0 0 0 0.85 0 0 0 1 0"/>
<feBlend mode="normal" in2="effect1_innerShadow" result="effect2_innerShadow"/>
</filter>
<filter id="filter12_ii" x="148.591" y="50.9595" width="7.38543" height="7.4014" filterUnits="userSpaceOnUse" color-interpolation-filters="sRGB">
<feFlood flood-opacity="0" result="BackgroundImageFix"/>
<feBlend mode="normal" in="SourceGraphic" in2="BackgroundImageFix" result="shape"/>
<feColorMatrix in="SourceAlpha" type="matrix" values="0 0 0 0 0 0 0 0 0 0 0 0 0 0 0 0 0 0 127 0" result="hardAlpha"/>
<feOffset dx="0.2" dy="0.5"/>
<feComposite in2="hardAlpha" operator="arithmetic" k2="-1" k3="1"/>
<feColorMatrix type="matrix" values="0 0 0 0 1 0 0 0 0 1 0 0 0 0 1 0 0 0 0.5 0"/>
<feBlend mode="normal" in2="shape" result="effect1_innerShadow"/>
<feColorMatrix in="SourceAlpha" type="matrix" values="0 0 0 0 0 0 0 0 0 0 0 0 0 0 0 0 0 0 127 0" result="hardAlpha"/>
<feOffset dx="-0.3" dy="-0.3"/>
<feComposite in2="hardAlpha" operator="arithmetic" k2="-1" k3="1"/>
<feColorMatrix type="matrix" values="0 0 0 0 0.0601852 0 0 0 0 0.270833 0 0 0 0 0 0 0 0 0.3 0"/>
<feBlend mode="normal" in2="effect1_innerShadow" result="effect2_innerShadow"/>
</filter>
<filter id="filter13_ii" x="106.426" y="91.1853" width="47.0671" height="19.2042" filterUnits="userSpaceOnUse" color-interpolation-filters="sRGB">
<feFlood flood-opacity="0" result="BackgroundImageFix"/>
<feBlend mode="normal" in="SourceGraphic" in2="BackgroundImageFix" result="shape"/>
<feColorMatrix in="SourceAlpha" type="matrix" values="0 0 0 0 0 0 0 0 0 0 0 0 0 0 0 0 0 0 127 0" result="hardAlpha"/>
<feOffset dx="-1" dy="1"/>
<feComposite in2="hardAlpha" operator="arithmetic" k2="-1" k3="1"/>
<feColorMatrix type="matrix" values="0 0 0 0 0.875 0 0 0 0 0.904661 0 0 0 0 1 0 0 0 1 0"/>
<feBlend mode="normal" in2="shape" result="effect1_innerShadow"/>
<feColorMatrix in="SourceAlpha" type="matrix" values="0 0 0 0 0 0 0 0 0 0 0 0 0 0 0 0 0 0 127 0" result="hardAlpha"/>
<feOffset dx="1" dy="-1"/>
<feComposite in2="hardAlpha" operator="arithmetic" k2="-1" k3="1"/>
<feColorMatrix type="matrix" values="0 0 0 0 0.460417 0 0 0 0 0.556401 0 0 0 0 0.85 0 0 0 1 0"/>
<feBlend mode="normal" in2="effect1_innerShadow" result="effect2_innerShadow"/>
</filter>
<filter id="filter14_ii" x="148.591" y="96.7693" width="7.38543" height="7.4014" filterUnits="userSpaceOnUse" color-interpolation-filters="sRGB">
<feFlood flood-opacity="0" result="BackgroundImageFix"/>
<feBlend mode="normal" in="SourceGraphic" in2="BackgroundImageFix" result="shape"/>
<feColorMatrix in="SourceAlpha" type="matrix" values="0 0 0 0 0 0 0 0 0 0 0 0 0 0 0 0 0 0 127 0" result="hardAlpha"/>
<feOffset dx="0.2" dy="0.5"/>
<feComposite in2="hardAlpha" operator="arithmetic" k2="-1" k3="1"/>
<feColorMatrix type="matrix" values="0 0 0 0 1 0 0 0 0 1 0 0 0 0 1 0 0 0 0.5 0"/>
<feBlend mode="normal" in2="shape" result="effect1_innerShadow"/>
<feColorMatrix in="SourceAlpha" type="matrix" values="0 0 0 0 0 0 0 0 0 0 0 0 0 0 0 0 0 0 127 0" result="hardAlpha"/>
<feOffset dx="-0.3" dy="-0.3"/>
<feComposite in2="hardAlpha" operator="arithmetic" k2="-1" k3="1"/>
<feColorMatrix type="matrix" values="0 0 0 0 0.0601852 0 0 0 0 0.270833 0 0 0 0 0 0 0 0 0.3 0"/>
<feBlend mode="normal" in2="effect1_innerShadow" result="effect2_innerShadow"/>
</filter>
<filter id="filter15_f" x="129.105" y="39.4778" width="126.761" height="91.2227" filterUnits="userSpaceOnUse" color-interpolation-filters="sRGB">
<feFlood flood-opacity="0" result="BackgroundImageFix"/>
<feBlend mode="normal" in="SourceGraphic" in2="BackgroundImageFix" result="shape"/>
<feGaussianBlur stdDeviation="20" result="effect1_foregroundBlur"/>
</filter>
<filter id="filter16_f" x="149.429" y="-15.8979" width="92.5711" height="104.38" filterUnits="userSpaceOnUse" color-interpolation-filters="sRGB">
<feFlood flood-opacity="0" result="BackgroundImageFix"/>
<feBlend mode="normal" in="SourceGraphic" in2="BackgroundImageFix" result="shape"/>
<feGaussianBlur stdDeviation="20" result="effect1_foregroundBlur"/>
</filter>
<filter id="filter17_f" x="-10.2861" y="70.4175" width="106.456" height="86.8479" filterUnits="userSpaceOnUse" color-interpolation-filters="sRGB">
<feFlood flood-opacity="0" result="BackgroundImageFix"/>
<feBlend mode="normal" in="SourceGraphic" in2="BackgroundImageFix" result="shape"/>
<feGaussianBlur stdDeviation="20" result="effect1_foregroundBlur"/>
</filter>
<linearGradient id="paint0_linear" x1="155" y1="0" x2="155" y2="160" gradientUnits="userSpaceOnUse">
<stop stop-color="#242731"/>
<stop offset="1" stop-color="#242731" stop-opacity="0.3"/>
</linearGradient>
<linearGradient id="paint1_linear" x1="81.1917" y1="45.3246" x2="93.5203" y2="61.7955" gradientUnits="userSpaceOnUse">
<stop stop-color="#FFDDCA"/>
<stop offset="0.415822" stop-color="#FFB4AF"/>
<stop offset="1" stop-color="#FF8383"/>
</linearGradient>
<linearGradient id="paint2_linear" x1="105.194" y1="144.627" x2="142.121" y2="142.784" gradientUnits="userSpaceOnUse">
<stop stop-color="#FFDDCA"/>
<stop offset="0.322848" stop-color="#FFB4AF"/>
<stop offset="1" stop-color="#E86969"/>
</linearGradient>
<radialGradient id="paint3_radial" cx="0" cy="0" r="1" gradientUnits="userSpaceOnUse" gradientTransform="translate(131.043 126.74) rotate(-91.116) scale(142.195 69.2373)">
<stop stop-color="#142969"/>
<stop offset="0.770833" stop-color="#6981CD"/>
<stop offset="1" stop-color="#FF5824"/>
</radialGradient>
<linearGradient id="paint4_linear" x1="106.763" y1="118.413" x2="193.441" y2="88.889" gradientUnits="userSpaceOnUse">
<stop offset="0.0001" stop-color="#A8B8EE"/>
<stop offset="0.625359" stop-color="#C6D3FF"/>
<stop offset="1" stop-color="#D2DDFF"/>
</linearGradient>
<linearGradient id="paint5_linear" x1="112.133" y1="40.6542" x2="134.617" y2="6.90114" gradientUnits="userSpaceOnUse">
<stop offset="0.0001" stop-color="#A8B8EE"/>
<stop offset="0.625359" stop-color="#C6D3FF"/>
<stop offset="1" stop-color="#D2DDFF"/>
</linearGradient>
<linearGradient id="paint6_linear" x1="154.123" y1="34.2225" x2="152.578" y2="29.8701" gradientUnits="userSpaceOnUse">
<stop stop-color="#79B169"/>
<stop offset="1" stop-color="#9EC657"/>
</linearGradient>
<linearGradient id="paint7_linear" x1="112.132" y1="86.4637" x2="134.616" y2="52.7107" gradientUnits="userSpaceOnUse">
<stop offset="0.0001" stop-color="#A8B8EE"/>
<stop offset="0.625359" stop-color="#C6D3FF"/>
<stop offset="1" stop-color="#D2DDFF"/>
</linearGradient>
<linearGradient id="paint8_linear" x1="154.123" y1="80.0321" x2="152.578" y2="75.6797" gradientUnits="userSpaceOnUse">
<stop stop-color="#79B169"/>
<stop offset="1" stop-color="#9EC657"/>
</linearGradient>
<linearGradient id="paint9_linear" x1="111.832" y1="63.5589" x2="134.316" y2="29.8059" gradientUnits="userSpaceOnUse">
<stop offset="0.0001" stop-color="#A8B8EE"/>
<stop offset="0.625359" stop-color="#C6D3FF"/>
<stop offset="1" stop-color="#D2DDFF"/>
</linearGradient>
<linearGradient id="paint10_linear" x1="153.822" y1="57.1273" x2="152.278" y2="52.7749" gradientUnits="userSpaceOnUse">
<stop stop-color="#79B169"/>
<stop offset="1" stop-color="#9EC657"/>
</linearGradient>
<linearGradient id="paint11_linear" x1="111.832" y1="109.369" x2="134.316" y2="75.6157" gradientUnits="userSpaceOnUse">
<stop offset="0.0001" stop-color="#A8B8EE"/>
<stop offset="0.625359" stop-color="#C6D3FF"/>
<stop offset="1" stop-color="#D2DDFF"/>
</linearGradient>
<linearGradient id="paint12_linear" x1="153.822" y1="102.937" x2="152.278" y2="98.5847" gradientUnits="userSpaceOnUse">
<stop stop-color="#79B169"/>
<stop offset="1" stop-color="#9EC657"/>
</linearGradient>
<linearGradient id="paint13_linear" x1="235.418" y1="201.267" x2="217.246" y2="210.487" gradientUnits="userSpaceOnUse">
<stop stop-color="#FFDDCA"/>
<stop offset="0.415822" stop-color="#FFB4AF"/>
<stop offset="1" stop-color="#FF8383"/>
</linearGradient>
<linearGradient id="paint14_linear" x1="183.973" y1="94.9754" x2="165.791" y2="107.583" gradientUnits="userSpaceOnUse">
<stop stop-color="#FFDDCA"/>
<stop offset="0.415822" stop-color="#FFB4AF"/>
<stop offset="1" stop-color="#FF8383"/>
</linearGradient>
<linearGradient id="paint15_linear" x1="83.6542" y1="119.955" x2="92.5666" y2="120.06" gradientUnits="userSpaceOnUse">
<stop stop-color="#FFDDCA"/>
<stop offset="0.415822" stop-color="#FFB4AF"/>
<stop offset="1" stop-color="#FF8383"/>
</linearGradient>
<linearGradient id="paint16_linear" x1="94.4148" y1="111.921" x2="94.4148" y2="119.731" gradientUnits="userSpaceOnUse">
<stop stop-color="#EF7C7A"/>
<stop offset="1" stop-color="#EF7C7A" stop-opacity="0"/>
</linearGradient>
<linearGradient id="paint17_linear" x1="83.53" y1="104.463" x2="90.5765" y2="106.38" gradientUnits="userSpaceOnUse">
<stop stop-color="#FFDDCA"/>
<stop offset="0.415822" stop-color="#FFB4AF"/>
<stop offset="1" stop-color="#FF8383"/>
</linearGradient>
<linearGradient id="paint18_linear" x1="93.8537" y1="97.8652" x2="93.8537" y2="105.632" gradientUnits="userSpaceOnUse">
<stop stop-color="#EF7C7A"/>
<stop offset="1" stop-color="#EF7C7A" stop-opacity="0"/>
</linearGradient>
<linearGradient id="paint19_linear" x1="84.2669" y1="81.0978" x2="91.9609" y2="82.3262" gradientUnits="userSpaceOnUse">
<stop stop-color="#FFDDCA"/>
<stop offset="0.415822" stop-color="#FFB4AF"/>
<stop offset="1" stop-color="#FF8383"/>
</linearGradient>
<linearGradient id="paint20_linear" x1="177.469" y1="80.5845" x2="177.469" y2="153.556" gradientUnits="userSpaceOnUse">
<stop stop-color="white"/>
<stop offset="1" stop-color="white" stop-opacity="0"/>
</linearGradient>
<linearGradient id="paint21_linear" x1="64.2497" y1="158.119" x2="117.839" y2="188.659" gradientUnits="userSpaceOnUse">
<stop stop-color="#FFDDCA"/>
<stop offset="0.331067" stop-color="#FFB4AF"/>
<stop offset="0.864455" stop-color="#FF8383"/>
<stop offset="1" stop-color="#F87A7A"/>
</linearGradient>
<linearGradient id="paint22_linear" x1="107.659" y1="208.772" x2="157.683" y2="108.94" gradientUnits="userSpaceOnUse">
<stop stop-color="#D56765"/>
<stop offset="1" stop-color="#EF7C7A" stop-opacity="0"/>
</linearGradient>
<linearGradient id="paint23_linear" x1="99.6331" y1="142.577" x2="99.6331" y2="168.415" gradientUnits="userSpaceOnUse">
<stop stop-color="#EF7C7A"/>
<stop offset="1" stop-color="#EF7C7A" stop-opacity="0"/>
</linearGradient>
<linearGradient id="paint24_linear" x1="77.2265" y1="145.964" x2="77.2265" y2="165.716" gradientUnits="userSpaceOnUse">
<stop stop-color="#EF7C7A"/>
<stop offset="1" stop-color="#EF7C7A" stop-opacity="0"/>
</linearGradient>
<linearGradient id="paint25_linear" x1="57.045" y1="151.362" x2="57.045" y2="166.455" gradientUnits="userSpaceOnUse">
<stop stop-color="#EF7C7A"/>
<stop offset="1" stop-color="#EF7C7A" stop-opacity="0"/>
</linearGradient>
<linearGradient id="paint26_linear" x1="38.2382" y1="159.854" x2="38.2382" y2="266.844" gradientUnits="userSpaceOnUse">
<stop stop-color="white"/>
<stop offset="1" stop-color="white" stop-opacity="0"/>
</linearGradient>
<linearGradient id="paint27_linear" x1="168.57" y1="76.3021" x2="171.576" y2="96.0388" gradientUnits="userSpaceOnUse">
<stop stop-color="#FBEEB8"/>
<stop offset="0.317708" stop-color="#F6D240"/>
<stop offset="0.508658" stop-color="#F2BC3C"/>
<stop offset="0.6864" stop-color="#E98C35"/>
<stop offset="0.8237" stop-color="#E2632E"/>
<stop offset="0.8238" stop-color="#E2632E"/>
<stop offset="1" stop-color="#D3344A"/>
</linearGradient>
<linearGradient id="paint28_linear" x1="162.942" y1="42.8777" x2="211.198" y2="69.5333" gradientUnits="userSpaceOnUse">
<stop stop-color="#FBEEB8"/>
<stop offset="0.178709" stop-color="#F6D240"/>
<stop offset="0.267289" stop-color="#F2BC3C"/>
<stop offset="0.467301" stop-color="#E98C35"/>
<stop offset="0.8237" stop-color="#E2632E"/>
<stop offset="0.8238" stop-color="#E2632E"/>
<stop offset="1" stop-color="#D3344A"/>
</linearGradient>
<linearGradient id="paint29_linear" x1="160.335" y1="10.7635" x2="192.433" y2="77.8919" gradientUnits="userSpaceOnUse">
<stop stop-color="#FBEEB8"/>
<stop offset="0.317708" stop-color="#F6D240"/>
<stop offset="0.508658" stop-color="#F2BC3C"/>
<stop offset="0.6864" stop-color="#E98C35"/>
<stop offset="0.8237" stop-color="#E2632E"/>
<stop offset="0.8238" stop-color="#E2632E"/>
<stop offset="1" stop-color="#D3344A"/>
</linearGradient>
<linearGradient id="paint30_linear" x1="160.335" y1="10.7635" x2="192.433" y2="77.8919" gradientUnits="userSpaceOnUse">
<stop stop-color="#FBEEB8"/>
<stop offset="0.317708" stop-color="#F6D240"/>
<stop offset="0.508658" stop-color="#F2BC3C"/>
<stop offset="0.6864" stop-color="#E98C35"/>
<stop offset="0.8237" stop-color="#E2632E"/>
<stop offset="0.8238" stop-color="#E2632E"/>
<stop offset="1" stop-color="#D3344A"/>
</linearGradient>
<linearGradient id="paint31_linear" x1="160.335" y1="10.7635" x2="192.433" y2="77.8919" gradientUnits="userSpaceOnUse">
<stop stop-color="#FBEEB8"/>
<stop offset="0.317708" stop-color="#F6D240"/>
<stop offset="0.508658" stop-color="#F2BC3C"/>
<stop offset="0.6864" stop-color="#E98C35"/>
<stop offset="0.8237" stop-color="#E2632E"/>
<stop offset="0.8238" stop-color="#E2632E"/>
<stop offset="1" stop-color="#D3344A"/>
</linearGradient>
<linearGradient id="paint32_linear" x1="202.874" y1="19.0865" x2="191.962" y2="71.8736" gradientUnits="userSpaceOnUse">
<stop stop-color="#FEFFFF"/>
<stop offset="0.2019" stop-color="#FBEEB8"/>
<stop offset="0.5238" stop-color="#F6D240"/>
<stop offset="0.5718" stop-color="#F2BC3C"/>
<stop offset="0.6864" stop-color="#E98C35"/>
<stop offset="0.7741" stop-color="#E46E30"/>
<stop offset="0.8237" stop-color="#E2632E"/>
<stop offset="0.8248" stop-color="#E2632E"/>
<stop offset="0.8916" stop-color="#DA493E"/>
<stop offset="0.952" stop-color="#D53947"/>
<stop offset="1" stop-color="#D3344A"/>
</linearGradient>
<linearGradient id="paint33_linear" x1="171.076" y1="14.8164" x2="192.717" y2="62.9129" gradientUnits="userSpaceOnUse">
<stop stop-color="#FBEEB8"/>
<stop offset="0.317708" stop-color="#F6D240"/>
<stop offset="0.508658" stop-color="#F2BC3C"/>
<stop offset="0.6864" stop-color="#E98C35"/>
<stop offset="0.8237" stop-color="#E2632E"/>
<stop offset="0.8238" stop-color="#E2632E"/>
<stop offset="1" stop-color="#D3344A"/>
</linearGradient>
<linearGradient id="paint34_linear" x1="173.28" y1="34.82" x2="204.012" y2="56.1492" gradientUnits="userSpaceOnUse">
<stop stop-color="#FBEEB8"/>
<stop offset="0.178709" stop-color="#F6D240"/>
<stop offset="0.267289" stop-color="#F2BC3C"/>
<stop offset="0.467301" stop-color="#E98C35"/>
<stop offset="0.8237" stop-color="#E2632E"/>
<stop offset="0.8238" stop-color="#E2632E"/>
<stop offset="1" stop-color="#D3344A"/>
</linearGradient>
<linearGradient id="paint35_linear" x1="193.084" y1="22.0429" x2="184.416" y2="28.9455" gradientUnits="userSpaceOnUse">
<stop stop-color="#FBEEB8"/>
<stop offset="0.317708" stop-color="#F6D240"/>
<stop offset="0.508658" stop-color="#F2BC3C"/>
<stop offset="0.6864" stop-color="#E98C35"/>
<stop offset="0.8237" stop-color="#E2632E"/>
<stop offset="0.8238" stop-color="#E2632E"/>
<stop offset="1" stop-color="#D3344A"/>
</linearGradient>
<linearGradient id="paint36_linear" x1="207.927" y1="9.63006" x2="208.076" y2="41.0308" gradientUnits="userSpaceOnUse">
<stop stop-color="#FBEEB8"/>
<stop offset="0.178709" stop-color="#F6D240"/>
<stop offset="0.267289" stop-color="#F2BC3C"/>
<stop offset="0.467301" stop-color="#E98C35"/>
<stop offset="0.8237" stop-color="#E2632E"/>
<stop offset="0.8238" stop-color="#E2632E"/>
<stop offset="1" stop-color="#D3344A"/>
</linearGradient>
<linearGradient id="paint37_linear" x1="222.771" y1="-0.587241" x2="198.873" y2="33.612" gradientUnits="userSpaceOnUse">
<stop stop-color="#FBEEB8"/>
<stop offset="0.317708" stop-color="#F6D240"/>
<stop offset="0.508658" stop-color="#F2BC3C"/>
<stop offset="0.6864" stop-color="#E98C35"/>
<stop offset="0.8237" stop-color="#E2632E"/>
<stop offset="0.8238" stop-color="#E2632E"/>
<stop offset="1" stop-color="#D3344A"/>
</linearGradient>
<linearGradient id="paint38_linear" x1="222.771" y1="-0.587241" x2="198.873" y2="33.612" gradientUnits="userSpaceOnUse">
<stop stop-color="#FBEEB8"/>
<stop offset="0.317708" stop-color="#F6D240"/>
<stop offset="0.508658" stop-color="#F2BC3C"/>
<stop offset="0.6864" stop-color="#E98C35"/>
<stop offset="0.8237" stop-color="#E2632E"/>
<stop offset="0.8238" stop-color="#E2632E"/>
<stop offset="1" stop-color="#D3344A"/>
</linearGradient>
<linearGradient id="paint39_linear" x1="222.771" y1="-0.587241" x2="198.873" y2="33.612" gradientUnits="userSpaceOnUse">
<stop stop-color="#FBEEB8"/>
<stop offset="0.317708" stop-color="#F6D240"/>
<stop offset="0.508658" stop-color="#F2BC3C"/>
<stop offset="0.6864" stop-color="#E98C35"/>
<stop offset="0.8237" stop-color="#E2632E"/>
<stop offset="0.8238" stop-color="#E2632E"/>
<stop offset="1" stop-color="#D3344A"/>
</linearGradient>
<linearGradient id="paint40_linear" x1="231.064" y1="22.8228" x2="202.459" y2="32.5676" gradientUnits="userSpaceOnUse">
<stop stop-color="#FEFFFF"/>
<stop offset="0.2019" stop-color="#FBEEB8"/>
<stop offset="0.5238" stop-color="#F6D240"/>
<stop offset="0.5718" stop-color="#F2BC3C"/>
<stop offset="0.6864" stop-color="#E98C35"/>
<stop offset="0.7741" stop-color="#E46E30"/>
<stop offset="0.8237" stop-color="#E2632E"/>
<stop offset="0.8248" stop-color="#E2632E"/>
<stop offset="0.8916" stop-color="#DA493E"/>
<stop offset="0.952" stop-color="#D53947"/>
<stop offset="1" stop-color="#D3344A"/>
</linearGradient>
<linearGradient id="paint41_linear" x1="223.94" y1="5.83001" x2="206.469" y2="29.6609" gradientUnits="userSpaceOnUse">
<stop stop-color="#FBEEB8"/>
<stop offset="0.317708" stop-color="#F6D240"/>
<stop offset="0.508658" stop-color="#F2BC3C"/>
<stop offset="0.6864" stop-color="#E98C35"/>
<stop offset="0.8237" stop-color="#E2632E"/>
<stop offset="0.8238" stop-color="#E2632E"/>
<stop offset="1" stop-color="#D3344A"/>
</linearGradient>
<linearGradient id="paint42_linear" x1="214.894" y1="12.4744" x2="212.821" y2="33.5865" gradientUnits="userSpaceOnUse">
<stop stop-color="#FBEEB8"/>
<stop offset="0.178709" stop-color="#F6D240"/>
<stop offset="0.267289" stop-color="#F2BC3C"/>
<stop offset="0.467301" stop-color="#E98C35"/>
<stop offset="0.8237" stop-color="#E2632E"/>
<stop offset="0.8238" stop-color="#E2632E"/>
<stop offset="1" stop-color="#D3344A"/>
</linearGradient>
<linearGradient id="paint43_linear" x1="29.5743" y1="108.294" x2="30.8864" y2="119.663" gradientUnits="userSpaceOnUse">
<stop stop-color="#FBEEB8"/>
<stop offset="0.317708" stop-color="#F6D240"/>
<stop offset="0.508658" stop-color="#F2BC3C"/>
<stop offset="0.6864" stop-color="#E98C35"/>
<stop offset="0.8237" stop-color="#E2632E"/>
<stop offset="0.8238" stop-color="#E2632E"/>
<stop offset="1" stop-color="#D3344A"/>
</linearGradient>
<linearGradient id="paint44_linear" x1="27.1472" y1="89.2254" x2="53.9028" y2="105.389" gradientUnits="userSpaceOnUse">
<stop stop-color="#FBEEB8"/>
<stop offset="0.178709" stop-color="#F6D240"/>
<stop offset="0.267289" stop-color="#F2BC3C"/>
<stop offset="0.467301" stop-color="#E98C35"/>
<stop offset="0.8237" stop-color="#E2632E"/>
<stop offset="0.8238" stop-color="#E2632E"/>
<stop offset="1" stop-color="#D3344A"/>
</linearGradient>
<linearGradient id="paint45_linear" x1="26.4404" y1="70.8674" x2="43.3024" y2="109.687" gradientUnits="userSpaceOnUse">
<stop stop-color="#FBEEB8"/>
<stop offset="0.317708" stop-color="#F6D240"/>
<stop offset="0.508658" stop-color="#F2BC3C"/>
<stop offset="0.6864" stop-color="#E98C35"/>
<stop offset="0.8237" stop-color="#E2632E"/>
<stop offset="0.8238" stop-color="#E2632E"/>
<stop offset="1" stop-color="#D3344A"/>
</linearGradient>
<linearGradient id="paint46_linear" x1="26.4404" y1="70.8674" x2="43.3024" y2="109.687" gradientUnits="userSpaceOnUse">
<stop stop-color="#FBEEB8"/>
<stop offset="0.317708" stop-color="#F6D240"/>
<stop offset="0.508658" stop-color="#F2BC3C"/>
<stop offset="0.6864" stop-color="#E98C35"/>
<stop offset="0.8237" stop-color="#E2632E"/>
<stop offset="0.8238" stop-color="#E2632E"/>
<stop offset="1" stop-color="#D3344A"/>
</linearGradient>
<linearGradient id="paint47_linear" x1="26.4404" y1="70.8674" x2="43.3024" y2="109.687" gradientUnits="userSpaceOnUse">
<stop stop-color="#FBEEB8"/>
<stop offset="0.317708" stop-color="#F6D240"/>
<stop offset="0.508658" stop-color="#F2BC3C"/>
<stop offset="0.6864" stop-color="#E98C35"/>
<stop offset="0.8237" stop-color="#E2632E"/>
<stop offset="0.8238" stop-color="#E2632E"/>
<stop offset="1" stop-color="#D3344A"/>
</linearGradient>
<linearGradient id="paint48_linear" x1="50.3551" y1="76.5268" x2="42.9646" y2="106.402" gradientUnits="userSpaceOnUse">
<stop stop-color="#FEFFFF"/>
<stop offset="0.2019" stop-color="#FBEEB8"/>
<stop offset="0.5238" stop-color="#F6D240"/>
<stop offset="0.5718" stop-color="#F2BC3C"/>
<stop offset="0.6864" stop-color="#E98C35"/>
<stop offset="0.7741" stop-color="#E46E30"/>
<stop offset="0.8237" stop-color="#E2632E"/>
<stop offset="0.8248" stop-color="#E2632E"/>
<stop offset="0.8916" stop-color="#DA493E"/>
<stop offset="0.952" stop-color="#D53947"/>
<stop offset="1" stop-color="#D3344A"/>
</linearGradient>
<linearGradient id="paint49_linear" x1="32.4254" y1="73.4178" x2="43.7404" y2="101.213" gradientUnits="userSpaceOnUse">
<stop stop-color="#FBEEB8"/>
<stop offset="0.317708" stop-color="#F6D240"/>
<stop offset="0.508658" stop-color="#F2BC3C"/>
<stop offset="0.6864" stop-color="#E98C35"/>
<stop offset="0.8237" stop-color="#E2632E"/>
<stop offset="0.8238" stop-color="#E2632E"/>
<stop offset="1" stop-color="#D3344A"/>
</linearGradient>
<linearGradient id="paint50_linear" x1="33.1861" y1="84.8718" x2="50.1537" y2="97.6281" gradientUnits="userSpaceOnUse">
<stop stop-color="#FBEEB8"/>
<stop offset="0.178709" stop-color="#F6D240"/>
<stop offset="0.267289" stop-color="#F2BC3C"/>
<stop offset="0.467301" stop-color="#E98C35"/>
<stop offset="0.8237" stop-color="#E2632E"/>
<stop offset="0.8238" stop-color="#E2632E"/>
<stop offset="1" stop-color="#D3344A"/>
</linearGradient>
<clipPath id="clip0">
<rect width="720" height="160" fill="white"/>
</clipPath>
</defs>
</svg>
