<svg width="200" height="322" viewBox="0 0 200 322" fill="none" xmlns="http://www.w3.org/2000/svg">
<g clip-path="url(#clip0)">
<g filter="url(#filter0_dd)">
<rect y="22.0001" width="200" height="300" rx="12" fill="#242731"/>
</g>
<mask id="mask0" mask-type="alpha" maskUnits="userSpaceOnUse" x="0" y="22" width="200" height="300">
<rect y="22.0001" width="200" height="300" rx="12" fill="#242731"/>
</mask>
<g mask="url(#mask0)">
<g filter="url(#filter1_f)">
<path d="M52.5519 249.776C34.0431 233.132 36.0974 188.303 15.8257 180.932C-19.0865 168.238 -0.552069 288.442 15.8257 345.517C47.4501 455.724 210.253 465.133 191.916 345.517C184.173 295.003 172.941 253.636 144.634 241.931C124.083 233.434 113.197 265.144 92.1169 264.505C76.3427 264.028 66.6726 262.474 52.5519 249.776Z" fill="#242DFF"/>
</g>
<g filter="url(#filter2_f)">
<path d="M52.5519 265.146C34.0431 248.502 36.0974 203.673 15.8257 196.302C-19.0865 183.608 -0.552069 303.812 15.8257 360.887C47.4501 471.094 210.253 480.503 191.916 360.887C184.173 310.372 172.941 269.005 144.634 257.301C124.083 248.804 113.197 280.513 92.1169 279.875C76.3427 279.398 66.6726 277.843 52.5519 265.146Z" fill="#FF5824"/>
</g>
<g filter="url(#filter3_f)">
<ellipse cx="194.002" cy="341.223" rx="87.2913" ry="104.547" fill="#FF4545"/>
</g>
<g filter="url(#filter4_f)">
<ellipse cx="176.615" cy="341.383" rx="67.0653" ry="80.3712" fill="#FF5824"/>
</g>
</g>
<mask id="mask1" mask-type="alpha" maskUnits="userSpaceOnUse" x="0" y="22" width="200" height="300">
<rect y="22.0001" width="200" height="300" rx="12" fill="url(#paint0_linear)"/>
</mask>
<g mask="url(#mask1)">
<path d="M163.201 169.904C163.201 169.904 140.076 187.407 133.478 169.48C129.074 157.452 93.9746 129.235 72.3762 109.094C61.7191 99.1562 54.3656 91.1934 55.5921 88.1268C55.6199 88.0356 55.6699 87.9466 55.7192 87.8797C56.6803 86.0173 59.6122 85.6989 63.8411 86.5462C66.9569 87.1556 70.754 88.3955 75.0098 90.1188C91.654 96.805 114.931 110.683 128.584 122.283C129.731 123.257 130.854 124.253 131.975 125.297C134.505 127.603 136.958 130.041 139.341 132.524C156.252 150.371 163.201 169.904 163.201 169.904Z" fill="url(#paint1_linear)"/>
<path d="M164.885 196.614C164.041 209.447 151.415 240.362 143.461 254.767C141.187 258.86 139.749 261.366 139.749 261.366L131.318 254.017C130.247 252.339 129.235 250.725 128.24 249.174C125.953 244.965 122.176 238.398 118.745 234.443C117.751 233.303 116.653 232.158 115.475 230.989C115.476 230.969 115.457 230.948 115.437 230.947C110.275 225.796 103.916 219.867 100.691 208.631C100.003 206.27 99.2761 200.838 98.7069 198.998C96.8233 189.869 95.9909 186.637 96.6353 183.084C97.2796 179.53 99.4201 175.639 103.955 169.882C108.007 164.742 115.114 163.226 122.11 158.064C128.871 153.075 136.061 148.994 141.804 147.642C146.154 146.594 149.707 147.136 151.605 150.029C153.715 153.22 156.354 156.932 158.976 161.013C165.08 170.494 165.643 185.115 164.885 196.614Z" fill="url(#paint2_linear)"/>
<g filter="url(#filter5_ii)">
<path d="M131.067 181.603L129.72 181.597L111.941 181.561L104.892 181.547L89.4518 181.519L81.8379 181.505L81.5768 181.51C75.4524 181.506 70.4288 176.472 70.4608 170.319L70.6647 50.0622C70.6942 43.9341 75.7186 38.927 81.843 38.9328L131.334 39.0253C137.481 39.0335 142.477 44.0873 142.454 50.1939L142.263 149.87L142.246 170.472C142.218 176.602 137.194 181.607 131.067 181.603Z" fill="url(#paint3_radial)"/>
</g>
<g filter="url(#filter6_ii)">
<path d="M129.904 167.252L82.801 167.098C78.0549 167.09 74.1789 163.195 74.1873 158.442L74.415 56.5387C74.4234 51.7865 78.3143 47.9052 83.0604 47.9133L130.163 48.067C134.91 48.0751 138.786 51.9707 138.777 56.7229L138.549 158.627C138.541 163.381 134.65 167.262 129.904 167.252Z" fill="url(#paint4_linear)"/>
</g>
<path d="M107.487 177.972C109.33 177.873 110.744 176.297 110.645 174.451C110.545 172.606 108.971 171.19 107.128 171.29C105.285 171.389 103.871 172.966 103.97 174.811C104.069 176.656 105.644 178.072 107.487 177.972Z" fill="#0A1331"/>
<path d="M117.811 42.6485L98.2253 42.6126C97.8691 42.6119 97.5787 42.9031 97.5781 43.258L97.5775 43.5444C97.5768 43.9011 97.8676 44.1918 98.222 44.1924L117.807 44.2284C118.164 44.229 118.454 43.9378 118.455 43.583L118.455 43.2965C118.456 42.9398 118.165 42.6491 117.811 42.6485Z" fill="#31478B"/>
<g filter="url(#filter7_ii)">
<path d="M126.839 78.3984L87.1898 78.3244C84.241 78.3182 81.8345 75.9001 81.8408 72.9476L81.8576 64.0412C81.8639 61.0887 84.2791 58.6789 87.2278 58.685L126.877 58.7591C129.826 58.7652 132.232 61.1833 132.226 64.1359L132.209 73.0422C132.203 75.993 129.788 78.4028 126.839 78.3984Z" fill="url(#paint5_linear)"/>
</g>
<path d="M99.8259 68.2958C99.7355 71.4298 97.7353 74.0616 94.986 75.1274C94.0803 75.483 93.0969 75.6527 92.0704 75.623C91.0277 75.5929 90.0393 75.3481 89.14 74.94C86.4726 73.7164 84.647 70.9754 84.737 67.8558C84.8576 63.6759 88.3365 60.3905 92.5109 60.5128C96.6675 60.6328 99.9483 64.1159 99.8259 68.2958Z" fill="#E5EBFF"/>
<path d="M94.398 68.6206C94.9585 67.3198 94.3596 65.8104 93.0604 65.2493C91.7613 64.6883 90.2538 65.288 89.6933 66.5889C89.1329 67.8898 89.7318 69.3992 91.0309 69.9602C92.3301 70.5213 93.8376 69.9215 94.398 68.6206Z" fill="#BAC9F9"/>
<path d="M87.3635 73.7977C87.4794 73.3976 87.6553 73.0202 87.8833 72.674C88.8994 71.6577 90.3489 71.0604 91.9283 71.1058C93.5558 71.1525 94.9913 71.859 95.9468 72.9804C96.1881 73.4134 96.348 73.8883 96.4164 74.3905C95.9701 74.6844 95.4915 74.9323 94.9877 75.1276C94.082 75.4831 93.0985 75.6529 92.0718 75.6232C91.029 75.5931 90.0406 75.3483 89.1411 74.9401C88.4939 74.6432 87.8963 74.257 87.3635 73.7977Z" fill="#BAC9F9"/>
<path d="M102.689 64.6352L123.691 64.6738" stroke="white" stroke-linecap="round"/>
<path d="M102.617 67.2856L114.526 67.308" stroke="white" stroke-linecap="round"/>
<path d="M102.546 69.9362L119.744 70.1021" stroke="white" stroke-linecap="round"/>
<path d="M102.438 73.9125L108.394 73.9237" stroke="white" stroke-linecap="round"/>
<g filter="url(#filter8_ii)">
<path d="M130.917 72.8276C133.108 72.887 134.932 71.1551 134.992 68.9593C135.051 66.7635 133.323 64.9352 131.132 64.8758C128.941 64.8163 127.117 66.5482 127.057 68.744C126.998 70.9399 128.726 72.7681 130.917 72.8276Z" fill="url(#paint6_linear)"/>
</g>
<path d="M130.988 70.1716C130.853 70.1479 130.735 70.0811 130.663 69.9822L129.782 68.7879C129.639 68.5934 129.713 68.343 129.945 68.2272C130.177 68.1131 130.481 68.1782 130.626 68.3677L131.1 69.0126L132.127 67.7464C132.28 67.5599 132.579 67.5095 132.813 67.6379C133.04 67.7661 133.102 68.0186 132.951 68.2051L131.497 69.9998C131.405 70.116 131.245 70.1819 131.077 70.179C131.044 70.1798 131.016 70.1757 130.988 70.1716Z" fill="white"/>
<g filter="url(#filter9_ii)">
<path d="M125.502 127.61L85.8529 127.536C82.9041 127.53 80.4976 125.112 80.5039 122.159L80.5206 113.253C80.527 110.3 82.9421 107.89 85.8909 107.897L125.54 107.971C128.489 107.977 130.896 110.395 130.889 113.347L130.872 122.254C130.866 125.204 128.451 127.614 125.502 127.61Z" fill="url(#paint7_linear)"/>
</g>
<path d="M98.4891 117.507C98.3987 120.641 96.3985 123.273 93.6492 124.339C92.7435 124.694 91.7602 124.864 90.7336 124.834C89.6909 124.804 88.7025 124.56 87.8032 124.151C85.1358 122.928 83.3102 120.187 83.4002 117.067C83.5208 112.887 86.9997 109.602 91.1741 109.724C95.3307 109.844 98.6115 113.327 98.4891 117.507Z" fill="#E5EBFF"/>
<path d="M93.0612 117.832C93.6217 116.531 93.0228 115.022 91.7236 114.461C90.4245 113.9 88.917 114.499 88.3565 115.8C87.7961 117.101 88.395 118.611 89.6942 119.172C90.9933 119.733 92.5008 119.133 93.0612 117.832Z" fill="#BAC9F9"/>
<path d="M86.0268 123.009C86.1428 122.609 86.3187 122.232 86.5466 121.885C87.5628 120.869 89.0122 120.272 90.5916 120.317C92.2191 120.364 93.6547 121.07 94.6101 122.192C94.8514 122.625 95.0113 123.1 95.0798 123.602C94.6334 123.896 94.1548 124.144 93.6511 124.339C92.7453 124.695 91.7618 124.864 90.7352 124.835C89.6923 124.805 88.7039 124.56 87.8045 124.152C87.1573 123.855 86.5596 123.468 86.0268 123.009Z" fill="#BAC9F9"/>
<path d="M101.354 113.847L122.355 113.885" stroke="white" stroke-linecap="round"/>
<path d="M101.282 116.497L113.191 116.519" stroke="white" stroke-linecap="round"/>
<path d="M101.21 119.148L118.408 119.314" stroke="white" stroke-linecap="round"/>
<path d="M101.103 123.123L107.058 123.134" stroke="white" stroke-linecap="round"/>
<g filter="url(#filter10_ii)">
<path d="M129.581 122.039C131.772 122.098 133.596 120.367 133.656 118.171C133.716 115.975 131.988 114.147 129.797 114.087C127.605 114.028 125.781 115.76 125.721 117.955C125.662 120.151 127.39 121.98 129.581 122.039Z" fill="url(#paint8_linear)"/>
</g>
<path d="M129.652 119.383C129.517 119.359 129.4 119.293 129.327 119.194L128.446 117.999C128.304 117.805 128.377 117.554 128.609 117.439C128.841 117.325 129.145 117.39 129.29 117.579L129.765 118.224L130.791 116.958C130.944 116.771 131.244 116.721 131.477 116.849C131.704 116.978 131.766 117.23 131.615 117.417L130.161 119.211C130.069 119.328 129.909 119.393 129.741 119.391C129.709 119.391 129.681 119.387 129.652 119.383Z" fill="white"/>
<g filter="url(#filter11_ii)">
<path d="M125.848 102.996L86.1987 102.921C83.2499 102.915 80.8434 100.497 80.8497 97.5447L80.8665 88.6383C80.8728 85.6858 83.288 83.276 86.2367 83.2821L125.886 83.3562C128.835 83.3623 131.241 85.7804 131.235 88.733L131.218 97.6393C131.212 100.59 128.797 103 125.848 102.996Z" fill="url(#paint9_linear)"/>
</g>
<path d="M98.8351 92.8927C98.7446 96.0268 96.7445 98.6586 93.9951 99.7244C93.0895 100.08 92.1061 100.25 91.0796 100.22C90.0368 100.19 89.0485 99.9451 88.1492 99.537C85.4817 98.3134 83.6561 95.5724 83.7461 92.4528C83.8667 88.2728 87.3456 84.9875 91.5201 85.1098C95.6766 85.2298 98.9575 88.7129 98.8351 92.8927Z" fill="#E5EBFF"/>
<path d="M93.4044 93.2177C93.9648 91.9168 93.3659 90.4074 92.0668 89.8464C90.7676 89.2853 89.2601 89.8851 88.6997 91.1859C88.1393 92.4868 88.7381 93.9962 90.0373 94.5573C91.3365 95.1183 92.8439 94.5186 93.4044 93.2177Z" fill="#BAC9F9"/>
<path d="M86.3689 98.3948C86.4848 97.9947 86.6607 97.6173 86.8887 97.2711C87.9048 96.2548 89.3543 95.6575 90.9336 95.7029C92.5612 95.7496 93.9967 96.4561 94.9522 97.5775C95.1934 98.0105 95.3534 98.4854 95.4218 98.9876C94.9755 99.2815 94.4969 99.5294 93.9931 99.7247C93.0874 100.08 92.1039 100.25 91.0772 100.22C90.0344 100.19 89.0459 99.9454 88.1465 99.5372C87.4993 99.2403 86.9016 98.8541 86.3689 98.3948Z" fill="#BAC9F9"/>
<path d="M101.697 89.2322L122.698 89.2708" stroke="white" stroke-linecap="round"/>
<path d="M101.625 91.8825L113.533 91.9048" stroke="white" stroke-linecap="round"/>
<path d="M101.553 94.5332L118.751 94.6991" stroke="white" stroke-linecap="round"/>
<path d="M101.445 98.5093L107.4 98.5205" stroke="white" stroke-linecap="round"/>
<g filter="url(#filter12_ii)">
<path d="M129.926 97.4246C132.117 97.4841 133.941 95.7522 134.001 93.5564C134.061 91.3605 132.333 89.5323 130.142 89.4728C127.95 89.4134 126.126 91.1452 126.066 93.3411C126.007 95.5369 127.735 97.3652 129.926 97.4246Z" fill="url(#paint10_linear)"/>
</g>
<path d="M129.996 94.7685C129.861 94.7448 129.744 94.6781 129.671 94.5791L128.79 93.3848C128.648 93.1904 128.721 92.9399 128.953 92.8241C129.185 92.71 129.489 92.7751 129.634 92.9647L130.109 93.6095L131.136 92.3433C131.289 92.1568 131.588 92.1064 131.821 92.2348C132.049 92.363 132.11 92.6155 131.96 92.802L130.505 94.5967C130.413 94.7129 130.253 94.7788 130.085 94.776C130.053 94.7767 130.025 94.7726 129.996 94.7685Z" fill="white"/>
<g filter="url(#filter13_ii)">
<path d="M124.513 152.207L84.864 152.133C81.9152 152.127 79.5087 149.709 79.515 146.756L79.5318 137.85C79.5381 134.897 81.9532 132.487 84.902 132.493L124.551 132.568C127.5 132.574 129.907 134.992 129.9 137.944L129.884 146.851C129.877 149.801 127.462 152.211 124.513 152.207Z" fill="url(#paint11_linear)"/>
</g>
<path d="M97.5005 142.104C97.41 145.238 95.4099 147.87 92.6605 148.936C91.7549 149.292 90.7715 149.461 89.745 149.432C88.7022 149.401 87.7139 149.157 86.8146 148.749C84.1471 147.525 82.3215 144.784 82.4116 141.664C82.5322 137.484 86.011 134.199 90.1855 134.321C94.342 134.441 97.6229 137.924 97.5005 142.104Z" fill="#E5EBFF"/>
<path d="M92.07 142.429C92.6304 141.128 92.0316 139.619 90.7324 139.058C89.4333 138.497 87.9258 139.096 87.3653 140.397C86.8049 141.698 87.4038 143.208 88.7029 143.769C90.0021 144.33 91.5096 143.73 92.07 142.429Z" fill="#BAC9F9"/>
<path d="M85.0355 147.606C85.1514 147.206 85.3273 146.829 85.5553 146.482C86.5714 145.466 88.0209 144.869 89.6003 144.914C91.2278 144.961 92.6633 145.668 93.6188 146.789C93.8601 147.222 94.02 147.697 94.0884 148.199C93.6421 148.493 93.1635 148.741 92.6597 148.936C91.754 149.292 90.7705 149.461 89.7438 149.432C88.701 149.402 87.7126 149.157 86.8131 148.749C86.1659 148.452 85.5683 148.066 85.0355 147.606Z" fill="#BAC9F9"/>
<path d="M100.364 138.444L121.366 138.482" stroke="white" stroke-linecap="round"/>
<path d="M100.293 141.094L112.202 141.116" stroke="white" stroke-linecap="round"/>
<path d="M100.22 143.745L117.418 143.91" stroke="white" stroke-linecap="round"/>
<path d="M100.113 147.721L106.068 147.732" stroke="white" stroke-linecap="round"/>
<g filter="url(#filter14_ii)">
<path d="M128.593 146.636C130.784 146.696 132.608 144.964 132.668 142.768C132.727 140.572 130.999 138.744 128.808 138.684C126.617 138.625 124.793 140.357 124.733 142.553C124.674 144.748 126.402 146.577 128.593 146.636Z" fill="url(#paint12_linear)"/>
</g>
<path d="M128.661 143.98C128.526 143.956 128.408 143.89 128.336 143.791L127.455 142.596C127.313 142.402 127.386 142.151 127.618 142.036C127.85 141.922 128.154 141.987 128.299 142.176L128.774 142.821L129.8 141.555C129.953 141.368 130.252 141.318 130.486 141.446C130.713 141.575 130.775 141.827 130.624 142.014L129.17 143.808C129.078 143.924 128.918 143.99 128.75 143.987C128.718 143.988 128.689 143.984 128.661 143.98Z" fill="white"/>
<path d="M128.312 248.733C129.307 250.283 130.32 251.898 131.391 253.576C138.43 264.69 146.765 285.016 154.665 303.063C161.781 319.32 180.721 324.752 196.26 316.192C215.186 305.767 219.476 280.303 205.428 263.881C193.774 250.258 183.741 238.153 182.001 235.499C174.334 223.801 136.722 171.816 134.109 183.369C133.218 187.342 131.175 192.167 129.258 197.389C126.391 205.242 123.813 213.954 125.959 221.946L125.979 221.968C126.517 224.032 127.387 226.052 128.652 227.988C129.208 228.838 129.602 229.599 129.858 230.291C129.929 230.501 130.002 230.69 130.055 230.877C132.03 237.316 120.457 234.967 115.393 230.357C115.433 230.401 115.471 230.443 115.509 230.507C115.53 230.508 115.548 230.529 115.548 230.55C117.454 232.824 121.139 237.491 124.851 243.294C125.942 244.993 127.088 246.8 128.312 248.733Z" fill="url(#paint13_linear)"/>
<path opacity="0.6" d="M128.312 248.733C129.307 250.284 130.32 251.898 131.391 253.576C138.724 265.155 147.465 286.733 155.654 305.315C162.254 320.293 179.776 325.273 194.108 317.378L200.969 313.599C183.572 315.912 146.445 259.415 130.056 230.877C132.03 237.316 120.457 234.967 115.393 230.357C115.433 230.401 115.471 230.443 115.509 230.508C115.53 230.508 115.548 230.529 115.548 230.55C117.454 232.825 121.139 237.491 124.851 243.294C125.942 244.993 127.088 246.8 128.312 248.733Z" fill="url(#paint14_linear)"/>
<path d="M115.282 230.754C114.888 230.385 114.535 230.017 114.245 229.633C114.167 229.527 114.129 229.464 114.129 229.464C114.17 229.465 114.581 229.917 115.282 230.754Z" fill="#FFADAF"/>
<path d="M179.734 232.682C179.734 232.682 166.558 198.241 166.802 188.573C167.046 178.902 173.077 170.757 166.699 148.427C160.323 126.094 149.617 118.678 148.924 111.159C148.232 103.641 148.726 92.8448 145.643 92.766C142.56 92.6887 132.796 95.5379 132.137 112.948C131.478 130.357 135.767 125.3 137.535 142.552C139.303 159.804 127.578 153.858 127.891 193.796C128.206 233.734 165.656 242.621 166.554 241.981C167.452 241.342 179.734 232.682 179.734 232.682Z" fill="url(#paint15_linear)"/>
<path opacity="0.4" d="M147.421 94.7406C147.421 94.7406 145.71 93.4843 143.486 96.1862C141.262 98.888 142.969 109.409 143.805 110.81C144.641 112.21 148.045 111.798 148.49 110.486C148.936 109.174 148.33 95.0221 147.421 94.7406Z" fill="white"/>
<path d="M72.7858 170.466C69.5761 172.152 61.5111 170.92 57.9781 165.257C56.0314 162.125 56.686 159.127 57.6443 157.073C58.4316 155.429 59.4355 154.384 59.4355 154.384C62.4005 151.387 65.2553 154.438 71.1087 157.747C72.6731 158.628 73.7476 159.824 74.4275 161.145C76.2983 164.744 75.1332 169.224 72.7858 170.466Z" fill="url(#paint16_linear)"/>
<path d="M74.4308 161.146C68.9358 163.189 61.9689 159.947 57.6477 157.074C58.4349 155.431 59.4388 154.386 59.4388 154.386C62.4038 151.389 65.2586 154.439 71.112 157.749C72.6748 158.63 73.7493 159.826 74.4308 161.146Z" fill="url(#paint17_linear)"/>
<path opacity="0.4" d="M63.3293 165.356C63.6098 164.707 64.2231 164.342 64.7986 164.435C66.4953 164.711 71.4678 164.496 71.5184 166.717C71.5838 169.561 70.6864 170.936 69.7651 170.804C67.5534 170.484 63.2264 169.324 63.0334 167.448C62.9433 166.564 63.1096 165.866 63.3293 165.356Z" fill="white"/>
<path d="M71.0999 158.31C67.3922 159.726 58.7905 157.322 55.6862 150.688C52.8605 144.64 57.6605 139.962 58.5404 139.168C58.6378 139.08 58.6846 139.045 58.6846 139.045C62.2955 136.175 65.0045 139.868 70.9543 144.236C71.9219 144.937 72.6649 145.745 73.2116 146.606C76.1873 151.094 74.2261 157.132 71.0999 158.31Z" fill="url(#paint18_linear)"/>
<path opacity="0.4" d="M59.9597 150.894C60.3313 150.036 61.141 149.553 61.9025 149.677C64.146 150.042 70.7193 149.758 70.7869 152.695C70.8733 156.455 69.6885 158.273 68.4692 158.097C65.5463 157.674 59.8237 156.141 59.571 153.662C59.4508 152.49 59.669 151.567 59.9597 150.894Z" fill="white"/>
<path d="M73.2139 146.606C72.2817 146.705 71.2004 146.695 69.9848 146.497C66.5178 145.932 61.4081 141.888 58.5411 139.168C58.6385 139.08 58.6854 139.045 58.6854 139.045C62.2962 136.175 65.0053 139.868 70.9551 144.237C71.9243 144.937 72.6672 145.747 73.2139 146.606Z" fill="url(#paint19_linear)"/>
<path d="M70.7927 107.962C70.7927 107.962 59.5149 105.321 56.9418 113.658C56.0146 116.663 56.1073 126.966 57.667 130.414C61.6917 139.315 65.4834 145.83 72.1004 143.525C78.7365 141.214 76.9685 133.83 74.608 129.429C72.2475 125.028 70.3394 122.979 70.6296 122.379C70.9214 121.78 70.7927 107.962 70.7927 107.962Z" fill="url(#paint20_linear)"/>
<path opacity="0.4" d="M61.8925 129.794C62.5679 129.182 63.5775 129.147 64.335 129.653C66.5654 131.145 72.2297 135.414 71.3212 138.195C70.1589 141.755 67.5216 143.53 66.6196 142.398C65.7191 141.267 60.0003 134.631 60.5608 132.183C60.8266 131.024 61.3648 130.273 61.8925 129.794Z" fill="white"/>
<path d="M151.186 123.795C151.777 124.336 152.261 124.856 152.535 125.167C161.022 134.823 164.71 147.965 165.185 160.82C165.659 173.675 163.19 186.439 160.689 199.056C160.568 199.663 160.347 200.382 159.749 200.537C158.791 200.783 158.31 199.416 158.308 198.425C158.296 190.3 159.979 182.267 160.405 174.154C161.25 158.045 156.986 141.703 148.378 128.068C147.689 126.976 145.209 123.368 146.672 122.128C147.833 121.148 149.799 122.527 151.186 123.795Z" fill="url(#paint21_linear)"/>
<path opacity="0.3" d="M115.284 177.598C116.238 174.749 117.22 171.714 118.226 168.53C126.852 140.992 116.906 136.354 116.906 136.354L97.0986 177.562L95.9707 179.909L94.5513 181.578L113.97 181.442C114.185 180.832 114.401 180.212 114.614 179.584C114.837 178.932 115.059 178.27 115.284 177.598Z" fill="#14275F"/>
<path d="M113.443 237.611C118.277 231.187 138.527 218.69 138.527 218.69C145.22 214.28 139.905 209.973 125.635 211.44C122.312 211.773 118.463 212.395 114.194 213.428C105.871 215.448 93.1032 228.79 87.5174 235.988C86.3683 237.427 84.0716 236.572 84.1627 234.732C84.7689 223.595 86.3777 207.953 89.9795 199.639C90.2107 199.115 90.4661 198.571 90.7442 198.013C98.5311 181.128 115.42 158.723 118.11 148.968C118.377 147.969 120.373 142.605 120.445 141.657C120.506 141.145 120.549 140.631 120.561 140.174C120.647 131.454 111.916 128.696 106.509 137.361C101.681 145.036 87.5292 164.754 82.6996 177.698C81.7979 180.114 79.8896 182.105 77.3854 182.707C76.4704 182.928 75.6394 182.914 74.9845 182.539C71.3835 180.493 66.2427 174.734 59.316 181.859C52.3499 188.976 48.6527 186.623 45.6994 185.453C42.692 184.233 38.8128 180.827 34.4826 185.812C30.4822 190.433 26.3131 193.276 22.6864 192.413C19.0376 191.547 15.8728 192.449 12.6285 202.529C12.544 202.787 12.4572 203.065 12.391 203.346C9.23422 214.171 5.90291 243.977 5.65168 252.42C5.40902 261.073 4.62928 264.072 -2.48333 274.898C-4.74144 278.146 -7.94886 285.57 -11.2082 294.029C-17.5796 310.563 -7.46315 328.56 9.73288 332.804C25.0575 336.586 40.7377 328.059 45.9019 313.136L54.4222 288.518L55.0199 286.509C57.833 279.713 67.1258 285.42 78.1511 278.693C81.3408 276.753 85.2118 273.05 89.2192 268.638C99.1677 257.648 109.993 242.176 113.443 237.611Z" fill="url(#paint22_linear)"/>
<path opacity="0.4" d="M116.348 138.945C116.246 139.321 116.082 139.71 115.868 140.118C114.769 142.202 113.005 146.424 110.072 146.026C108.994 145.879 108.118 145.018 107.498 144.175C106.837 143.274 106.793 142.734 107.056 141.664C107.59 139.496 108.684 136.766 110.318 135.188C111.876 133.685 114.079 134.261 115.425 135.738C116.42 136.827 116.651 137.832 116.348 138.945Z" fill="white"/>
<path opacity="0.4" d="M138.659 213.544C138.114 213.155 137.4 213.046 136.723 213.058C135.426 213.08 134.098 213.172 132.823 213.417C131.103 213.746 127.416 214.987 127.327 217.414C127.198 220.874 129.671 222.365 131.061 221.83C133.199 221.008 142.764 217.097 138.808 213.66C138.759 213.619 138.709 213.58 138.659 213.544Z" fill="white"/>
<path d="M85.5842 242.278C88.569 241.235 98.976 224.61 110.077 218.643C115.982 215.468 121.074 213.859 125.638 211.437C122.318 211.765 118.463 212.39 114.192 213.433C105.869 215.451 93.0986 228.784 87.5128 235.982C86.3728 237.432 84.081 236.57 84.1702 234.74C84.7687 223.596 86.376 207.955 89.989 199.635C90.2122 199.114 90.4757 198.565 90.7392 198.017C98.5295 181.123 115.418 158.716 118.118 148.96C118.386 147.959 120.368 142.611 120.456 141.651C120.505 141.137 120.554 140.623 120.558 140.171C110.716 155.582 85.9659 191.141 81.5876 209.4C73.1432 244.623 82.605 243.288 85.5842 242.278Z" fill="url(#paint23_linear)"/>
<path d="M77.36 186.534C74.8815 191.272 72.4298 195.542 70.2949 200.046C69.2114 202.276 68.1419 204.514 67.1686 206.828C66.1275 209.128 65.2761 211.5 64.0964 213.951C63.6727 211.298 63.7246 208.568 64.2723 205.949C64.7557 203.309 65.622 200.739 66.813 198.339C67.9775 195.924 69.4717 193.674 71.2193 191.656C72.9589 189.64 74.9613 187.803 77.36 186.534Z" fill="url(#paint24_linear)"/>
<path d="M50.8165 189.455C49.8215 193.384 48.5623 196.721 47.2912 200.146C46.659 201.849 45.9673 203.532 45.2699 205.248C44.511 206.952 43.8225 208.692 42.7607 210.471C41.6931 206.511 42.3006 202.45 43.6658 198.765C44.3558 196.916 45.309 195.167 46.4689 193.564C47.6551 191.984 49.0211 190.491 50.8165 189.455Z" fill="url(#paint25_linear)"/>
<path d="M27.3854 194.623C27.5779 196.224 27.4536 197.653 27.2668 199.05C27.0582 200.438 26.7465 201.769 26.3582 203.065C25.9651 204.363 25.4892 205.62 24.9534 206.866C24.3983 208.122 23.7878 209.319 23.0258 210.73C22.1562 209.338 21.9824 207.748 21.964 206.265C21.9715 204.765 22.2246 203.316 22.6483 201.938C23.0691 200.556 23.6559 199.237 24.4164 197.999C25.1971 196.772 26.089 195.593 27.3854 194.623Z" fill="url(#paint26_linear)"/>
<path d="M23.4797 270.794C23.7777 273.7 6.81608 265.991 4.96401 267.774C3.11195 269.557 -19.5148 317.498 -19.5148 317.498L-19.5052 317.436C-13.8018 300.941 -6.46184 280.918 -2.48361 274.896C4.629 264.071 5.40874 261.071 5.65141 252.419C5.90264 243.976 9.23395 214.169 12.3908 203.344C10.3571 221.335 7.16257 253.103 9.13007 258.156C11.8893 265.255 23.1611 267.887 23.4797 270.794Z" fill="url(#paint27_linear)"/>
<path d="M89.2209 268.638C85.2135 273.05 81.3425 276.753 78.1528 278.693C67.1275 285.42 57.8347 279.713 55.0215 286.509L54.4239 288.518L53.7951 290.332C51.5683 284.445 44.1848 277.883 44.6564 277.543C45.2459 277.119 47.6583 279.429 60.0488 280.054C69.0088 280.516 82.4724 272.872 89.2209 268.638Z" fill="url(#paint28_linear)"/>
<path d="M99.5306 175.61C98.3322 176.299 97.0841 176.539 95.8445 176.585C94.5979 176.656 93.3509 176.449 92.1414 176.028C90.943 175.604 89.7464 174.942 88.8186 173.884C87.8844 172.887 87.2082 171.43 87.5037 170.051L87.5146 169.999C87.5255 169.947 87.5787 169.912 87.6307 169.924C87.6621 169.932 87.6884 169.955 87.7003 169.983C88.131 171.035 88.9076 171.887 89.808 172.554C90.713 173.227 91.7612 173.698 92.8362 174.058C93.9041 174.444 95.0109 174.742 96.136 174.947C97.2596 175.149 98.3969 175.313 99.5362 175.404C99.5899 175.409 99.6298 175.456 99.6252 175.509C99.6227 175.543 99.603 175.571 99.5772 175.586L99.5306 175.61Z" fill="#EF7C7A"/>
<path d="M99.8335 172C98.8729 172.327 97.889 172.404 96.913 172.364C95.9319 172.338 94.962 172.131 94.0126 171.813C93.5437 171.644 93.0809 171.423 92.6311 171.191C92.202 170.898 91.7544 170.644 91.3882 170.252C90.6316 169.538 90.0478 168.527 90.0694 167.495L90.0699 167.477C90.0707 167.449 90.0934 167.427 90.1219 167.428C90.1425 167.429 90.1611 167.442 90.1685 167.461C90.498 168.334 91.1325 169.051 91.878 169.593C92.6214 170.147 93.4804 170.532 94.3591 170.829C96.1093 171.46 97.974 171.778 99.8347 171.895C99.8632 171.897 99.8847 171.922 99.8824 171.949C99.8818 171.971 99.8671 171.988 99.8479 171.994L99.8335 172Z" fill="#EF7C7A"/>
<path d="M99.6762 169.872C99.3594 169.172 98.8922 168.591 98.3663 168.074C97.8453 167.547 97.2282 167.12 96.5634 166.759C96.2276 166.589 95.8671 166.449 95.5064 166.32C95.1239 166.235 94.7517 166.12 94.3463 166.12C93.5621 166.072 92.7047 166.274 92.1483 166.82L92.1385 166.83C92.1239 166.845 92.1232 166.869 92.1371 166.883C92.1479 166.895 92.1652 166.898 92.1796 166.893C92.8298 166.623 93.5525 166.602 94.2363 166.731C94.9265 166.854 95.5827 167.128 96.2007 167.46C97.4535 168.098 98.5923 168.963 99.6209 169.926C99.6363 169.941 99.6617 169.94 99.6747 169.925C99.6862 169.912 99.6882 169.896 99.6822 169.882L99.6762 169.872Z" fill="#EF7C7A"/>
<path d="M113.135 236.926C112.074 237.264 111.075 237.262 110.125 237.119C109.166 236.993 108.266 236.663 107.444 236.177C106.631 235.692 105.872 235.033 105.403 234.119C104.917 233.25 104.728 232.076 105.259 231.099L105.279 231.062C105.299 231.024 105.347 231.006 105.383 231.023C105.406 231.033 105.42 231.054 105.422 231.077C105.515 231.915 105.913 232.655 106.448 233.275C106.983 233.902 107.673 234.4 108.408 234.819C109.13 235.257 109.903 235.635 110.71 235.947C111.517 236.256 112.342 236.54 113.183 236.771C113.223 236.781 113.244 236.822 113.228 236.861C113.218 236.884 113.199 236.903 113.175 236.91L113.135 236.926Z" fill="#DF6563"/>
<path d="M114.164 234.305C113.363 234.41 112.602 234.326 111.872 234.157C111.135 233.997 110.446 233.706 109.797 233.335C109.479 233.142 109.178 232.913 108.89 232.677C108.63 232.399 108.348 232.149 108.158 231.806C107.745 231.171 107.526 230.341 107.772 229.58L107.777 229.567C107.784 229.547 107.807 229.533 107.827 229.539C107.843 229.542 107.853 229.555 107.855 229.57C107.91 230.261 108.232 230.882 108.675 231.389C109.115 231.905 109.679 232.312 110.28 232.656C111.465 233.372 112.807 233.875 114.19 234.228C114.21 234.233 114.221 234.254 114.214 234.274C114.209 234.29 114.194 234.301 114.178 234.303L114.164 234.305Z" fill="#DF6563"/>
<path d="M115.61 213.097C117.624 212.037 119.774 211.298 121.966 210.725C124.159 210.149 126.418 209.817 128.706 209.676C130.988 209.557 133.333 209.721 135.586 210.367C137.806 210.987 140.062 212.224 141.225 214.238C139.417 212.828 137.339 212.25 135.24 211.933C133.132 211.653 130.974 211.578 128.803 211.729C124.456 211.931 120.107 212.598 115.61 213.097Z" fill="#EF7C7A"/>
</g>
<g filter="url(#filter15_f)">
<path d="M70.7435 81.6408C59.5761 82.1509 45.2582 80.0834 38.7894 77.0266C32.3207 73.9698 36.1235 71.0829 47.2909 70.5728C58.4583 70.0626 72.7762 72.1301 79.2449 75.1869C85.7137 78.2437 81.9109 81.1306 70.7435 81.6408Z" fill="url(#paint29_linear)"/>
</g>
<path d="M33.4617 19.186C35.9381 17.1027 39.4566 15.6261 43.8959 15.0285L84.0291 31.3742C86.7877 34.9033 88.2733 38.4181 88.5895 41.6388L89.774 42.0985L86.3306 51.0099C84.6695 55.5019 80.1787 58.8755 73.2563 60.1061C65.9535 61.3958 58.4742 60.461 50.7314 57.2271C42.9325 54.1311 35.8527 49.1361 31.529 43.1112C27.4362 37.3942 26.5804 31.843 28.5304 27.4687L32.293 18.6874L33.4617 19.186Z" fill="url(#paint30_linear)"/>
<path d="M88.3808 42.2806C88.3257 41.5232 88.2011 40.7557 88.0141 39.9614L80.35 57.6148C81.0657 57.2092 81.735 56.6958 82.3336 56.2199L88.3808 42.2806Z" fill="url(#paint31_linear)"/>
<path d="M44.1076 15.0755C42.1547 15.3488 40.3846 15.8216 38.7956 16.4117L28.9917 38.5923C29.2151 39.1346 29.4626 39.6667 29.7265 40.2058L40.2147 16.5029L42.5376 17.4853L31.3235 42.8081C31.416 42.949 31.5247 43.0967 31.6172 43.2376C31.8097 43.5022 32.0186 43.7738 32.2275 44.0453L43.7645 18.0041L46.0875 18.9864L34.0458 46.1409C34.3702 46.502 34.7023 46.846 35.0344 47.19L47.3067 19.5224L49.6296 20.5048L36.9974 49.0183C37.3449 49.3281 37.7 49.6208 38.0552 49.9135L50.8565 21.0236L53.1795 22.0059L40.109 51.4545C40.4795 51.7129 40.8501 51.9714 41.2206 52.2299L54.3987 22.5419L56.7216 23.5242L43.3974 53.6142C43.7833 53.8384 44.1693 54.0627 44.5552 54.287L57.9408 24.0602L60.2638 25.0425L46.7698 55.4537C47.1711 55.6437 47.5723 55.8338 47.9736 56.0238L61.4907 25.5614L63.8136 26.5437L50.3122 57.0784C50.7212 57.2514 51.1378 57.4072 51.5545 57.563L65.0405 27.0625L67.3634 28.0449L53.9071 58.3644C54.3315 58.5031 54.7635 58.6248 55.1955 58.7464L68.598 28.5466L70.921 29.529L57.6356 59.4247C58.0753 59.5292 58.5227 59.6166 58.9701 59.7041L72.1479 30.0478L74.4708 31.0302L61.5216 60.1593C61.9767 60.2296 62.4402 60.3299 62.9107 60.366L75.6977 31.549L78.0207 32.5313L65.5873 60.5616C66.0654 60.5806 66.5677 60.5894 67.0372 60.5844L79.2476 33.0502L81.5705 34.0325L69.8265 60.5541C70.3517 60.5116 70.8631 60.4977 71.3633 60.4242L82.7974 34.5514L85.1204 35.5337L74.3658 59.9127C74.9535 59.7745 75.4859 59.6643 76.0159 59.4814L86.3549 36.0355L86.5676 36.1254C85.9609 34.79 85.1915 33.4265 84.2279 32.0622C82.3428 29.4127 79.9201 26.9633 77.1233 24.7831L54.3846 15.1672C50.8911 14.6669 47.3996 14.5949 44.1076 15.0755Z" fill="url(#paint32_linear)"/>
<path d="M34.758 17.5795C34.2329 17.9288 33.739 18.2916 33.2845 18.6912L32.9415 18.5437L27.6009 31.0945C27.5587 31.9888 27.5181 32.9892 27.6777 33.9306L34.758 17.5795Z" fill="url(#paint33_linear)"/>
<path d="M75.6104 51.6883C61.4838 53.5815 43.3941 45.8628 35.2009 34.4459C27.0077 23.0291 31.8258 12.2211 45.96 10.3109C60.0867 8.41767 78.1763 16.1363 86.3695 27.5532C94.5551 38.9871 89.7446 49.7781 75.6104 51.6883Z" fill="url(#paint34_linear)"/>
<path opacity="0.2" d="M65.7366 36.6507C76.1383 35.2525 81.483 29.0206 80.331 21.2728C71.0546 13.4628 57.1565 8.76788 45.8089 10.3097C35.4072 11.7079 30.0626 17.9398 31.2145 25.6876C40.5073 33.5046 54.3966 38.1755 65.7366 36.6507Z" fill="white"/>
<path opacity="0.7" d="M75.7515 51.5303C61.5874 53.4613 43.4628 45.6897 35.2638 34.1697C31.2962 28.5992 30.402 23.1798 32.1124 18.8362C29.893 23.3096 30.6435 29.0973 34.8671 35.0641C43.0661 46.5842 61.1907 54.3558 75.3549 52.4247C82.6679 51.4252 87.4994 48.0104 89.3229 43.3673C87.2662 47.5624 82.6026 50.5988 75.7515 51.5303Z" fill="white"/>
<path d="M72.1506 46.8474C61.3274 48.3084 47.4508 42.3873 41.1814 33.6331C34.912 24.8788 38.5976 16.6111 49.4208 15.1501C60.244 13.6891 74.1207 19.6102 80.3901 28.3644C86.6595 37.1187 82.9738 45.3864 72.1506 46.8474Z" fill="url(#paint35_linear)"/>
<path d="M48.7077 16.4132C59.5782 14.9321 73.5123 20.9059 79.8053 29.7452C82.7589 33.9054 83.5085 37.9602 82.3504 41.2414C84.207 37.7737 83.6715 33.2363 80.3404 28.5387C74.0475 19.6994 60.1133 13.7256 49.2428 15.2067C43.483 15.9848 39.7283 18.7051 38.407 22.4022C40.0729 19.3167 43.6052 17.0976 48.7077 16.4132Z" fill="url(#paint36_linear)"/>
<g filter="url(#filter16_f)">
<path d="M52.1834 42.2927C48.7575 36.9389 45.7051 29.3009 45.3713 25.2467C45.0374 21.1924 47.5401 22.2442 50.966 27.598C54.392 32.9519 57.4443 40.5898 57.7782 44.644C58.112 48.6983 55.6094 47.6465 52.1834 42.2927Z" fill="url(#paint37_linear)"/>
</g>
<path d="M72.3374 6.17972C74.0672 6.80684 75.7946 8.11959 77.3508 10.1356L80.7116 34.5442C79.7581 36.9058 78.4498 38.6366 76.9538 39.7078L77.0641 40.4218L71.6972 41.2597C69.0131 41.7188 66.0753 40.4666 63.5013 37.4078C60.7902 34.1785 59.1242 30.23 58.5154 25.498C57.8227 20.7777 58.2696 15.8716 60.0071 12.0297C61.6586 8.38916 64.1488 6.3896 66.857 6.10622L72.2507 5.4625L72.3374 6.17972Z" fill="url(#paint38_linear)"/>
<path d="M76.5785 39.7879C76.9358 39.5455 77.2783 39.2659 77.6163 38.948L66.7448 40.1929C67.148 40.43 67.5911 40.6136 67.9956 40.773L76.5785 39.7879Z" fill="url(#paint39_linear)"/>
<path d="M77.388 10.2536C76.6982 9.36965 75.9622 8.6325 75.2199 8.01777L61.511 9.496C61.3075 9.7602 61.1158 10.0334 60.9254 10.3165L75.5784 8.74249L75.7551 10.1656L60.098 11.8427C60.055 11.9283 60.0131 12.0239 59.97 12.1094C59.8945 12.2795 59.8202 12.4595 59.7458 12.6396L75.8484 10.9172L76.0251 12.3403L59.2309 14.1307C59.1453 14.3931 59.0703 14.6544 58.9954 14.9157L76.1078 13.093L76.2845 14.5161L58.6531 16.4021C58.5994 16.6612 58.5562 16.9193 58.5131 17.1774L76.3778 15.2677L76.5545 16.6908L58.3382 18.6268C58.3162 18.8827 58.2943 19.1386 58.2723 19.3946L76.6372 17.4435L76.8139 18.8666L58.2096 20.86C58.2089 21.1138 58.2081 21.3675 58.2074 21.6213L76.8966 19.6193L77.0733 21.0424L58.2625 23.0435C58.283 23.2951 58.3035 23.5467 58.324 23.7984L77.1666 21.7941L77.3432 23.2171L58.4696 25.2497C58.5007 25.5002 58.5424 25.7497 58.5841 25.9992L77.4366 23.9688L77.6132 25.3919L58.8584 27.3854C58.9107 27.6338 58.9736 27.8811 59.0365 28.1284L77.7171 26.1424L77.8938 27.5655L59.3962 29.5227C59.4698 29.769 59.5539 30.0141 59.638 30.2593L77.9871 28.3171L78.1638 29.7402L60.1392 31.6451C60.234 31.8892 60.3164 32.1459 60.4324 32.3878L78.2571 30.4919L78.4338 31.915L61.097 33.7614C61.2236 34.0022 61.362 34.252 61.4979 34.4818L78.5271 32.6666L78.7038 34.0897L62.3058 35.8466C62.4761 36.0932 62.6283 36.341 62.8067 36.5665L78.7971 34.8413L78.9738 36.2644L63.9121 37.8995C64.1472 38.1496 64.3528 38.3804 64.5936 38.5894L79.0777 37.0149L79.0939 37.1452C79.579 36.4668 80.0316 35.7004 80.4294 34.838C81.1982 33.1566 81.7155 31.2673 81.9939 29.2703L80.2645 15.3401C79.5177 13.4776 78.5605 11.738 77.388 10.2536Z" fill="url(#paint40_linear)"/>
<path d="M73.4971 6.36168C73.1758 6.20244 72.8567 6.06236 72.5308 5.95215L72.5059 5.74133L64.8075 6.67964C64.3552 6.91312 63.851 7.17752 63.4329 7.52376L73.4971 6.36168Z" fill="url(#paint41_linear)"/>
<path d="M68.3158 36.1741C63.3675 29.7563 62.0255 18.6546 65.318 11.3746C68.6104 4.09454 75.302 3.39438 80.2608 9.81106C85.2091 16.2288 86.5511 27.3305 83.2586 34.6106C79.9556 41.8917 73.2745 42.5908 68.3158 36.1741Z" fill="url(#paint42_linear)"/>
<path opacity="0.2" d="M72.9132 27.0372C76.5588 31.7615 81.1468 32.6216 84.6343 29.8517C85.8428 23.0637 84.2036 14.8855 80.2184 9.73629C76.5728 5.01194 71.9848 4.15188 68.4972 6.92173C67.2899 13.7198 68.9385 21.8868 72.9132 27.0372Z" fill="white"/>
<path opacity="0.7" d="M68.4335 36.1985C63.456 29.7731 62.1301 18.6391 65.4717 11.3269C67.0866 7.78956 69.501 5.8086 72.126 5.41594C69.2924 5.59486 66.6558 7.60977 64.9185 11.3858C61.5769 18.698 62.9028 29.832 67.8803 36.2575C70.4515 39.5743 73.5065 40.9825 76.3112 40.5605C73.6608 40.7404 70.8399 39.3072 68.4335 36.1985Z" fill="white"/>
<path d="M69.7158 33.0942C65.9195 28.1802 64.8901 19.664 67.4183 14.0882C69.9466 8.51244 75.0655 7.97684 78.8618 12.8909C82.6581 17.8049 83.6875 26.3211 81.1592 31.8969C78.6309 37.4727 73.5121 38.0083 69.7158 33.0942Z" fill="url(#paint43_linear)"/>
<path d="M78.0371 12.8988C81.8568 17.8304 82.8766 26.3899 80.3131 32.0014C79.1043 34.6385 77.3208 36.1604 75.3759 36.5229C77.6112 36.4513 79.6932 34.8977 81.0593 31.922C83.6228 26.3104 82.603 17.7509 78.7834 12.8193C76.7628 10.2044 74.3559 9.12889 72.1597 9.52931C74.1527 9.4724 76.2496 10.5809 78.0371 12.8988Z" fill="url(#paint44_linear)"/>
<path d="M22.7496 212.2H29.9496V214.6H25.3896V219.04H29.0136V221.44H25.3896V226.6H29.9496V229H22.7496V212.2ZM33.5084 212.2H37.0844L39.8204 229H37.1804L36.7004 225.664V225.712H33.7004L33.2204 229H30.7724L33.5084 212.2ZM36.3884 223.432L35.2124 215.128H35.1644L34.0124 223.432H36.3884ZM41.1012 212.2H45.0132C46.3732 212.2 47.3652 212.52 47.9892 213.16C48.6132 213.784 48.9252 214.752 48.9252 216.064V217.096C48.9252 218.84 48.3492 219.944 47.1972 220.408V220.456C47.8372 220.648 48.2852 221.04 48.5412 221.632C48.8132 222.224 48.9492 223.016 48.9492 224.008V226.96C48.9492 227.44 48.9652 227.832 48.9972 228.136C49.0292 228.424 49.1092 228.712 49.2372 229H46.5492C46.4532 228.728 46.3892 228.472 46.3572 228.232C46.3252 227.992 46.3092 227.56 46.3092 226.936V223.864C46.3092 223.096 46.1812 222.56 45.9252 222.256C45.6852 221.952 45.2612 221.8 44.6532 221.8H43.7412V229H41.1012V212.2ZM44.7012 219.4C45.2292 219.4 45.6212 219.264 45.8772 218.992C46.1492 218.72 46.2852 218.264 46.2852 217.624V216.328C46.2852 215.72 46.1732 215.28 45.9492 215.008C45.7412 214.736 45.4052 214.6 44.9412 214.6H43.7412V219.4H44.7012ZM50.7809 212.2H54.0929L56.6609 222.256H56.7089V212.2H59.0609V229H56.3489L53.1809 216.736H53.1329V229H50.7809V212.2ZM64.8668 212.2H68.6348L70.3148 224.224H70.3628L72.0428 212.2H75.8108V229H73.3148V216.28H73.2668L71.3468 229H69.1388L67.2188 216.28H67.1708V229H64.8668V212.2ZM81.5969 229.24C80.3009 229.24 79.3089 228.872 78.6209 228.136C77.9329 227.4 77.5889 226.36 77.5889 225.016V216.184C77.5889 214.84 77.9329 213.8 78.6209 213.064C79.3089 212.328 80.3009 211.96 81.5969 211.96C82.8929 211.96 83.8849 212.328 84.5729 213.064C85.2609 213.8 85.6049 214.84 85.6049 216.184V225.016C85.6049 226.36 85.2609 227.4 84.5729 228.136C83.8849 228.872 82.8929 229.24 81.5969 229.24ZM81.5969 226.84C82.5089 226.84 82.9649 226.288 82.9649 225.184V216.016C82.9649 214.912 82.5089 214.36 81.5969 214.36C80.6849 214.36 80.2289 214.912 80.2289 216.016V225.184C80.2289 226.288 80.6849 226.84 81.5969 226.84ZM87.3903 212.2H91.3023C92.6623 212.2 93.6543 212.52 94.2783 213.16C94.9023 213.784 95.2143 214.752 95.2143 216.064V217.096C95.2143 218.84 94.6383 219.944 93.4863 220.408V220.456C94.1263 220.648 94.5743 221.04 94.8303 221.632C95.1023 222.224 95.2383 223.016 95.2383 224.008V226.96C95.2383 227.44 95.2543 227.832 95.2863 228.136C95.3183 228.424 95.3983 228.712 95.5263 229H92.8383C92.7423 228.728 92.6783 228.472 92.6463 228.232C92.6143 227.992 92.5983 227.56 92.5983 226.936V223.864C92.5983 223.096 92.4703 222.56 92.2143 222.256C91.9743 221.952 91.5503 221.8 90.9423 221.8H90.0303V229H87.3903V212.2ZM90.9903 219.4C91.5183 219.4 91.9103 219.264 92.1663 218.992C92.4383 218.72 92.5742 218.264 92.5742 217.624V216.328C92.5742 215.72 92.4623 215.28 92.2383 215.008C92.0303 214.736 91.6943 214.6 91.2303 214.6H90.0303V219.4H90.9903ZM97.0699 212.2H104.27V214.6H99.7099V219.04H103.334V221.44H99.7099V226.6H104.27V229H97.0699V212.2ZM109.008 212.2H111.552L112.728 225.112H112.776L114.024 212.2H116.904L118.152 225.112H118.2L119.376 212.2H121.656L119.952 229H116.664L115.464 217.672H115.416L114.216 229H110.712L109.008 212.2ZM122.992 212.2H125.632V229H122.992V212.2ZM129.673 214.6H126.913V212.2H135.073V214.6H132.313V229H129.673V214.6ZM136.351 212.2H138.991V219.04H141.823V212.2H144.463V229H141.823V221.44H138.991V229H136.351V212.2ZM154.089 229.24C152.793 229.24 151.801 228.872 151.113 228.136C150.425 227.4 150.081 226.36 150.081 225.016V216.184C150.081 214.84 150.425 213.8 151.113 213.064C151.801 212.328 152.793 211.96 154.089 211.96C155.385 211.96 156.377 212.328 157.065 213.064C157.753 213.8 158.097 214.84 158.097 216.184V225.016C158.097 226.36 157.753 227.4 157.065 228.136C156.377 228.872 155.385 229.24 154.089 229.24ZM154.089 226.84C155.001 226.84 155.457 226.288 155.457 225.184V216.016C155.457 214.912 155.001 214.36 154.089 214.36C153.177 214.36 152.721 214.912 152.721 216.016V225.184C152.721 226.288 153.177 226.84 154.089 226.84ZM163.722 229.24C162.442 229.24 161.466 228.88 160.794 228.16C160.122 227.424 159.786 226.376 159.786 225.016V212.2H162.426V225.208C162.426 225.784 162.538 226.2 162.762 226.456C163.002 226.712 163.338 226.84 163.77 226.84C164.202 226.84 164.53 226.712 164.754 226.456C164.994 226.2 165.114 225.784 165.114 225.208V212.2H167.658V225.016C167.658 226.376 167.322 227.424 166.65 228.16C165.978 228.88 165.002 229.24 163.722 229.24ZM169.539 212.2H173.451C174.811 212.2 175.803 212.52 176.427 213.16C177.051 213.784 177.363 214.752 177.363 216.064V217.096C177.363 218.84 176.787 219.944 175.635 220.408V220.456C176.275 220.648 176.723 221.04 176.979 221.632C177.251 222.224 177.387 223.016 177.387 224.008V226.96C177.387 227.44 177.403 227.832 177.435 228.136C177.467 228.424 177.547 228.712 177.675 229H174.987C174.891 228.728 174.827 228.472 174.795 228.232C174.763 227.992 174.747 227.56 174.747 226.936V223.864C174.747 223.096 174.619 222.56 174.363 222.256C174.123 221.952 173.699 221.8 173.091 221.8H172.179V229H169.539V212.2ZM173.139 219.4C173.667 219.4 174.059 219.264 174.315 218.992C174.587 218.72 174.723 218.264 174.723 217.624V216.328C174.723 215.72 174.611 215.28 174.387 215.008C174.179 214.736 173.843 214.6 173.379 214.6H172.179V219.4H173.139ZM27.6832 234.2H31.5952C32.9552 234.2 33.9472 234.52 34.5712 235.16C35.1952 235.784 35.5072 236.752 35.5072 238.064V239.096C35.5072 240.84 34.9312 241.944 33.7792 242.408V242.456C34.4192 242.648 34.8672 243.04 35.1232 243.632C35.3952 244.224 35.5312 245.016 35.5312 246.008V248.96C35.5312 249.44 35.5472 249.832 35.5792 250.136C35.6112 250.424 35.6912 250.712 35.8192 251H33.1312C33.0352 250.728 32.9712 250.472 32.9392 250.232C32.9072 249.992 32.8912 249.56 32.8912 248.936V245.864C32.8912 245.096 32.7632 244.56 32.5072 244.256C32.2672 243.952 31.8432 243.8 31.2352 243.8H30.3232V251H27.6832V234.2ZM31.2832 241.4C31.8112 241.4 32.2032 241.264 32.4592 240.992C32.7312 240.72 32.8672 240.264 32.8672 239.624V238.328C32.8672 237.72 32.7552 237.28 32.5312 237.008C32.3232 236.736 31.9872 236.6 31.5232 236.6H30.3232V241.4H31.2832ZM37.3629 234.2H44.5629V236.6H40.0029V241.04H43.6269V243.44H40.0029V248.6H44.5629V251H37.3629V234.2ZM46.0817 234.2H53.0657V236.6H48.7217V241.28H52.1297V243.68H48.7217V251H46.0817V234.2ZM54.3317 234.2H61.5317V236.6H56.9717V241.04H60.5957V243.44H56.9717V248.6H61.5317V251H54.3317V234.2ZM63.0504 234.2H66.9624C68.3224 234.2 69.3144 234.52 69.9384 235.16C70.5624 235.784 70.8744 236.752 70.8744 238.064V239.096C70.8744 240.84 70.2984 241.944 69.1464 242.408V242.456C69.7864 242.648 70.2344 243.04 70.4904 243.632C70.7624 244.224 70.8984 245.016 70.8984 246.008V248.96C70.8984 249.44 70.9144 249.832 70.9464 250.136C70.9784 250.424 71.0584 250.712 71.1864 251H68.4984C68.4024 250.728 68.3384 250.472 68.3064 250.232C68.2744 249.992 68.2584 249.56 68.2584 248.936V245.864C68.2584 245.096 68.1304 244.56 67.8744 244.256C67.6344 243.952 67.2104 243.8 66.6024 243.8H65.6904V251H63.0504V234.2ZM66.6504 241.4C67.1784 241.4 67.5704 241.264 67.8264 240.992C68.0984 240.72 68.2344 240.264 68.2344 239.624V238.328C68.2344 237.72 68.1224 237.28 67.8984 237.008C67.6904 236.736 67.3544 236.6 66.8904 236.6H65.6904V241.4H66.6504ZM72.7301 234.2H76.6421C78.0021 234.2 78.9941 234.52 79.6181 235.16C80.2421 235.784 80.5541 236.752 80.5541 238.064V239.096C80.5541 240.84 79.9781 241.944 78.8261 242.408V242.456C79.4661 242.648 79.9141 243.04 80.1701 243.632C80.4421 244.224 80.5781 245.016 80.5781 246.008V248.96C80.5781 249.44 80.5941 249.832 80.6261 250.136C80.6581 250.424 80.7381 250.712 80.8661 251H78.1781C78.0821 250.728 78.0181 250.472 77.9861 250.232C77.9541 249.992 77.9381 249.56 77.9381 248.936V245.864C77.9381 245.096 77.8101 244.56 77.5541 244.256C77.3141 243.952 76.8901 243.8 76.2821 243.8H75.3701V251H72.7301V234.2ZM76.3301 241.4C76.8581 241.4 77.2501 241.264 77.5061 240.992C77.7781 240.72 77.9141 240.264 77.9141 239.624V238.328C77.9141 237.72 77.8021 237.28 77.5781 237.008C77.3701 236.736 77.0341 236.6 76.5701 236.6H75.3701V241.4H76.3301ZM84.4498 234.2H88.0258L90.7618 251H88.1218L87.6418 247.664V247.712H84.6418L84.1618 251H81.7138L84.4498 234.2ZM87.3298 245.432L86.1538 237.128H86.1058L84.9538 245.432H87.3298ZM92.0426 234.2H94.6826V248.6H99.0266V251H92.0426V234.2ZM104.136 234.2H108.024C109.336 234.2 110.32 234.552 110.976 235.256C111.632 235.96 111.96 236.992 111.96 238.352V240.008C111.96 241.368 111.632 242.4 110.976 243.104C110.32 243.808 109.336 244.16 108.024 244.16H106.776V251H104.136V234.2ZM108.024 241.76C108.456 241.76 108.776 241.64 108.984 241.4C109.208 241.16 109.32 240.752 109.32 240.176V238.184C109.32 237.608 109.208 237.2 108.984 236.96C108.776 236.72 108.456 236.6 108.024 236.6H106.776V241.76H108.024ZM113.394 234.2H117.306C118.666 234.2 119.658 234.52 120.282 235.16C120.906 235.784 121.218 236.752 121.218 238.064V239.096C121.218 240.84 120.642 241.944 119.49 242.408V242.456C120.13 242.648 120.578 243.04 120.834 243.632C121.106 244.224 121.242 245.016 121.242 246.008V248.96C121.242 249.44 121.258 249.832 121.29 250.136C121.322 250.424 121.402 250.712 121.53 251H118.842C118.746 250.728 118.682 250.472 118.65 250.232C118.618 249.992 118.602 249.56 118.602 248.936V245.864C118.602 245.096 118.474 244.56 118.218 244.256C117.978 243.952 117.554 243.8 116.946 243.8H116.034V251H113.394V234.2ZM116.994 241.4C117.522 241.4 117.914 241.264 118.17 240.992C118.442 240.72 118.578 240.264 118.578 239.624V238.328C118.578 237.72 118.466 237.28 118.242 237.008C118.034 236.736 117.698 236.6 117.234 236.6H116.034V241.4H116.994ZM126.89 251.24C125.594 251.24 124.602 250.872 123.914 250.136C123.226 249.4 122.882 248.36 122.882 247.016V238.184C122.882 236.84 123.226 235.8 123.914 235.064C124.602 234.328 125.594 233.96 126.89 233.96C128.186 233.96 129.178 234.328 129.866 235.064C130.554 235.8 130.898 236.84 130.898 238.184V247.016C130.898 248.36 130.554 249.4 129.866 250.136C129.178 250.872 128.186 251.24 126.89 251.24ZM126.89 248.84C127.802 248.84 128.258 248.288 128.258 247.184V238.016C128.258 236.912 127.802 236.36 126.89 236.36C125.978 236.36 125.522 236.912 125.522 238.016V247.184C125.522 248.288 125.978 248.84 126.89 248.84ZM136.427 251.24C135.147 251.24 134.171 250.88 133.499 250.16C132.827 249.424 132.491 248.376 132.491 247.016V238.184C132.491 236.824 132.827 235.784 133.499 235.064C134.171 234.328 135.147 233.96 136.427 233.96C137.707 233.96 138.683 234.328 139.355 235.064C140.027 235.784 140.363 236.824 140.363 238.184V239.624H137.867V238.016C137.867 236.912 137.411 236.36 136.499 236.36C135.587 236.36 135.131 236.912 135.131 238.016V247.208C135.131 248.296 135.587 248.84 136.499 248.84C137.411 248.84 137.867 248.296 137.867 247.208V243.92H136.547V241.52H140.363V247.016C140.363 248.376 140.027 249.424 139.355 250.16C138.683 250.88 137.707 251.24 136.427 251.24ZM142.058 234.2H145.97C147.33 234.2 148.322 234.52 148.946 235.16C149.57 235.784 149.882 236.752 149.882 238.064V239.096C149.882 240.84 149.306 241.944 148.154 242.408V242.456C148.794 242.648 149.242 243.04 149.498 243.632C149.77 244.224 149.906 245.016 149.906 246.008V248.96C149.906 249.44 149.922 249.832 149.954 250.136C149.986 250.424 150.066 250.712 150.194 251H147.506C147.41 250.728 147.346 250.472 147.314 250.232C147.282 249.992 147.266 249.56 147.266 248.936V245.864C147.266 245.096 147.138 244.56 146.882 244.256C146.642 243.952 146.218 243.8 145.61 243.8H144.698V251H142.058V234.2ZM145.658 241.4C146.186 241.4 146.578 241.264 146.834 240.992C147.106 240.72 147.242 240.264 147.242 239.624V238.328C147.242 237.72 147.13 237.28 146.906 237.008C146.698 236.736 146.362 236.6 145.898 236.6H144.698V241.4H145.658ZM153.778 234.2H157.354L160.09 251H157.45L156.97 247.664V247.712H153.97L153.49 251H151.042L153.778 234.2ZM156.658 245.432L155.482 237.128H155.434L154.282 245.432H156.658ZM161.371 234.2H165.139L166.819 246.224H166.867L168.547 234.2H172.315V251H169.819V238.28H169.771L167.851 251H165.643L163.723 238.28H163.675V251H161.371V234.2Z" fill="white"/>
<path d="M84.556 289L84.542 281.86L81 287.81H80.356L76.814 281.902V289H75.47V279.2H76.618L80.706 286.088L84.738 279.2H85.886L85.9 289H84.556ZM91.8231 289.084C91.0858 289.084 90.4231 288.921 89.8351 288.594C89.2471 288.267 88.7851 287.819 88.4491 287.25C88.1224 286.671 87.9591 286.018 87.9591 285.29C87.9591 284.562 88.1224 283.913 88.4491 283.344C88.7851 282.765 89.2471 282.317 89.8351 282C90.4231 281.673 91.0858 281.51 91.8231 281.51C92.5604 281.51 93.2184 281.673 93.7971 282C94.3851 282.317 94.8424 282.765 95.1691 283.344C95.5051 283.913 95.6731 284.562 95.6731 285.29C95.6731 286.018 95.5051 286.671 95.1691 287.25C94.8424 287.819 94.3851 288.267 93.7971 288.594C93.2184 288.921 92.5604 289.084 91.8231 289.084ZM91.8231 287.908C92.2991 287.908 92.7238 287.801 93.0971 287.586C93.4798 287.362 93.7784 287.054 93.9931 286.662C94.2078 286.261 94.3151 285.803 94.3151 285.29C94.3151 284.777 94.2078 284.324 93.9931 283.932C93.7784 283.531 93.4798 283.223 93.0971 283.008C92.7238 282.793 92.2991 282.686 91.8231 282.686C91.3471 282.686 90.9178 282.793 90.5351 283.008C90.1618 283.223 89.8631 283.531 89.6391 283.932C89.4244 284.324 89.3171 284.777 89.3171 285.29C89.3171 285.803 89.4244 286.261 89.6391 286.662C89.8631 287.054 90.1618 287.362 90.5351 287.586C90.9178 287.801 91.3471 287.908 91.8231 287.908ZM98.8198 282.826C99.0531 282.397 99.3985 282.07 99.8558 281.846C100.313 281.622 100.868 281.51 101.522 281.51V282.812C101.447 282.803 101.344 282.798 101.214 282.798C100.486 282.798 99.9118 283.017 99.4918 283.456C99.0811 283.885 98.8758 284.501 98.8758 285.304V289H97.5318V281.58H98.8198V282.826ZM109.816 285.332C109.816 285.435 109.807 285.57 109.788 285.738H103.768C103.852 286.391 104.137 286.919 104.622 287.32C105.117 287.712 105.728 287.908 106.456 287.908C107.343 287.908 108.057 287.609 108.598 287.012L109.34 287.88C109.004 288.272 108.584 288.571 108.08 288.776C107.585 288.981 107.03 289.084 106.414 289.084C105.63 289.084 104.935 288.925 104.328 288.608C103.721 288.281 103.25 287.829 102.914 287.25C102.587 286.671 102.424 286.018 102.424 285.29C102.424 284.571 102.583 283.923 102.9 283.344C103.227 282.765 103.67 282.317 104.23 282C104.799 281.673 105.439 281.51 106.148 281.51C106.857 281.51 107.487 281.673 108.038 282C108.598 282.317 109.032 282.765 109.34 283.344C109.657 283.923 109.816 284.585 109.816 285.332ZM106.148 282.644C105.504 282.644 104.963 282.84 104.524 283.232C104.095 283.624 103.843 284.137 103.768 284.772H108.528C108.453 284.147 108.197 283.638 107.758 283.246C107.329 282.845 106.792 282.644 106.148 282.644Z" fill="white"/>
<path d="M117.75 288.5L122.25 284L117.75 279.5" stroke="white" stroke-width="1.5" stroke-linecap="round" stroke-linejoin="round"/>
</g>
<defs>
<filter id="filter0_dd" x="-38" y="-3.99994" width="276" height="376" filterUnits="userSpaceOnUse" color-interpolation-filters="sRGB">
<feFlood flood-opacity="0" result="BackgroundImageFix"/>
<feColorMatrix in="SourceAlpha" type="matrix" values="0 0 0 0 0 0 0 0 0 0 0 0 0 0 0 0 0 0 127 0"/>
<feMorphology radius="4" operator="erode" in="SourceAlpha" result="effect1_dropShadow"/>
<feOffset dy="12"/>
<feGaussianBlur stdDeviation="21"/>
<feColorMatrix type="matrix" values="0 0 0 0 0.0941176 0 0 0 0 0.152941 0 0 0 0 0.294118 0 0 0 0.08 0"/>
<feBlend mode="normal" in2="BackgroundImageFix" result="effect1_dropShadow"/>
<feColorMatrix in="SourceAlpha" type="matrix" values="0 0 0 0 0 0 0 0 0 0 0 0 0 0 0 0 0 0 127 0"/>
<feMorphology radius="6" operator="erode" in="SourceAlpha" result="effect2_dropShadow"/>
<feOffset dy="8"/>
<feGaussianBlur stdDeviation="9"/>
<feColorMatrix type="matrix" values="0 0 0 0 0.0941176 0 0 0 0 0.152941 0 0 0 0 0.294118 0 0 0 0.04 0"/>
<feBlend mode="normal" in2="effect1_dropShadow" result="effect2_dropShadow"/>
<feBlend mode="normal" in="SourceGraphic" in2="effect2_dropShadow" result="shape"/>
</filter>
<filter id="filter1_f" x="-112.946" y="71.0537" width="415.245" height="469.63" filterUnits="userSpaceOnUse" color-interpolation-filters="sRGB">
<feFlood flood-opacity="0" result="BackgroundImageFix"/>
<feBlend mode="normal" in="SourceGraphic" in2="BackgroundImageFix" result="shape"/>
<feGaussianBlur stdDeviation="54.4732" result="effect1_foregroundBlur"/>
</filter>
<filter id="filter2_f" x="-112.946" y="86.4236" width="415.245" height="469.63" filterUnits="userSpaceOnUse" color-interpolation-filters="sRGB">
<feFlood flood-opacity="0" result="BackgroundImageFix"/>
<feBlend mode="normal" in="SourceGraphic" in2="BackgroundImageFix" result="shape"/>
<feGaussianBlur stdDeviation="54.4732" result="effect1_foregroundBlur"/>
</filter>
<filter id="filter3_f" x="-2.23563" y="127.73" width="392.475" height="426.986" filterUnits="userSpaceOnUse" color-interpolation-filters="sRGB">
<feFlood flood-opacity="0" result="BackgroundImageFix"/>
<feBlend mode="normal" in="SourceGraphic" in2="BackgroundImageFix" result="shape"/>
<feGaussianBlur stdDeviation="54.4732" result="effect1_foregroundBlur"/>
</filter>
<filter id="filter4_f" x="0.603485" y="152.066" width="352.023" height="378.635" filterUnits="userSpaceOnUse" color-interpolation-filters="sRGB">
<feFlood flood-opacity="0" result="BackgroundImageFix"/>
<feBlend mode="normal" in="SourceGraphic" in2="BackgroundImageFix" result="shape"/>
<feGaussianBlur stdDeviation="54.4732" result="effect1_foregroundBlur"/>
</filter>
<filter id="filter5_ii" x="70.4607" y="38.9329" width="71.9932" height="142.67" filterUnits="userSpaceOnUse" color-interpolation-filters="sRGB">
<feFlood flood-opacity="0" result="BackgroundImageFix"/>
<feBlend mode="normal" in="SourceGraphic" in2="BackgroundImageFix" result="shape"/>
<feColorMatrix in="SourceAlpha" type="matrix" values="0 0 0 0 0 0 0 0 0 0 0 0 0 0 0 0 0 0 127 0" result="hardAlpha"/>
<feOffset dx="-1" dy="1"/>
<feComposite in2="hardAlpha" operator="arithmetic" k2="-1" k3="1"/>
<feColorMatrix type="matrix" values="0 0 0 0 1 0 0 0 0 0.654167 0 0 0 0 0.717045 0 0 0 0.6 0"/>
<feBlend mode="normal" in2="shape" result="effect1_innerShadow"/>
<feColorMatrix in="SourceAlpha" type="matrix" values="0 0 0 0 0 0 0 0 0 0 0 0 0 0 0 0 0 0 127 0" result="hardAlpha"/>
<feOffset dx="1" dy="-1"/>
<feComposite in2="hardAlpha" operator="arithmetic" k2="-1" k3="1"/>
<feColorMatrix type="matrix" values="0 0 0 0 0 0 0 0 0 0.064853 0 0 0 0 0.2625 0 0 0 0.6 0"/>
<feBlend mode="normal" in2="effect1_innerShadow" result="effect2_innerShadow"/>
</filter>
<filter id="filter6_ii" x="74.1873" y="47.9133" width="64.59" height="119.339" filterUnits="userSpaceOnUse" color-interpolation-filters="sRGB">
<feFlood flood-opacity="0" result="BackgroundImageFix"/>
<feBlend mode="normal" in="SourceGraphic" in2="BackgroundImageFix" result="shape"/>
<feColorMatrix in="SourceAlpha" type="matrix" values="0 0 0 0 0 0 0 0 0 0 0 0 0 0 0 0 0 0 127 0" result="hardAlpha"/>
<feOffset dx="-1" dy="1"/>
<feComposite in2="hardAlpha" operator="arithmetic" k2="-1" k3="1"/>
<feColorMatrix type="matrix" values="0 0 0 0 0.325486 0 0 0 0 0.419659 0 0 0 0 0.716667 0 0 0 1 0"/>
<feBlend mode="normal" in2="shape" result="effect1_innerShadow"/>
<feColorMatrix in="SourceAlpha" type="matrix" values="0 0 0 0 0 0 0 0 0 0 0 0 0 0 0 0 0 0 127 0" result="hardAlpha"/>
<feOffset dx="1" dy="-1"/>
<feComposite in2="hardAlpha" operator="arithmetic" k2="-1" k3="1"/>
<feColorMatrix type="matrix" values="0 0 0 0 0.460417 0 0 0 0 0.556401 0 0 0 0 0.85 0 0 0 1 0"/>
<feBlend mode="normal" in2="effect1_innerShadow" result="effect2_innerShadow"/>
</filter>
<filter id="filter7_ii" x="81.8408" y="58.685" width="50.3853" height="19.7134" filterUnits="userSpaceOnUse" color-interpolation-filters="sRGB">
<feFlood flood-opacity="0" result="BackgroundImageFix"/>
<feBlend mode="normal" in="SourceGraphic" in2="BackgroundImageFix" result="shape"/>
<feColorMatrix in="SourceAlpha" type="matrix" values="0 0 0 0 0 0 0 0 0 0 0 0 0 0 0 0 0 0 127 0" result="hardAlpha"/>
<feOffset dx="-1" dy="1"/>
<feComposite in2="hardAlpha" operator="arithmetic" k2="-1" k3="1"/>
<feColorMatrix type="matrix" values="0 0 0 0 0.875 0 0 0 0 0.904661 0 0 0 0 1 0 0 0 1 0"/>
<feBlend mode="normal" in2="shape" result="effect1_innerShadow"/>
<feColorMatrix in="SourceAlpha" type="matrix" values="0 0 0 0 0 0 0 0 0 0 0 0 0 0 0 0 0 0 127 0" result="hardAlpha"/>
<feOffset dx="1" dy="-1"/>
<feComposite in2="hardAlpha" operator="arithmetic" k2="-1" k3="1"/>
<feColorMatrix type="matrix" values="0 0 0 0 0.460417 0 0 0 0 0.556401 0 0 0 0 0.85 0 0 0 1 0"/>
<feBlend mode="normal" in2="effect1_innerShadow" result="effect2_innerShadow"/>
</filter>
<filter id="filter8_ii" x="127.056" y="64.8743" width="7.93767" height="7.9548" filterUnits="userSpaceOnUse" color-interpolation-filters="sRGB">
<feFlood flood-opacity="0" result="BackgroundImageFix"/>
<feBlend mode="normal" in="SourceGraphic" in2="BackgroundImageFix" result="shape"/>
<feColorMatrix in="SourceAlpha" type="matrix" values="0 0 0 0 0 0 0 0 0 0 0 0 0 0 0 0 0 0 127 0" result="hardAlpha"/>
<feOffset dx="0.2" dy="0.5"/>
<feComposite in2="hardAlpha" operator="arithmetic" k2="-1" k3="1"/>
<feColorMatrix type="matrix" values="0 0 0 0 1 0 0 0 0 1 0 0 0 0 1 0 0 0 0.5 0"/>
<feBlend mode="normal" in2="shape" result="effect1_innerShadow"/>
<feColorMatrix in="SourceAlpha" type="matrix" values="0 0 0 0 0 0 0 0 0 0 0 0 0 0 0 0 0 0 127 0" result="hardAlpha"/>
<feOffset dx="-0.3" dy="-0.3"/>
<feComposite in2="hardAlpha" operator="arithmetic" k2="-1" k3="1"/>
<feColorMatrix type="matrix" values="0 0 0 0 0.0601852 0 0 0 0 0.270833 0 0 0 0 0 0 0 0 0.3 0"/>
<feBlend mode="normal" in2="effect1_innerShadow" result="effect2_innerShadow"/>
</filter>
<filter id="filter9_ii" x="80.5039" y="107.896" width="50.3853" height="19.7134" filterUnits="userSpaceOnUse" color-interpolation-filters="sRGB">
<feFlood flood-opacity="0" result="BackgroundImageFix"/>
<feBlend mode="normal" in="SourceGraphic" in2="BackgroundImageFix" result="shape"/>
<feColorMatrix in="SourceAlpha" type="matrix" values="0 0 0 0 0 0 0 0 0 0 0 0 0 0 0 0 0 0 127 0" result="hardAlpha"/>
<feOffset dx="-1" dy="1"/>
<feComposite in2="hardAlpha" operator="arithmetic" k2="-1" k3="1"/>
<feColorMatrix type="matrix" values="0 0 0 0 0.875 0 0 0 0 0.904661 0 0 0 0 1 0 0 0 1 0"/>
<feBlend mode="normal" in2="shape" result="effect1_innerShadow"/>
<feColorMatrix in="SourceAlpha" type="matrix" values="0 0 0 0 0 0 0 0 0 0 0 0 0 0 0 0 0 0 127 0" result="hardAlpha"/>
<feOffset dx="1" dy="-1"/>
<feComposite in2="hardAlpha" operator="arithmetic" k2="-1" k3="1"/>
<feColorMatrix type="matrix" values="0 0 0 0 0.460417 0 0 0 0 0.556401 0 0 0 0 0.85 0 0 0 1 0"/>
<feBlend mode="normal" in2="effect1_innerShadow" result="effect2_innerShadow"/>
</filter>
<filter id="filter10_ii" x="125.72" y="114.086" width="7.93767" height="7.9548" filterUnits="userSpaceOnUse" color-interpolation-filters="sRGB">
<feFlood flood-opacity="0" result="BackgroundImageFix"/>
<feBlend mode="normal" in="SourceGraphic" in2="BackgroundImageFix" result="shape"/>
<feColorMatrix in="SourceAlpha" type="matrix" values="0 0 0 0 0 0 0 0 0 0 0 0 0 0 0 0 0 0 127 0" result="hardAlpha"/>
<feOffset dx="0.2" dy="0.5"/>
<feComposite in2="hardAlpha" operator="arithmetic" k2="-1" k3="1"/>
<feColorMatrix type="matrix" values="0 0 0 0 1 0 0 0 0 1 0 0 0 0 1 0 0 0 0.5 0"/>
<feBlend mode="normal" in2="shape" result="effect1_innerShadow"/>
<feColorMatrix in="SourceAlpha" type="matrix" values="0 0 0 0 0 0 0 0 0 0 0 0 0 0 0 0 0 0 127 0" result="hardAlpha"/>
<feOffset dx="-0.3" dy="-0.3"/>
<feComposite in2="hardAlpha" operator="arithmetic" k2="-1" k3="1"/>
<feColorMatrix type="matrix" values="0 0 0 0 0.0601852 0 0 0 0 0.270833 0 0 0 0 0 0 0 0 0.3 0"/>
<feBlend mode="normal" in2="effect1_innerShadow" result="effect2_innerShadow"/>
</filter>
<filter id="filter11_ii" x="80.8497" y="83.2821" width="50.3853" height="19.7134" filterUnits="userSpaceOnUse" color-interpolation-filters="sRGB">
<feFlood flood-opacity="0" result="BackgroundImageFix"/>
<feBlend mode="normal" in="SourceGraphic" in2="BackgroundImageFix" result="shape"/>
<feColorMatrix in="SourceAlpha" type="matrix" values="0 0 0 0 0 0 0 0 0 0 0 0 0 0 0 0 0 0 127 0" result="hardAlpha"/>
<feOffset dx="-1" dy="1"/>
<feComposite in2="hardAlpha" operator="arithmetic" k2="-1" k3="1"/>
<feColorMatrix type="matrix" values="0 0 0 0 0.875 0 0 0 0 0.904661 0 0 0 0 1 0 0 0 1 0"/>
<feBlend mode="normal" in2="shape" result="effect1_innerShadow"/>
<feColorMatrix in="SourceAlpha" type="matrix" values="0 0 0 0 0 0 0 0 0 0 0 0 0 0 0 0 0 0 127 0" result="hardAlpha"/>
<feOffset dx="1" dy="-1"/>
<feComposite in2="hardAlpha" operator="arithmetic" k2="-1" k3="1"/>
<feColorMatrix type="matrix" values="0 0 0 0 0.460417 0 0 0 0 0.556401 0 0 0 0 0.85 0 0 0 1 0"/>
<feBlend mode="normal" in2="effect1_innerShadow" result="effect2_innerShadow"/>
</filter>
<filter id="filter12_ii" x="126.065" y="89.4713" width="7.93767" height="7.9548" filterUnits="userSpaceOnUse" color-interpolation-filters="sRGB">
<feFlood flood-opacity="0" result="BackgroundImageFix"/>
<feBlend mode="normal" in="SourceGraphic" in2="BackgroundImageFix" result="shape"/>
<feColorMatrix in="SourceAlpha" type="matrix" values="0 0 0 0 0 0 0 0 0 0 0 0 0 0 0 0 0 0 127 0" result="hardAlpha"/>
<feOffset dx="0.2" dy="0.5"/>
<feComposite in2="hardAlpha" operator="arithmetic" k2="-1" k3="1"/>
<feColorMatrix type="matrix" values="0 0 0 0 1 0 0 0 0 1 0 0 0 0 1 0 0 0 0.5 0"/>
<feBlend mode="normal" in2="shape" result="effect1_innerShadow"/>
<feColorMatrix in="SourceAlpha" type="matrix" values="0 0 0 0 0 0 0 0 0 0 0 0 0 0 0 0 0 0 127 0" result="hardAlpha"/>
<feOffset dx="-0.3" dy="-0.3"/>
<feComposite in2="hardAlpha" operator="arithmetic" k2="-1" k3="1"/>
<feColorMatrix type="matrix" values="0 0 0 0 0.0601852 0 0 0 0 0.270833 0 0 0 0 0 0 0 0 0.3 0"/>
<feBlend mode="normal" in2="effect1_innerShadow" result="effect2_innerShadow"/>
</filter>
<filter id="filter13_ii" x="79.515" y="132.493" width="50.3853" height="19.7134" filterUnits="userSpaceOnUse" color-interpolation-filters="sRGB">
<feFlood flood-opacity="0" result="BackgroundImageFix"/>
<feBlend mode="normal" in="SourceGraphic" in2="BackgroundImageFix" result="shape"/>
<feColorMatrix in="SourceAlpha" type="matrix" values="0 0 0 0 0 0 0 0 0 0 0 0 0 0 0 0 0 0 127 0" result="hardAlpha"/>
<feOffset dx="-1" dy="1"/>
<feComposite in2="hardAlpha" operator="arithmetic" k2="-1" k3="1"/>
<feColorMatrix type="matrix" values="0 0 0 0 0.875 0 0 0 0 0.904661 0 0 0 0 1 0 0 0 1 0"/>
<feBlend mode="normal" in2="shape" result="effect1_innerShadow"/>
<feColorMatrix in="SourceAlpha" type="matrix" values="0 0 0 0 0 0 0 0 0 0 0 0 0 0 0 0 0 0 127 0" result="hardAlpha"/>
<feOffset dx="1" dy="-1"/>
<feComposite in2="hardAlpha" operator="arithmetic" k2="-1" k3="1"/>
<feColorMatrix type="matrix" values="0 0 0 0 0.460417 0 0 0 0 0.556401 0 0 0 0 0.85 0 0 0 1 0"/>
<feBlend mode="normal" in2="effect1_innerShadow" result="effect2_innerShadow"/>
</filter>
<filter id="filter14_ii" x="124.732" y="138.683" width="7.93767" height="7.9548" filterUnits="userSpaceOnUse" color-interpolation-filters="sRGB">
<feFlood flood-opacity="0" result="BackgroundImageFix"/>
<feBlend mode="normal" in="SourceGraphic" in2="BackgroundImageFix" result="shape"/>
<feColorMatrix in="SourceAlpha" type="matrix" values="0 0 0 0 0 0 0 0 0 0 0 0 0 0 0 0 0 0 127 0" result="hardAlpha"/>
<feOffset dx="0.2" dy="0.5"/>
<feComposite in2="hardAlpha" operator="arithmetic" k2="-1" k3="1"/>
<feColorMatrix type="matrix" values="0 0 0 0 1 0 0 0 0 1 0 0 0 0 1 0 0 0 0.5 0"/>
<feBlend mode="normal" in2="shape" result="effect1_innerShadow"/>
<feColorMatrix in="SourceAlpha" type="matrix" values="0 0 0 0 0 0 0 0 0 0 0 0 0 0 0 0 0 0 127 0" result="hardAlpha"/>
<feOffset dx="-0.3" dy="-0.3"/>
<feComposite in2="hardAlpha" operator="arithmetic" k2="-1" k3="1"/>
<feColorMatrix type="matrix" values="0 0 0 0 0.0601852 0 0 0 0 0.270833 0 0 0 0 0 0 0 0 0.3 0"/>
<feBlend mode="normal" in2="effect1_innerShadow" result="effect2_innerShadow"/>
</filter>
<filter id="filter15_f" x="-4.3634" y="30.4954" width="126.761" height="91.2227" filterUnits="userSpaceOnUse" color-interpolation-filters="sRGB">
<feFlood flood-opacity="0" result="BackgroundImageFix"/>
<feBlend mode="normal" in="SourceGraphic" in2="BackgroundImageFix" result="shape"/>
<feGaussianBlur stdDeviation="20" result="effect1_foregroundBlur"/>
</filter>
<filter id="filter16_f" x="5.34143" y="-17.2205" width="92.4667" height="104.332" filterUnits="userSpaceOnUse" color-interpolation-filters="sRGB">
<feFlood flood-opacity="0" result="BackgroundImageFix"/>
<feBlend mode="normal" in="SourceGraphic" in2="BackgroundImageFix" result="shape"/>
<feGaussianBlur stdDeviation="20" result="effect1_foregroundBlur"/>
</filter>
<linearGradient id="paint0_linear" x1="100" y1="22.0001" x2="100" y2="322" gradientUnits="userSpaceOnUse">
<stop stop-color="#242731"/>
<stop offset="1" stop-color="#242731" stop-opacity="0.3"/>
</linearGradient>
<linearGradient id="paint1_linear" x1="53.9342" y1="81.3475" x2="66.6982" y2="99.4008" gradientUnits="userSpaceOnUse">
<stop stop-color="#FFDDCA"/>
<stop offset="0.415822" stop-color="#FFB4AF"/>
<stop offset="1" stop-color="#FF8383"/>
</linearGradient>
<linearGradient id="paint2_linear" x1="76.8243" y1="188.723" x2="116.548" y2="187.82" gradientUnits="userSpaceOnUse">
<stop stop-color="#FFDDCA"/>
<stop offset="0.322848" stop-color="#FFB4AF"/>
<stop offset="1" stop-color="#E86969"/>
</linearGradient>
<radialGradient id="paint3_radial" cx="0" cy="0" r="1" gradientUnits="userSpaceOnUse" gradientTransform="translate(105.114 170.261) rotate(-89.5619) scale(152.811 74.406)">
<stop stop-color="#142969"/>
<stop offset="0.770833" stop-color="#6981CD"/>
<stop offset="1" stop-color="#FF5824"/>
</radialGradient>
<linearGradient id="paint4_linear" x1="79.2747" y1="160.61" x2="173.25" y2="131.419" gradientUnits="userSpaceOnUse">
<stop offset="0.0001" stop-color="#A8B8EE"/>
<stop offset="0.625359" stop-color="#C6D3FF"/>
<stop offset="1" stop-color="#D2DDFF"/>
</linearGradient>
<linearGradient id="paint5_linear" x1="87.3104" y1="77.232" x2="112.447" y2="41.6279" gradientUnits="userSpaceOnUse">
<stop offset="0.0001" stop-color="#A8B8EE"/>
<stop offset="0.625359" stop-color="#C6D3FF"/>
<stop offset="1" stop-color="#D2DDFF"/>
</linearGradient>
<linearGradient id="paint6_linear" x1="132.606" y1="71.5471" x2="131.073" y2="66.826" gradientUnits="userSpaceOnUse">
<stop stop-color="#79B169"/>
<stop offset="1" stop-color="#9EC657"/>
</linearGradient>
<linearGradient id="paint7_linear" x1="85.9734" y1="126.443" x2="111.111" y2="90.8394" gradientUnits="userSpaceOnUse">
<stop offset="0.0001" stop-color="#A8B8EE"/>
<stop offset="0.625359" stop-color="#C6D3FF"/>
<stop offset="1" stop-color="#D2DDFF"/>
</linearGradient>
<linearGradient id="paint8_linear" x1="131.27" y1="120.759" x2="129.737" y2="116.037" gradientUnits="userSpaceOnUse">
<stop stop-color="#79B169"/>
<stop offset="1" stop-color="#9EC657"/>
</linearGradient>
<linearGradient id="paint9_linear" x1="86.3193" y1="101.829" x2="111.456" y2="66.225" gradientUnits="userSpaceOnUse">
<stop offset="0.0001" stop-color="#A8B8EE"/>
<stop offset="0.625359" stop-color="#C6D3FF"/>
<stop offset="1" stop-color="#D2DDFF"/>
</linearGradient>
<linearGradient id="paint10_linear" x1="131.615" y1="96.1442" x2="130.082" y2="91.4231" gradientUnits="userSpaceOnUse">
<stop stop-color="#79B169"/>
<stop offset="1" stop-color="#9EC657"/>
</linearGradient>
<linearGradient id="paint11_linear" x1="84.9846" y1="151.04" x2="110.122" y2="115.436" gradientUnits="userSpaceOnUse">
<stop offset="0.0001" stop-color="#A8B8EE"/>
<stop offset="0.625359" stop-color="#C6D3FF"/>
<stop offset="1" stop-color="#D2DDFF"/>
</linearGradient>
<linearGradient id="paint12_linear" x1="130.282" y1="145.356" x2="128.749" y2="140.635" gradientUnits="userSpaceOnUse">
<stop stop-color="#79B169"/>
<stop offset="1" stop-color="#9EC657"/>
</linearGradient>
<linearGradient id="paint13_linear" x1="215.069" y1="253.365" x2="195.279" y2="262.74" gradientUnits="userSpaceOnUse">
<stop stop-color="#FFDDCA"/>
<stop offset="0.415822" stop-color="#FFB4AF"/>
<stop offset="1" stop-color="#FF8383"/>
</linearGradient>
<linearGradient id="paint14_linear" x1="133.779" y1="259.891" x2="198.566" y2="309.311" gradientUnits="userSpaceOnUse">
<stop stop-color="#D35A58"/>
<stop offset="0.601961" stop-color="#D35A58" stop-opacity="0.398039"/>
<stop offset="1" stop-color="#D35A58" stop-opacity="0"/>
</linearGradient>
<linearGradient id="paint15_linear" x1="162.901" y1="137.681" x2="143.002" y2="150.694" gradientUnits="userSpaceOnUse">
<stop stop-color="#FFDDCA"/>
<stop offset="0.415822" stop-color="#FFB4AF"/>
<stop offset="1" stop-color="#FF8383"/>
</linearGradient>
<linearGradient id="paint16_linear" x1="54.4042" y1="161.592" x2="63.9753" y2="161.965" gradientUnits="userSpaceOnUse">
<stop stop-color="#FFDDCA"/>
<stop offset="0.415822" stop-color="#FFB4AF"/>
<stop offset="1" stop-color="#FF8383"/>
</linearGradient>
<linearGradient id="paint17_linear" x1="66.1976" y1="153.275" x2="65.9699" y2="161.665" gradientUnits="userSpaceOnUse">
<stop stop-color="#EF7C7A"/>
<stop offset="1" stop-color="#EF7C7A" stop-opacity="0"/>
</linearGradient>
<linearGradient id="paint18_linear" x1="54.722" y1="144.946" x2="62.236" y2="147.21" gradientUnits="userSpaceOnUse">
<stop stop-color="#FFDDCA"/>
<stop offset="0.415822" stop-color="#FFB4AF"/>
<stop offset="1" stop-color="#FF8383"/>
</linearGradient>
<linearGradient id="paint19_linear" x1="66.0058" y1="138.159" x2="65.7795" y2="146.502" gradientUnits="userSpaceOnUse">
<stop stop-color="#EF7C7A"/>
<stop offset="1" stop-color="#EF7C7A" stop-opacity="0"/>
</linearGradient>
<linearGradient id="paint20_linear" x1="56.1973" y1="119.867" x2="64.4268" y2="121.411" gradientUnits="userSpaceOnUse">
<stop stop-color="#FFDDCA"/>
<stop offset="0.415822" stop-color="#FFB4AF"/>
<stop offset="1" stop-color="#FF8383"/>
</linearGradient>
<linearGradient id="paint21_linear" x1="156.334" y1="122.032" x2="154.207" y2="200.422" gradientUnits="userSpaceOnUse">
<stop stop-color="white"/>
<stop offset="1" stop-color="white" stop-opacity="0"/>
</linearGradient>
<linearGradient id="paint22_linear" x1="32.4482" y1="202.024" x2="89.1265" y2="236.393" gradientUnits="userSpaceOnUse">
<stop stop-color="#FFDDCA"/>
<stop offset="0.331067" stop-color="#FFB4AF"/>
<stop offset="0.864455" stop-color="#FF8383"/>
<stop offset="1" stop-color="#F87A7A"/>
</linearGradient>
<linearGradient id="paint23_linear" x1="77.6036" y1="257.703" x2="134.252" y2="151.916" gradientUnits="userSpaceOnUse">
<stop stop-color="#D56765"/>
<stop offset="1" stop-color="#EF7C7A" stop-opacity="0"/>
</linearGradient>
<linearGradient id="paint24_linear" x1="70.9121" y1="186.359" x2="70.159" y2="214.116" gradientUnits="userSpaceOnUse">
<stop stop-color="#EF7C7A"/>
<stop offset="1" stop-color="#EF7C7A" stop-opacity="0"/>
</linearGradient>
<linearGradient id="paint25_linear" x1="46.744" y1="189.344" x2="46.1683" y2="210.563" gradientUnits="userSpaceOnUse">
<stop stop-color="#EF7C7A"/>
<stop offset="1" stop-color="#EF7C7A" stop-opacity="0"/>
</linearGradient>
<linearGradient id="paint26_linear" x1="24.9062" y1="194.555" x2="24.4663" y2="210.769" gradientUnits="userSpaceOnUse">
<stop stop-color="#EF7C7A"/>
<stop offset="1" stop-color="#EF7C7A" stop-opacity="0"/>
</linearGradient>
<linearGradient id="paint27_linear" x1="4.45481" y1="203.129" x2="1.33658" y2="318.064" gradientUnits="userSpaceOnUse">
<stop stop-color="white"/>
<stop offset="1" stop-color="white" stop-opacity="0"/>
</linearGradient>
<linearGradient id="paint28_linear" x1="72.688" y1="268.179" x2="65.733" y2="304.124" gradientUnits="userSpaceOnUse">
<stop stop-color="#EF7C7A"/>
<stop offset="1" stop-color="#EF7C7A" stop-opacity="0"/>
</linearGradient>
<linearGradient id="paint29_linear" x1="35.1015" y1="67.3197" x2="38.1069" y2="87.0565" gradientUnits="userSpaceOnUse">
<stop stop-color="#FBEEB8"/>
<stop offset="0.317708" stop-color="#F6D240"/>
<stop offset="0.508658" stop-color="#F2BC3C"/>
<stop offset="0.6864" stop-color="#E98C35"/>
<stop offset="0.8237" stop-color="#E2632E"/>
<stop offset="0.8238" stop-color="#E2632E"/>
<stop offset="1" stop-color="#D3344A"/>
</linearGradient>
<linearGradient id="paint30_linear" x1="29.4737" y1="33.8954" x2="77.7298" y2="60.5511" gradientUnits="userSpaceOnUse">
<stop stop-color="#FBEEB8"/>
<stop offset="0.178709" stop-color="#F6D240"/>
<stop offset="0.267289" stop-color="#F2BC3C"/>
<stop offset="0.467301" stop-color="#E98C35"/>
<stop offset="0.8237" stop-color="#E2632E"/>
<stop offset="0.8238" stop-color="#E2632E"/>
<stop offset="1" stop-color="#D3344A"/>
</linearGradient>
<linearGradient id="paint31_linear" x1="26.8671" y1="1.78103" x2="58.9649" y2="68.9095" gradientUnits="userSpaceOnUse">
<stop stop-color="#FBEEB8"/>
<stop offset="0.317708" stop-color="#F6D240"/>
<stop offset="0.508658" stop-color="#F2BC3C"/>
<stop offset="0.6864" stop-color="#E98C35"/>
<stop offset="0.8237" stop-color="#E2632E"/>
<stop offset="0.8238" stop-color="#E2632E"/>
<stop offset="1" stop-color="#D3344A"/>
</linearGradient>
<linearGradient id="paint32_linear" x1="26.8671" y1="1.78103" x2="58.9649" y2="68.9095" gradientUnits="userSpaceOnUse">
<stop stop-color="#FBEEB8"/>
<stop offset="0.317708" stop-color="#F6D240"/>
<stop offset="0.508658" stop-color="#F2BC3C"/>
<stop offset="0.6864" stop-color="#E98C35"/>
<stop offset="0.8237" stop-color="#E2632E"/>
<stop offset="0.8238" stop-color="#E2632E"/>
<stop offset="1" stop-color="#D3344A"/>
</linearGradient>
<linearGradient id="paint33_linear" x1="26.8671" y1="1.78103" x2="58.9649" y2="68.9095" gradientUnits="userSpaceOnUse">
<stop stop-color="#FBEEB8"/>
<stop offset="0.317708" stop-color="#F6D240"/>
<stop offset="0.508658" stop-color="#F2BC3C"/>
<stop offset="0.6864" stop-color="#E98C35"/>
<stop offset="0.8237" stop-color="#E2632E"/>
<stop offset="0.8238" stop-color="#E2632E"/>
<stop offset="1" stop-color="#D3344A"/>
</linearGradient>
<linearGradient id="paint34_linear" x1="69.4052" y1="10.1042" x2="58.4929" y2="62.8913" gradientUnits="userSpaceOnUse">
<stop stop-color="#FEFFFF"/>
<stop offset="0.2019" stop-color="#FBEEB8"/>
<stop offset="0.5238" stop-color="#F6D240"/>
<stop offset="0.5718" stop-color="#F2BC3C"/>
<stop offset="0.6864" stop-color="#E98C35"/>
<stop offset="0.7741" stop-color="#E46E30"/>
<stop offset="0.8237" stop-color="#E2632E"/>
<stop offset="0.8248" stop-color="#E2632E"/>
<stop offset="0.8916" stop-color="#DA493E"/>
<stop offset="0.952" stop-color="#D53947"/>
<stop offset="1" stop-color="#D3344A"/>
</linearGradient>
<linearGradient id="paint35_linear" x1="37.6072" y1="5.83388" x2="59.2482" y2="53.9304" gradientUnits="userSpaceOnUse">
<stop stop-color="#FBEEB8"/>
<stop offset="0.317708" stop-color="#F6D240"/>
<stop offset="0.508658" stop-color="#F2BC3C"/>
<stop offset="0.6864" stop-color="#E98C35"/>
<stop offset="0.8237" stop-color="#E2632E"/>
<stop offset="0.8238" stop-color="#E2632E"/>
<stop offset="1" stop-color="#D3344A"/>
</linearGradient>
<linearGradient id="paint36_linear" x1="39.8113" y1="25.8376" x2="70.5426" y2="47.1668" gradientUnits="userSpaceOnUse">
<stop stop-color="#FBEEB8"/>
<stop offset="0.178709" stop-color="#F6D240"/>
<stop offset="0.267289" stop-color="#F2BC3C"/>
<stop offset="0.467301" stop-color="#E98C35"/>
<stop offset="0.8237" stop-color="#E2632E"/>
<stop offset="0.8238" stop-color="#E2632E"/>
<stop offset="1" stop-color="#D3344A"/>
</linearGradient>
<linearGradient id="paint37_linear" x1="49.1025" y1="20.6712" x2="40.2385" y2="27.7619" gradientUnits="userSpaceOnUse">
<stop stop-color="#FBEEB8"/>
<stop offset="0.317708" stop-color="#F6D240"/>
<stop offset="0.508658" stop-color="#F2BC3C"/>
<stop offset="0.6864" stop-color="#E98C35"/>
<stop offset="0.8237" stop-color="#E2632E"/>
<stop offset="0.8238" stop-color="#E2632E"/>
<stop offset="1" stop-color="#D3344A"/>
</linearGradient>
<linearGradient id="paint38_linear" x1="63.9607" y1="8.39774" x2="64.554" y2="39.7371" gradientUnits="userSpaceOnUse">
<stop stop-color="#FBEEB8"/>
<stop offset="0.178709" stop-color="#F6D240"/>
<stop offset="0.267289" stop-color="#F2BC3C"/>
<stop offset="0.467301" stop-color="#E98C35"/>
<stop offset="0.8237" stop-color="#E2632E"/>
<stop offset="0.8238" stop-color="#E2632E"/>
<stop offset="1" stop-color="#D3344A"/>
</linearGradient>
<linearGradient id="paint39_linear" x1="79.033" y1="-2.01517" x2="55.1038" y2="32.8737" gradientUnits="userSpaceOnUse">
<stop stop-color="#FBEEB8"/>
<stop offset="0.317708" stop-color="#F6D240"/>
<stop offset="0.508658" stop-color="#F2BC3C"/>
<stop offset="0.6864" stop-color="#E98C35"/>
<stop offset="0.8237" stop-color="#E2632E"/>
<stop offset="0.8238" stop-color="#E2632E"/>
<stop offset="1" stop-color="#D3344A"/>
</linearGradient>
<linearGradient id="paint40_linear" x1="79.033" y1="-2.01517" x2="55.1038" y2="32.8737" gradientUnits="userSpaceOnUse">
<stop stop-color="#FBEEB8"/>
<stop offset="0.317708" stop-color="#F6D240"/>
<stop offset="0.508658" stop-color="#F2BC3C"/>
<stop offset="0.6864" stop-color="#E98C35"/>
<stop offset="0.8237" stop-color="#E2632E"/>
<stop offset="0.8238" stop-color="#E2632E"/>
<stop offset="1" stop-color="#D3344A"/>
</linearGradient>
<linearGradient id="paint41_linear" x1="79.033" y1="-2.01517" x2="55.1038" y2="32.8737" gradientUnits="userSpaceOnUse">
<stop stop-color="#FBEEB8"/>
<stop offset="0.317708" stop-color="#F6D240"/>
<stop offset="0.508658" stop-color="#F2BC3C"/>
<stop offset="0.6864" stop-color="#E98C35"/>
<stop offset="0.8237" stop-color="#E2632E"/>
<stop offset="0.8238" stop-color="#E2632E"/>
<stop offset="1" stop-color="#D3344A"/>
</linearGradient>
<linearGradient id="paint42_linear" x1="87.0278" y1="21.2968" x2="57.9331" y2="30.9303" gradientUnits="userSpaceOnUse">
<stop stop-color="#FEFFFF"/>
<stop offset="0.2019" stop-color="#FBEEB8"/>
<stop offset="0.5238" stop-color="#F6D240"/>
<stop offset="0.5718" stop-color="#F2BC3C"/>
<stop offset="0.6864" stop-color="#E98C35"/>
<stop offset="0.7741" stop-color="#E46E30"/>
<stop offset="0.8237" stop-color="#E2632E"/>
<stop offset="0.8248" stop-color="#E2632E"/>
<stop offset="0.8916" stop-color="#DA493E"/>
<stop offset="0.952" stop-color="#D53947"/>
<stop offset="1" stop-color="#D3344A"/>
</linearGradient>
<linearGradient id="paint43_linear" x1="80.0906" y1="4.42529" x2="62.5601" y2="28.7547" gradientUnits="userSpaceOnUse">
<stop stop-color="#FBEEB8"/>
<stop offset="0.317708" stop-color="#F6D240"/>
<stop offset="0.508658" stop-color="#F2BC3C"/>
<stop offset="0.6864" stop-color="#E98C35"/>
<stop offset="0.8237" stop-color="#E2632E"/>
<stop offset="0.8238" stop-color="#E2632E"/>
<stop offset="1" stop-color="#D3344A"/>
</linearGradient>
<linearGradient id="paint44_linear" x1="70.8674" y1="11.1974" x2="69.1014" y2="32.3932" gradientUnits="userSpaceOnUse">
<stop stop-color="#FBEEB8"/>
<stop offset="0.178709" stop-color="#F6D240"/>
<stop offset="0.267289" stop-color="#F2BC3C"/>
<stop offset="0.467301" stop-color="#E98C35"/>
<stop offset="0.8237" stop-color="#E2632E"/>
<stop offset="0.8238" stop-color="#E2632E"/>
<stop offset="1" stop-color="#D3344A"/>
</linearGradient>
<clipPath id="clip0">
<rect width="200" height="321.347" fill="white" transform="translate(0 0.653137)"/>
</clipPath>
</defs>
</svg>
