<svg width="359" height="166" viewBox="0 0 359 166" fill="none" xmlns="http://www.w3.org/2000/svg">
<g clip-path="url(#clip0)">
<g filter="url(#filter0_dd)">
<rect width="359" height="166" rx="12" fill="#242731"/>
</g>
<mask id="mask0" mask-type="alpha" maskUnits="userSpaceOnUse" x="0" y="0" width="359" height="166">
<rect width="359" height="166" rx="12" fill="#242731"/>
</mask>
<g mask="url(#mask0)">
<g filter="url(#filter1_f)">
<path d="M93.5519 108.123C75.0431 91.4793 77.0974 46.6498 56.8257 39.2789C21.9135 26.5846 40.4479 146.789 56.8257 203.864C88.4501 314.071 251.253 323.48 232.916 203.864C225.173 153.349 213.941 111.982 185.634 100.278C165.083 91.7805 154.197 123.49 133.117 122.852C117.343 122.375 107.673 120.82 93.5519 108.123Z" fill="#242DFF"/>
</g>
<g filter="url(#filter2_f)">
<path d="M93.5519 123.493C75.0431 106.849 77.0974 62.0197 56.8257 54.6488C21.9135 41.9545 40.4479 162.159 56.8257 219.234C88.4501 329.441 251.253 338.85 232.916 219.234C225.173 168.719 213.941 127.352 185.634 115.648C165.083 107.15 154.197 138.86 133.117 138.222C117.343 137.744 107.673 136.19 93.5519 123.493Z" fill="#FF5824"/>
</g>
<g filter="url(#filter3_f)">
<ellipse cx="235.002" cy="199.57" rx="87.2913" ry="104.547" fill="#FF4545"/>
</g>
<g filter="url(#filter4_f)">
<ellipse cx="217.615" cy="199.73" rx="67.0653" ry="80.3712" fill="#FF5824"/>
</g>
</g>
<mask id="mask1" mask-type="alpha" maskUnits="userSpaceOnUse" x="0" y="0" width="359" height="166">
<rect width="359" height="166" rx="12" fill="url(#paint0_linear)"/>
</mask>
<g mask="url(#mask1)">
<path d="M138.663 119.121C138.663 119.121 120.062 133.664 114.552 119.145C110.874 109.404 82.156 86.858 64.4602 70.7217C55.7288 62.7603 49.6942 56.3662 50.6619 53.8532C50.6836 53.7786 50.7233 53.7055 50.7627 53.6504C51.5258 52.1215 53.901 51.8257 57.3384 52.4631C59.8709 52.9207 62.9615 53.8833 66.4286 55.2339C79.9872 60.4727 98.9895 71.4863 110.165 80.7643C111.104 81.5438 112.023 82.3411 112.942 83.1772C115.014 85.0239 117.026 86.9796 118.98 88.9721C132.854 103.298 138.663 119.121 138.663 119.121Z" fill="url(#paint1_linear)"/>
<path d="M140.382 140.758C139.812 151.208 129.864 176.514 123.553 188.331C121.748 191.688 120.606 193.745 120.606 193.745L113.716 187.872C112.834 186.52 112 185.219 111.181 183.97C109.293 180.575 106.177 175.28 103.365 172.105C102.551 171.19 101.652 170.272 100.688 169.336C100.688 169.319 100.673 169.302 100.656 169.302C96.4322 165.176 91.2325 160.432 88.5227 151.331C87.9448 149.42 87.3086 145.01 86.8315 143.52C85.2262 136.117 84.5239 133.498 85.0141 130.6C85.5044 127.701 87.2028 124.509 90.8229 119.77C94.0581 115.538 99.7977 114.216 105.415 109.93C110.844 105.788 116.629 102.378 121.266 101.207C124.778 100.301 127.659 100.698 129.221 103.027C130.957 105.597 133.126 108.584 135.285 111.871C140.31 119.508 140.894 131.394 140.382 140.758Z" fill="url(#paint2_linear)"/>
<g filter="url(#filter5_ii)">
<path d="M112.352 129.019L111.267 129.033L96.9539 129.249L91.279 129.334L78.8486 129.524L72.7188 129.618L72.5087 129.626C67.5782 129.707 63.5006 125.678 63.4857 120.669L62.8551 22.777C62.8383 17.7883 66.8501 13.6433 71.7806 13.5637L111.624 12.9572C116.573 12.8792 120.629 16.9241 120.65 21.8952L121.156 103.034L121.278 119.805C121.296 124.795 117.284 128.938 112.352 129.019Z" fill="url(#paint3_radial)"/>
</g>
<g filter="url(#filter6_ii)">
<path d="M111.32 117.364L73.3765 117.888C69.5533 117.947 66.4053 114.829 66.3806 110.96L65.8902 27.9959C65.8655 24.127 68.9741 20.9136 72.7973 20.8548L110.741 20.331C114.564 20.2722 117.712 23.3902 117.737 27.2592L118.227 110.223C118.252 114.093 115.144 117.307 111.32 117.364Z" fill="url(#paint4_linear)"/>
</g>
<path d="M93.622 126.283C95.1264 126.177 96.2703 124.881 96.1771 123.388C96.0838 121.895 94.7887 120.771 93.2844 120.877C91.7801 120.982 90.6361 122.278 90.7294 123.771C90.8226 125.264 92.1177 126.389 93.622 126.283Z" fill="#0A1331"/>
<path d="M100.565 16.1707L84.6561 16.419C84.3668 16.4235 84.1329 16.6721 84.1347 16.97L84.1362 17.2105C84.138 17.51 84.3761 17.7499 84.664 17.7454L100.573 17.4972C100.862 17.4927 101.096 17.2441 101.094 16.9461L101.093 16.7056C101.091 16.4062 100.853 16.1662 100.565 16.1707Z" fill="#31478B"/>
<g filter="url(#filter7_ii)">
<path d="M108.215 45.1843L76.0585 45.6735C73.667 45.7094 71.6992 43.761 71.6847 41.3411L71.6389 34.0416C71.6244 31.6218 73.5671 29.6133 75.9586 29.5774L108.115 29.0882C110.506 29.0524 112.474 31.0007 112.489 33.4206L112.534 40.7201C112.549 43.1385 110.606 45.1469 108.215 45.1843Z" fill="url(#paint5_linear)"/>
</g>
<path d="M86.1786 37.2284C86.1186 39.7885 84.5167 41.9672 82.3045 42.8784C81.5758 43.1822 80.7836 43.3355 79.9558 43.3266C79.115 43.3176 78.3172 43.1325 77.5904 42.8127C75.4348 41.8535 73.9516 39.6428 74.0114 37.0944C74.0915 33.6799 76.8828 30.9456 80.2489 30.9831C83.6006 31.019 86.2601 33.8138 86.1786 37.2284Z" fill="#E5EBFF"/>
<path d="M81.8066 37.5728C82.2552 36.5052 81.7643 35.2852 80.71 34.8478C79.6558 34.4105 78.4376 34.9215 77.989 35.9891C77.5404 37.0567 78.0314 38.2766 79.0856 38.714C80.1398 39.1513 81.358 38.6404 81.8066 37.5728Z" fill="#BAC9F9"/>
<path d="M76.1715 41.8864C76.2637 41.5563 76.4045 41.244 76.5876 40.9566C77.406 40.1075 78.5768 39.5957 79.8554 39.6092C81.1731 39.6231 82.338 40.1813 83.116 41.087C83.3132 41.4386 83.4446 41.8259 83.502 42.2369C83.142 42.4847 82.7556 42.6953 82.3486 42.8631C81.6169 43.1684 80.8215 43.3224 79.9903 43.3135C79.146 43.3044 78.3449 43.1184 77.6152 42.797C77.09 42.5631 76.6047 42.2552 76.1715 41.8864Z" fill="#BAC9F9"/>
<path d="M88.514 34.3174L105.579 33.9944" stroke="white" stroke-linecap="round"/>
<path d="M88.4849 36.4441L98.1617 36.2613" stroke="white" stroke-linecap="round"/>
<path d="M88.4546 38.6095L102.431 38.4646" stroke="white" stroke-linecap="round"/>
<path d="M88.4094 41.8137L93.2483 41.7212" stroke="white" stroke-linecap="round"/>
<g filter="url(#filter8_ii)">
<path d="M111.513 40.6221C113.28 40.6379 114.744 39.1967 114.783 37.403C114.822 35.6093 113.421 34.1424 111.654 34.1265C109.887 34.1107 108.423 35.552 108.384 37.3457C108.345 39.1394 109.746 40.6063 111.513 40.6221Z" fill="url(#paint6_linear)"/>
</g>
<path d="M111.557 38.4587C111.449 38.4414 111.354 38.3886 111.296 38.3087L110.585 37.3445C110.47 37.1874 110.529 36.9811 110.716 36.8826C110.902 36.7854 111.147 36.8339 111.264 36.9868L111.646 37.5075L112.471 36.454C112.594 36.2988 112.834 36.2527 113.022 36.3542C113.205 36.4556 113.256 36.6614 113.134 36.8166L111.967 38.3099C111.892 38.4065 111.764 38.4631 111.629 38.4634C111.603 38.4645 111.58 38.4616 111.557 38.4587Z" fill="white"/>
<g filter="url(#filter9_ii)">
<path d="M107.658 85.1853L75.5018 85.6745C73.1103 85.7103 71.1425 83.7619 71.128 81.3421L71.0823 74.0426C71.0678 71.6227 73.0104 69.6143 75.4019 69.5784L107.558 69.0892C109.95 69.0533 111.917 71.0017 111.932 73.4216L111.978 80.7211C111.992 83.1395 110.05 85.1479 107.658 85.1853Z" fill="url(#paint7_linear)"/>
</g>
<path d="M85.622 77.2292C85.5619 79.7894 83.9601 81.968 81.7478 82.8793C81.0191 83.1831 80.227 83.3363 79.3992 83.3274C78.5584 83.3184 77.7605 83.1333 77.0338 82.8135C74.8781 81.8544 73.395 79.6437 73.4548 77.0952C73.5348 73.6807 76.3262 70.9464 79.6923 70.9839C83.044 71.0197 85.7035 73.8146 85.622 77.2292Z" fill="#E5EBFF"/>
<path d="M81.25 77.5737C81.6986 76.5061 81.2076 75.2862 80.1534 74.8488C79.0992 74.4115 77.8809 74.9224 77.4323 75.99C76.9838 77.0576 77.4747 78.2776 78.5289 78.715C79.5831 79.1523 80.8014 78.6413 81.25 77.5737Z" fill="#BAC9F9"/>
<path d="M75.6149 81.8874C75.7071 81.5573 75.8479 81.245 76.031 80.9575C76.8493 80.1085 78.0202 79.5966 79.2988 79.6102C80.6165 79.6241 81.7814 80.1823 82.5594 81.0879C82.7565 81.4396 82.8879 81.8269 82.9454 82.2379C82.5853 82.4857 82.1989 82.6962 81.792 82.864C81.0602 83.1694 80.2648 83.3234 79.4337 83.3144C78.5894 83.3054 77.7883 83.1194 77.0585 82.798C76.5334 82.5641 76.048 82.2562 75.6149 81.8874Z" fill="#BAC9F9"/>
<path d="M87.9593 74.3184L105.024 73.9953" stroke="white" stroke-linecap="round"/>
<path d="M87.9292 76.4452L97.606 76.2625" stroke="white" stroke-linecap="round"/>
<path d="M87.899 78.6105L101.875 78.4655" stroke="white" stroke-linecap="round"/>
<path d="M87.8547 81.8137L92.6936 81.7212" stroke="white" stroke-linecap="round"/>
<g filter="url(#filter10_ii)">
<path d="M110.957 80.6231C112.724 80.6389 114.188 79.1976 114.227 77.4039C114.266 75.6102 112.865 74.1433 111.098 74.1275C109.332 74.1117 107.868 75.553 107.829 77.3467C107.79 79.1404 109.19 80.6073 110.957 80.6231Z" fill="url(#paint8_linear)"/>
</g>
<path d="M111.001 78.4594C110.892 78.4422 110.797 78.3894 110.739 78.3095L110.029 77.3452C109.914 77.1882 109.973 76.9818 110.159 76.8833C110.346 76.7862 110.59 76.8346 110.707 76.9876L111.09 77.5083L111.914 76.4547C112.037 76.2995 112.278 76.2535 112.466 76.3549C112.649 76.4563 112.699 76.6622 112.578 76.8173L111.41 78.3106C111.336 78.4073 111.207 78.4638 111.072 78.4641C111.046 78.4653 111.023 78.4624 111.001 78.4594Z" fill="white"/>
<g filter="url(#filter11_ii)">
<path d="M107.674 65.1811L75.5175 65.6703C73.126 65.7062 71.1582 63.7578 71.1436 61.3379L71.0979 54.0384C71.0834 51.6186 73.026 49.6101 75.4175 49.5743L107.574 49.085C109.965 49.0492 111.933 50.9976 111.948 53.4174L111.993 60.7169C112.008 63.1353 110.065 65.1438 107.674 65.1811Z" fill="url(#paint9_linear)"/>
</g>
<path d="M85.6376 57.2253C85.5775 59.7854 83.9757 61.9641 81.7635 62.8754C81.0347 63.1792 80.2426 63.3324 79.4148 63.3235C78.574 63.3145 77.7762 63.1294 77.0494 62.8096C74.8938 61.8505 73.4106 59.6397 73.4704 57.0913C73.5505 53.6768 76.3418 50.9425 79.7079 50.9799C83.0596 51.0158 85.7191 53.8107 85.6376 57.2253Z" fill="#E5EBFF"/>
<path d="M81.2636 57.5698C81.7122 56.5022 81.2213 55.2822 80.1671 54.8449C79.1129 54.4076 77.8946 54.9185 77.446 55.9861C76.9974 57.0537 77.4884 58.2737 78.5426 58.711C79.5968 59.1484 80.8151 58.6374 81.2636 57.5698Z" fill="#BAC9F9"/>
<path d="M75.6275 61.8835C75.7198 61.5534 75.8606 61.2411 76.0437 60.9536C76.862 60.1045 78.0329 59.5927 79.3115 59.6063C80.6291 59.6202 81.7941 60.1783 82.5721 61.084C82.7692 61.4357 82.9006 61.823 82.9581 62.234C82.598 62.4818 82.2116 62.6923 81.8046 62.8601C81.0729 63.1655 80.2775 63.3195 79.4464 63.3105C78.6021 63.3015 77.801 63.1155 77.0712 62.7941C76.5461 62.5602 76.0607 62.2523 75.6275 61.8835Z" fill="#BAC9F9"/>
<path d="M87.973 54.3145L105.038 53.9914" stroke="white" stroke-linecap="round"/>
<path d="M87.9429 56.4411L97.6197 56.2584" stroke="white" stroke-linecap="round"/>
<path d="M87.9136 58.6066L101.89 58.4616" stroke="white" stroke-linecap="round"/>
<path d="M87.8674 61.8105L92.7063 61.7181" stroke="white" stroke-linecap="round"/>
<g filter="url(#filter12_ii)">
<path d="M110.972 60.6189C112.739 60.6348 114.203 59.1935 114.242 57.3998C114.281 55.6061 112.88 54.1392 111.113 54.1234C109.346 54.1075 107.882 55.5488 107.843 57.3425C107.804 59.1362 109.205 60.6031 110.972 60.6189Z" fill="url(#paint10_linear)"/>
</g>
<path d="M111.015 58.4553C110.907 58.438 110.812 58.3852 110.754 58.3053L110.043 57.341C109.928 57.184 109.987 56.9777 110.174 56.8792C110.36 56.782 110.605 56.8305 110.722 56.9834L111.104 57.5041L111.929 56.4505C112.052 56.2954 112.292 56.2493 112.48 56.3508C112.663 56.4522 112.714 56.658 112.592 56.8132L111.425 58.3065C111.35 58.4031 111.222 58.4596 111.087 58.46C111.061 58.4611 111.038 58.4582 111.015 58.4553Z" fill="white"/>
<g filter="url(#filter13_ii)">
<path d="M107.119 105.182L74.9628 105.671C72.5713 105.707 70.6035 103.759 70.589 101.339L70.5432 94.0394C70.5287 91.6196 72.4714 89.6111 74.8629 89.5752L107.019 89.086C109.411 89.0502 111.378 90.9986 111.393 93.4184L111.439 100.718C111.453 103.136 109.51 105.145 107.119 105.182Z" fill="url(#paint11_linear)"/>
</g>
<path d="M85.082 97.2261C85.022 99.7863 83.4202 101.965 81.2079 102.876C80.4792 103.18 79.6871 103.333 78.8593 103.324C78.0185 103.315 77.2206 103.13 76.4939 102.81C74.3382 101.851 72.8551 99.6405 72.9148 97.0921C72.9948 93.6775 75.7861 90.9432 79.1523 90.9807C82.5039 91.0166 85.1634 93.8115 85.082 97.2261Z" fill="#E5EBFF"/>
<path d="M80.708 97.5703C81.1566 96.5027 80.6656 95.2827 79.6114 94.8454C78.5572 94.408 77.3389 94.919 76.8903 95.9866C76.4418 97.0542 76.9327 98.2742 77.987 98.7116C79.0412 99.1489 80.2594 98.638 80.708 97.5703Z" fill="#BAC9F9"/>
<path d="M75.0739 101.884C75.1661 101.554 75.3069 101.242 75.49 100.954C76.3083 100.105 77.4791 99.5932 78.7578 99.6068C80.0754 99.6207 81.2404 100.179 82.0184 101.085C82.2155 101.436 82.3469 101.824 82.4044 102.235C82.0443 102.482 81.6579 102.693 81.251 102.861C80.5193 103.166 79.7239 103.32 78.8927 103.311C78.0484 103.302 77.2473 103.116 76.5175 102.795C75.9924 102.561 75.507 102.253 75.0739 101.884Z" fill="#BAC9F9"/>
<path d="M87.4193 94.3152L104.484 93.9922" stroke="white" stroke-linecap="round"/>
<path d="M87.3902 96.4419L97.067 96.2591" stroke="white" stroke-linecap="round"/>
<path d="M87.3589 98.6073L101.335 98.4623" stroke="white" stroke-linecap="round"/>
<path d="M87.3147 101.811L92.1535 101.719" stroke="white" stroke-linecap="round"/>
<g filter="url(#filter14_ii)">
<path d="M110.418 100.62C112.185 100.636 113.649 99.1945 113.688 97.4008C113.727 95.6071 112.326 94.1402 110.559 94.1243C108.793 94.1085 107.329 95.5498 107.29 97.3435C107.251 99.1372 108.651 100.604 110.418 100.62Z" fill="url(#paint12_linear)"/>
</g>
<path d="M110.461 98.4565C110.352 98.4392 110.257 98.3864 110.199 98.3065L109.489 97.3423C109.374 97.1852 109.433 96.9789 109.619 96.8804C109.806 96.7832 110.05 96.8317 110.167 96.9846L110.55 97.5053L111.374 96.4518C111.497 96.2966 111.738 96.2505 111.926 96.352C112.109 96.4534 112.159 96.6592 112.038 96.8144L110.87 98.3077C110.796 98.4043 110.667 98.4609 110.532 98.4612C110.506 98.4623 110.483 98.4594 110.461 98.4565Z" fill="white"/>
<path d="M111.413 183.623C112.233 184.872 113.067 186.174 113.95 187.526C119.75 196.481 126.681 212.917 133.239 227.503C139.147 240.642 154.537 244.827 167.049 237.669C182.287 228.95 185.537 208.178 174.013 194.99C164.453 184.05 156.219 174.325 154.786 172.187C148.472 162.764 117.547 120.932 115.532 130.365C114.845 133.609 113.233 137.561 111.727 141.834C109.473 148.26 107.462 155.38 109.27 161.857L109.287 161.874C109.741 163.547 110.463 165.18 111.505 166.739C111.963 167.424 112.289 168.038 112.502 168.598C112.562 168.768 112.623 168.921 112.668 169.072C114.324 174.287 104.929 172.52 100.786 168.831C100.819 168.867 100.85 168.901 100.882 168.953C100.898 168.953 100.913 168.97 100.913 168.986C102.478 170.814 105.504 174.565 108.561 179.24C109.46 180.609 110.405 182.065 111.413 183.623Z" fill="url(#paint13_linear)"/>
<path d="M152.672 169.963C152.672 169.963 141.729 142.124 141.842 134.259C141.953 126.394 146.751 119.696 141.405 101.619C136.06 83.5401 127.349 77.6431 126.724 71.5383C126.099 65.4335 126.403 56.6495 123.913 56.6236C121.423 56.5991 113.564 59.0371 113.185 73.2008C112.806 87.3646 116.225 83.1991 117.804 97.2044C119.384 111.21 109.864 106.521 110.468 138.99C111.074 171.459 141.392 178.219 142.111 177.688C142.83 177.158 152.672 169.963 152.672 169.963Z" fill="url(#paint14_linear)"/>
<path opacity="0.4" d="M125.192 58.2258C125.192 58.2258 123.799 57.2256 122.027 59.4501C120.254 61.6746 121.725 70.2081 122.413 71.3366C123.101 72.465 125.846 72.0878 126.194 71.0156C126.543 69.9433 125.929 58.4434 125.192 58.2258Z" fill="white"/>
<path d="M65.3281 120.571C62.7405 121.983 56.1905 121.081 53.2759 116.514C51.6697 113.988 52.174 111.539 52.9329 109.854C53.5567 108.506 54.3614 107.643 54.3614 107.643C56.739 105.166 59.0806 107.614 63.8559 110.236C65.1321 110.934 66.0139 111.894 66.5769 112.961C68.1255 115.868 67.2204 119.53 65.3281 120.571Z" fill="url(#paint15_linear)"/>
<path d="M66.576 112.978C62.1346 114.713 56.4519 112.155 52.9196 109.864C53.544 108.513 54.3494 107.648 54.3494 107.648C56.7292 105.166 59.0729 107.619 63.8525 110.247C65.1287 110.946 66.0112 111.909 66.576 112.978Z" fill="url(#paint16_linear)"/>
<path opacity="0.4" d="M57.6264 116.52C57.8482 115.988 58.3424 115.682 58.81 115.751C60.1885 115.955 64.2196 115.717 64.2803 117.527C64.3584 119.843 63.6428 120.976 62.8944 120.879C61.0977 120.646 57.578 119.755 57.4049 118.228C57.3241 117.509 57.4527 116.938 57.6264 116.52Z" fill="white"/>
<path d="M63.8233 110.714C60.8302 111.913 53.8357 110.063 51.2605 104.701C48.9163 99.8122 52.7663 95.9447 53.4725 95.2871C53.5507 95.2145 53.5884 95.1853 53.5884 95.1853C56.4903 92.8037 58.7191 95.7767 63.581 99.2587C64.3716 99.8166 64.981 100.465 65.4318 101.16C67.8838 104.776 66.3473 109.716 63.8233 110.714Z" fill="url(#paint17_linear)"/>
<path opacity="0.4" d="M54.7358 104.806C55.0297 104.102 55.6821 103.699 56.3009 103.79C58.1239 104.06 63.453 103.746 63.5338 106.138C63.6371 109.201 62.6922 110.697 61.7017 110.569C59.3271 110.26 54.6718 109.082 54.445 107.066C54.3371 106.112 54.506 105.357 54.7358 104.806Z" fill="white"/>
<path d="M65.4299 101.178C64.6743 101.27 63.7967 101.275 62.8086 101.129C59.9903 100.711 55.8081 97.4767 53.4577 95.2947C53.5359 95.2219 53.5737 95.1926 53.5737 95.1926C56.4784 92.8068 58.7093 95.7851 63.576 99.2732C64.3686 99.8322 64.9786 100.483 65.4299 101.178Z" fill="url(#paint18_linear)"/>
<path d="M63.084 69.78C63.084 69.78 53.9329 67.7715 51.9239 74.5852C51.2 77.0411 51.3658 85.4205 52.6586 88.206C55.9946 95.3968 59.1209 100.649 64.456 98.6919C69.8067 96.7296 68.3105 90.7446 66.3612 87.1943C64.4119 83.6439 62.8496 82.0004 63.0792 81.5092C63.3101 81.018 63.084 69.78 63.084 69.78Z" fill="url(#paint19_linear)"/>
<path opacity="0.4" d="M56.0875 87.6367C56.6293 87.1295 57.4469 87.0889 58.065 87.4911C59.8849 88.6781 64.5112 92.0819 63.7998 94.3576C62.8896 97.2697 60.7688 98.7466 60.0281 97.837C59.2887 96.9275 54.5974 91.5975 55.0299 89.5972C55.235 88.6512 55.6643 88.033 56.0875 87.6367Z" fill="white"/>
<path d="M128.659 81.7936C129.14 82.2259 129.535 82.6431 129.758 82.8919C136.68 90.6367 139.766 101.274 140.262 111.718C140.757 122.162 138.879 132.569 136.976 142.857C136.883 143.352 136.712 143.939 136.232 144.072C135.462 144.285 135.062 143.179 135.052 142.374C134.971 135.769 136.256 129.218 136.528 122.617C137.068 109.511 133.489 96.2797 126.435 85.3023C125.87 84.423 123.84 81.5208 125.008 80.4947C125.935 79.6835 127.53 80.78 128.659 81.7936Z" fill="url(#paint20_linear)"/>
<path opacity="0.3" d="M99.9068 125.91C100.654 123.581 101.422 121.1 102.209 118.498C108.947 95.9897 100.856 92.3404 100.856 92.3404L85.1883 126.108L84.2961 128.03L83.162 129.406L98.8779 129.054C99.0463 128.554 99.2153 128.047 99.3821 127.534C99.5573 127.001 99.7313 126.46 99.9068 125.91Z" fill="#14275F"/>
<path d="M98.6705 174.501C102.532 169.191 118.762 158.698 118.762 158.698C124.126 155.001 119.835 151.569 108.367 152.978C105.696 153.299 102.604 153.863 99.1757 154.77C92.4921 156.541 82.2806 167.612 77.8187 173.565C76.9007 174.755 75.0505 174.092 75.1162 172.59C75.5581 163.499 76.7879 150.72 79.65 143.887C79.8337 143.455 80.0369 143.009 80.2581 142.549C86.4503 128.664 99.9382 110.141 102.062 102.147C102.272 101.328 103.855 96.9237 103.909 96.1497C103.956 95.7312 103.988 95.3113 103.997 94.939C104.03 87.8268 96.9983 85.708 92.6862 92.8543C88.8359 99.185 77.5373 115.476 73.707 126.103C72.9918 128.087 71.4655 129.738 69.4545 130.267C68.7197 130.461 68.0515 130.462 67.5234 130.166C64.6197 128.551 60.4627 123.931 54.9223 129.845C49.3503 135.753 46.368 133.889 43.9886 132.979C41.5655 132.029 38.4325 129.309 34.9712 133.439C31.7735 137.267 28.433 139.648 25.5134 138.998C22.576 138.346 20.0351 139.129 17.4677 147.398C17.4007 147.609 17.3321 147.837 17.28 148.067C14.786 156.941 12.2291 181.297 12.0616 188.186C11.9018 195.245 11.2871 197.703 5.61239 206.637C3.81002 209.319 1.2614 215.421 -1.32472 222.367C-6.38015 235.946 1.82746 250.471 15.6713 253.675C28.0085 256.53 40.5814 249.343 44.6727 237.097L51.4229 216.894L51.8953 215.247C54.1294 209.664 61.6247 214.179 70.4621 208.529C73.0189 206.899 76.1162 203.821 79.3204 200.164C87.2746 191.054 95.9157 178.275 98.6705 174.501Z" fill="url(#paint21_linear)"/>
<path opacity="0.4" d="M100.385 94.4635C100.304 94.7719 100.174 95.0914 100.003 95.4275C99.1279 97.1436 97.7252 100.614 95.3634 100.333C94.4957 100.229 93.7872 99.5401 93.2848 98.8618C92.7491 98.1366 92.7115 97.6966 92.9191 96.8203C93.3398 95.0432 94.2089 92.8006 95.5175 91.4893C96.7649 90.2395 98.5399 90.677 99.6287 91.8611C100.434 92.7348 100.624 93.5513 100.385 94.4635Z" fill="white"/>
<path opacity="0.4" d="M119.349 154.818C118.907 154.508 118.33 154.43 117.783 154.45C116.735 154.487 115.662 154.583 114.633 154.802C113.245 155.097 110.272 156.167 110.209 158.154C110.119 160.985 112.123 162.168 113.245 161.71C114.969 161.005 122.681 157.664 119.47 154.911C119.43 154.879 119.39 154.847 119.349 154.818Z" fill="white"/>
<path d="M76.4249 178.94C78.8048 178.046 87.0499 164.354 95.8928 159.329C100.596 156.657 104.657 155.27 108.293 153.23C105.642 153.547 102.565 154.113 99.1582 155.026C92.5187 156.793 82.3722 167.84 77.9398 173.784C77.0352 174.982 75.2011 174.315 75.2649 172.823C75.6977 163.74 76.918 150.98 79.7702 144.151C79.9463 143.724 80.1545 143.272 80.3628 142.822C86.5167 128.95 99.9156 110.453 102.033 102.468C102.243 101.649 103.804 97.2643 103.87 96.4812C103.907 96.0619 103.944 95.6426 103.946 95.2747C96.147 107.971 76.5223 137.294 73.0992 152.227C66.4973 181.035 74.0494 179.807 76.4249 178.94Z" fill="url(#paint22_linear)"/>
<path d="M69.2472 133.523C67.2857 137.417 65.344 140.931 63.6562 144.631C62.7994 146.463 61.9539 148.302 61.1855 150.201C60.3629 152.089 59.6922 154.033 58.7594 156.047C58.41 153.893 58.4404 151.668 58.8675 149.528C59.243 147.371 59.9248 145.265 60.8668 143.293C61.7876 141.309 62.9725 139.455 64.3608 137.785C65.7428 136.118 67.3355 134.592 69.2472 133.523Z" fill="url(#paint23_linear)"/>
<path d="M47.7113 136.201C46.9348 139.414 45.9454 142.149 44.947 144.956C44.4505 146.352 43.9064 147.732 43.3579 149.139C42.7604 150.538 42.2191 151.964 41.3807 153.428C40.5144 150.221 40.9818 146.906 42.0541 143.886C42.5961 142.371 43.3482 140.933 44.2655 139.611C45.2038 138.307 46.2856 137.071 47.7113 136.201Z" fill="url(#paint24_linear)"/>
<path d="M28.7306 140.665C28.8899 141.966 28.797 143.13 28.6544 144.269C28.4944 145.402 28.2525 146.49 27.9496 147.551C27.6429 148.612 27.2702 149.642 26.8501 150.664C26.4146 151.695 25.935 152.678 25.336 153.838C24.6403 152.718 24.4959 151.426 24.4753 150.22C24.4752 148.999 24.6702 147.816 25.0009 146.689C25.3292 145.558 25.7896 144.476 26.3881 143.457C27.0027 142.447 27.7058 141.474 28.7306 140.665Z" fill="url(#paint25_linear)"/>
<path d="M25.954 202.551C26.2029 204.911 12.6794 198.889 11.2133 200.368C9.74729 201.847 -8.05744 241.204 -8.05744 241.204L-8.05006 241.153C-3.57993 227.642 2.1777 211.236 5.31786 206.276C10.9319 197.359 11.54 194.906 11.698 187.86C11.8637 180.984 14.393 156.674 16.8603 147.817C15.3154 162.49 12.9028 188.395 14.4883 192.478C16.7119 198.215 25.6888 200.189 25.954 202.551Z" fill="url(#paint26_linear)"/>
<path d="M87.0842 124.456C86.1196 125.036 85.113 125.252 84.1125 125.307C83.1065 125.384 82.0989 125.234 81.1208 124.908C80.1517 124.579 79.1829 124.056 78.4296 123.205C77.6714 122.404 77.1195 121.224 77.3524 120.092L77.361 120.05C77.3696 120.007 77.4124 119.978 77.4544 119.987C77.4798 119.992 77.5012 120.011 77.5109 120.034C77.8629 120.887 78.4933 121.572 79.2229 122.103C79.9562 122.64 80.8043 123.009 81.6736 123.288C82.5373 123.587 83.432 123.814 84.3411 123.964C85.249 124.113 86.1678 124.23 87.0879 124.287C87.1313 124.29 87.1637 124.328 87.1602 124.372C87.1583 124.399 87.1425 124.422 87.1217 124.435L87.0842 124.456Z" fill="#EF7C7A"/>
<path d="M87.3139 121.501C86.5398 121.783 85.7458 121.86 84.9578 121.842C84.1656 121.835 83.3818 121.681 82.6141 121.435C82.2349 121.304 81.8604 121.13 81.4963 120.947C81.1487 120.715 80.7863 120.513 80.4891 120.198C79.8754 119.626 79.3999 118.808 79.4132 117.965L79.4135 117.951C79.414 117.927 79.4323 117.909 79.4553 117.91C79.4719 117.91 79.487 117.92 79.493 117.936C79.7626 118.645 80.2778 119.221 80.8818 119.652C81.4842 120.094 82.1792 120.396 82.8898 120.625C84.3053 121.115 85.8119 121.347 87.3145 121.415C87.3375 121.417 87.3549 121.436 87.3532 121.458C87.3528 121.476 87.341 121.49 87.3255 121.496L87.3139 121.501Z" fill="#EF7C7A"/>
<path d="M87.1782 119.764C86.9197 119.197 86.5401 118.728 86.1134 118.314C85.6907 117.892 85.1908 117.551 84.6526 117.267C84.3808 117.132 84.0892 117.023 83.7975 116.924C83.4884 116.86 83.1874 116.772 82.8601 116.778C82.2269 116.75 81.5356 116.928 81.0886 117.383L81.0808 117.39C81.069 117.403 81.0686 117.423 81.0798 117.434C81.0886 117.444 81.1026 117.446 81.1142 117.441C81.638 117.211 82.2213 117.183 82.7739 117.278C83.3316 117.369 83.8624 117.582 84.3627 117.845C85.3766 118.347 86.2995 119.037 87.1338 119.809C87.1463 119.821 87.1668 119.82 87.1773 119.807C87.1864 119.797 87.188 119.784 87.1832 119.772L87.1782 119.764Z" fill="#EF7C7A"/>
<path d="M100.616 154.836C102.246 153.92 103.988 153.269 105.764 152.757C107.542 152.242 109.374 151.93 111.23 151.777C113.082 151.643 114.986 151.743 116.818 152.249C118.621 152.733 120.458 153.733 121.41 155.397C119.937 154.247 118.248 153.796 116.543 153.563C114.831 153.361 113.079 153.332 111.318 153.491C107.79 153.726 104.263 154.35 100.616 154.836Z" fill="#EF7C7A"/>
</g>
<g filter="url(#filter15_f)">
<path d="M55.6345 55.1009C49.2683 55.3917 41.1061 54.2131 37.4184 52.4705C33.7308 50.728 35.8987 49.0822 42.2648 48.7914C48.631 48.5006 56.7932 49.6792 60.4809 51.4218C64.1685 53.1644 62.0006 54.8101 55.6345 55.1009Z" fill="url(#paint27_linear)"/>
</g>
<path d="M34.3807 19.4975C35.7924 18.3099 37.7982 17.4681 40.3289 17.1274L63.2076 26.4456C64.7802 28.4575 65.6271 30.4611 65.8073 32.2971L66.4826 32.5592L64.5196 37.6393C63.5727 40.2001 61.0126 42.1233 57.0664 42.8248C52.9033 43.56 48.6396 43.0271 44.2256 41.1836C39.7797 39.4186 35.7437 36.5711 33.2789 33.1365C30.9457 29.8775 30.4579 26.7129 31.5695 24.2192L33.7145 19.2132L34.3807 19.4975Z" fill="url(#paint28_linear)"/>
<path d="M65.6889 32.663C65.6575 32.2313 65.5865 31.7937 65.4799 31.3409L61.1108 41.4046C61.5188 41.1734 61.9004 40.8807 62.2416 40.6094L65.6889 32.663Z" fill="url(#paint29_linear)"/>
<path d="M40.4501 17.1542C39.3368 17.3101 38.3278 17.5796 37.4219 17.916L31.833 30.5604C31.9604 30.8696 32.1015 31.1729 32.2519 31.4802L38.2309 17.968L39.5551 18.528L33.1623 32.9637C33.215 33.044 33.277 33.1283 33.3297 33.2086C33.4395 33.3594 33.5586 33.5142 33.6777 33.669L40.2546 18.8237L41.5788 19.3838L34.7142 34.8637C34.8992 35.0695 35.0885 35.2656 35.2778 35.4617L42.2738 19.6893L43.5981 20.2493L36.3968 36.504C36.5949 36.6806 36.7974 36.8474 36.9998 37.0143L44.2975 20.5451L45.6217 21.1051L38.1707 37.8928C38.3819 38.0401 38.5931 38.1875 38.8043 38.3348L46.3168 21.4106L47.641 21.9706L40.0453 39.124C40.2653 39.2518 40.4853 39.3796 40.7053 39.5075L48.336 22.2761L49.6603 22.8361L41.9678 40.1726C42.1965 40.2809 42.4253 40.3893 42.654 40.4976L50.3597 23.1319L51.6839 23.6919L43.9872 41.0988C44.2203 41.1974 44.4578 41.2862 44.6954 41.3751L52.3833 23.9877L53.7076 24.5477L46.0365 41.8319C46.2784 41.911 46.5247 41.9803 46.771 42.0497L54.4114 24.8337L55.7356 25.3937L48.162 42.4363C48.4127 42.4959 48.6677 42.5458 48.9228 42.5956L56.435 25.6895L57.7593 26.2495L50.3773 42.8551C50.6367 42.8952 50.901 42.9524 51.1692 42.973L58.4587 26.5453L59.7829 27.1053L52.695 43.0844C52.9676 43.0953 53.2539 43.1003 53.5216 43.0974L60.4823 27.4011L61.8066 27.9611L55.1117 43.0802C55.4111 43.056 55.7026 43.048 55.9878 43.0062L62.506 28.2568L63.8302 28.8168L57.6994 42.7146C58.0344 42.6358 58.3379 42.573 58.6401 42.4687L64.534 29.1029L64.6553 29.1541C64.3094 28.3929 63.8708 27.6156 63.3214 26.8378C62.2469 25.3274 60.8657 23.9311 59.2713 22.6883L46.3087 17.2065C44.3172 16.9213 42.3268 16.8803 40.4501 17.1542Z" fill="url(#paint30_linear)"/>
<path d="M35.1202 18.5817C34.8209 18.7808 34.5393 18.9876 34.2802 19.2154L34.0847 19.1313L31.0401 26.2862C31.0161 26.796 30.993 27.3663 31.084 27.903L35.1202 18.5817Z" fill="url(#paint31_linear)"/>
<path d="M58.4084 38.0257C50.3552 39.105 40.0429 34.7048 35.3722 28.1964C30.7015 21.688 33.4481 15.5267 41.5056 14.4377C49.5588 13.3585 59.8711 17.7586 64.5418 24.267C69.2082 30.7851 66.4659 36.9368 58.4084 38.0257Z" fill="url(#paint32_linear)"/>
<path opacity="0.2" d="M52.7796 29.4535C58.7093 28.6564 61.7561 25.1038 61.0994 20.687C55.8113 16.2347 47.8884 13.5583 41.4195 14.4372C35.4897 15.2343 32.4429 18.7869 33.0996 23.2037C38.3972 27.66 46.315 30.3227 52.7796 29.4535Z" fill="white"/>
<path opacity="0.7" d="M58.4891 37.9357C50.4146 39.0366 40.0823 34.6062 35.4083 28.039C33.1465 24.8635 32.6368 21.774 33.6118 19.2979C32.3466 21.848 32.7744 25.1474 35.1822 28.5489C39.8562 35.1161 50.1885 39.5465 58.263 38.4456C62.432 37.8758 65.1862 35.9292 66.2258 33.2823C65.0533 35.6738 62.3947 37.4047 58.4891 37.9357Z" fill="white"/>
<path d="M56.4366 35.2662C50.2666 36.0991 42.356 32.7237 38.782 27.7331C35.208 22.7426 37.309 18.0294 43.479 17.1966C49.649 16.3637 57.5596 19.7391 61.1336 24.7296C64.7076 29.7202 62.6066 34.4333 56.4366 35.2662Z" fill="url(#paint33_linear)"/>
<path d="M43.0723 17.9166C49.2693 17.0723 57.2127 20.4778 60.8001 25.5168C62.4839 27.8884 62.9112 30.2 62.251 32.0704C63.3094 30.0936 63.0041 27.507 61.1052 24.829C57.5178 19.79 49.5743 16.3845 43.3774 17.2288C40.0939 17.6724 37.9535 19.2232 37.2002 21.3308C38.1499 19.5718 40.1636 18.3068 43.0723 17.9166Z" fill="url(#paint34_linear)"/>
<g filter="url(#filter16_f)">
<path d="M47.8425 31.7078C45.8569 28.6208 44.0341 24.2516 43.7745 21.9569C43.5149 19.6622 44.9119 20.3034 46.8975 23.3904C48.8832 26.4774 50.706 30.8465 50.9656 33.1413C51.2252 35.436 49.8282 34.7948 47.8425 31.7078Z" fill="url(#paint35_linear)"/>
</g>
<path d="M58.8501 11.1524C59.8337 11.5445 60.829 12.3289 61.7416 13.5123L64.0958 27.543C63.6053 28.8759 62.9036 29.841 62.0838 30.4252L62.1595 30.8358L59.1611 31.2119C57.6624 31.4229 55.9883 30.6499 54.4842 28.8502C52.8998 26.9503 51.8886 24.659 51.4562 21.9398C50.9769 19.2256 51.1341 16.4271 52.0365 14.2623C52.8945 12.211 54.2549 11.1149 55.7706 11.0049L58.7877 10.7403L58.8501 11.1524Z" fill="url(#paint36_linear)"/>
<path d="M61.8843 30.4707C62.0804 30.3388 62.2675 30.1854 62.4514 30.0099L56.366 30.5132C56.5971 30.6567 56.8496 30.7703 57.08 30.8694L61.8843 30.4707Z" fill="url(#paint37_linear)"/>
<path d="M61.7744 13.5798C61.3698 13.0606 60.9421 12.6244 60.5132 12.2582L52.8377 12.8405C52.7284 12.9878 52.626 13.1405 52.5244 13.2989L60.7286 12.68L60.8551 13.498L52.0886 14.1566C52.066 14.2048 52.0444 14.2587 52.0218 14.3068C51.9826 14.4027 51.9442 14.5043 51.9059 14.606L60.9219 13.9301L61.0484 14.7481L51.6451 15.4496C51.602 15.5982 51.5648 15.7463 51.5277 15.8945L61.1092 15.1806L61.2357 15.9986L51.3638 16.7387C51.3386 16.886 51.3193 17.0329 51.3 17.1798L61.3026 16.4307L61.4291 17.2487L51.2294 18.0062C51.2219 18.1522 51.2145 18.2983 51.2071 18.4444L61.4899 17.6812L61.6164 18.4992L51.1998 19.2821C51.2043 19.4273 51.2087 19.5726 51.2132 19.7178L61.6773 18.9317L61.8038 19.7497L51.2713 20.533C51.2877 20.6774 51.304 20.8218 51.3203 20.9663L61.8706 20.1817L61.9971 20.9998L51.4299 21.7999C51.4522 21.9439 51.4804 22.0875 51.5086 22.2311L62.0639 21.4318L62.1904 22.2499L51.6892 23.0299C51.7234 23.1731 51.7634 23.3159 51.8035 23.4587L62.2632 22.6815L62.3897 23.4995L52.0323 24.2638C52.0784 24.4061 52.1303 24.5481 52.1823 24.6901L62.4565 23.9316L62.583 24.7496L52.4905 25.493C52.5484 25.6345 52.5996 25.7831 52.6694 25.9238L62.6498 25.1817L62.7763 25.9997L53.0692 26.7229C53.1449 26.8632 53.2275 27.0088 53.3082 27.143L62.8431 26.4318L62.9696 27.2498L53.7883 27.9398C53.8887 28.0842 53.979 28.229 54.0836 28.3615L63.0364 27.6818L63.1629 28.4999L54.7302 29.1459C54.8672 29.2936 54.9871 29.4296 55.1264 29.5539L63.2357 28.9315L63.2473 29.0064C63.5069 28.6274 63.7466 28.1974 63.9537 27.7114C64.3535 26.7637 64.6081 25.6922 64.7264 24.5544L63.4881 16.5469C63.0328 15.4664 62.4616 14.4521 61.7744 13.5798Z" fill="url(#paint38_linear)"/>
<path d="M59.5134 11.2771C59.3298 11.1797 59.1478 11.0934 58.9625 11.024L58.9445 10.9029L54.6364 11.2918C54.3866 11.4167 54.1084 11.5583 53.88 11.7485L59.5134 11.2771Z" fill="url(#paint39_linear)"/>
<path d="M57.2172 28.1584C54.3171 24.3931 53.3518 18.0185 55.0608 13.9187C56.7698 9.81876 60.5124 9.54708 63.4184 13.312C66.3184 17.0773 67.2837 23.4518 65.5747 27.5517C63.8599 31.652 60.1231 31.9233 57.2172 28.1584Z" fill="url(#paint40_linear)"/>
<path opacity="0.2" d="M59.7407 22.9666C61.8664 25.7274 64.445 26.3052 66.34 24.7943C66.8859 20.9511 65.815 16.2615 63.4916 13.2521C61.366 10.4913 58.7874 9.91353 56.8924 11.4244C56.3473 15.2734 57.4232 19.9568 59.7407 22.9666Z" fill="white"/>
<path opacity="0.7" d="M57.2487 28.2003C54.3433 24.4417 53.3901 18.0687 55.1194 13.9641C55.9551 11.9784 57.2673 10.8954 58.7276 10.7218C57.1466 10.7695 55.7108 11.8676 54.8112 13.9871C53.082 18.0917 54.0351 24.4647 56.9405 28.2233C58.4412 30.1635 60.1762 31.025 61.7363 30.8381C60.2578 30.8899 58.6533 30.0187 57.2487 28.2003Z" fill="white"/>
<path d="M57.9446 26.4241C55.7199 23.5408 54.9794 18.6509 56.292 15.5109C57.6046 12.3709 60.4676 12.1631 62.6924 15.0463C64.9171 17.9295 65.6576 22.8194 64.345 25.9594C63.0323 29.0994 60.1694 29.3073 57.9446 26.4241Z" fill="url(#paint41_linear)"/>
<path d="M62.2528 15.0241C64.4826 17.9092 65.2158 22.809 63.889 25.9593C63.2632 27.4397 62.2948 28.2732 61.2142 28.4426C62.4628 28.4446 63.5975 27.5988 64.3048 25.9283C65.6315 22.778 64.8984 17.8781 62.6686 14.9931C61.4889 13.4634 60.1225 12.804 58.902 12.9902C60.0154 12.996 61.2091 13.6682 62.2528 15.0241Z" fill="url(#paint42_linear)"/>
<path d="M180.984 39.2H188.184V41.6H183.624V46.04H187.248V48.44H183.624V53.6H188.184V56H180.984V39.2ZM191.743 39.2H195.319L198.055 56H195.415L194.935 52.664V52.712H191.935L191.455 56H189.007L191.743 39.2ZM194.623 50.432L193.447 42.128H193.399L192.247 50.432H194.623ZM199.336 39.2H203.248C204.608 39.2 205.6 39.52 206.224 40.16C206.848 40.784 207.16 41.752 207.16 43.064V44.096C207.16 45.84 206.584 46.944 205.432 47.408V47.456C206.072 47.648 206.52 48.04 206.776 48.632C207.048 49.224 207.184 50.016 207.184 51.008V53.96C207.184 54.44 207.2 54.832 207.232 55.136C207.264 55.424 207.344 55.712 207.472 56H204.784C204.688 55.728 204.624 55.472 204.592 55.232C204.56 54.992 204.544 54.56 204.544 53.936V50.864C204.544 50.096 204.416 49.56 204.16 49.256C203.92 48.952 203.496 48.8 202.888 48.8H201.976V56H199.336V39.2ZM202.936 46.4C203.464 46.4 203.856 46.264 204.112 45.992C204.384 45.72 204.52 45.264 204.52 44.624V43.328C204.52 42.72 204.408 42.28 204.184 42.008C203.976 41.736 203.64 41.6 203.176 41.6H201.976V46.4H202.936ZM209.015 39.2H212.327L214.895 49.256H214.943V39.2H217.295V56H214.583L211.415 43.736H211.367V56H209.015V39.2ZM223.101 39.2H226.869L228.549 51.224H228.597L230.277 39.2H234.045V56H231.549V43.28H231.501L229.581 56H227.373L225.453 43.28H225.405V56H223.101V39.2ZM239.831 56.24C238.535 56.24 237.543 55.872 236.855 55.136C236.167 54.4 235.823 53.36 235.823 52.016V43.184C235.823 41.84 236.167 40.8 236.855 40.064C237.543 39.328 238.535 38.96 239.831 38.96C241.127 38.96 242.119 39.328 242.807 40.064C243.495 40.8 243.839 41.84 243.839 43.184V52.016C243.839 53.36 243.495 54.4 242.807 55.136C242.119 55.872 241.127 56.24 239.831 56.24ZM239.831 53.84C240.743 53.84 241.199 53.288 241.199 52.184V43.016C241.199 41.912 240.743 41.36 239.831 41.36C238.919 41.36 238.463 41.912 238.463 43.016V52.184C238.463 53.288 238.919 53.84 239.831 53.84ZM245.625 39.2H249.537C250.897 39.2 251.889 39.52 252.513 40.16C253.137 40.784 253.449 41.752 253.449 43.064V44.096C253.449 45.84 252.873 46.944 251.721 47.408V47.456C252.361 47.648 252.809 48.04 253.065 48.632C253.337 49.224 253.473 50.016 253.473 51.008V53.96C253.473 54.44 253.489 54.832 253.521 55.136C253.553 55.424 253.633 55.712 253.761 56H251.073C250.977 55.728 250.913 55.472 250.881 55.232C250.849 54.992 250.833 54.56 250.833 53.936V50.864C250.833 50.096 250.705 49.56 250.449 49.256C250.209 48.952 249.785 48.8 249.177 48.8H248.265V56H245.625V39.2ZM249.225 46.4C249.753 46.4 250.145 46.264 250.401 45.992C250.673 45.72 250.809 45.264 250.809 44.624V43.328C250.809 42.72 250.697 42.28 250.473 42.008C250.265 41.736 249.929 41.6 249.465 41.6H248.265V46.4H249.225ZM255.304 39.2H262.504V41.6H257.944V46.04H261.568V48.44H257.944V53.6H262.504V56H255.304V39.2ZM267.243 39.2H269.787L270.963 52.112H271.011L272.259 39.2H275.139L276.387 52.112H276.435L277.611 39.2H279.891L278.187 56H274.899L273.699 44.672H273.651L272.451 56H268.947L267.243 39.2ZM281.226 39.2H283.866V56H281.226V39.2ZM287.907 41.6H285.147V39.2H293.307V41.6H290.547V56H287.907V41.6ZM294.586 39.2H297.226V46.04H300.058V39.2H302.698V56H300.058V48.44H297.226V56H294.586V39.2ZM312.323 56.24C311.027 56.24 310.035 55.872 309.347 55.136C308.659 54.4 308.315 53.36 308.315 52.016V43.184C308.315 41.84 308.659 40.8 309.347 40.064C310.035 39.328 311.027 38.96 312.323 38.96C313.619 38.96 314.611 39.328 315.299 40.064C315.987 40.8 316.331 41.84 316.331 43.184V52.016C316.331 53.36 315.987 54.4 315.299 55.136C314.611 55.872 313.619 56.24 312.323 56.24ZM312.323 53.84C313.235 53.84 313.691 53.288 313.691 52.184V43.016C313.691 41.912 313.235 41.36 312.323 41.36C311.411 41.36 310.955 41.912 310.955 43.016V52.184C310.955 53.288 311.411 53.84 312.323 53.84ZM321.957 56.24C320.677 56.24 319.701 55.88 319.029 55.16C318.357 54.424 318.021 53.376 318.021 52.016V39.2H320.661V52.208C320.661 52.784 320.773 53.2 320.997 53.456C321.237 53.712 321.573 53.84 322.005 53.84C322.437 53.84 322.765 53.712 322.989 53.456C323.229 53.2 323.349 52.784 323.349 52.208V39.2H325.893V52.016C325.893 53.376 325.557 54.424 324.885 55.16C324.213 55.88 323.237 56.24 321.957 56.24ZM327.773 39.2H331.685C333.045 39.2 334.037 39.52 334.661 40.16C335.285 40.784 335.597 41.752 335.597 43.064V44.096C335.597 45.84 335.021 46.944 333.869 47.408V47.456C334.509 47.648 334.957 48.04 335.213 48.632C335.485 49.224 335.621 50.016 335.621 51.008V53.96C335.621 54.44 335.637 54.832 335.669 55.136C335.701 55.424 335.781 55.712 335.909 56H333.221C333.125 55.728 333.061 55.472 333.029 55.232C332.997 54.992 332.981 54.56 332.981 53.936V50.864C332.981 50.096 332.853 49.56 332.597 49.256C332.357 48.952 331.933 48.8 331.325 48.8H330.413V56H327.773V39.2ZM331.373 46.4C331.901 46.4 332.293 46.264 332.549 45.992C332.821 45.72 332.957 45.264 332.957 44.624V43.328C332.957 42.72 332.845 42.28 332.621 42.008C332.413 41.736 332.077 41.6 331.613 41.6H330.413V46.4H331.373ZM180.984 73.2H184.896C186.256 73.2 187.248 73.52 187.872 74.16C188.496 74.784 188.808 75.752 188.808 77.064V78.096C188.808 79.84 188.232 80.944 187.08 81.408V81.456C187.72 81.648 188.168 82.04 188.424 82.632C188.696 83.224 188.832 84.016 188.832 85.008V87.96C188.832 88.44 188.848 88.832 188.88 89.136C188.912 89.424 188.992 89.712 189.12 90H186.432C186.336 89.728 186.272 89.472 186.24 89.232C186.208 88.992 186.192 88.56 186.192 87.936V84.864C186.192 84.096 186.064 83.56 185.808 83.256C185.568 82.952 185.144 82.8 184.536 82.8H183.624V90H180.984V73.2ZM184.584 80.4C185.112 80.4 185.504 80.264 185.76 79.992C186.032 79.72 186.168 79.264 186.168 78.624V77.328C186.168 76.72 186.056 76.28 185.832 76.008C185.624 75.736 185.288 75.6 184.824 75.6H183.624V80.4H184.584ZM190.664 73.2H197.864V75.6H193.304V80.04H196.928V82.44H193.304V87.6H197.864V90H190.664V73.2ZM199.382 73.2H206.366V75.6H202.022V80.28H205.43V82.68H202.022V90H199.382V73.2ZM207.632 73.2H214.832V75.6H210.272V80.04H213.896V82.44H210.272V87.6H214.832V90H207.632V73.2ZM216.351 73.2H220.263C221.623 73.2 222.615 73.52 223.239 74.16C223.863 74.784 224.175 75.752 224.175 77.064V78.096C224.175 79.84 223.599 80.944 222.447 81.408V81.456C223.087 81.648 223.535 82.04 223.791 82.632C224.063 83.224 224.199 84.016 224.199 85.008V87.96C224.199 88.44 224.215 88.832 224.247 89.136C224.279 89.424 224.359 89.712 224.487 90H221.799C221.703 89.728 221.639 89.472 221.607 89.232C221.575 88.992 221.559 88.56 221.559 87.936V84.864C221.559 84.096 221.431 83.56 221.175 83.256C220.935 82.952 220.511 82.8 219.903 82.8H218.991V90H216.351V73.2ZM219.951 80.4C220.479 80.4 220.871 80.264 221.127 79.992C221.399 79.72 221.535 79.264 221.535 78.624V77.328C221.535 76.72 221.423 76.28 221.199 76.008C220.991 75.736 220.655 75.6 220.191 75.6H218.991V80.4H219.951ZM226.031 73.2H229.943C231.303 73.2 232.295 73.52 232.919 74.16C233.543 74.784 233.855 75.752 233.855 77.064V78.096C233.855 79.84 233.279 80.944 232.127 81.408V81.456C232.767 81.648 233.215 82.04 233.471 82.632C233.743 83.224 233.879 84.016 233.879 85.008V87.96C233.879 88.44 233.895 88.832 233.927 89.136C233.959 89.424 234.039 89.712 234.167 90H231.479C231.383 89.728 231.319 89.472 231.287 89.232C231.255 88.992 231.239 88.56 231.239 87.936V84.864C231.239 84.096 231.111 83.56 230.855 83.256C230.615 82.952 230.191 82.8 229.583 82.8H228.671V90H226.031V73.2ZM229.631 80.4C230.159 80.4 230.551 80.264 230.807 79.992C231.079 79.72 231.215 79.264 231.215 78.624V77.328C231.215 76.72 231.103 76.28 230.879 76.008C230.671 75.736 230.335 75.6 229.871 75.6H228.671V80.4H229.631ZM237.751 73.2H241.327L244.063 90H241.423L240.943 86.664V86.712H237.943L237.463 90H235.015L237.751 73.2ZM240.631 84.432L239.455 76.128H239.407L238.255 84.432H240.631ZM245.343 73.2H247.983V87.6H252.327V90H245.343V73.2ZM257.437 73.2H261.325C262.637 73.2 263.621 73.552 264.277 74.256C264.933 74.96 265.261 75.992 265.261 77.352V79.008C265.261 80.368 264.933 81.4 264.277 82.104C263.621 82.808 262.637 83.16 261.325 83.16H260.077V90H257.437V73.2ZM261.325 80.76C261.757 80.76 262.077 80.64 262.285 80.4C262.509 80.16 262.621 79.752 262.621 79.176V77.184C262.621 76.608 262.509 76.2 262.285 75.96C262.077 75.72 261.757 75.6 261.325 75.6H260.077V80.76H261.325ZM266.695 73.2H270.607C271.967 73.2 272.959 73.52 273.583 74.16C274.207 74.784 274.519 75.752 274.519 77.064V78.096C274.519 79.84 273.943 80.944 272.791 81.408V81.456C273.431 81.648 273.879 82.04 274.135 82.632C274.407 83.224 274.543 84.016 274.543 85.008V87.96C274.543 88.44 274.559 88.832 274.591 89.136C274.623 89.424 274.703 89.712 274.831 90H272.143C272.047 89.728 271.983 89.472 271.951 89.232C271.919 88.992 271.903 88.56 271.903 87.936V84.864C271.903 84.096 271.775 83.56 271.519 83.256C271.279 82.952 270.855 82.8 270.247 82.8H269.335V90H266.695V73.2ZM270.295 80.4C270.823 80.4 271.215 80.264 271.471 79.992C271.743 79.72 271.879 79.264 271.879 78.624V77.328C271.879 76.72 271.767 76.28 271.543 76.008C271.335 75.736 270.999 75.6 270.535 75.6H269.335V80.4H270.295ZM280.191 90.24C278.895 90.24 277.903 89.872 277.215 89.136C276.527 88.4 276.183 87.36 276.183 86.016V77.184C276.183 75.84 276.527 74.8 277.215 74.064C277.903 73.328 278.895 72.96 280.191 72.96C281.487 72.96 282.479 73.328 283.167 74.064C283.855 74.8 284.199 75.84 284.199 77.184V86.016C284.199 87.36 283.855 88.4 283.167 89.136C282.479 89.872 281.487 90.24 280.191 90.24ZM280.191 87.84C281.103 87.84 281.559 87.288 281.559 86.184V77.016C281.559 75.912 281.103 75.36 280.191 75.36C279.279 75.36 278.823 75.912 278.823 77.016V86.184C278.823 87.288 279.279 87.84 280.191 87.84ZM289.728 90.24C288.448 90.24 287.472 89.88 286.8 89.16C286.128 88.424 285.792 87.376 285.792 86.016V77.184C285.792 75.824 286.128 74.784 286.8 74.064C287.472 73.328 288.448 72.96 289.728 72.96C291.008 72.96 291.984 73.328 292.656 74.064C293.328 74.784 293.664 75.824 293.664 77.184V78.624H291.168V77.016C291.168 75.912 290.712 75.36 289.8 75.36C288.888 75.36 288.432 75.912 288.432 77.016V86.208C288.432 87.296 288.888 87.84 289.8 87.84C290.712 87.84 291.168 87.296 291.168 86.208V82.92H289.848V80.52H293.664V86.016C293.664 87.376 293.328 88.424 292.656 89.16C291.984 89.88 291.008 90.24 289.728 90.24ZM295.359 73.2H299.271C300.631 73.2 301.623 73.52 302.247 74.16C302.871 74.784 303.183 75.752 303.183 77.064V78.096C303.183 79.84 302.607 80.944 301.455 81.408V81.456C302.095 81.648 302.543 82.04 302.799 82.632C303.071 83.224 303.207 84.016 303.207 85.008V87.96C303.207 88.44 303.223 88.832 303.255 89.136C303.287 89.424 303.367 89.712 303.495 90H300.807C300.711 89.728 300.647 89.472 300.615 89.232C300.583 88.992 300.567 88.56 300.567 87.936V84.864C300.567 84.096 300.439 83.56 300.183 83.256C299.943 82.952 299.519 82.8 298.911 82.8H297.999V90H295.359V73.2ZM298.959 80.4C299.487 80.4 299.879 80.264 300.135 79.992C300.407 79.72 300.543 79.264 300.543 78.624V77.328C300.543 76.72 300.431 76.28 300.207 76.008C299.999 75.736 299.663 75.6 299.199 75.6H297.999V80.4H298.959ZM307.079 73.2H310.655L313.391 90H310.751L310.271 86.664V86.712H307.271L306.791 90H304.343L307.079 73.2ZM309.959 84.432L308.783 76.128H308.735L307.583 84.432H309.959ZM314.672 73.2H318.44L320.12 85.224H320.168L321.848 73.2H325.616V90H323.12V77.28H323.072L321.152 90H318.944L317.024 77.28H316.976V90H314.672V73.2Z" fill="white"/>
<path d="M191.556 125L191.542 117.86L188 123.81H187.356L183.814 117.902V125H182.47V115.2H183.618L187.706 122.088L191.738 115.2H192.886L192.9 125H191.556ZM198.823 125.084C198.086 125.084 197.423 124.921 196.835 124.594C196.247 124.267 195.785 123.819 195.449 123.25C195.122 122.671 194.959 122.018 194.959 121.29C194.959 120.562 195.122 119.913 195.449 119.344C195.785 118.765 196.247 118.317 196.835 118C197.423 117.673 198.086 117.51 198.823 117.51C199.56 117.51 200.218 117.673 200.797 118C201.385 118.317 201.842 118.765 202.169 119.344C202.505 119.913 202.673 120.562 202.673 121.29C202.673 122.018 202.505 122.671 202.169 123.25C201.842 123.819 201.385 124.267 200.797 124.594C200.218 124.921 199.56 125.084 198.823 125.084ZM198.823 123.908C199.299 123.908 199.724 123.801 200.097 123.586C200.48 123.362 200.778 123.054 200.993 122.662C201.208 122.261 201.315 121.803 201.315 121.29C201.315 120.777 201.208 120.324 200.993 119.932C200.778 119.531 200.48 119.223 200.097 119.008C199.724 118.793 199.299 118.686 198.823 118.686C198.347 118.686 197.918 118.793 197.535 119.008C197.162 119.223 196.863 119.531 196.639 119.932C196.424 120.324 196.317 120.777 196.317 121.29C196.317 121.803 196.424 122.261 196.639 122.662C196.863 123.054 197.162 123.362 197.535 123.586C197.918 123.801 198.347 123.908 198.823 123.908ZM205.82 118.826C206.053 118.397 206.398 118.07 206.856 117.846C207.313 117.622 207.868 117.51 208.522 117.51V118.812C208.447 118.803 208.344 118.798 208.214 118.798C207.486 118.798 206.912 119.017 206.492 119.456C206.081 119.885 205.876 120.501 205.876 121.304V125H204.532V117.58H205.82V118.826ZM216.816 121.332C216.816 121.435 216.807 121.57 216.788 121.738H210.768C210.852 122.391 211.137 122.919 211.622 123.32C212.117 123.712 212.728 123.908 213.456 123.908C214.343 123.908 215.057 123.609 215.598 123.012L216.34 123.88C216.004 124.272 215.584 124.571 215.08 124.776C214.585 124.981 214.03 125.084 213.414 125.084C212.63 125.084 211.935 124.925 211.328 124.608C210.721 124.281 210.25 123.829 209.914 123.25C209.587 122.671 209.424 122.018 209.424 121.29C209.424 120.571 209.583 119.923 209.9 119.344C210.227 118.765 210.67 118.317 211.23 118C211.799 117.673 212.439 117.51 213.148 117.51C213.857 117.51 214.487 117.673 215.038 118C215.598 118.317 216.032 118.765 216.34 119.344C216.657 119.923 216.816 120.585 216.816 121.332ZM213.148 118.644C212.504 118.644 211.963 118.84 211.524 119.232C211.095 119.624 210.843 120.137 210.768 120.772H215.528C215.453 120.147 215.197 119.638 214.758 119.246C214.329 118.845 213.792 118.644 213.148 118.644Z" fill="white"/>
<path d="M224.75 124.5L229.25 120L224.75 115.5" stroke="white" stroke-width="1.5" stroke-linecap="round" stroke-linejoin="round"/>
</g>
<defs>
<filter id="filter0_dd" x="-38" y="-26" width="435" height="242" filterUnits="userSpaceOnUse" color-interpolation-filters="sRGB">
<feFlood flood-opacity="0" result="BackgroundImageFix"/>
<feColorMatrix in="SourceAlpha" type="matrix" values="0 0 0 0 0 0 0 0 0 0 0 0 0 0 0 0 0 0 127 0"/>
<feMorphology radius="4" operator="erode" in="SourceAlpha" result="effect1_dropShadow"/>
<feOffset dy="12"/>
<feGaussianBlur stdDeviation="21"/>
<feColorMatrix type="matrix" values="0 0 0 0 0.0941176 0 0 0 0 0.152941 0 0 0 0 0.294118 0 0 0 0.08 0"/>
<feBlend mode="normal" in2="BackgroundImageFix" result="effect1_dropShadow"/>
<feColorMatrix in="SourceAlpha" type="matrix" values="0 0 0 0 0 0 0 0 0 0 0 0 0 0 0 0 0 0 127 0"/>
<feMorphology radius="6" operator="erode" in="SourceAlpha" result="effect2_dropShadow"/>
<feOffset dy="8"/>
<feGaussianBlur stdDeviation="9"/>
<feColorMatrix type="matrix" values="0 0 0 0 0.0941176 0 0 0 0 0.152941 0 0 0 0 0.294118 0 0 0 0.04 0"/>
<feBlend mode="normal" in2="effect1_dropShadow" result="effect2_dropShadow"/>
<feBlend mode="normal" in="SourceGraphic" in2="effect2_dropShadow" result="shape"/>
</filter>
<filter id="filter1_f" x="-71.9463" y="-70.5994" width="415.245" height="469.63" filterUnits="userSpaceOnUse" color-interpolation-filters="sRGB">
<feFlood flood-opacity="0" result="BackgroundImageFix"/>
<feBlend mode="normal" in="SourceGraphic" in2="BackgroundImageFix" result="shape"/>
<feGaussianBlur stdDeviation="54.4732" result="effect1_foregroundBlur"/>
</filter>
<filter id="filter2_f" x="-71.9463" y="-55.2295" width="415.245" height="469.63" filterUnits="userSpaceOnUse" color-interpolation-filters="sRGB">
<feFlood flood-opacity="0" result="BackgroundImageFix"/>
<feBlend mode="normal" in="SourceGraphic" in2="BackgroundImageFix" result="shape"/>
<feGaussianBlur stdDeviation="54.4732" result="effect1_foregroundBlur"/>
</filter>
<filter id="filter3_f" x="38.7646" y="-13.9229" width="392.475" height="426.986" filterUnits="userSpaceOnUse" color-interpolation-filters="sRGB">
<feFlood flood-opacity="0" result="BackgroundImageFix"/>
<feBlend mode="normal" in="SourceGraphic" in2="BackgroundImageFix" result="shape"/>
<feGaussianBlur stdDeviation="54.4732" result="effect1_foregroundBlur"/>
</filter>
<filter id="filter4_f" x="41.6035" y="10.4126" width="352.023" height="378.635" filterUnits="userSpaceOnUse" color-interpolation-filters="sRGB">
<feFlood flood-opacity="0" result="BackgroundImageFix"/>
<feBlend mode="normal" in="SourceGraphic" in2="BackgroundImageFix" result="shape"/>
<feGaussianBlur stdDeviation="54.4732" result="effect1_foregroundBlur"/>
</filter>
<filter id="filter5_ii" x="62.8555" y="12.9561" width="58.4228" height="116.671" filterUnits="userSpaceOnUse" color-interpolation-filters="sRGB">
<feFlood flood-opacity="0" result="BackgroundImageFix"/>
<feBlend mode="normal" in="SourceGraphic" in2="BackgroundImageFix" result="shape"/>
<feColorMatrix in="SourceAlpha" type="matrix" values="0 0 0 0 0 0 0 0 0 0 0 0 0 0 0 0 0 0 127 0" result="hardAlpha"/>
<feOffset dx="-1" dy="1"/>
<feComposite in2="hardAlpha" operator="arithmetic" k2="-1" k3="1"/>
<feColorMatrix type="matrix" values="0 0 0 0 1 0 0 0 0 0.654167 0 0 0 0 0.717045 0 0 0 0.6 0"/>
<feBlend mode="normal" in2="shape" result="effect1_innerShadow"/>
<feColorMatrix in="SourceAlpha" type="matrix" values="0 0 0 0 0 0 0 0 0 0 0 0 0 0 0 0 0 0 127 0" result="hardAlpha"/>
<feOffset dx="1" dy="-1"/>
<feComposite in2="hardAlpha" operator="arithmetic" k2="-1" k3="1"/>
<feColorMatrix type="matrix" values="0 0 0 0 0 0 0 0 0 0.064853 0 0 0 0 0.2625 0 0 0 0.6 0"/>
<feBlend mode="normal" in2="effect1_innerShadow" result="effect2_innerShadow"/>
</filter>
<filter id="filter6_ii" x="65.8896" y="20.3301" width="52.3376" height="97.5585" filterUnits="userSpaceOnUse" color-interpolation-filters="sRGB">
<feFlood flood-opacity="0" result="BackgroundImageFix"/>
<feBlend mode="normal" in="SourceGraphic" in2="BackgroundImageFix" result="shape"/>
<feColorMatrix in="SourceAlpha" type="matrix" values="0 0 0 0 0 0 0 0 0 0 0 0 0 0 0 0 0 0 127 0" result="hardAlpha"/>
<feOffset dx="-1" dy="1"/>
<feComposite in2="hardAlpha" operator="arithmetic" k2="-1" k3="1"/>
<feColorMatrix type="matrix" values="0 0 0 0 0.325486 0 0 0 0 0.419659 0 0 0 0 0.716667 0 0 0 1 0"/>
<feBlend mode="normal" in2="shape" result="effect1_innerShadow"/>
<feColorMatrix in="SourceAlpha" type="matrix" values="0 0 0 0 0 0 0 0 0 0 0 0 0 0 0 0 0 0 127 0" result="hardAlpha"/>
<feOffset dx="1" dy="-1"/>
<feComposite in2="hardAlpha" operator="arithmetic" k2="-1" k3="1"/>
<feColorMatrix type="matrix" values="0 0 0 0 0.460417 0 0 0 0 0.556401 0 0 0 0 0.85 0 0 0 1 0"/>
<feBlend mode="normal" in2="effect1_innerShadow" result="effect2_innerShadow"/>
</filter>
<filter id="filter7_ii" x="71.6387" y="29.0876" width="40.8955" height="16.5863" filterUnits="userSpaceOnUse" color-interpolation-filters="sRGB">
<feFlood flood-opacity="0" result="BackgroundImageFix"/>
<feBlend mode="normal" in="SourceGraphic" in2="BackgroundImageFix" result="shape"/>
<feColorMatrix in="SourceAlpha" type="matrix" values="0 0 0 0 0 0 0 0 0 0 0 0 0 0 0 0 0 0 127 0" result="hardAlpha"/>
<feOffset dx="-1" dy="1"/>
<feComposite in2="hardAlpha" operator="arithmetic" k2="-1" k3="1"/>
<feColorMatrix type="matrix" values="0 0 0 0 0.875 0 0 0 0 0.904661 0 0 0 0 1 0 0 0 1 0"/>
<feBlend mode="normal" in2="shape" result="effect1_innerShadow"/>
<feColorMatrix in="SourceAlpha" type="matrix" values="0 0 0 0 0 0 0 0 0 0 0 0 0 0 0 0 0 0 127 0" result="hardAlpha"/>
<feOffset dx="1" dy="-1"/>
<feComposite in2="hardAlpha" operator="arithmetic" k2="-1" k3="1"/>
<feColorMatrix type="matrix" values="0 0 0 0 0.460417 0 0 0 0 0.556401 0 0 0 0 0.85 0 0 0 1 0"/>
<feBlend mode="normal" in2="effect1_innerShadow" result="effect2_innerShadow"/>
</filter>
<filter id="filter8_ii" x="108.384" y="34.1265" width="6.39972" height="6.49583" filterUnits="userSpaceOnUse" color-interpolation-filters="sRGB">
<feFlood flood-opacity="0" result="BackgroundImageFix"/>
<feBlend mode="normal" in="SourceGraphic" in2="BackgroundImageFix" result="shape"/>
<feColorMatrix in="SourceAlpha" type="matrix" values="0 0 0 0 0 0 0 0 0 0 0 0 0 0 0 0 0 0 127 0" result="hardAlpha"/>
<feOffset dx="0.2" dy="0.5"/>
<feComposite in2="hardAlpha" operator="arithmetic" k2="-1" k3="1"/>
<feColorMatrix type="matrix" values="0 0 0 0 1 0 0 0 0 1 0 0 0 0 1 0 0 0 0.5 0"/>
<feBlend mode="normal" in2="shape" result="effect1_innerShadow"/>
<feColorMatrix in="SourceAlpha" type="matrix" values="0 0 0 0 0 0 0 0 0 0 0 0 0 0 0 0 0 0 127 0" result="hardAlpha"/>
<feOffset dx="-0.3" dy="-0.3"/>
<feComposite in2="hardAlpha" operator="arithmetic" k2="-1" k3="1"/>
<feColorMatrix type="matrix" values="0 0 0 0 0.0601852 0 0 0 0 0.270833 0 0 0 0 0 0 0 0 0.3 0"/>
<feBlend mode="normal" in2="effect1_innerShadow" result="effect2_innerShadow"/>
</filter>
<filter id="filter9_ii" x="71.082" y="69.0886" width="40.8955" height="16.5862" filterUnits="userSpaceOnUse" color-interpolation-filters="sRGB">
<feFlood flood-opacity="0" result="BackgroundImageFix"/>
<feBlend mode="normal" in="SourceGraphic" in2="BackgroundImageFix" result="shape"/>
<feColorMatrix in="SourceAlpha" type="matrix" values="0 0 0 0 0 0 0 0 0 0 0 0 0 0 0 0 0 0 127 0" result="hardAlpha"/>
<feOffset dx="-1" dy="1"/>
<feComposite in2="hardAlpha" operator="arithmetic" k2="-1" k3="1"/>
<feColorMatrix type="matrix" values="0 0 0 0 0.875 0 0 0 0 0.904661 0 0 0 0 1 0 0 0 1 0"/>
<feBlend mode="normal" in2="shape" result="effect1_innerShadow"/>
<feColorMatrix in="SourceAlpha" type="matrix" values="0 0 0 0 0 0 0 0 0 0 0 0 0 0 0 0 0 0 127 0" result="hardAlpha"/>
<feOffset dx="1" dy="-1"/>
<feComposite in2="hardAlpha" operator="arithmetic" k2="-1" k3="1"/>
<feColorMatrix type="matrix" values="0 0 0 0 0.460417 0 0 0 0 0.556401 0 0 0 0 0.85 0 0 0 1 0"/>
<feBlend mode="normal" in2="effect1_innerShadow" result="effect2_innerShadow"/>
</filter>
<filter id="filter10_ii" x="107.828" y="74.1274" width="6.39973" height="6.49583" filterUnits="userSpaceOnUse" color-interpolation-filters="sRGB">
<feFlood flood-opacity="0" result="BackgroundImageFix"/>
<feBlend mode="normal" in="SourceGraphic" in2="BackgroundImageFix" result="shape"/>
<feColorMatrix in="SourceAlpha" type="matrix" values="0 0 0 0 0 0 0 0 0 0 0 0 0 0 0 0 0 0 127 0" result="hardAlpha"/>
<feOffset dx="0.2" dy="0.5"/>
<feComposite in2="hardAlpha" operator="arithmetic" k2="-1" k3="1"/>
<feColorMatrix type="matrix" values="0 0 0 0 1 0 0 0 0 1 0 0 0 0 1 0 0 0 0.5 0"/>
<feBlend mode="normal" in2="shape" result="effect1_innerShadow"/>
<feColorMatrix in="SourceAlpha" type="matrix" values="0 0 0 0 0 0 0 0 0 0 0 0 0 0 0 0 0 0 127 0" result="hardAlpha"/>
<feOffset dx="-0.3" dy="-0.3"/>
<feComposite in2="hardAlpha" operator="arithmetic" k2="-1" k3="1"/>
<feColorMatrix type="matrix" values="0 0 0 0 0.0601852 0 0 0 0 0.270833 0 0 0 0 0 0 0 0 0.3 0"/>
<feBlend mode="normal" in2="effect1_innerShadow" result="effect2_innerShadow"/>
</filter>
<filter id="filter11_ii" x="71.0977" y="49.0845" width="40.8955" height="16.5863" filterUnits="userSpaceOnUse" color-interpolation-filters="sRGB">
<feFlood flood-opacity="0" result="BackgroundImageFix"/>
<feBlend mode="normal" in="SourceGraphic" in2="BackgroundImageFix" result="shape"/>
<feColorMatrix in="SourceAlpha" type="matrix" values="0 0 0 0 0 0 0 0 0 0 0 0 0 0 0 0 0 0 127 0" result="hardAlpha"/>
<feOffset dx="-1" dy="1"/>
<feComposite in2="hardAlpha" operator="arithmetic" k2="-1" k3="1"/>
<feColorMatrix type="matrix" values="0 0 0 0 0.875 0 0 0 0 0.904661 0 0 0 0 1 0 0 0 1 0"/>
<feBlend mode="normal" in2="shape" result="effect1_innerShadow"/>
<feColorMatrix in="SourceAlpha" type="matrix" values="0 0 0 0 0 0 0 0 0 0 0 0 0 0 0 0 0 0 127 0" result="hardAlpha"/>
<feOffset dx="1" dy="-1"/>
<feComposite in2="hardAlpha" operator="arithmetic" k2="-1" k3="1"/>
<feColorMatrix type="matrix" values="0 0 0 0 0.460417 0 0 0 0 0.556401 0 0 0 0 0.85 0 0 0 1 0"/>
<feBlend mode="normal" in2="effect1_innerShadow" result="effect2_innerShadow"/>
</filter>
<filter id="filter12_ii" x="107.843" y="54.1233" width="6.39972" height="6.49583" filterUnits="userSpaceOnUse" color-interpolation-filters="sRGB">
<feFlood flood-opacity="0" result="BackgroundImageFix"/>
<feBlend mode="normal" in="SourceGraphic" in2="BackgroundImageFix" result="shape"/>
<feColorMatrix in="SourceAlpha" type="matrix" values="0 0 0 0 0 0 0 0 0 0 0 0 0 0 0 0 0 0 127 0" result="hardAlpha"/>
<feOffset dx="0.2" dy="0.5"/>
<feComposite in2="hardAlpha" operator="arithmetic" k2="-1" k3="1"/>
<feColorMatrix type="matrix" values="0 0 0 0 1 0 0 0 0 1 0 0 0 0 1 0 0 0 0.5 0"/>
<feBlend mode="normal" in2="shape" result="effect1_innerShadow"/>
<feColorMatrix in="SourceAlpha" type="matrix" values="0 0 0 0 0 0 0 0 0 0 0 0 0 0 0 0 0 0 127 0" result="hardAlpha"/>
<feOffset dx="-0.3" dy="-0.3"/>
<feComposite in2="hardAlpha" operator="arithmetic" k2="-1" k3="1"/>
<feColorMatrix type="matrix" values="0 0 0 0 0.0601852 0 0 0 0 0.270833 0 0 0 0 0 0 0 0 0.3 0"/>
<feBlend mode="normal" in2="effect1_innerShadow" result="effect2_innerShadow"/>
</filter>
<filter id="filter13_ii" x="70.543" y="89.0854" width="40.8955" height="16.5862" filterUnits="userSpaceOnUse" color-interpolation-filters="sRGB">
<feFlood flood-opacity="0" result="BackgroundImageFix"/>
<feBlend mode="normal" in="SourceGraphic" in2="BackgroundImageFix" result="shape"/>
<feColorMatrix in="SourceAlpha" type="matrix" values="0 0 0 0 0 0 0 0 0 0 0 0 0 0 0 0 0 0 127 0" result="hardAlpha"/>
<feOffset dx="-1" dy="1"/>
<feComposite in2="hardAlpha" operator="arithmetic" k2="-1" k3="1"/>
<feColorMatrix type="matrix" values="0 0 0 0 0.875 0 0 0 0 0.904661 0 0 0 0 1 0 0 0 1 0"/>
<feBlend mode="normal" in2="shape" result="effect1_innerShadow"/>
<feColorMatrix in="SourceAlpha" type="matrix" values="0 0 0 0 0 0 0 0 0 0 0 0 0 0 0 0 0 0 127 0" result="hardAlpha"/>
<feOffset dx="1" dy="-1"/>
<feComposite in2="hardAlpha" operator="arithmetic" k2="-1" k3="1"/>
<feColorMatrix type="matrix" values="0 0 0 0 0.460417 0 0 0 0 0.556401 0 0 0 0 0.85 0 0 0 1 0"/>
<feBlend mode="normal" in2="effect1_innerShadow" result="effect2_innerShadow"/>
</filter>
<filter id="filter14_ii" x="107.289" y="94.1243" width="6.39974" height="6.49583" filterUnits="userSpaceOnUse" color-interpolation-filters="sRGB">
<feFlood flood-opacity="0" result="BackgroundImageFix"/>
<feBlend mode="normal" in="SourceGraphic" in2="BackgroundImageFix" result="shape"/>
<feColorMatrix in="SourceAlpha" type="matrix" values="0 0 0 0 0 0 0 0 0 0 0 0 0 0 0 0 0 0 127 0" result="hardAlpha"/>
<feOffset dx="0.2" dy="0.5"/>
<feComposite in2="hardAlpha" operator="arithmetic" k2="-1" k3="1"/>
<feColorMatrix type="matrix" values="0 0 0 0 1 0 0 0 0 1 0 0 0 0 1 0 0 0 0.5 0"/>
<feBlend mode="normal" in2="shape" result="effect1_innerShadow"/>
<feColorMatrix in="SourceAlpha" type="matrix" values="0 0 0 0 0 0 0 0 0 0 0 0 0 0 0 0 0 0 127 0" result="hardAlpha"/>
<feOffset dx="-0.3" dy="-0.3"/>
<feComposite in2="hardAlpha" operator="arithmetic" k2="-1" k3="1"/>
<feColorMatrix type="matrix" values="0 0 0 0 0.0601852 0 0 0 0 0.270833 0 0 0 0 0 0 0 0 0.3 0"/>
<feBlend mode="normal" in2="effect1_innerShadow" result="effect2_innerShadow"/>
</filter>
<filter id="filter15_f" x="-4.37891" y="8.74731" width="106.657" height="86.3977" filterUnits="userSpaceOnUse" color-interpolation-filters="sRGB">
<feFlood flood-opacity="0" result="BackgroundImageFix"/>
<feBlend mode="normal" in="SourceGraphic" in2="BackgroundImageFix" result="shape"/>
<feGaussianBlur stdDeviation="20" result="effect1_foregroundBlur"/>
</filter>
<filter id="filter16_f" x="3.74316" y="-19.4189" width="87.2532" height="93.9363" filterUnits="userSpaceOnUse" color-interpolation-filters="sRGB">
<feFlood flood-opacity="0" result="BackgroundImageFix"/>
<feBlend mode="normal" in="SourceGraphic" in2="BackgroundImageFix" result="shape"/>
<feGaussianBlur stdDeviation="20" result="effect1_foregroundBlur"/>
</filter>
<linearGradient id="paint0_linear" x1="179.5" y1="0" x2="179.5" y2="166" gradientUnits="userSpaceOnUse">
<stop stop-color="#242731"/>
<stop offset="1" stop-color="#242731" stop-opacity="0.3"/>
</linearGradient>
<linearGradient id="paint1_linear" x1="49.2573" y1="48.3521" x2="59.8478" y2="62.8402" gradientUnits="userSpaceOnUse">
<stop stop-color="#FFDDCA"/>
<stop offset="0.415822" stop-color="#FFB4AF"/>
<stop offset="1" stop-color="#FF8383"/>
</linearGradient>
<linearGradient id="paint2_linear" x1="69.0268" y1="135.434" x2="101.18" y2="134.357" gradientUnits="userSpaceOnUse">
<stop stop-color="#FFDDCA"/>
<stop offset="0.322848" stop-color="#FFB4AF"/>
<stop offset="1" stop-color="#E86969"/>
</linearGradient>
<radialGradient id="paint3_radial" cx="0" cy="0" r="1" gradientUnits="userSpaceOnUse" gradientTransform="translate(91.3834 120.145) rotate(-90.032) scale(124.401 59.9034)">
<stop stop-color="#142969"/>
<stop offset="0.770833" stop-color="#6981CD"/>
<stop offset="1" stop-color="#FF5824"/>
</radialGradient>
<linearGradient id="paint4_linear" x1="70.493" y1="112.654" x2="146.321" y2="88.6067" gradientUnits="userSpaceOnUse">
<stop offset="0.0001" stop-color="#A8B8EE"/>
<stop offset="0.625359" stop-color="#C6D3FF"/>
<stop offset="1" stop-color="#D2DDFF"/>
</linearGradient>
<linearGradient id="paint5_linear" x1="76.149" y1="44.7765" x2="96.4973" y2="15.3863" gradientUnits="userSpaceOnUse">
<stop offset="0.0001" stop-color="#A8B8EE"/>
<stop offset="0.625359" stop-color="#C6D3FF"/>
<stop offset="1" stop-color="#D2DDFF"/>
</linearGradient>
<linearGradient id="paint6_linear" x1="112.869" y1="39.5515" x2="111.545" y2="35.7439" gradientUnits="userSpaceOnUse">
<stop stop-color="#79B169"/>
<stop offset="1" stop-color="#9EC657"/>
</linearGradient>
<linearGradient id="paint7_linear" x1="75.5924" y1="84.7775" x2="95.9406" y2="55.3872" gradientUnits="userSpaceOnUse">
<stop offset="0.0001" stop-color="#A8B8EE"/>
<stop offset="0.625359" stop-color="#C6D3FF"/>
<stop offset="1" stop-color="#D2DDFF"/>
</linearGradient>
<linearGradient id="paint8_linear" x1="112.314" y1="79.5524" x2="110.989" y2="75.7449" gradientUnits="userSpaceOnUse">
<stop stop-color="#79B169"/>
<stop offset="1" stop-color="#9EC657"/>
</linearGradient>
<linearGradient id="paint9_linear" x1="75.608" y1="64.7734" x2="95.9563" y2="35.3831" gradientUnits="userSpaceOnUse">
<stop offset="0.0001" stop-color="#A8B8EE"/>
<stop offset="0.625359" stop-color="#C6D3FF"/>
<stop offset="1" stop-color="#D2DDFF"/>
</linearGradient>
<linearGradient id="paint10_linear" x1="112.328" y1="59.5483" x2="111.004" y2="55.7407" gradientUnits="userSpaceOnUse">
<stop stop-color="#79B169"/>
<stop offset="1" stop-color="#9EC657"/>
</linearGradient>
<linearGradient id="paint11_linear" x1="75.0533" y1="104.774" x2="95.4016" y2="75.3841" gradientUnits="userSpaceOnUse">
<stop offset="0.0001" stop-color="#A8B8EE"/>
<stop offset="0.625359" stop-color="#C6D3FF"/>
<stop offset="1" stop-color="#D2DDFF"/>
</linearGradient>
<linearGradient id="paint12_linear" x1="111.775" y1="99.5493" x2="110.45" y2="95.7417" gradientUnits="userSpaceOnUse">
<stop stop-color="#79B169"/>
<stop offset="1" stop-color="#9EC657"/>
</linearGradient>
<linearGradient id="paint13_linear" x1="181.73" y1="186.313" x2="165.733" y2="194.087" gradientUnits="userSpaceOnUse">
<stop stop-color="#FFDDCA"/>
<stop offset="0.415822" stop-color="#FFB4AF"/>
<stop offset="1" stop-color="#FF8383"/>
</linearGradient>
<linearGradient id="paint14_linear" x1="138.243" y1="92.9288" x2="122.203" y2="103.627" gradientUnits="userSpaceOnUse">
<stop stop-color="#FFDDCA"/>
<stop offset="0.415822" stop-color="#FFB4AF"/>
<stop offset="1" stop-color="#FF8383"/>
</linearGradient>
<linearGradient id="paint15_linear" x1="50.3457" y1="113.574" x2="58.1085" y2="113.791" gradientUnits="userSpaceOnUse">
<stop stop-color="#FFDDCA"/>
<stop offset="0.415822" stop-color="#FFB4AF"/>
<stop offset="1" stop-color="#FF8383"/>
</linearGradient>
<linearGradient id="paint16_linear" x1="59.8247" y1="106.657" x2="59.7432" y2="113.507" gradientUnits="userSpaceOnUse">
<stop stop-color="#EF7C7A"/>
<stop offset="1" stop-color="#EF7C7A" stop-opacity="0"/>
</linearGradient>
<linearGradient id="paint17_linear" x1="50.4282" y1="100.038" x2="56.537" y2="101.797" gradientUnits="userSpaceOnUse">
<stop stop-color="#FFDDCA"/>
<stop offset="0.415822" stop-color="#FFB4AF"/>
<stop offset="1" stop-color="#FF8383"/>
</linearGradient>
<linearGradient id="paint18_linear" x1="59.5061" y1="94.3784" x2="59.4251" y2="101.186" gradientUnits="userSpaceOnUse">
<stop stop-color="#EF7C7A"/>
<stop offset="1" stop-color="#EF7C7A" stop-opacity="0"/>
</linearGradient>
<linearGradient id="paint19_linear" x1="51.3761" y1="79.6449" x2="58.0475" y2="80.8145" gradientUnits="userSpaceOnUse">
<stop stop-color="#FFDDCA"/>
<stop offset="0.415822" stop-color="#FFB4AF"/>
<stop offset="1" stop-color="#FF8383"/>
</linearGradient>
<linearGradient id="paint20_linear" x1="132.791" y1="80.2963" x2="132.029" y2="144.051" gradientUnits="userSpaceOnUse">
<stop stop-color="white"/>
<stop offset="1" stop-color="white" stop-opacity="0"/>
</linearGradient>
<linearGradient id="paint21_linear" x1="33.4016" y1="146.69" x2="79.2781" y2="173.592" gradientUnits="userSpaceOnUse">
<stop stop-color="#FFDDCA"/>
<stop offset="0.331067" stop-color="#FFB4AF"/>
<stop offset="0.864455" stop-color="#FF8383"/>
<stop offset="1" stop-color="#F87A7A"/>
</linearGradient>
<linearGradient id="paint22_linear" x1="70.113" y1="191.62" x2="115.653" y2="105.013" gradientUnits="userSpaceOnUse">
<stop stop-color="#D56765"/>
<stop offset="1" stop-color="#EF7C7A" stop-opacity="0"/>
</linearGradient>
<linearGradient id="paint23_linear" x1="64.0938" y1="133.477" x2="63.8903" y2="156.093" gradientUnits="userSpaceOnUse">
<stop stop-color="#EF7C7A"/>
<stop offset="1" stop-color="#EF7C7A" stop-opacity="0"/>
</linearGradient>
<linearGradient id="paint24_linear" x1="44.4675" y1="136.172" x2="44.3115" y2="153.455" gradientUnits="userSpaceOnUse">
<stop stop-color="#EF7C7A"/>
<stop offset="1" stop-color="#EF7C7A" stop-opacity="0"/>
</linearGradient>
<linearGradient id="paint25_linear" x1="26.7629" y1="140.647" x2="26.6434" y2="153.849" gradientUnits="userSpaceOnUse">
<stop stop-color="#EF7C7A"/>
<stop offset="1" stop-color="#EF7C7A" stop-opacity="0"/>
</linearGradient>
<linearGradient id="paint26_linear" x1="10.5467" y1="147.76" x2="9.70115" y2="241.364" gradientUnits="userSpaceOnUse">
<stop stop-color="white"/>
<stop offset="1" stop-color="white" stop-opacity="0"/>
</linearGradient>
<linearGradient id="paint27_linear" x1="35.3161" y1="46.9369" x2="37.0293" y2="58.1883" gradientUnits="userSpaceOnUse">
<stop stop-color="#FBEEB8"/>
<stop offset="0.317708" stop-color="#F6D240"/>
<stop offset="0.508658" stop-color="#F2BC3C"/>
<stop offset="0.6864" stop-color="#E98C35"/>
<stop offset="0.8237" stop-color="#E2632E"/>
<stop offset="0.8238" stop-color="#E2632E"/>
<stop offset="1" stop-color="#D3344A"/>
</linearGradient>
<linearGradient id="paint28_linear" x1="32.1072" y1="27.8829" x2="59.6166" y2="43.0785" gradientUnits="userSpaceOnUse">
<stop stop-color="#FBEEB8"/>
<stop offset="0.178709" stop-color="#F6D240"/>
<stop offset="0.267289" stop-color="#F2BC3C"/>
<stop offset="0.467301" stop-color="#E98C35"/>
<stop offset="0.8237" stop-color="#E2632E"/>
<stop offset="0.8238" stop-color="#E2632E"/>
<stop offset="1" stop-color="#D3344A"/>
</linearGradient>
<linearGradient id="paint29_linear" x1="30.6218" y1="9.57547" x2="48.9198" y2="47.8433" gradientUnits="userSpaceOnUse">
<stop stop-color="#FBEEB8"/>
<stop offset="0.317708" stop-color="#F6D240"/>
<stop offset="0.508658" stop-color="#F2BC3C"/>
<stop offset="0.6864" stop-color="#E98C35"/>
<stop offset="0.8237" stop-color="#E2632E"/>
<stop offset="0.8238" stop-color="#E2632E"/>
<stop offset="1" stop-color="#D3344A"/>
</linearGradient>
<linearGradient id="paint30_linear" x1="30.6218" y1="9.57547" x2="48.9198" y2="47.8433" gradientUnits="userSpaceOnUse">
<stop stop-color="#FBEEB8"/>
<stop offset="0.317708" stop-color="#F6D240"/>
<stop offset="0.508658" stop-color="#F2BC3C"/>
<stop offset="0.6864" stop-color="#E98C35"/>
<stop offset="0.8237" stop-color="#E2632E"/>
<stop offset="0.8238" stop-color="#E2632E"/>
<stop offset="1" stop-color="#D3344A"/>
</linearGradient>
<linearGradient id="paint31_linear" x1="30.6218" y1="9.57547" x2="48.9198" y2="47.8433" gradientUnits="userSpaceOnUse">
<stop stop-color="#FBEEB8"/>
<stop offset="0.317708" stop-color="#F6D240"/>
<stop offset="0.508658" stop-color="#F2BC3C"/>
<stop offset="0.6864" stop-color="#E98C35"/>
<stop offset="0.8237" stop-color="#E2632E"/>
<stop offset="0.8238" stop-color="#E2632E"/>
<stop offset="1" stop-color="#D3344A"/>
</linearGradient>
<linearGradient id="paint32_linear" x1="54.871" y1="14.3199" x2="48.6502" y2="44.4122" gradientUnits="userSpaceOnUse">
<stop stop-color="#FEFFFF"/>
<stop offset="0.2019" stop-color="#FBEEB8"/>
<stop offset="0.5238" stop-color="#F6D240"/>
<stop offset="0.5718" stop-color="#F2BC3C"/>
<stop offset="0.6864" stop-color="#E98C35"/>
<stop offset="0.7741" stop-color="#E46E30"/>
<stop offset="0.8237" stop-color="#E2632E"/>
<stop offset="0.8248" stop-color="#E2632E"/>
<stop offset="0.8916" stop-color="#DA493E"/>
<stop offset="0.952" stop-color="#D53947"/>
<stop offset="1" stop-color="#D3344A"/>
</linearGradient>
<linearGradient id="paint33_linear" x1="36.7444" y1="11.8857" x2="49.0813" y2="39.304" gradientUnits="userSpaceOnUse">
<stop stop-color="#FBEEB8"/>
<stop offset="0.317708" stop-color="#F6D240"/>
<stop offset="0.508658" stop-color="#F2BC3C"/>
<stop offset="0.6864" stop-color="#E98C35"/>
<stop offset="0.8237" stop-color="#E2632E"/>
<stop offset="0.8238" stop-color="#E2632E"/>
<stop offset="1" stop-color="#D3344A"/>
</linearGradient>
<linearGradient id="paint34_linear" x1="38.0007" y1="23.2892" x2="55.5197" y2="35.4483" gradientUnits="userSpaceOnUse">
<stop stop-color="#FBEEB8"/>
<stop offset="0.178709" stop-color="#F6D240"/>
<stop offset="0.267289" stop-color="#F2BC3C"/>
<stop offset="0.467301" stop-color="#E98C35"/>
<stop offset="0.8237" stop-color="#E2632E"/>
<stop offset="0.8238" stop-color="#E2632E"/>
<stop offset="1" stop-color="#D3344A"/>
</linearGradient>
<linearGradient id="paint35_linear" x1="45.7424" y1="19.4452" x2="40.9596" y2="23.2322" gradientUnits="userSpaceOnUse">
<stop stop-color="#FBEEB8"/>
<stop offset="0.317708" stop-color="#F6D240"/>
<stop offset="0.508658" stop-color="#F2BC3C"/>
<stop offset="0.6864" stop-color="#E98C35"/>
<stop offset="0.8237" stop-color="#E2632E"/>
<stop offset="0.8238" stop-color="#E2632E"/>
<stop offset="1" stop-color="#D3344A"/>
</linearGradient>
<linearGradient id="paint36_linear" x1="54.1877" y1="12.2603" x2="53.919" y2="30.1852" gradientUnits="userSpaceOnUse">
<stop stop-color="#FBEEB8"/>
<stop offset="0.178709" stop-color="#F6D240"/>
<stop offset="0.267289" stop-color="#F2BC3C"/>
<stop offset="0.467301" stop-color="#E98C35"/>
<stop offset="0.8237" stop-color="#E2632E"/>
<stop offset="0.8238" stop-color="#E2632E"/>
<stop offset="1" stop-color="#D3344A"/>
</linearGradient>
<linearGradient id="paint37_linear" x1="62.4641" y1="6.58844" x2="48.8951" y2="25.5341" gradientUnits="userSpaceOnUse">
<stop stop-color="#FBEEB8"/>
<stop offset="0.317708" stop-color="#F6D240"/>
<stop offset="0.508658" stop-color="#F2BC3C"/>
<stop offset="0.6864" stop-color="#E98C35"/>
<stop offset="0.8237" stop-color="#E2632E"/>
<stop offset="0.8238" stop-color="#E2632E"/>
<stop offset="1" stop-color="#D3344A"/>
</linearGradient>
<linearGradient id="paint38_linear" x1="62.4641" y1="6.58844" x2="48.8951" y2="25.5341" gradientUnits="userSpaceOnUse">
<stop stop-color="#FBEEB8"/>
<stop offset="0.317708" stop-color="#F6D240"/>
<stop offset="0.508658" stop-color="#F2BC3C"/>
<stop offset="0.6864" stop-color="#E98C35"/>
<stop offset="0.8237" stop-color="#E2632E"/>
<stop offset="0.8238" stop-color="#E2632E"/>
<stop offset="1" stop-color="#D3344A"/>
</linearGradient>
<linearGradient id="paint39_linear" x1="62.4641" y1="6.58844" x2="48.8951" y2="25.5341" gradientUnits="userSpaceOnUse">
<stop stop-color="#FBEEB8"/>
<stop offset="0.317708" stop-color="#F6D240"/>
<stop offset="0.508658" stop-color="#F2BC3C"/>
<stop offset="0.6864" stop-color="#E98C35"/>
<stop offset="0.8237" stop-color="#E2632E"/>
<stop offset="0.8238" stop-color="#E2632E"/>
<stop offset="1" stop-color="#D3344A"/>
</linearGradient>
<linearGradient id="paint40_linear" x1="67.4361" y1="20.0104" x2="51.5328" y2="25.6473" gradientUnits="userSpaceOnUse">
<stop stop-color="#FEFFFF"/>
<stop offset="0.2019" stop-color="#FBEEB8"/>
<stop offset="0.5238" stop-color="#F6D240"/>
<stop offset="0.5718" stop-color="#F2BC3C"/>
<stop offset="0.6864" stop-color="#E98C35"/>
<stop offset="0.7741" stop-color="#E46E30"/>
<stop offset="0.8237" stop-color="#E2632E"/>
<stop offset="0.8248" stop-color="#E2632E"/>
<stop offset="0.8916" stop-color="#DA493E"/>
<stop offset="0.952" stop-color="#D53947"/>
<stop offset="1" stop-color="#D3344A"/>
</linearGradient>
<linearGradient id="paint41_linear" x1="63.2204" y1="10.2287" x2="53.3289" y2="23.4175" gradientUnits="userSpaceOnUse">
<stop stop-color="#FBEEB8"/>
<stop offset="0.317708" stop-color="#F6D240"/>
<stop offset="0.508658" stop-color="#F2BC3C"/>
<stop offset="0.6864" stop-color="#E98C35"/>
<stop offset="0.8237" stop-color="#E2632E"/>
<stop offset="0.8238" stop-color="#E2632E"/>
<stop offset="1" stop-color="#D3344A"/>
</linearGradient>
<linearGradient id="paint42_linear" x1="58.2111" y1="13.9165" x2="56.7899" y2="25.8682" gradientUnits="userSpaceOnUse">
<stop stop-color="#FBEEB8"/>
<stop offset="0.178709" stop-color="#F6D240"/>
<stop offset="0.267289" stop-color="#F2BC3C"/>
<stop offset="0.467301" stop-color="#E98C35"/>
<stop offset="0.8237" stop-color="#E2632E"/>
<stop offset="0.8238" stop-color="#E2632E"/>
<stop offset="1" stop-color="#D3344A"/>
</linearGradient>
<clipPath id="clip0">
<rect width="359" height="166" fill="white"/>
</clipPath>
</defs>
</svg>
