<svg width="97" height="96" viewBox="0 0 97 96" fill="none" xmlns="http://www.w3.org/2000/svg">
<path d="M48.5901 86C69.3008 86 86.0901 68.9868 86.0901 48C86.0901 27.0132 69.3008 10 48.5901 10C27.8794 10 11.0901 27.0132 11.0901 48C11.0901 68.9868 27.8794 86 48.5901 86Z" fill="#EAEEF9"/>
<path d="M45.6035 57.8628V67.5414C45.6035 68.3687 46.3461 69.1132 47.1712 69.1132C49.564 69.1132 51.4617 67.2933 51.6268 64.8943L52.0393 56.4565" fill="#B3BDCA"/>
<path d="M48.7383 59.2692L52.2037 76.7237C52.3687 77.551 53.1938 78.13 54.0189 77.9646C56.3292 77.4682 57.8969 75.3174 57.5669 72.9185L55.5041 59.4346" fill="#B3BDCA"/>
<path d="M6.8237 48.5152L53.277 62.7435C55.3398 63.4053 57.485 62.2472 58.1451 60.1791L66.4786 32.8805C67.1387 30.8125 65.9836 28.6617 63.9208 27.9999L17.385 13.7715C15.3223 13.1097 13.177 14.2678 12.5169 16.3359L4.18337 43.6345C3.6058 45.7026 4.76094 47.9361 6.8237 48.5152Z" fill="url(#paint0_linear)"/>
<path d="M56.5769 56.2084C56.4944 56.2084 56.4119 56.2084 56.3294 56.2084L40.0748 51.2451C39.6623 51.0796 39.4147 50.666 39.4973 50.2524C39.6623 49.8388 40.0748 49.5906 40.4874 49.6733L56.7419 54.6367C57.1545 54.8021 57.402 55.2158 57.3195 55.6294C57.237 55.9603 56.9069 56.2084 56.5769 56.2084Z" fill="url(#paint1_linear)"/>
<path d="M54.6793 50.1696C54.5968 50.1696 54.5143 50.1696 54.4318 50.1696L35.1244 44.2136C34.7118 44.0481 34.4643 43.6345 34.5468 43.2209C34.7118 42.8073 35.1244 42.5591 35.5369 42.6418L54.8443 48.5979C55.2569 48.7633 55.5044 49.1769 55.4219 49.5906C55.3394 49.9215 55.0094 50.1696 54.6793 50.1696Z" fill="url(#paint2_linear)"/>
<path d="M63.0958 44.8754C68.954 46.1989 76.0499 47.8534 80.0104 48.7633C81.9081 49.177 83.3108 50.5833 83.8884 52.4859C84.631 55.2157 85.7036 59.1865 86.2812 62.1645C87.2713 67.1279 87.2713 71.4295 90.6542 76.5583C90.9842 77.0546 91.3968 77.6337 91.7268 78.13C92.4694 79.1227 92.3869 80.529 91.6443 81.5217C91.6443 81.5217 84.631 88.1395 81.4131 91.2003C80.4229 92.1102 78.9377 92.2757 77.7826 91.5311C74.5647 89.5458 68.2114 85.5751 66.2312 83.8379C63.5083 81.5217 61.3631 78.6264 59.7128 75.152C58.0626 71.6776 57.155 69.0305 51.2968 63.2399C48.4089 60.4273 46.2637 57.8629 44.696 56.043C43.2933 54.3058 43.3758 51.7414 45.026 50.1696C46.7587 48.4325 49.5641 48.4325 51.2968 50.1696L65.8186 64.6462C65.8186 64.6462 63.6733 62.3299 64.4984 56.2911L60.2079 54.1403" fill="#CED7E2"/>
<path d="M67.3861 65.9697C66.891 65.5561 66.3134 64.977 65.8184 64.3152L67.3861 65.9697Z" fill="white"/>
<path d="M67.3861 65.9697C66.891 65.5561 66.3134 64.977 65.8184 64.3152" stroke="#3C404E" stroke-miterlimit="10" stroke-linecap="round" stroke-linejoin="round"/>
<path d="M45.935 55.1492C46.2656 55.5523 46.6789 56.0361 47.0922 56.52C47.4229 56.9231 48.0841 57.0038 48.4974 56.6006L51.6384 53.7783C52.0517 53.3752 52.0517 52.8107 51.6384 52.4075L50.3985 51.0367C49.8199 50.4723 48.9934 50.1497 48.2494 50.1497C47.4229 50.1497 46.5963 50.4723 46.0177 51.1174C44.9431 52.2463 45.0258 54.0202 45.935 55.1492Z" fill="white"/>
<path d="M25.801 41.07C25.966 41.07 26.0485 41.07 26.2136 40.9873C26.7086 40.7392 27.0387 40.1601 26.7911 39.6638C26.3786 38.5056 26.2961 37.2648 26.7086 36.1067C27.1212 34.9485 27.8638 33.9559 28.8539 33.2941C29.349 32.9632 29.4315 32.3014 29.1839 31.8878C28.8539 31.3915 28.1938 31.3087 27.7813 31.5569C26.3786 32.4669 25.306 33.8731 24.8109 35.5276C24.3158 37.1821 24.3158 38.9192 24.9759 40.491C25.0584 40.8219 25.3885 41.07 25.801 41.07Z" fill="white"/>
<path d="M21.6752 43.2209C21.8402 43.2209 21.9227 43.2209 22.0877 43.1381C22.5828 42.89 22.8303 42.3109 22.5828 41.7318C21.5927 39.4983 21.4277 36.9339 22.1702 34.6177C22.9128 32.3014 24.4805 30.3161 26.6258 29.0752C27.1209 28.7443 27.2859 28.1653 26.9558 27.6689C26.6258 27.1726 26.0482 27.0072 25.5532 27.338C22.9953 28.8271 21.0976 31.226 20.19 34.0386C19.2824 36.8512 19.4474 39.9119 20.6851 42.6418C20.8501 43.0554 21.2626 43.2209 21.6752 43.2209Z" fill="white"/>
<path d="M17.715 45.289C17.88 45.289 18.045 45.289 18.1276 45.2063C18.6226 44.9581 18.8701 44.379 18.6226 43.8C17.1374 40.4911 16.8899 36.7685 17.9625 33.2942C19.0352 29.8198 21.428 26.9245 24.5634 25.1046C25.0584 24.8564 25.2234 24.1946 24.9759 23.6983C24.7284 23.2019 24.0683 23.0365 23.5732 23.2847C19.9428 25.3527 17.3024 28.6617 16.0648 32.6324C14.8271 36.6031 15.0747 40.822 16.8074 44.6272C16.9724 45.0408 17.385 45.289 17.715 45.289Z" fill="white"/>
<path d="M59.3461 37.3362C59.9816 35.2855 58.8386 33.1067 56.7932 32.4696C54.7479 31.8325 52.5746 32.9784 51.9392 35.029C51.3037 37.0797 52.4467 39.2585 54.492 39.8956C56.5374 40.5327 58.7107 39.3868 59.3461 37.3362Z" fill="url(#paint3_linear)"/>
<path d="M50.7188 38.5057C52.8606 38.5057 54.5968 36.765 54.5968 34.6177C54.5968 32.4704 52.8606 30.7297 50.7188 30.7297C48.5771 30.7297 46.8408 32.4704 46.8408 34.6177C46.8408 36.765 48.5771 38.5057 50.7188 38.5057Z" fill="url(#paint4_linear)"/>
<path d="M56.7362 18.9915L50.7222 21.8076L49.0745 20.7309L45.3672 18.1633C44.2962 17.4178 43.7196 16.1755 43.8843 14.9331L44.0491 13.6078L43.2252 13.1109C41.9895 12.2826 41.4952 10.7089 41.9071 9.30088L41.9895 9.0524C40.7537 8.14131 40.177 6.48479 40.7537 4.99391L41.0833 4L51.9579 10.5433C53.7704 11.62 55.0885 13.2765 55.83 15.2644C55.9948 15.6785 56.0771 16.0926 56.1595 16.4239L56.7362 18.9915Z" fill="#CED7E2"/>
<path d="M42.0715 9.05237L46.685 11.7028" stroke="white" stroke-miterlimit="10" stroke-linecap="round" stroke-linejoin="round"/>
<path d="M44.0493 13.6906L48.6628 16.341" stroke="white" stroke-miterlimit="10" stroke-linecap="round" stroke-linejoin="round"/>
<path d="M87.4657 33.8173L87.301 34.0658C86.3123 35.2253 84.7471 35.6395 83.4289 35.0597L82.6051 34.7284L81.6165 35.5566C80.6279 36.3849 79.3097 36.5505 78.074 36.0536L73.6252 34.1486L72.1423 33.486L71.2361 26.8599L73.6252 25.9488C73.9548 25.866 74.2019 25.7003 74.5314 25.6175C76.6734 25.0377 78.8978 25.2862 80.875 26.2801L92.244 31.8294L91.5849 32.6577C90.5963 33.9829 88.9486 34.4799 87.4657 33.8173Z" fill="#CED7E2"/>
<path d="M87.4658 33.8173L82.6875 31.4153" stroke="white" stroke-miterlimit="10" stroke-linecap="round" stroke-linejoin="round"/>
<path d="M82.5224 34.7283L77.7441 32.2435" stroke="white" stroke-miterlimit="10" stroke-linecap="round" stroke-linejoin="round"/>
<path d="M70.7111 36.7244C70.0509 37.4642 69.3906 38.122 68.5653 38.6974C68.4002 38.8618 68.2351 38.9439 68.07 39.0261C67.4923 39.437 66.8322 39.8478 66.172 40.0944C65.9244 40.1766 65.6768 40.3409 65.3467 40.4231C63.7787 40.9984 62.0456 41.3272 60.395 41.245C60.0649 41.245 59.7347 41.2453 59.4871 41.1631C58.9919 41.0809 58.4143 40.9985 57.9191 40.9163C55.9384 40.5054 54.0401 39.6014 52.3895 38.2041C46.9426 33.6014 46.2 25.3819 50.9041 19.875C55.5258 14.3681 63.7786 13.7107 69.2256 18.3134C71.1237 19.9573 72.5266 22.0944 73.2694 24.5601C74.5073 28.8341 73.5171 33.4367 70.7111 36.7244Z" fill="url(#paint5_linear)"/>
<path d="M68.4898 34.753C68.0034 35.3236 67.4359 35.8125 66.8684 36.3015C66.7874 36.383 66.6252 36.4644 66.4631 36.5459C65.9767 36.8719 65.4904 37.1164 65.004 37.3609C64.7608 37.4424 64.5986 37.5241 64.3554 37.6056C63.1394 38.0947 61.8424 38.2575 60.5453 38.2575C60.3021 38.2575 60.0588 38.2574 59.8156 38.1759C59.4102 38.0944 59.0049 38.0947 58.5995 38.0132C57.0592 37.6871 55.6 36.9535 54.3029 35.894C50.0874 32.3079 49.601 25.9508 53.168 21.7941C56.735 17.556 63.0583 17.0666 67.1928 20.6528C68.652 21.9568 69.787 23.5872 70.2734 25.4618C71.4084 28.6404 70.6786 32.1449 68.4898 34.753Z" stroke="#ED541D" stroke-width="1.5" stroke-miterlimit="10"/>
<path d="M57.2643 34.2573C56.897 34.0726 56.438 33.7957 56.0707 33.6111C56.438 32.965 56.8052 32.3189 57.1725 31.6727C56.438 31.2112 55.7035 30.842 54.969 30.3805C55.6117 29.5498 55.7035 29.4574 55.8871 29.2728C55.9789 29.1805 55.9789 29.1805 56.0707 29.2728C56.2544 29.3651 56.5298 29.5498 56.7134 29.6421C57.0807 29.8267 57.1725 29.7344 57.3561 29.4574C58.1824 27.8883 59.1005 26.2268 59.9268 24.6576C60.2022 24.1961 60.0186 23.8269 59.6514 23.6423C59.3759 23.4577 59.1005 23.3654 58.8251 23.1808C59.0087 22.8116 59.2841 22.4423 59.4677 21.9808C59.9268 22.1654 60.7531 22.627 61.4876 23.0885C61.5794 23.1808 61.5794 23.1808 61.6712 22.9962C61.8548 22.5346 62.4975 21.5193 62.6811 21.1501C63.0484 21.3347 63.5074 21.6116 63.8747 21.7962C63.5074 22.4423 63.1402 23.0885 62.7729 23.7346C63.0484 23.9192 63.3238 24.0115 63.6911 24.1961C64.0583 23.55 64.4255 22.9039 64.7928 22.2577C65.16 22.4423 65.5273 22.6269 65.8945 22.8116C65.8027 22.9962 64.8846 24.6576 64.8846 24.7499C64.8846 24.8422 64.8846 24.8422 64.8846 24.9346C66.17 25.8576 66.9963 26.8729 66.4454 28.2575C66.2618 28.719 65.8945 29.1805 65.4355 29.3651C65.0682 29.5498 64.7928 29.5498 64.5174 29.5498C64.7928 29.8267 65.5273 30.5651 65.3437 31.6727C65.2518 32.1343 65.0682 32.5035 64.7928 32.8727C64.5174 33.2419 64.1501 33.5188 63.7829 33.7957C63.3238 34.0726 62.7729 34.0727 62.2221 33.9803C61.5794 33.888 60.9367 33.7034 60.3859 33.4265C60.294 33.4265 60.294 33.4265 60.2022 33.5188C59.9268 34.0727 59.6514 34.6265 59.1923 35.3649C58.8251 35.1803 58.4578 34.9957 58.0906 34.8111C58.4578 34.165 58.8251 33.5188 59.1005 32.8727C58.8251 32.6881 58.5496 32.5958 58.1824 32.4112C57.907 32.965 57.6315 33.6111 57.2643 34.2573ZM60.3859 28.5344C59.9268 29.3651 59.4677 30.1959 59.0087 31.0266C60.2022 31.6727 60.8449 32.042 61.6712 32.042C62.1303 32.042 62.4975 31.8574 62.6811 31.4881C62.9566 31.1189 62.9566 30.6574 62.6811 30.2882C62.3139 29.4574 61.1203 28.9036 60.3859 28.5344ZM62.2221 25.1192C61.8548 25.8576 61.3958 26.596 61.0285 27.3345C61.3958 27.6114 62.3139 28.0729 62.7729 28.1652C64.1501 28.4421 64.6092 27.1498 64.0583 26.5037C63.5074 25.7653 62.7729 25.4884 62.2221 25.1192Z" fill="url(#paint6_linear)"/>
<path d="M8.12361 58.8317C9.11876 58.8317 10.0033 58.0557 10.0033 56.9471C10.0033 55.9494 9.22933 55.0626 8.12361 55.0626C7.0179 55.1734 6.2439 55.9494 6.2439 57.058C6.2439 58.0557 7.0179 58.8317 8.12361 58.8317Z" fill="url(#paint7_linear)"/>
<path d="M10.6429 89.0438C11.638 89.0438 12.5226 88.2678 12.5226 87.1592C12.5226 86.1615 11.7486 85.2747 10.6429 85.2747C9.64776 85.2747 8.76318 86.0507 8.76318 87.1592C8.87376 88.2678 9.64776 89.0438 10.6429 89.0438Z" fill="#EAEEF9"/>
<path d="M31.3188 74.9158C32.3777 74.9158 33.3188 74.0922 33.3188 72.9158C33.3188 71.8569 32.4953 70.9158 31.3188 70.9158C30.26 70.9158 29.3188 71.7393 29.3188 72.9158C29.4365 74.0922 30.26 74.9158 31.3188 74.9158Z" fill="url(#paint8_linear)"/>
<path d="M90.475 7.54741C91.4701 7.54741 92.2441 6.77141 92.2441 5.77371C92.2441 4.776 91.4701 4 90.475 4C89.4798 4 88.7058 4.776 88.7058 5.77371C88.7058 6.77141 89.4798 7.54741 90.475 7.54741Z" fill="url(#paint9_linear)"/>
<path d="M87.3897 19.988C89.0483 18.436 89.1589 15.8863 87.6109 14.2235C86.0629 12.5606 83.5197 12.4497 81.7506 14.0017C80.092 15.5537 79.9814 18.1034 81.5294 19.7663C83.0774 21.4291 85.6206 21.54 87.3897 19.988Z" fill="#EAEEF9"/>
<defs>
<linearGradient id="paint0_linear" x1="66.6645" y1="62.9299" x2="-2.99621" y2="27.6123" gradientUnits="userSpaceOnUse">
<stop stop-color="#333643"/>
<stop offset="1" stop-color="#676C84"/>
</linearGradient>
<linearGradient id="paint1_linear" x1="39.4763" y1="52.9315" x2="57.3855" y2="52.9315" gradientUnits="userSpaceOnUse">
<stop stop-color="white"/>
<stop offset="1" stop-color="#CED7E2"/>
</linearGradient>
<linearGradient id="paint2_linear" x1="34.525" y1="46.3961" x2="55.4965" y2="46.3961" gradientUnits="userSpaceOnUse">
<stop stop-color="white"/>
<stop offset="1" stop-color="#CED7E2"/>
</linearGradient>
<linearGradient id="paint3_linear" x1="54.4898" y1="39.8972" x2="56.8089" y2="32.4516" gradientUnits="userSpaceOnUse">
<stop stop-color="white"/>
<stop offset="1" stop-color="#CED7E2"/>
</linearGradient>
<linearGradient id="paint4_linear" x1="46.8386" y1="34.616" x2="54.6186" y2="34.616" gradientUnits="userSpaceOnUse">
<stop stop-color="white"/>
<stop offset="1" stop-color="#CED7E2"/>
</linearGradient>
<linearGradient id="paint5_linear" x1="51.3368" y1="38.798" x2="70.0598" y2="18.2929" gradientUnits="userSpaceOnUse">
<stop stop-color="#FF5824"/>
<stop offset="1" stop-color="#FF9A24"/>
</linearGradient>
<linearGradient id="paint6_linear" x1="56.3923" y1="20.6322" x2="69.5398" y2="30.91" gradientUnits="userSpaceOnUse">
<stop stop-color="white"/>
<stop offset="0.367501" stop-color="#FFF0E2"/>
<stop offset="1" stop-color="#FFD6AF"/>
</linearGradient>
<linearGradient id="paint7_linear" x1="6.7561" y1="58.4751" x2="9.47092" y2="55.5096" gradientUnits="userSpaceOnUse">
<stop stop-color="#FF5824"/>
<stop offset="1" stop-color="#FF9A24"/>
</linearGradient>
<linearGradient id="paint8_linear" x1="33.3188" y1="74.9158" x2="28.4958" y2="72.9892" gradientUnits="userSpaceOnUse">
<stop stop-color="#333643"/>
<stop offset="1" stop-color="#676C84"/>
</linearGradient>
<linearGradient id="paint9_linear" x1="89.1879" y1="7.21184" x2="91.743" y2="4.4207" gradientUnits="userSpaceOnUse">
<stop stop-color="#FF5824"/>
<stop offset="1" stop-color="#FF9A24"/>
</linearGradient>
</defs>
</svg>
