<svg width="14" height="24" viewBox="0 0 14 24" fill="none" xmlns="http://www.w3.org/2000/svg">
<path d="M13.7623 8.2312C13.6967 8.09039 13.5555 8.00002 13.3999 8.00002H8.65989L13.3379 0.614016C13.4159 0.490828 13.4207 0.334828 13.3503 0.207234C13.2799 0.0792188 13.1454 0 12.9999 0H6.59987C6.44828 0 6.30985 0.0855937 6.24189 0.221203L0.241886 12.2212C0.17987 12.3448 0.186667 12.492 0.259464 12.61C0.332682 12.728 0.461073 12.8 0.59987 12.8H4.71306L0.231057 23.4448C0.154651 23.6268 0.222667 23.838 0.391042 23.9412C0.455823 23.9808 0.527823 24 0.599448 24C0.714245 24 0.827448 23.9507 0.90587 23.858L13.7059 8.65795C13.8062 8.5388 13.8279 8.37239 13.7623 8.2312Z" fill="#FF5824"/>
</svg>
