<svg width="735" height="589" viewBox="0 0 735 589" fill="none" xmlns="http://www.w3.org/2000/svg">
<path d="M645.558 356.394C647.495 356.07 649.79 356.385 652.295 357.444L668.221 378.385C668.573 381.081 668.263 383.377 667.434 385.158L667.911 385.764L663.358 389.358C661.103 391.192 657.713 391.568 653.715 390.073C649.5 388.491 645.88 385.692 642.832 381.61C639.713 377.583 637.555 372.786 637.157 368.301C636.784 364.049 638.051 360.883 640.422 359.199L645.101 355.772L645.558 356.394Z" fill="url(#paint0_linear)"/>
<path d="M667.127 385.429C667.332 385.016 667.504 384.576 667.652 384.104L658.193 390.962C658.692 390.972 659.201 390.91 659.66 390.846L667.127 385.429Z" fill="url(#paint1_linear)"/>
<path d="M652.392 357.534C651.287 357.074 650.216 356.774 649.203 356.592L637.227 365.156C637.176 365.508 637.141 365.863 637.113 366.226L649.916 357.078L650.827 358.309L637.144 368.079C637.148 368.182 637.16 368.292 637.164 368.395C637.183 368.592 637.209 368.799 637.234 369.005L651.308 358.959L652.218 360.19L637.537 370.662C637.595 370.951 637.662 371.233 637.729 371.516L652.69 360.847L653.601 362.078L638.191 373.078C638.277 373.347 638.372 373.61 638.467 373.872L654.082 362.728L654.992 363.959L639.064 375.312C639.178 375.562 639.292 375.811 639.406 376.061L655.464 364.615L656.375 365.846L640.116 377.457C640.248 377.693 640.381 377.93 640.513 378.166L656.846 366.503L657.757 367.734L641.31 379.46C641.461 379.683 641.612 379.906 641.763 380.13L658.238 368.384L659.148 369.615L642.66 381.403C642.82 381.62 642.99 381.83 643.159 382.04L659.629 370.265L660.54 371.496L644.141 383.186C644.32 383.389 644.508 383.586 644.697 383.784L661.03 372.14L661.941 373.371L645.762 384.892C645.96 385.082 646.167 385.266 646.374 385.45L662.422 374.021L663.332 375.252L647.566 386.476C647.783 386.653 647.994 386.849 648.229 387.013L663.813 375.902L664.724 377.133L649.567 387.942C649.811 388.1 650.071 388.26 650.318 388.402L665.205 377.784L666.115 379.014L651.785 389.248C652.073 389.388 652.344 389.539 652.628 389.655L666.596 379.665L667.507 380.896L654.355 390.315C654.705 390.424 655.018 390.531 655.351 390.599L667.997 381.539L668.081 381.652C668.176 380.767 668.195 379.816 668.113 378.806C667.946 376.839 667.437 374.81 666.648 372.807L657.735 360.757C656.063 359.416 654.261 358.3 652.392 357.534Z" fill="url(#paint2_linear)"/>
<path d="M646.732 355.955C646.35 355.975 645.979 356.012 645.618 356.081L645.485 355.898L638.816 360.807C638.518 361.262 638.188 361.772 637.98 362.313L646.732 355.955Z" fill="url(#paint3_linear)"/>
<path d="M657.546 386.401C649.578 383.027 642.508 373.405 641.753 364.907C640.997 356.409 646.854 352.249 654.831 355.616C662.799 358.991 669.869 368.613 670.624 377.111C671.371 385.615 665.523 389.769 657.546 386.401Z" fill="url(#paint4_linear)"/>
<path opacity="0.2" d="M657.03 375.492C662.898 377.974 667.617 376.368 669.408 371.963C666.972 365.016 661.159 358.269 654.752 355.569C648.884 353.087 644.165 354.693 642.374 359.098C644.816 366.054 650.632 372.786 657.03 375.492Z" fill="white"/>
<path opacity="0.7" d="M657.668 386.362C649.669 382.996 642.597 373.335 641.871 364.782C641.518 360.645 642.725 357.536 644.96 355.794C642.419 357.447 641.023 360.703 641.387 365.127C642.114 373.68 649.186 383.341 657.185 386.707C661.316 388.444 664.896 388.151 667.283 386.288C664.912 387.845 661.537 387.991 657.668 386.362Z" fill="white"/>
<path d="M657.233 382.802C651.125 380.222 645.701 372.841 645.129 366.329C644.557 359.817 649.037 356.635 655.145 359.214C661.253 361.794 666.676 369.175 667.248 375.687C667.821 382.199 663.341 385.382 657.233 382.802Z" fill="url(#paint5_linear)"/>
<path d="M654.382 359.654C660.52 362.238 665.958 369.665 666.516 376.228C666.775 379.315 665.914 381.666 664.295 383.023C666.336 381.784 667.458 379.247 667.168 375.763C666.61 369.199 661.173 361.773 655.034 359.189C651.783 357.817 648.981 358.078 647.148 359.603C648.972 358.505 651.503 358.436 654.382 359.654Z" fill="url(#paint6_linear)"/>
<path d="M694.838 315.715C694.77 315.852 688.061 329.74 675.271 346.709C667.743 356.699 659.601 365.804 651.075 373.775C640.343 383.808 628.953 392.069 617.227 398.325C573.503 421.658 553.032 421.299 529.325 420.885C513.364 420.605 495.276 420.288 466.803 427.645C430.608 437.001 410.613 453.874 387.459 473.413C372.43 486.094 356.884 499.212 335.245 511.722C307.498 527.763 280.128 535.279 253.894 534.071C250.985 533.937 248.098 533.697 245.244 533.349C230.89 531.613 217.29 527.214 204.708 520.228C201.334 518.356 197.556 515.949 193.558 513.402C180.221 504.908 162.343 493.516 141.751 491.025C139.992 490.812 138.214 490.665 136.419 490.587C107.483 489.365 27.9087 508.006 27.107 508.193L27.3209 505.107C30.6277 504.327 108.659 486.056 138.445 487.312C140.373 487.393 142.275 487.55 144.154 487.778C165.604 490.375 183.806 501.971 197.393 510.622C201.356 513.151 205.104 515.536 208.413 517.372C217.46 522.396 230.737 527.941 247.592 529.983C270.209 532.724 299.268 529.149 333.191 509.54C354.236 497.372 369.529 484.468 384.317 471.991C407.207 452.674 428.833 434.429 466.856 424.605C496.292 416.998 514.849 417.321 531.221 417.608C554.875 418.022 573.555 418.35 615.421 396.01C640.693 382.525 659.704 361.518 671.206 346.271C683.764 329.623 690.342 316.019 690.408 315.884L694.838 315.715Z" fill="#C0CDDE"/>
<path d="M27.3179 505.099L6.05818 454.866C9.365 454.085 87.3959 435.814 117.182 437.07C119.111 437.151 121.012 437.309 122.891 437.537C144.341 440.133 162.544 451.729 176.131 460.381C180.094 462.91 183.841 465.294 187.15 467.131C196.197 472.154 209.475 477.7 226.329 479.741C248.946 482.482 278.005 478.908 311.928 459.298C332.973 447.13 348.266 434.226 363.054 421.749C385.944 402.433 407.57 384.187 445.593 374.363C475.029 366.757 493.586 367.08 509.958 367.366C533.612 367.78 552.292 368.109 594.159 345.768C619.43 332.283 638.441 311.277 649.943 296.03C662.501 279.381 669.079 265.777 669.145 265.643L690.405 315.877C690.339 316.011 683.761 329.615 671.203 346.263C659.704 361.513 640.69 382.517 615.418 396.002C573.55 418.345 554.868 418.02 531.216 417.603C514.844 417.316 496.284 416.991 466.851 424.6C428.826 434.426 407.202 452.669 384.312 471.986C369.523 484.463 354.233 497.369 333.185 509.535C299.263 529.144 270.201 532.717 247.587 529.978C230.732 527.936 217.455 522.391 208.407 517.367C205.098 515.531 201.353 513.143 197.388 510.617C183.801 501.966 165.599 490.37 144.149 487.773C142.27 487.545 140.368 487.388 138.44 487.307C108.656 486.048 30.6226 504.322 27.3179 505.099Z" fill="url(#paint7_linear)"/>
<path d="M729.423 222.954L734.55 223.576L708.664 347.055L703.534 346.43L729.423 222.954Z" fill="#C0CDDE"/>
<path d="M729.438 222.964L703.747 346.491L654.543 234.791L729.438 222.964Z" fill="#E3ECF8"/>
<path d="M451.562 57.8633L448.993 61.7819L494.234 152.7L496.803 148.781L451.562 57.8633Z" fill="#BAC6D5"/>
<path d="M496.725 148.87L494.234 152.723L541.812 111.097L544.303 107.241L496.725 148.87Z" fill="#BAC6D5"/>
<path d="M451.573 57.9779L496.73 148.913L544.305 107.243L451.573 57.9779Z" fill="#CED7E2"/>
<path d="M446.363 272.159L425.659 231.442C427.241 234.554 428.074 237.836 428.171 241.303C428.35 247.76 425.856 254.934 420.728 262.769C415.568 270.652 407.744 279.206 397.285 288.373C392.508 292.56 386.07 296.992 378.938 300.891C364.25 308.923 346.251 317.85 331.371 340.592C318.509 360.247 319.837 376.35 320.902 389.292C321.656 398.432 322.304 406.328 317.925 413.021L338.63 453.738C343.009 447.048 342.358 439.151 341.607 430.009C340.542 417.067 339.214 400.963 352.076 381.308C366.958 358.57 384.958 349.64 399.643 341.608C406.774 337.709 413.213 333.277 417.99 329.089C428.449 319.922 436.273 311.369 441.433 303.486C446.561 295.651 449.055 288.477 448.876 282.02C448.779 278.553 447.946 275.271 446.363 272.159Z" fill="url(#paint8_linear)"/>
<path d="M450.07 270.278L429.365 229.562C425.154 221.28 415.946 214.2 401.532 208.104C384.466 200.883 362.804 196.253 345.399 192.534C340.341 191.451 335.559 190.428 331.281 189.431C311.531 184.819 298.141 176.227 292.604 165.341L313.309 206.058C318.846 216.943 332.236 225.539 351.986 230.148C356.264 231.145 361.046 232.168 366.103 233.251C383.509 236.97 405.168 241.6 422.237 248.821C436.651 254.917 445.859 261.997 450.07 270.278Z" fill="url(#paint9_linear)"/>
<path d="M288.936 167.272C285.434 160.388 284.936 152.696 287.53 144.69C288.688 141.108 290.427 137.55 292.731 134.03C295.658 129.557 299.501 125.147 304.228 120.842C313.058 112.806 324.537 105.562 338.355 99.3133C353.901 92.2793 371.26 87.0336 389.94 83.722C404.823 81.0821 420.578 79.6547 436.776 79.4804C446.613 79.373 455.433 79.7494 462.719 80.2779L482.917 120.919C476.728 120.573 465.148 120.112 457.481 120.194C441.285 120.369 425.531 121.796 410.645 124.436C391.964 127.748 374.609 132.993 359.06 140.027C345.242 146.276 333.76 153.52 324.933 161.556C320.206 165.861 316.363 170.271 313.435 174.744C311.132 178.264 309.396 181.823 308.235 185.404C305.641 193.41 306.139 201.099 309.641 207.986L288.936 167.272Z" fill="url(#paint10_linear)"/>
<path d="M313.434 174.745C311.13 178.266 309.394 181.824 308.233 185.406C304.869 195.79 306.709 205.646 313.554 213.898C320.69 222.508 333.138 229.082 349.55 232.913C353.854 233.918 358.651 234.941 363.726 236.028C381.015 239.726 402.535 244.325 419.382 251.454C438.885 259.707 448.532 269.703 448.871 282.019C449.05 288.476 446.556 295.65 441.428 303.485C436.268 311.368 428.444 319.922 417.985 329.089C413.208 333.276 407.07 336.858 399.938 340.758C385.25 348.789 366.95 358.566 352.071 381.305C339.209 400.96 340.537 417.063 341.602 430.005C342.356 439.145 343.004 447.042 338.625 453.734L342.007 453.932C346.92 446.426 346.241 438.196 345.458 428.664C344.365 415.388 343.125 400.342 355.453 381.503C369.623 359.85 386.419 350.896 401.219 342.804C408.399 338.878 415.156 334.957 420.477 330.292C431.316 320.788 439.518 311.829 444.877 303.643C445.096 303.312 445.311 302.98 445.518 302.648C450.493 294.766 452.92 287.406 452.737 280.764C452.376 267.794 442.402 257.341 422.236 248.81C405.168 241.59 383.509 236.959 366.103 233.24C361.045 232.158 356.264 231.135 351.986 230.137C320.638 222.819 305.309 205.461 311.987 184.84C313.078 181.466 314.717 178.123 316.867 174.835C324.767 162.762 339.603 151.469 359.854 142.309C393.975 126.874 430.918 123.313 455.898 123.043C464.871 122.946 472.983 123.253 479.827 123.713L482.916 120.912C475.697 120.396 467.164 120.083 457.48 120.187C441.284 120.362 425.53 121.789 410.644 124.429C391.963 127.74 374.608 132.986 359.059 140.02C345.241 146.269 333.759 153.513 324.932 161.549C320.204 165.862 316.361 170.272 313.434 174.745Z" fill="#BAC6D5"/>
<g filter="url(#filter0_f)">
<path d="M521.308 398.876C503.396 399.694 480.432 396.378 470.057 391.475C459.682 386.573 465.781 381.942 483.692 381.124C501.604 380.306 524.568 383.622 534.943 388.525C545.318 393.427 539.219 398.058 521.308 398.876Z" fill="url(#paint11_linear)"/>
</g>
<path d="M461.512 298.705C465.483 295.364 471.127 292.995 478.247 292.037L542.616 318.254C547.041 323.914 549.424 329.551 549.931 334.717L551.831 335.454L546.308 349.747C543.644 356.952 536.441 362.363 525.338 364.337C513.625 366.405 501.629 364.906 489.21 359.719C476.702 354.753 465.347 346.742 458.412 337.079C451.847 327.909 450.475 319.006 453.602 311.99L459.637 297.905L461.512 298.705Z" fill="url(#paint12_linear)"/>
<path d="M549.596 335.746C549.508 334.532 549.308 333.301 549.008 332.027L536.716 360.341C537.864 359.69 538.937 358.867 539.897 358.104L549.596 335.746Z" fill="url(#paint13_linear)"/>
<path d="M478.587 292.112C475.454 292.551 472.615 293.309 470.067 294.255L454.342 329.831C454.701 330.701 455.098 331.554 455.521 332.419L472.343 294.402L476.069 295.977L458.082 336.593C458.231 336.818 458.405 337.055 458.553 337.281C458.862 337.706 459.197 338.141 459.532 338.577L478.036 296.81L481.762 298.385L462.449 341.938C462.969 342.517 463.502 343.069 464.034 343.621L483.718 299.245L487.443 300.82L467.183 346.553C467.74 347.05 468.31 347.519 468.879 347.989L489.411 301.652L493.137 303.228L472.173 350.46C472.768 350.875 473.362 351.29 473.956 351.704L495.092 304.088L498.818 305.663L477.448 353.924C478.067 354.284 478.685 354.644 479.304 355.003L500.774 306.523L504.499 308.098L482.856 356.875C483.5 357.18 484.144 357.484 484.787 357.789L506.467 308.931L510.193 310.506L488.538 359.481C489.194 359.758 489.862 360.008 490.531 360.258L512.161 311.338L515.887 312.914L494.304 361.543C494.985 361.766 495.678 361.961 496.37 362.156L517.867 313.719L521.592 315.294L500.284 363.244C500.989 363.411 501.707 363.552 502.425 363.692L523.56 316.126L527.286 317.702L506.517 364.422C507.247 364.535 507.99 364.696 508.745 364.754L529.254 318.534L532.98 320.11L513.038 365.067C513.805 365.098 514.61 365.112 515.363 365.104L534.947 320.942L538.673 322.517L519.837 365.055C520.679 364.987 521.5 364.965 522.302 364.847L540.641 323.35L544.367 324.925L527.118 364.027C528.06 363.805 528.914 363.628 529.764 363.335L546.347 325.73L546.688 325.874C545.715 323.732 544.481 321.545 542.935 319.357C539.912 315.108 536.026 311.179 531.54 307.682L495.07 292.259C489.467 291.457 483.867 291.342 478.587 292.112Z" fill="url(#paint14_linear)"/>
<path d="M463.591 296.128C462.749 296.689 461.956 297.271 461.227 297.912L460.677 297.675L452.112 317.805C452.044 319.24 451.979 320.844 452.235 322.354L463.591 296.128Z" fill="url(#paint15_linear)"/>
<path d="M529.114 350.835C506.456 353.872 477.442 341.492 464.301 323.18C451.16 304.869 458.888 287.534 481.558 284.47C504.215 281.434 533.229 293.814 546.37 312.125C559.499 330.464 551.784 347.772 529.114 350.835Z" fill="url(#paint16_linear)"/>
<path opacity="0.2" d="M513.277 326.717C529.961 324.474 538.533 314.479 536.685 302.052C521.807 289.526 499.516 281.996 481.315 284.468C464.632 286.711 456.06 296.706 457.908 309.133C472.812 321.671 495.089 329.162 513.277 326.717Z" fill="white"/>
<path opacity="0.7" d="M529.34 350.582C506.622 353.679 477.552 341.214 464.402 322.737C458.038 313.803 456.604 305.111 459.347 298.144C455.788 305.319 456.991 314.602 463.766 324.172C476.916 342.649 505.986 355.114 528.704 352.017C540.433 350.413 548.182 344.937 551.107 337.489C547.808 344.218 540.328 349.088 529.34 350.582Z" fill="white"/>
<path d="M523.565 343.071C506.205 345.414 483.949 335.918 473.893 321.877C463.838 307.836 469.749 294.575 487.108 292.232C504.468 289.889 526.724 299.385 536.78 313.426C546.835 327.467 540.924 340.728 523.565 343.071Z" fill="url(#paint17_linear)"/>
<path d="M485.965 294.258C503.4 291.882 525.749 301.464 535.842 315.641C540.579 322.314 541.781 328.817 539.924 334.08C542.902 328.518 542.043 321.24 536.7 313.706C526.607 299.529 504.258 289.947 486.823 292.323C477.585 293.571 471.563 297.934 469.443 303.864C472.115 298.915 477.781 295.356 485.965 294.258Z" fill="url(#paint18_linear)"/>
<path d="M673.7 173.617C676.221 173.195 679.207 173.605 682.465 174.983L703.183 202.224C703.64 205.732 703.238 208.718 702.159 211.035L702.779 211.824L696.857 216.499C693.923 218.885 689.514 219.375 684.313 217.429C678.829 215.372 674.12 211.731 670.155 206.42C666.097 201.181 663.29 194.94 662.772 189.106C662.287 183.575 663.935 179.457 667.019 177.266L673.106 172.808L673.7 173.617Z" fill="url(#paint19_linear)"/>
<path d="M701.759 211.388C702.026 210.851 702.25 210.279 702.442 209.664L690.137 218.586C690.786 218.598 691.448 218.518 692.046 218.435L701.759 211.388Z" fill="url(#paint20_linear)"/>
<path d="M682.59 175.1C681.153 174.501 679.759 174.111 678.442 173.874L662.863 185.015C662.797 185.473 662.751 185.934 662.714 186.407L679.37 174.506L680.555 176.107L662.754 188.818C662.76 188.951 662.775 189.095 662.781 189.228C662.806 189.485 662.839 189.754 662.872 190.022L681.18 176.953L682.365 178.555L663.266 192.178C663.341 192.554 663.429 192.921 663.516 193.288L682.978 179.409L684.163 181.01L664.116 195.32C664.228 195.671 664.352 196.012 664.476 196.354L684.789 181.856L685.973 183.457L665.253 198.227C665.401 198.552 665.549 198.876 665.697 199.201L686.587 184.312L687.771 185.913L666.621 201.017C666.793 201.324 666.965 201.632 667.137 201.939L688.385 186.768L689.57 188.369L668.174 203.623C668.371 203.913 668.567 204.204 668.764 204.494L690.195 189.215L691.38 190.816L669.93 206.151C670.138 206.433 670.359 206.706 670.58 206.98L692.006 191.662L693.19 193.263L671.857 208.47C672.09 208.735 672.335 208.991 672.58 209.247L693.828 194.1L695.012 195.702L673.966 210.689C674.223 210.937 674.492 211.176 674.761 211.415L695.638 196.548L696.823 198.149L676.313 212.75C676.594 212.981 676.869 213.235 677.174 213.449L697.448 198.995L698.633 200.596L678.916 214.657C679.233 214.862 679.571 215.07 679.892 215.255L699.259 201.442L700.443 203.043L681.801 216.356C682.175 216.538 682.528 216.734 682.898 216.885L701.069 203.889L702.254 205.49L685.145 217.744C685.6 217.886 686.006 218.025 686.44 218.114L702.891 206.328L703 206.474C703.124 205.323 703.149 204.086 703.042 202.772C702.825 200.213 702.162 197.574 701.136 194.968L689.541 179.292C687.367 177.548 685.022 176.096 682.59 175.1Z" fill="url(#paint21_linear)"/>
<path d="M675.227 173.045C674.73 173.072 674.248 173.12 673.779 173.209L673.605 172.971L664.93 179.358C664.542 179.949 664.113 180.613 663.843 181.317L675.227 173.045Z" fill="url(#paint22_linear)"/>
<path d="M689.296 212.652C678.93 208.263 669.733 195.745 668.751 184.691C667.768 173.636 675.387 168.224 685.764 172.605C696.13 176.995 705.327 189.512 706.31 200.566C707.28 211.63 699.673 217.033 689.296 212.652Z" fill="url(#paint23_linear)"/>
<path opacity="0.2" d="M688.625 198.46C696.259 201.69 702.397 199.601 704.728 193.87C701.559 184.832 693.996 176.055 685.662 172.543C678.028 169.314 671.89 171.403 669.559 177.134C672.736 186.183 680.302 194.94 688.625 198.46Z" fill="white"/>
<path opacity="0.7" d="M689.455 212.601C679.049 208.223 669.85 195.655 668.904 184.528C668.445 179.146 670.015 175.102 672.924 172.836C669.617 174.986 667.801 179.223 668.275 184.977C669.22 196.104 678.42 208.671 688.826 213.05C694.2 215.309 698.857 214.929 701.963 212.505C698.879 214.531 694.488 214.721 689.455 212.601Z" fill="white"/>
<path d="M688.889 207.971C680.943 204.615 673.888 195.012 673.143 186.541C672.398 178.07 678.227 173.93 686.172 177.286C694.118 180.642 701.173 190.244 701.918 198.715C702.663 207.186 696.834 211.327 688.889 207.971Z" fill="url(#paint24_linear)"/>
<path d="M685.18 177.858C693.166 181.219 700.239 190.88 700.966 199.419C701.302 203.434 700.182 206.492 698.076 208.258C700.732 206.646 702.191 203.346 701.814 198.814C701.088 190.275 694.015 180.614 686.029 177.253C681.8 175.467 678.154 175.808 675.77 177.791C678.143 176.362 681.436 176.273 685.18 177.858Z" fill="url(#paint25_linear)"/>
<defs>
<filter id="filter0_f" x="425" y="341" width="155" height="98" filterUnits="userSpaceOnUse" color-interpolation-filters="sRGB">
<feFlood flood-opacity="0" result="BackgroundImageFix"/>
<feBlend mode="normal" in="SourceGraphic" in2="BackgroundImageFix" result="shape"/>
<feGaussianBlur stdDeviation="20" result="effect1_foregroundBlur"/>
</filter>
<linearGradient id="paint0_linear" x1="638.929" y1="362.85" x2="655.916" y2="391.688" gradientUnits="userSpaceOnUse">
<stop stop-color="#FBEEB8"/>
<stop offset="0.178709" stop-color="#F6D240"/>
<stop offset="0.267289" stop-color="#F2BC3C"/>
<stop offset="0.467301" stop-color="#E98C35"/>
<stop offset="0.8237" stop-color="#E2632E"/>
<stop offset="0.8238" stop-color="#E2632E"/>
<stop offset="1" stop-color="#D3344A"/>
</linearGradient>
<linearGradient id="paint1_linear" x1="647.488" y1="345.26" x2="643.527" y2="390.26" gradientUnits="userSpaceOnUse">
<stop stop-color="#FBEEB8"/>
<stop offset="0.317708" stop-color="#F6D240"/>
<stop offset="0.508658" stop-color="#F2BC3C"/>
<stop offset="0.6864" stop-color="#E98C35"/>
<stop offset="0.8237" stop-color="#E2632E"/>
<stop offset="0.8238" stop-color="#E2632E"/>
<stop offset="1" stop-color="#D3344A"/>
</linearGradient>
<linearGradient id="paint2_linear" x1="647.488" y1="345.26" x2="643.527" y2="390.26" gradientUnits="userSpaceOnUse">
<stop stop-color="#FBEEB8"/>
<stop offset="0.317708" stop-color="#F6D240"/>
<stop offset="0.508658" stop-color="#F2BC3C"/>
<stop offset="0.6864" stop-color="#E98C35"/>
<stop offset="0.8237" stop-color="#E2632E"/>
<stop offset="0.8238" stop-color="#E2632E"/>
<stop offset="1" stop-color="#D3344A"/>
</linearGradient>
<linearGradient id="paint3_linear" x1="647.488" y1="345.26" x2="643.527" y2="390.26" gradientUnits="userSpaceOnUse">
<stop stop-color="#FBEEB8"/>
<stop offset="0.317708" stop-color="#F6D240"/>
<stop offset="0.508658" stop-color="#F2BC3C"/>
<stop offset="0.6864" stop-color="#E98C35"/>
<stop offset="0.8237" stop-color="#E2632E"/>
<stop offset="0.8238" stop-color="#E2632E"/>
<stop offset="1" stop-color="#D3344A"/>
</linearGradient>
<linearGradient id="paint4_linear" x1="667.148" y1="362.751" x2="645.139" y2="386.968" gradientUnits="userSpaceOnUse">
<stop stop-color="#FEFFFF"/>
<stop offset="0.2019" stop-color="#FBEEB8"/>
<stop offset="0.5238" stop-color="#F6D240"/>
<stop offset="0.5718" stop-color="#F2BC3C"/>
<stop offset="0.6864" stop-color="#E98C35"/>
<stop offset="0.7741" stop-color="#E46E30"/>
<stop offset="0.8237" stop-color="#E2632E"/>
<stop offset="0.8248" stop-color="#E2632E"/>
<stop offset="0.8916" stop-color="#DA493E"/>
<stop offset="0.952" stop-color="#D53947"/>
<stop offset="1" stop-color="#D3344A"/>
</linearGradient>
<linearGradient id="paint5_linear" x1="651.848" y1="350.696" x2="648.301" y2="382.518" gradientUnits="userSpaceOnUse">
<stop stop-color="#FBEEB8"/>
<stop offset="0.317708" stop-color="#F6D240"/>
<stop offset="0.508658" stop-color="#F2BC3C"/>
<stop offset="0.6864" stop-color="#E98C35"/>
<stop offset="0.8237" stop-color="#E2632E"/>
<stop offset="0.8238" stop-color="#E2632E"/>
<stop offset="1" stop-color="#D3344A"/>
</linearGradient>
<linearGradient id="paint6_linear" x1="646.821" y1="361.832" x2="656.293" y2="382.472" gradientUnits="userSpaceOnUse">
<stop stop-color="#FBEEB8"/>
<stop offset="0.178709" stop-color="#F6D240"/>
<stop offset="0.267289" stop-color="#F2BC3C"/>
<stop offset="0.467301" stop-color="#E98C35"/>
<stop offset="0.8237" stop-color="#E2632E"/>
<stop offset="0.8238" stop-color="#E2632E"/>
<stop offset="1" stop-color="#D3344A"/>
</linearGradient>
<linearGradient id="paint7_linear" x1="75.2447" y1="478.199" x2="462.351" y2="107.567" gradientUnits="userSpaceOnUse">
<stop stop-color="#F5FAFF"/>
<stop offset="0.145833" stop-color="#F3F9FF"/>
<stop offset="0.307292" stop-color="#E9F2FD"/>
<stop offset="0.791667" stop-color="#E3ECF8"/>
<stop offset="1" stop-color="#E3ECF8"/>
</linearGradient>
<linearGradient id="paint8_linear" x1="449.718" y1="277.315" x2="300.85" y2="404.996" gradientUnits="userSpaceOnUse">
<stop offset="0.0753566" stop-color="#CED7E2"/>
<stop offset="0.266433" stop-color="#CED7E2"/>
<stop offset="0.741783" stop-color="#E9F2FD"/>
<stop offset="0.888357" stop-color="#F3F9FF"/>
<stop offset="1" stop-color="#F5FAFF"/>
</linearGradient>
<linearGradient id="paint9_linear" x1="409.208" y1="215.173" x2="301.701" y2="198.299" gradientUnits="userSpaceOnUse">
<stop stop-color="#CED7E2"/>
<stop offset="0.266433" stop-color="#CED7E2"/>
<stop offset="0.741783" stop-color="#E9F2FD"/>
<stop offset="0.888357" stop-color="#F3F9FF"/>
<stop offset="1" stop-color="#F5FAFF"/>
</linearGradient>
<linearGradient id="paint10_linear" x1="471.107" y1="110.353" x2="290.136" y2="175.622" gradientUnits="userSpaceOnUse">
<stop stop-color="#CED7E2"/>
<stop offset="0.266433" stop-color="#CED7E2"/>
<stop offset="0.741783" stop-color="#E9F2FD"/>
<stop offset="0.888357" stop-color="#F3F9FF"/>
<stop offset="1" stop-color="#F5FAFF"/>
</linearGradient>
<linearGradient id="paint11_linear" x1="464.142" y1="375.907" x2="468.962" y2="407.562" gradientUnits="userSpaceOnUse">
<stop stop-color="#FBEEB8"/>
<stop offset="0.317708" stop-color="#F6D240"/>
<stop offset="0.508658" stop-color="#F2BC3C"/>
<stop offset="0.6864" stop-color="#E98C35"/>
<stop offset="0.8237" stop-color="#E2632E"/>
<stop offset="0.8238" stop-color="#E2632E"/>
<stop offset="1" stop-color="#D3344A"/>
</linearGradient>
<linearGradient id="paint12_linear" x1="455.115" y1="322.297" x2="532.513" y2="365.05" gradientUnits="userSpaceOnUse">
<stop stop-color="#FBEEB8"/>
<stop offset="0.178709" stop-color="#F6D240"/>
<stop offset="0.267289" stop-color="#F2BC3C"/>
<stop offset="0.467301" stop-color="#E98C35"/>
<stop offset="0.8237" stop-color="#E2632E"/>
<stop offset="0.8238" stop-color="#E2632E"/>
<stop offset="1" stop-color="#D3344A"/>
</linearGradient>
<linearGradient id="paint13_linear" x1="450.935" y1="270.789" x2="502.416" y2="378.456" gradientUnits="userSpaceOnUse">
<stop stop-color="#FBEEB8"/>
<stop offset="0.317708" stop-color="#F6D240"/>
<stop offset="0.508658" stop-color="#F2BC3C"/>
<stop offset="0.6864" stop-color="#E98C35"/>
<stop offset="0.8237" stop-color="#E2632E"/>
<stop offset="0.8238" stop-color="#E2632E"/>
<stop offset="1" stop-color="#D3344A"/>
</linearGradient>
<linearGradient id="paint14_linear" x1="450.935" y1="270.789" x2="502.416" y2="378.456" gradientUnits="userSpaceOnUse">
<stop stop-color="#FBEEB8"/>
<stop offset="0.317708" stop-color="#F6D240"/>
<stop offset="0.508658" stop-color="#F2BC3C"/>
<stop offset="0.6864" stop-color="#E98C35"/>
<stop offset="0.8237" stop-color="#E2632E"/>
<stop offset="0.8238" stop-color="#E2632E"/>
<stop offset="1" stop-color="#D3344A"/>
</linearGradient>
<linearGradient id="paint15_linear" x1="450.935" y1="270.789" x2="502.416" y2="378.456" gradientUnits="userSpaceOnUse">
<stop stop-color="#FBEEB8"/>
<stop offset="0.317708" stop-color="#F6D240"/>
<stop offset="0.508658" stop-color="#F2BC3C"/>
<stop offset="0.6864" stop-color="#E98C35"/>
<stop offset="0.8237" stop-color="#E2632E"/>
<stop offset="0.8238" stop-color="#E2632E"/>
<stop offset="1" stop-color="#D3344A"/>
</linearGradient>
<linearGradient id="paint16_linear" x1="519.161" y1="284.139" x2="501.659" y2="368.804" gradientUnits="userSpaceOnUse">
<stop stop-color="#FEFFFF"/>
<stop offset="0.2019" stop-color="#FBEEB8"/>
<stop offset="0.5238" stop-color="#F6D240"/>
<stop offset="0.5718" stop-color="#F2BC3C"/>
<stop offset="0.6864" stop-color="#E98C35"/>
<stop offset="0.7741" stop-color="#E46E30"/>
<stop offset="0.8237" stop-color="#E2632E"/>
<stop offset="0.8248" stop-color="#E2632E"/>
<stop offset="0.8916" stop-color="#DA493E"/>
<stop offset="0.952" stop-color="#D53947"/>
<stop offset="1" stop-color="#D3344A"/>
</linearGradient>
<linearGradient id="paint17_linear" x1="468.16" y1="277.29" x2="502.87" y2="354.431" gradientUnits="userSpaceOnUse">
<stop stop-color="#FBEEB8"/>
<stop offset="0.317708" stop-color="#F6D240"/>
<stop offset="0.508658" stop-color="#F2BC3C"/>
<stop offset="0.6864" stop-color="#E98C35"/>
<stop offset="0.8237" stop-color="#E2632E"/>
<stop offset="0.8238" stop-color="#E2632E"/>
<stop offset="1" stop-color="#D3344A"/>
</linearGradient>
<linearGradient id="paint18_linear" x1="471.696" y1="309.374" x2="520.985" y2="343.584" gradientUnits="userSpaceOnUse">
<stop stop-color="#FBEEB8"/>
<stop offset="0.178709" stop-color="#F6D240"/>
<stop offset="0.267289" stop-color="#F2BC3C"/>
<stop offset="0.467301" stop-color="#E98C35"/>
<stop offset="0.8237" stop-color="#E2632E"/>
<stop offset="0.8238" stop-color="#E2632E"/>
<stop offset="1" stop-color="#D3344A"/>
</linearGradient>
<linearGradient id="paint19_linear" x1="665.078" y1="182.015" x2="687.175" y2="219.53" gradientUnits="userSpaceOnUse">
<stop stop-color="#FBEEB8"/>
<stop offset="0.178709" stop-color="#F6D240"/>
<stop offset="0.267289" stop-color="#F2BC3C"/>
<stop offset="0.467301" stop-color="#E98C35"/>
<stop offset="0.8237" stop-color="#E2632E"/>
<stop offset="0.8238" stop-color="#E2632E"/>
<stop offset="1" stop-color="#D3344A"/>
</linearGradient>
<linearGradient id="paint20_linear" x1="676.211" y1="159.133" x2="671.058" y2="217.672" gradientUnits="userSpaceOnUse">
<stop stop-color="#FBEEB8"/>
<stop offset="0.317708" stop-color="#F6D240"/>
<stop offset="0.508658" stop-color="#F2BC3C"/>
<stop offset="0.6864" stop-color="#E98C35"/>
<stop offset="0.8237" stop-color="#E2632E"/>
<stop offset="0.8238" stop-color="#E2632E"/>
<stop offset="1" stop-color="#D3344A"/>
</linearGradient>
<linearGradient id="paint21_linear" x1="676.211" y1="159.133" x2="671.058" y2="217.672" gradientUnits="userSpaceOnUse">
<stop stop-color="#FBEEB8"/>
<stop offset="0.317708" stop-color="#F6D240"/>
<stop offset="0.508658" stop-color="#F2BC3C"/>
<stop offset="0.6864" stop-color="#E98C35"/>
<stop offset="0.8237" stop-color="#E2632E"/>
<stop offset="0.8238" stop-color="#E2632E"/>
<stop offset="1" stop-color="#D3344A"/>
</linearGradient>
<linearGradient id="paint22_linear" x1="676.211" y1="159.133" x2="671.058" y2="217.672" gradientUnits="userSpaceOnUse">
<stop stop-color="#FBEEB8"/>
<stop offset="0.317708" stop-color="#F6D240"/>
<stop offset="0.508658" stop-color="#F2BC3C"/>
<stop offset="0.6864" stop-color="#E98C35"/>
<stop offset="0.8237" stop-color="#E2632E"/>
<stop offset="0.8238" stop-color="#E2632E"/>
<stop offset="1" stop-color="#D3344A"/>
</linearGradient>
<linearGradient id="paint23_linear" x1="701.788" y1="181.886" x2="673.156" y2="213.39" gradientUnits="userSpaceOnUse">
<stop stop-color="#FEFFFF"/>
<stop offset="0.2019" stop-color="#FBEEB8"/>
<stop offset="0.5238" stop-color="#F6D240"/>
<stop offset="0.5718" stop-color="#F2BC3C"/>
<stop offset="0.6864" stop-color="#E98C35"/>
<stop offset="0.7741" stop-color="#E46E30"/>
<stop offset="0.8237" stop-color="#E2632E"/>
<stop offset="0.8248" stop-color="#E2632E"/>
<stop offset="0.8916" stop-color="#DA493E"/>
<stop offset="0.952" stop-color="#D53947"/>
<stop offset="1" stop-color="#D3344A"/>
</linearGradient>
<linearGradient id="paint24_linear" x1="681.884" y1="166.204" x2="677.27" y2="207.601" gradientUnits="userSpaceOnUse">
<stop stop-color="#FBEEB8"/>
<stop offset="0.317708" stop-color="#F6D240"/>
<stop offset="0.508658" stop-color="#F2BC3C"/>
<stop offset="0.6864" stop-color="#E98C35"/>
<stop offset="0.8237" stop-color="#E2632E"/>
<stop offset="0.8238" stop-color="#E2632E"/>
<stop offset="1" stop-color="#D3344A"/>
</linearGradient>
<linearGradient id="paint25_linear" x1="675.344" y1="180.691" x2="687.667" y2="207.542" gradientUnits="userSpaceOnUse">
<stop stop-color="#FBEEB8"/>
<stop offset="0.178709" stop-color="#F6D240"/>
<stop offset="0.267289" stop-color="#F2BC3C"/>
<stop offset="0.467301" stop-color="#E98C35"/>
<stop offset="0.8237" stop-color="#E2632E"/>
<stop offset="0.8238" stop-color="#E2632E"/>
<stop offset="1" stop-color="#D3344A"/>
</linearGradient>
</defs>
</svg>
