<svg width="97" height="96" viewBox="0 0 97 96" fill="none" xmlns="http://www.w3.org/2000/svg">
<path d="M51.4765 84.8984C70.2274 84.8984 85.428 69.7289 85.428 51.0164C85.428 32.3038 70.2274 17.1343 51.4765 17.1343C32.7255 17.1343 17.5249 32.3038 17.5249 51.0164C17.5249 69.7289 32.7255 84.8984 51.4765 84.8984Z" fill="#EAEEF9"/>
<path d="M29.2862 84.8985C18.2201 77.6711 10.9199 65.24 10.9199 51.0164C10.9199 28.6982 29.0545 10.6008 51.4764 10.6008C73.8983 10.6008 91.9749 28.6982 91.9749 51.0164C91.9749 65.1821 84.6748 77.6711 73.5507 84.8985" stroke="#EAEEF9" stroke-width="2" stroke-miterlimit="10" stroke-linecap="round" stroke-linejoin="round"/>
<path d="M13.0129 17.5697C13.9258 17.2736 14.4253 16.295 14.1286 15.384C13.8319 14.4729 12.8513 13.9744 11.9384 14.2705C11.0255 14.5667 10.5259 15.5452 10.8227 16.4563C11.1194 17.3673 12.1 17.8658 13.0129 17.5697Z" fill="#EAEEF9"/>
<path d="M86.3724 13.4343C86.9506 13.2468 87.2669 12.627 87.079 12.05C86.8911 11.473 86.2701 11.1573 85.6919 11.3449C85.1137 11.5324 84.7974 12.1522 84.9853 12.7292C85.1732 13.3062 85.7942 13.6219 86.3724 13.4343Z" fill="#EAEEF9"/>
<path d="M73.3749 9.43415C73.9509 9.43415 74.4178 8.9682 74.4178 8.39341C74.4178 7.81862 73.9509 7.35266 73.3749 7.35266C72.7989 7.35266 72.332 7.81862 72.332 8.39341C72.332 8.9682 72.7989 9.43415 73.3749 9.43415Z" fill="url(#paint0_linear)"/>
<path d="M10.923 28.2265C11.3482 27.8387 11.3779 27.1804 10.9893 26.7561C10.6008 26.3318 9.94112 26.3022 9.51595 26.6899C9.09077 27.0777 9.06107 27.736 9.44962 28.1603C9.83816 28.5846 10.4978 28.6143 10.923 28.2265Z" fill="url(#paint1_linear)"/>
<circle cx="75.407" cy="41.4855" r="13" fill="url(#paint2_linear)"/>
<path d="M65.1646 39.3934L65.1648 39.3927C65.7422 36.6103 67.3573 34.2903 69.6742 32.7194C77.4059 27.6256 87.5726 34.5141 85.6749 43.6754C84.7815 47.2235 82.8812 49.5072 80.6056 50.7641C78.3186 52.0273 75.6116 52.2758 73.0839 51.6706C68.0252 50.4595 63.8086 45.8808 65.1646 39.3934Z" stroke="#ED541D"/>
<path opacity="0.7" d="M80.418 41.5434L75.3774 44.4922L70.3948 41.5434L75.3774 33.5065L80.418 41.5434Z" fill="url(#paint3_linear)"/>
<path opacity="0.7" d="M80.4185 42.5262L75.3779 49.4645L70.3953 42.5262L75.3779 45.4171L80.4185 42.5262Z" fill="url(#paint4_linear)"/>
<path opacity="0.7" d="M80.4185 41.5434L75.3779 44.4922L70.3953 41.5434L75.3779 39.3463L80.4185 41.5434Z" fill="url(#paint5_linear)"/>
<path d="M75.3785 45.4171L80.4191 42.5262L75.3785 49.4645V45.4171Z" fill="url(#paint6_linear)"/>
<path d="M80.4191 41.5433L75.3785 44.4921V33.5064L80.4191 41.5433Z" fill="url(#paint7_linear)"/>
<path d="M51.116 53.4937V60.8367H37.153H35.2411H26.5503H26.1448H12.2397V53.4937H51.116Z" fill="url(#paint8_linear)"/>
<path opacity="0.3" d="M37.182 53.4937H26.1738V60.5255H37.182V53.4937Z" fill="white"/>
<path d="M51.1165 60.4897H12.2402V61.0679H51.1165V60.4897Z" fill="#202330"/>
<path d="M49.8338 61.0679V68.411H35.8708H33.9588H25.2681H24.8626H10.9575V61.0679H49.8338Z" fill="url(#paint9_linear)"/>
<path opacity="0.3" d="M35.8998 61.0679H24.8916V68.0998H35.8998V61.0679Z" fill="white"/>
<path d="M49.8343 68.064H10.958V68.6422H49.8343V68.064Z" fill="#202330"/>
<path d="M51.116 68.5101V75.8532H37.153H35.2411H26.5503H26.1448H12.2397V68.5101H51.116Z" fill="url(#paint10_linear)"/>
<path opacity="0.3" d="M37.182 68.5101H26.1738V75.542H37.182V68.5101Z" fill="white"/>
<path d="M51.1165 75.5062H12.2402V76.0844H51.1165V75.5062Z" fill="#202330"/>
<path d="M51.5145 76.0844V83.4274H37.5515H35.6395H26.9488H26.5433H12.6382V76.0844H51.5145Z" fill="url(#paint11_linear)"/>
<path opacity="0.3" d="M37.5805 76.0844H26.5723V83.1162H37.5805V76.0844Z" fill="white"/>
<path d="M51.515 83.0804H12.6387V83.6586H51.515V83.0804Z" fill="#202330"/>
<path opacity="0.4" d="M49.8338 64.533H23.4917V83.2795H49.8338V64.533Z" fill="#202330"/>
<path d="M64.3383 65.7025H25.4041V83.9733H64.3383V65.7025Z" fill="url(#paint12_linear)"/>
<path d="M63.1218 66.8011H26.5051V82.8171H63.1218V66.8011Z" fill="#ED541D"/>
<path d="M60.0503 69.9234C59.5289 69.403 59.2392 68.7092 59.2392 67.9575H30.4441C30.4441 68.7092 30.1544 69.403 29.633 69.9234C29.1115 70.4437 28.4163 70.7328 27.6631 70.7328V78.9432C28.4163 78.9432 29.1115 79.2323 29.633 79.7526C30.1544 80.273 30.4441 80.9669 30.4441 81.7185H59.2971C59.2971 80.9669 59.5868 80.273 60.1083 79.7526C60.6297 79.2323 61.325 78.9432 62.0782 78.9432V70.7328C61.267 70.7328 60.5718 70.4437 60.0503 69.9234ZM44.8706 79.8105C42.611 79.8105 40.815 77.5555 40.815 74.7802C40.815 72.0049 42.611 69.7499 44.8706 69.7499C47.1302 69.7499 48.9263 72.0049 48.9263 74.7802C48.9263 77.6133 47.0723 79.8105 44.8706 79.8105Z" fill="url(#paint13_linear)"/>
<path d="M4.48853 84.6673H90.5841" stroke="#D6DEE8" stroke-width="2" stroke-miterlimit="10" stroke-linecap="round" stroke-linejoin="round"/>
<path d="M25.3576 16.2092C25.0679 16.2092 24.7783 16.0358 24.6624 15.8045L22.1131 10.5429C21.9393 10.1382 22.1131 9.67565 22.4607 9.50219C22.8663 9.32873 23.3298 9.50219 23.5036 9.84911L26.0529 15.1107C26.2267 15.5154 26.0529 15.9779 25.7053 16.1514C25.5894 16.2092 25.4735 16.2092 25.3576 16.2092Z" fill="url(#paint14_linear)"/>
<path d="M31.1516 14.4168C30.7461 14.4168 30.3984 14.0699 30.3984 13.6652V10.2538C30.3984 9.84911 30.7461 9.5022 31.1516 9.5022C31.5572 9.5022 31.9048 9.84911 31.9048 10.2538V13.6074C31.9628 14.0699 31.6151 14.4168 31.1516 14.4168Z" fill="url(#paint15_linear)"/>
<path d="M37.1775 15.9201C37.1195 15.9201 37.0037 15.9201 36.9457 15.8623C36.5402 15.7467 36.3084 15.2841 36.4822 14.8794L39.3791 6.61122C39.495 6.20648 39.9585 5.9752 40.3641 6.14866C40.7696 6.2643 41.0014 6.72685 40.8276 7.13159L37.9307 15.3997C37.8148 15.6888 37.4672 15.9201 37.1775 15.9201Z" fill="url(#paint16_linear)"/>
<path d="M86.7578 55.0058V58.1451C86.7578 58.2029 86.7578 58.2607 86.7578 58.3186C86.6999 58.5498 86.5261 58.6655 86.3523 58.6655H66.1019C65.928 58.6655 65.7542 58.492 65.6963 58.3186C65.6963 58.2607 65.6963 58.2029 65.6963 58.1451V55.0058C65.6963 54.7167 65.8701 54.4854 66.1019 54.4854H86.3523C86.584 54.4854 86.7578 54.7167 86.7578 55.0058Z" fill="url(#paint17_linear)"/>
<g opacity="0.3">
<path d="M70.3087 54.4854L69.471 58.6655H66.0439L66.8817 54.4854H70.3087Z" fill="white"/>
<path d="M81.6561 54.4854L80.8184 58.6655H78.8383L79.676 54.4854H81.6561Z" fill="white"/>
<path d="M71.6801 54.4854L70.8424 58.6655H70.0046L70.8424 54.4854H71.6801Z" fill="white"/>
</g>
<path d="M86.3438 59.1858V62.3252C86.3438 62.383 86.3438 62.4408 86.3438 62.4986C86.2858 62.7299 86.112 62.8455 85.9382 62.8455H65.6878C65.514 62.8455 65.3402 62.6721 65.2822 62.4986C65.2822 62.4408 65.2822 62.383 65.2822 62.3252V59.1858C65.2822 58.8967 65.456 58.6655 65.6878 58.6655H85.9382C86.17 58.6655 86.3438 58.8967 86.3438 59.1858Z" fill="url(#paint18_linear)"/>
<g opacity="0.3">
<path d="M69.8947 58.6655L69.0569 62.8455H65.6299L66.4676 58.6655H69.8947Z" fill="white"/>
<path d="M81.2421 58.6655L80.4043 62.8455H78.4243L79.262 58.6655H81.2421Z" fill="white"/>
<path d="M71.266 58.6655L70.4283 62.8455H69.5906L70.4283 58.6655H71.266Z" fill="white"/>
</g>
<path d="M87.5235 71.7261V74.8654C87.5235 74.9232 87.5235 74.981 87.5235 75.0388C87.4655 75.2701 87.2917 75.3857 87.1179 75.3857H66.8675C66.6937 75.3857 66.5199 75.2123 66.4619 75.0388C66.4619 74.981 66.4619 74.9232 66.4619 74.8654V71.7261C66.4619 71.437 66.6357 71.2057 66.8675 71.2057H87.1179C87.3496 71.2057 87.5235 71.437 87.5235 71.7261Z" fill="url(#paint19_linear)"/>
<g opacity="0.3">
<path d="M71.0743 71.2057L70.2366 75.3857H66.8096L67.6473 71.2057H71.0743Z" fill="white"/>
<path d="M82.4217 71.2057L81.584 75.3857H79.6039L80.4417 71.2057H82.4217Z" fill="white"/>
<path d="M72.4457 71.2057L71.608 75.3857H70.7703L71.608 71.2057H72.4457Z" fill="white"/>
</g>
<path d="M85.9561 63.3659V66.5052C85.9561 66.563 85.9561 66.6208 85.9561 66.6787C85.8981 66.9099 85.7243 67.0256 85.5505 67.0256H65.3001C65.1263 67.0256 64.9525 66.8521 64.8945 66.6787C64.8945 66.6208 64.8945 66.563 64.8945 66.5052V63.3659C64.8945 63.0768 65.0683 62.8455 65.3001 62.8455H85.5505C85.7823 62.8455 85.9561 63.0768 85.9561 63.3659Z" fill="url(#paint20_linear)"/>
<g opacity="0.3">
<path d="M69.507 62.8455L68.6692 67.0256H65.2422L66.0799 62.8455H69.507Z" fill="white"/>
<path d="M80.8544 62.8455L80.0166 67.0256H78.0366L78.8743 62.8455H80.8544Z" fill="white"/>
<path d="M70.8783 62.8455L70.0406 67.0256H69.2029L70.0406 62.8455H70.8783Z" fill="white"/>
</g>
<path d="M87.1348 75.9061V79.0454C87.1348 79.1033 87.1348 79.1611 87.1348 79.2189C87.0769 79.4502 86.903 79.5658 86.7292 79.5658H66.4788C66.305 79.5658 66.1312 79.3923 66.0732 79.2189C66.0732 79.1611 66.0732 79.1033 66.0732 79.0454V75.9061C66.0732 75.617 66.2471 75.3857 66.4788 75.3857H86.7292C86.961 75.3857 87.1348 75.617 87.1348 75.9061Z" fill="url(#paint21_linear)"/>
<g opacity="0.3">
<path d="M70.6857 75.3857L69.8479 79.5658H66.4209L67.2586 75.3857H70.6857Z" fill="white"/>
<path d="M82.0331 75.3857L81.1953 79.5658H79.2153L80.053 75.3857H82.0331Z" fill="white"/>
<path d="M72.057 75.3857L71.2193 79.5658H70.3816L71.2193 75.3857H72.057Z" fill="white"/>
</g>
<path d="M88.3145 67.5459V70.6853C88.3145 70.7431 88.3145 70.8009 88.3145 70.8587C88.2565 71.09 88.0827 71.2056 87.9089 71.2056H67.6585C67.4847 71.2056 67.3109 71.0322 67.2529 70.8587C67.2529 70.8009 67.2529 70.7431 67.2529 70.6853V67.5459C67.2529 67.2569 67.4267 67.0256 67.6585 67.0256H87.9089C88.1407 67.0256 88.3145 67.2569 88.3145 67.5459Z" fill="url(#paint22_linear)"/>
<g opacity="0.3">
<path d="M71.8654 67.0256L71.0276 71.2056H67.6006L68.4383 67.0256H71.8654Z" fill="white"/>
<path d="M83.2128 67.0256L82.375 71.2056H80.395L81.2327 67.0256H83.2128Z" fill="white"/>
<path d="M73.2367 67.0256L72.399 71.2056H71.5613L72.399 67.0256H73.2367Z" fill="white"/>
</g>
<path d="M89.4942 80.0862V83.2255C89.4942 83.2833 89.4942 83.3411 89.4942 83.3989C89.4362 83.6302 89.2624 83.7459 89.0886 83.7459H68.8382C68.6644 83.7459 68.4906 83.5724 68.4326 83.3989C68.4326 83.3411 68.4326 83.2833 68.4326 83.2255V80.0862C68.4326 79.7971 68.6064 79.5658 68.8382 79.5658H89.0886C89.3204 79.5658 89.4942 79.7971 89.4942 80.0862Z" fill="url(#paint23_linear)"/>
<g opacity="0.3">
<path d="M73.045 79.5658L72.2073 83.7458H68.7803L69.618 79.5658H73.045Z" fill="white"/>
<path d="M84.3924 79.5658L83.5547 83.7458H81.5746L82.4124 79.5658H84.3924Z" fill="white"/>
<path d="M74.4164 79.5658L73.5787 83.7458H72.741L73.5787 79.5658H74.4164Z" fill="white"/>
</g>
<path d="M48.0674 40.6283C47.8296 41.8174 47.4731 42.9469 46.9383 44.0171C46.8194 44.2549 46.76 44.4928 46.6412 44.6712C46.2252 45.5036 45.7497 46.2764 45.2148 46.9899C44.9771 47.2872 44.7989 47.5249 44.5612 47.8222C43.1944 49.3681 41.5303 50.6763 39.6881 51.6276C39.3315 51.806 38.9751 51.9842 38.6185 52.1031C38.0243 52.341 37.4299 52.5788 36.7762 52.7572C34.3992 53.4707 31.7843 53.5896 29.1696 53.0545C20.4932 51.2708 14.9666 42.7685 16.7494 34.1474C18.5322 25.4669 27.0303 19.9376 35.6472 21.7213C38.6779 22.3753 41.4709 23.8619 43.7292 26.0617C47.5325 29.8669 49.1965 35.3368 48.0674 40.6283Z" fill="url(#paint24_linear)"/>
<path d="M32.3866 51.387C31.4631 51.387 30.4783 51.264 29.5548 51.0794C21.9829 49.4799 17.1195 42.0977 18.7201 34.5308C19.4588 30.9012 21.6135 27.7638 24.7531 25.6721C27.8927 23.642 31.5862 22.9036 35.2799 23.7034C37.927 24.257 40.3895 25.5491 42.2979 27.5177C45.6222 30.8397 47.0996 35.638 46.1147 40.252C45.93 41.2978 45.5606 42.2823 45.1296 43.2051C45.0681 43.3896 44.945 43.5742 44.8834 43.8203C44.5141 44.497 44.0831 45.1736 43.5906 45.8503C43.4059 46.0964 43.2213 46.3426 43.0366 46.5886C41.8054 48.0036 40.3896 49.1109 38.789 49.9106C38.4812 50.0337 38.1734 50.2183 37.8656 50.3414C37.25 50.5875 36.7574 50.772 36.2649 50.895C34.9721 51.2026 33.6793 51.387 32.3866 51.387ZM32.3251 24.6877C29.8627 24.6877 27.4617 25.4259 25.3687 26.7793C22.5369 28.6249 20.5668 31.5164 19.8897 34.8384C18.4738 41.7286 22.9062 48.4342 29.801 49.9106C31.8325 50.3413 33.9256 50.2798 35.8955 49.6646C36.3264 49.5416 36.819 49.3568 37.3731 49.1723C37.6193 49.0492 37.9271 48.9264 38.1734 48.8034C39.6508 48.0652 40.9435 47.0191 42.0516 45.7887C42.2363 45.6042 42.421 45.3583 42.6057 45.1122C43.0367 44.5586 43.406 43.9434 43.7753 43.2667C43.8369 43.0821 43.9601 42.8974 44.0217 42.7743C44.4526 41.9131 44.6988 40.9903 44.9451 40.0675C45.8069 35.8227 44.5141 31.5165 41.4976 28.5021C39.7123 26.718 37.4962 25.5491 35.0953 25.0569C34.1104 24.8108 33.1869 24.6877 32.3251 24.6877Z" fill="#ED541D"/>
<path d="M31.0297 46.3986C30.4299 46.3986 29.8968 46.3986 29.297 46.3986C29.297 45.4675 29.297 44.5364 29.297 43.5388C28.2307 43.4058 27.0978 43.4723 26.0315 43.4723C26.2981 42.1422 26.2981 42.0092 26.3647 41.6101C26.3647 41.4771 26.4313 41.4771 26.5646 41.4771C26.8978 41.4771 27.2311 41.4771 27.5643 41.4771C28.0974 41.4771 28.2307 41.3441 28.2307 40.8786C28.2307 38.5509 28.2307 36.2232 28.2307 33.8954C28.2307 33.2304 27.8308 32.9644 27.2977 32.9644C26.8978 32.9644 26.5646 32.9644 26.1648 32.9644C26.1648 32.4323 26.1648 31.8337 26.1648 31.3017C26.7646 31.3017 27.9641 31.3017 29.1637 31.3017C29.3636 31.3017 29.3636 31.3017 29.3636 31.1022C29.3636 30.5036 29.3636 28.974 29.3636 28.3754C29.9634 28.3754 30.4965 28.3754 31.0963 28.3754C31.0963 29.3065 31.0963 30.2376 31.0963 31.2352C31.4962 31.2352 31.9627 31.2352 32.3625 31.2352C32.3625 30.3041 32.3625 29.373 32.3625 28.3754C32.8957 28.3754 33.4288 28.3754 33.962 28.3754C33.962 28.6415 33.962 30.9692 33.962 31.1022C33.962 31.2352 33.962 31.2352 34.0952 31.3017C36.0945 31.5677 37.6939 32.1663 37.8272 34.095C37.8939 34.76 37.7606 35.4251 37.3607 35.9571C37.0942 36.3562 36.6943 36.5557 36.4277 36.6887C36.8942 36.8882 38.1604 37.1542 38.6269 38.5509C38.8269 39.0829 38.8269 39.615 38.7602 40.2135C38.6936 40.8121 38.4936 41.3441 38.1604 41.8097C37.7606 42.4082 37.1608 42.7407 36.4944 43.0068C35.6947 43.2728 34.895 43.4058 34.0286 43.4723C33.8953 43.4723 33.8287 43.5388 33.8287 43.6718C33.8287 44.4699 33.8287 45.268 33.8287 46.3321C33.2955 46.3321 32.7624 46.3321 32.2292 46.3321C32.2292 45.401 32.2292 44.4699 32.2292 43.5388C31.8294 43.5388 31.3629 43.5388 30.963 43.5388C31.0297 44.4699 31.0297 45.401 31.0297 46.3986ZM31.0297 38.0188C31.0297 39.2159 31.0297 40.3465 31.0297 41.6101C32.7624 41.5436 33.6954 41.6101 34.695 41.1446C35.1615 40.8786 35.4947 40.4795 35.5614 39.9475C35.628 39.3489 35.3614 38.8834 34.8283 38.5509C33.8953 37.8858 32.096 37.9523 31.0297 38.0188C31.0963 38.0188 31.0963 38.0188 31.0297 38.0188ZM31.0297 33.1639C31.0297 34.228 31.0297 35.2921 31.0297 36.3562C31.6961 36.4227 32.8957 36.3562 33.4955 36.1566C35.2282 35.6911 34.9616 33.8954 33.8953 33.4299C32.8957 33.0309 31.896 33.1639 31.0297 33.1639Z" fill="url(#paint25_linear)"/>
<path d="M76.2699 74.8285C76.2699 74.9455 76.2112 75.0626 76.2112 75.1797C75.036 80.8563 69.6888 84.543 67.3971 85.0112C67.2209 85.0112 67.1032 85.0698 66.9857 85.0698C57.8191 87.7033 48.7701 79.5688 50.7679 69.9127C52.237 62.8901 59.1119 58.3838 66.1631 59.8469C72.9793 61.1929 77.5626 67.8644 76.2699 74.8285Z" fill="url(#paint26_linear)"/>
<path d="M57.7167 63.8196L57.7167 63.8196L57.7194 63.8178C65.5003 58.7 75.749 65.5844 73.8142 74.7484C72.9179 78.3024 71.0088 80.5897 68.7212 81.8485C66.4222 83.1136 63.7 83.362 61.1573 82.7554C56.0681 81.5412 51.8264 76.9552 53.1792 70.4663C53.77 67.6969 55.3612 65.3475 57.7167 63.8196Z" stroke="#ED541D"/>
<path d="M57.165 76.5318C57.7444 74.6816 57.7444 74.8551 57.7444 74.6816C57.8024 74.4503 57.223 74.566 65.9716 74.566C66.3772 73.2361 66.8407 71.9063 67.2462 70.5765C64.5231 70.5765 61.8001 70.5765 59.077 70.5765C59.1349 70.3452 59.0191 70.6343 59.6564 68.8419C59.7143 68.6106 59.7143 68.6106 60.004 68.6106C60.1199 68.6106 68.2891 68.6106 68.8105 68.6106C69.5058 68.6106 70.0852 69.0153 70.1431 69.8248C70.2011 70.3452 70.1431 70.5186 68.8105 74.4503C68.4629 75.5489 67.3042 76.3584 66.493 76.474C66.2033 76.5318 66.6668 76.5318 57.165 76.5318Z" fill="url(#paint27_linear)"/>
<path d="M62.3225 71.6751C62.0907 72.3111 61.9169 72.8893 61.6851 73.5253C60.0629 73.5253 58.4406 73.5253 56.8184 73.5253C57.108 72.7158 57.166 72.4846 57.3977 71.7907C57.5136 71.6173 57.108 71.6751 62.3225 71.6751Z" fill="url(#paint28_linear)"/>
<defs>
<linearGradient id="paint0_linear" x1="72.6162" y1="9.23725" x2="74.1148" y2="7.59261" gradientUnits="userSpaceOnUse">
<stop stop-color="#FF5824"/>
<stop offset="1" stop-color="#FF9A24"/>
</linearGradient>
<linearGradient id="paint1_linear" x1="10.2298" y1="28.5919" x2="10.2289" y2="26.3689" gradientUnits="userSpaceOnUse">
<stop stop-color="#FF5824"/>
<stop offset="1" stop-color="#FF9A24"/>
</linearGradient>
<linearGradient id="paint2_linear" x1="65.9494" y1="52.026" x2="84.6723" y2="31.5209" gradientUnits="userSpaceOnUse">
<stop stop-color="#FF5824"/>
<stop offset="1" stop-color="#FF9A24"/>
</linearGradient>
<linearGradient id="paint3_linear" x1="71.6193" y1="33.1063" x2="81.9895" y2="42.1313" gradientUnits="userSpaceOnUse">
<stop stop-color="white"/>
<stop offset="0.367501" stop-color="#FFF0E2"/>
<stop offset="1" stop-color="#FFD6AF"/>
</linearGradient>
<linearGradient id="paint4_linear" x1="71.6198" y1="42.2734" x2="77.9069" y2="50.9366" gradientUnits="userSpaceOnUse">
<stop stop-color="white"/>
<stop offset="0.367501" stop-color="#FFF0E2"/>
<stop offset="1" stop-color="#FFD6AF"/>
</linearGradient>
<linearGradient id="paint5_linear" x1="71.6198" y1="39.1588" x2="75.7135" y2="46.7645" gradientUnits="userSpaceOnUse">
<stop stop-color="white"/>
<stop offset="0.367501" stop-color="#FFF0E2"/>
<stop offset="1" stop-color="#FFD6AF"/>
</linearGradient>
<linearGradient id="paint6_linear" x1="75.9943" y1="42.2734" x2="82.1861" y2="46.564" gradientUnits="userSpaceOnUse">
<stop stop-color="white"/>
<stop offset="0.367501" stop-color="#FFF0E2"/>
<stop offset="1" stop-color="#FFD6AF"/>
</linearGradient>
<linearGradient id="paint7_linear" x1="75.9943" y1="33.1062" x2="83.686" y2="36.4725" gradientUnits="userSpaceOnUse">
<stop stop-color="white"/>
<stop offset="0.367501" stop-color="#FFF0E2"/>
<stop offset="1" stop-color="#FFD6AF"/>
</linearGradient>
<linearGradient id="paint8_linear" x1="47.4244" y1="59.08" x2="40.7127" y2="42.1943" gradientUnits="userSpaceOnUse">
<stop stop-color="#333643"/>
<stop offset="1" stop-color="#676C84"/>
</linearGradient>
<linearGradient id="paint9_linear" x1="46.1421" y1="66.6543" x2="39.4305" y2="49.7686" gradientUnits="userSpaceOnUse">
<stop stop-color="#333643"/>
<stop offset="1" stop-color="#676C84"/>
</linearGradient>
<linearGradient id="paint10_linear" x1="47.4244" y1="74.0965" x2="40.7127" y2="57.2108" gradientUnits="userSpaceOnUse">
<stop stop-color="#333643"/>
<stop offset="1" stop-color="#676C84"/>
</linearGradient>
<linearGradient id="paint11_linear" x1="47.8228" y1="81.6707" x2="41.1111" y2="64.785" gradientUnits="userSpaceOnUse">
<stop stop-color="#333643"/>
<stop offset="1" stop-color="#676C84"/>
</linearGradient>
<linearGradient id="paint12_linear" x1="30.7087" y1="82.245" x2="40.2744" y2="59.9207" gradientUnits="userSpaceOnUse">
<stop stop-color="#FF5824"/>
<stop offset="1" stop-color="#FF9A24"/>
</linearGradient>
<linearGradient id="paint13_linear" x1="32.352" y1="80.4168" x2="38.7632" y2="62.8566" gradientUnits="userSpaceOnUse">
<stop stop-color="#FFA336" stop-opacity="0.4"/>
<stop offset="1" stop-color="#FFA336"/>
</linearGradient>
<linearGradient id="paint14_linear" x1="22.6003" y1="15.5683" x2="27.1019" y2="12.6022" gradientUnits="userSpaceOnUse">
<stop stop-color="#FF5824"/>
<stop offset="1" stop-color="#FF9A24"/>
</linearGradient>
<linearGradient id="paint15_linear" x1="30.6045" y1="13.9519" x2="32.7559" y2="13.2267" gradientUnits="userSpaceOnUse">
<stop stop-color="#FF5824"/>
<stop offset="1" stop-color="#FF9A24"/>
</linearGradient>
<linearGradient id="paint16_linear" x1="37.0318" y1="14.9903" x2="42.6985" y2="12.1731" gradientUnits="userSpaceOnUse">
<stop stop-color="#FF5824"/>
<stop offset="1" stop-color="#FF9A24"/>
</linearGradient>
<linearGradient id="paint17_linear" x1="84.7578" y1="57.6655" x2="80.7995" y2="48.1878" gradientUnits="userSpaceOnUse">
<stop stop-color="#333643"/>
<stop offset="1" stop-color="#676C84"/>
</linearGradient>
<linearGradient id="paint18_linear" x1="84.3438" y1="61.8455" x2="80.3854" y2="52.3679" gradientUnits="userSpaceOnUse">
<stop stop-color="#333643"/>
<stop offset="1" stop-color="#676C84"/>
</linearGradient>
<linearGradient id="paint19_linear" x1="85.5235" y1="74.3857" x2="81.5651" y2="64.9081" gradientUnits="userSpaceOnUse">
<stop stop-color="#333643"/>
<stop offset="1" stop-color="#676C84"/>
</linearGradient>
<linearGradient id="paint20_linear" x1="83.9561" y1="66.0256" x2="79.9977" y2="56.5479" gradientUnits="userSpaceOnUse">
<stop stop-color="#333643"/>
<stop offset="1" stop-color="#676C84"/>
</linearGradient>
<linearGradient id="paint21_linear" x1="85.1348" y1="78.5658" x2="81.1764" y2="69.0881" gradientUnits="userSpaceOnUse">
<stop stop-color="#333643"/>
<stop offset="1" stop-color="#676C84"/>
</linearGradient>
<linearGradient id="paint22_linear" x1="86.3145" y1="70.2056" x2="82.3561" y2="60.728" gradientUnits="userSpaceOnUse">
<stop stop-color="#333643"/>
<stop offset="1" stop-color="#676C84"/>
</linearGradient>
<linearGradient id="paint23_linear" x1="87.4942" y1="82.7459" x2="83.5358" y2="73.2682" gradientUnits="userSpaceOnUse">
<stop stop-color="#333643"/>
<stop offset="1" stop-color="#676C84"/>
</linearGradient>
<linearGradient id="paint24_linear" x1="20.7752" y1="50.3599" x2="43.8188" y2="25.1229" gradientUnits="userSpaceOnUse">
<stop stop-color="#FF5824"/>
<stop offset="1" stop-color="#FF9A24"/>
</linearGradient>
<linearGradient id="paint25_linear" x1="27.5914" y1="27.7188" x2="43.5296" y2="38.4891" gradientUnits="userSpaceOnUse">
<stop stop-color="white"/>
<stop offset="0.367501" stop-color="#FFF0E2"/>
<stop offset="1" stop-color="#FFD6AF"/>
</linearGradient>
<linearGradient id="paint26_linear" x1="54.0307" y1="83.1117" x2="72.7536" y2="62.6066" gradientUnits="userSpaceOnUse">
<stop stop-color="#FF5824"/>
<stop offset="1" stop-color="#FF9A24"/>
</linearGradient>
<linearGradient id="paint27_linear" x1="58.7523" y1="68.322" x2="65.6043" y2="79.0419" gradientUnits="userSpaceOnUse">
<stop stop-color="white"/>
<stop offset="0.367501" stop-color="#FFF0E2"/>
<stop offset="1" stop-color="#FFD6AF"/>
</linearGradient>
<linearGradient id="paint28_linear" x1="57.4908" y1="71.5981" x2="58.6063" y2="74.7475" gradientUnits="userSpaceOnUse">
<stop stop-color="white"/>
<stop offset="0.367501" stop-color="#FFF0E2"/>
<stop offset="1" stop-color="#FFD6AF"/>
</linearGradient>
</defs>
</svg>
