<svg width="20" height="20" viewBox="0 0 20 20" fill="none" xmlns="http://www.w3.org/2000/svg">
<path fill-rule="evenodd" clip-rule="evenodd" d="M10 20C15.5228 20 20 15.5228 20 10C20 4.47715 15.5228 0 10 0C4.47715 0 0 4.47715 0 10C0 15.5228 4.47715 20 10 20ZM10.7071 5.29289L14.7064 9.29218C14.7088 9.29459 14.7112 9.29702 14.7136 9.29945C14.8901 9.47921 14.9992 9.72537 15 9.997C15 9.998 15 9.999 15 10C15 10.001 15 10.002 15 10.003C14.9996 10.1375 14.9727 10.2657 14.9241 10.3828C14.8764 10.498 14.8063 10.6062 14.7136 10.7005C14.7112 10.703 14.7088 10.7054 14.7064 10.7078L10.7071 14.7071C10.3166 15.0976 9.68342 15.0976 9.29289 14.7071C8.90237 14.3166 8.90237 13.6834 9.29289 13.2929L11.5858 11H6C5.44772 11 5 10.5523 5 10C5 9.44771 5.44772 9 6 9H11.5858L9.29289 6.70711C8.90237 6.31658 8.90237 5.68342 9.29289 5.29289C9.68342 4.90237 10.3166 4.90237 10.7071 5.29289Z" fill="white"/>
</svg>
