<svg width="32" height="32" viewBox="0 0 32 32" fill="none" xmlns="http://www.w3.org/2000/svg">
<path d="M17.1836 3.85046C11.0751 3.85046 6.01956 8.38703 5.17286 14.2642H3.44979C2.75349 14.2642 2.40478 15.1061 2.89714 15.5985L6.21718 18.9185C6.5224 19.2237 7.01726 19.2237 7.32248 18.9185L10.6425 15.5985C11.1349 15.1061 10.7862 14.2642 10.0899 14.2642H8.68089C9.48735 10.3082 12.9931 7.3217 17.1836 7.3217C21.9685 7.3217 25.8618 11.215 25.8618 15.9999C25.8618 20.7847 21.9685 24.6781 17.1836 24.6781C14.9827 24.6781 12.875 23.8338 11.2839 22.3629C10.5803 21.7125 9.50573 21.5197 8.72802 22.0793C7.94989 22.6393 7.76523 23.7348 8.43085 24.4247C10.705 26.7819 13.8683 28.1494 17.1836 28.1494C23.8829 28.1494 29.3331 22.6984 29.3331 15.9999C29.3331 9.30144 23.8829 3.85046 17.1836 3.85046Z" fill="#FF5824"/>
<path d="M17.1835 10.793C16.225 10.793 15.4479 11.57 15.4479 12.5286V16.7183C15.4479 17.4209 15.8165 18.0719 16.419 18.4334L19.1413 20.0666C19.9632 20.5597 21.0292 20.2932 21.5225 19.4714C22.0159 18.6494 21.7494 17.5831 20.9274 17.0898L19.4046 16.176C19.1034 15.9952 18.9191 15.6698 18.9191 15.3185V12.5286C18.9191 11.5701 18.1421 10.793 17.1835 10.793Z" fill="#242731"/>
</svg>
