<svg width="32" height="32" viewBox="0 0 32 32" fill="none" xmlns="http://www.w3.org/2000/svg">
<path d="M17.1835 3.8504C11.075 3.8504 6.0194 8.38697 5.17271 14.2642H3.44964C2.75334 14.2642 2.40463 15.106 2.89699 15.5984L6.21703 18.9184C6.52225 19.2237 7.01711 19.2237 7.32233 18.9184L10.6424 15.5984C11.1347 15.106 10.786 14.2642 10.0897 14.2642H8.68074C9.4872 10.3082 12.9929 7.32164 17.1835 7.32164C21.9683 7.32164 25.8616 11.215 25.8616 15.9998C25.8616 20.7846 21.9683 24.678 17.1835 24.678C14.9826 24.678 12.8748 23.8337 11.2837 22.3628C10.5801 21.7124 9.50558 21.5196 8.72787 22.0793C7.94974 22.6392 7.76507 23.7347 8.4307 24.4246C10.7049 26.7819 13.8681 28.1493 17.1835 28.1493C23.8827 28.1493 29.3329 22.6983 29.3329 15.9998C29.3329 9.30138 23.8827 3.8504 17.1835 3.8504Z" fill="#FF5824"/>
<path d="M17.1834 10.793C16.2248 10.793 15.4478 11.57 15.4478 12.5286V16.7183C15.4478 17.4209 15.8164 18.0719 16.4188 18.4334L19.1411 20.0666C19.963 20.5597 21.0291 20.2932 21.5223 19.4714C22.0157 18.6494 21.7493 17.5831 20.9272 17.0898L19.4044 16.176C19.1033 15.9952 18.919 15.6698 18.919 15.3185V12.5286C18.919 11.5701 18.1419 10.793 17.1834 10.793Z" fill="white"/>
</svg>
