<svg width="571" height="80" viewBox="0 0 571 80" fill="none" xmlns="http://www.w3.org/2000/svg">
<g opacity="0.3">
<rect y="73.5483" width="1" height="6.45159" fill="url(#paint0_linear)"/>
<rect x="5" y="72.9031" width="1" height="7.09675" fill="url(#paint1_linear)"/>
<rect x="10" y="72.2581" width="1" height="7.74191" fill="url(#paint2_linear)"/>
<rect x="15" y="71.6127" width="1" height="8.38707" fill="url(#paint3_linear)"/>
<rect x="20" y="70.9675" width="1" height="9.03223" fill="url(#paint4_linear)"/>
<rect x="25" y="70.3224" width="1" height="9.67739" fill="url(#paint5_linear)"/>
<rect x="30" y="69.6771" width="1" height="10.3226" fill="url(#paint6_linear)"/>
<rect x="35" y="69.032" width="1" height="10.9677" fill="url(#paint7_linear)"/>
<rect x="40" y="68.3868" width="1" height="11.6129" fill="url(#paint8_linear)"/>
<rect x="45" y="67.7415" width="1" height="12.258" fill="url(#paint9_linear)"/>
<rect x="50" y="67.0966" width="1" height="12.9032" fill="url(#paint10_linear)"/>
<rect x="55" y="66.4514" width="1" height="13.5483" fill="url(#paint11_linear)"/>
<rect x="60" y="65.8062" width="1" height="14.1935" fill="url(#paint12_linear)"/>
<rect x="65" y="65.1611" width="1" height="14.8387" fill="url(#paint13_linear)"/>
<rect x="70" y="64.5161" width="1" height="15.4838" fill="url(#paint14_linear)"/>
<rect x="75" y="63.8708" width="1" height="16.129" fill="url(#paint15_linear)"/>
<rect x="80" y="63.2258" width="1" height="16.7741" fill="url(#paint16_linear)"/>
<rect x="85" y="62.5804" width="1" height="17.4193" fill="url(#paint17_linear)"/>
<rect x="90" y="61.9353" width="1" height="18.0645" fill="url(#paint18_linear)"/>
<rect x="95" y="61.2902" width="1" height="18.7096" fill="url(#paint19_linear)"/>
<rect x="100" y="60.6448" width="1" height="19.3548" fill="url(#paint20_linear)"/>
<rect x="105" y="59.9998" width="1" height="19.9999" fill="url(#paint21_linear)"/>
<rect x="110" y="59.3547" width="1" height="20.6451" fill="url(#paint22_linear)"/>
<rect x="115" y="58.7092" width="1" height="21.2903" fill="url(#paint23_linear)"/>
<rect x="120" y="58.0642" width="1" height="21.9354" fill="url(#paint24_linear)"/>
<rect x="125" y="57.4193" width="1" height="22.5806" fill="url(#paint25_linear)"/>
<rect x="130" y="56.7739" width="1" height="23.2257" fill="url(#paint26_linear)"/>
<rect x="135" y="56.1289" width="1" height="23.8709" fill="url(#paint27_linear)"/>
<rect x="140" y="55.4836" width="1" height="24.5161" fill="url(#paint28_linear)"/>
<rect x="145" y="54.8386" width="1" height="25.1612" fill="url(#paint29_linear)"/>
<rect x="150" y="54.1936" width="1" height="25.8064" fill="url(#paint30_linear)"/>
<rect x="155" y="53.5483" width="1" height="26.4515" fill="url(#paint31_linear)"/>
<rect x="160" y="52.9031" width="1" height="27.0967" fill="url(#paint32_linear)"/>
<rect x="165" y="52.2581" width="1" height="27.7419" fill="url(#paint33_linear)"/>
<rect x="170" y="51.6125" width="1" height="28.387" fill="url(#paint34_linear)"/>
<rect x="175" y="50.9675" width="1" height="29.0322" fill="url(#paint35_linear)"/>
<rect x="180" y="50.3225" width="1" height="29.6773" fill="url(#paint36_linear)"/>
<rect x="185" y="49.677" width="1" height="30.3225" fill="url(#paint37_linear)"/>
<rect x="190" y="49.0321" width="1" height="30.9677" fill="url(#paint38_linear)"/>
<rect x="195" y="48.3872" width="1" height="31.6128" fill="url(#paint39_linear)"/>
<rect x="200" y="47.7417" width="1" height="32.258" fill="url(#paint40_linear)"/>
<rect x="205" y="47.0967" width="1" height="32.9031" fill="url(#paint41_linear)"/>
<rect x="210" y="46.4514" width="1" height="33.5483" fill="url(#paint42_linear)"/>
<rect x="215" y="45.8062" width="1" height="34.1935" fill="url(#paint43_linear)"/>
<rect x="220" y="45.1611" width="1" height="34.8386" fill="url(#paint44_linear)"/>
<rect x="225" y="44.5161" width="1" height="35.4838" fill="url(#paint45_linear)"/>
<rect x="230" y="43.8708" width="1" height="36.1289" fill="url(#paint46_linear)"/>
<rect x="235" y="43.2258" width="1" height="36.7741" fill="url(#paint47_linear)"/>
<rect x="240" y="42.5804" width="1" height="37.4192" fill="url(#paint48_linear)"/>
<rect x="245" y="41.9353" width="1" height="38.0644" fill="url(#paint49_linear)"/>
<rect x="250" y="41.2903" width="1" height="38.7096" fill="url(#paint50_linear)"/>
<rect x="255" y="40.6448" width="1" height="39.3547" fill="url(#paint51_linear)"/>
<rect x="260" y="40" width="1" height="39.9999" fill="url(#paint52_linear)"/>
<rect x="265" y="39.355" width="1" height="40.645" fill="url(#paint53_linear)"/>
<rect x="270" y="38.7095" width="1" height="41.2902" fill="url(#paint54_linear)"/>
<rect x="275" y="38.0645" width="1" height="41.9354" fill="url(#paint55_linear)"/>
<rect x="280" y="37.4193" width="1" height="42.5805" fill="url(#paint56_linear)"/>
<rect x="285" y="36.7739" width="1" height="43.2257" fill="url(#paint57_linear)"/>
<rect x="290" y="36.1289" width="1" height="43.8708" fill="url(#paint58_linear)"/>
<rect x="295" y="35.4836" width="1" height="44.516" fill="url(#paint59_linear)"/>
<rect x="300" y="34.8386" width="1" height="45.1612" fill="url(#paint60_linear)"/>
<rect x="305" y="34.1936" width="1" height="45.8063" fill="url(#paint61_linear)"/>
<rect x="310" y="33.5483" width="1" height="46.4515" fill="url(#paint62_linear)"/>
<rect x="315" y="32.9031" width="1" height="47.0966" fill="url(#paint63_linear)"/>
<rect x="320" y="32.2581" width="1" height="47.7418" fill="url(#paint64_linear)"/>
<rect x="325" y="31.6125" width="1" height="48.387" fill="url(#paint65_linear)"/>
<rect x="330" y="30.9678" width="1" height="49.0321" fill="url(#paint66_linear)"/>
<rect x="335" y="30.3228" width="1" height="49.6773" fill="url(#paint67_linear)"/>
<rect x="340" y="29.6772" width="1" height="50.3224" fill="url(#paint68_linear)"/>
<rect x="345" y="29.0322" width="1" height="50.9676" fill="url(#paint69_linear)"/>
<rect x="350" y="28.3871" width="1" height="51.6127" fill="url(#paint70_linear)"/>
<rect x="355" y="27.7417" width="1" height="52.2579" fill="url(#paint71_linear)"/>
<rect x="360" y="27.0967" width="1" height="52.9031" fill="url(#paint72_linear)"/>
<rect x="365" y="26.4515" width="1" height="53.5482" fill="url(#paint73_linear)"/>
<rect x="370" y="25.8062" width="1" height="54.1934" fill="url(#paint74_linear)"/>
<rect x="375" y="25.1611" width="1" height="54.8386" fill="url(#paint75_linear)"/>
<rect x="380" y="24.5161" width="1" height="55.4837" fill="url(#paint76_linear)"/>
<rect x="385" y="23.8708" width="1" height="56.1289" fill="url(#paint77_linear)"/>
<rect x="390" y="23.2258" width="1" height="56.774" fill="url(#paint78_linear)"/>
<rect x="395" y="22.5804" width="1" height="57.4192" fill="url(#paint79_linear)"/>
<rect x="400" y="21.9355" width="1" height="58.0643" fill="url(#paint80_linear)"/>
<rect x="405" y="21.2905" width="1" height="58.7095" fill="url(#paint81_linear)"/>
<rect x="410" y="20.645" width="1" height="59.3547" fill="url(#paint82_linear)"/>
<rect x="415" y="20" width="1" height="59.9998" fill="url(#paint83_linear)"/>
<rect x="420" y="19.355" width="1" height="60.645" fill="url(#paint84_linear)"/>
<rect x="425" y="18.7095" width="1" height="61.2901" fill="url(#paint85_linear)"/>
<rect x="430" y="18.0645" width="1" height="61.9353" fill="url(#paint86_linear)"/>
<rect x="435" y="17.4193" width="1" height="62.5805" fill="url(#paint87_linear)"/>
<rect x="440" y="16.7739" width="1" height="63.2256" fill="url(#paint88_linear)"/>
<rect x="445" y="16.1289" width="1" height="63.8708" fill="url(#paint89_linear)"/>
<rect x="450" y="15.4836" width="1" height="64.5159" fill="url(#paint90_linear)"/>
<rect x="455" y="14.8386" width="1" height="65.1611" fill="url(#paint91_linear)"/>
<rect x="460" y="14.1936" width="1" height="65.8063" fill="url(#paint92_linear)"/>
<rect x="465" y="13.5482" width="1" height="66.4514" fill="url(#paint93_linear)"/>
<rect x="470" y="12.9033" width="1" height="67.0966" fill="url(#paint94_linear)"/>
<rect x="475" y="12.2583" width="1" height="67.7417" fill="url(#paint95_linear)"/>
<rect x="480" y="11.6129" width="1" height="68.3869" fill="url(#paint96_linear)"/>
<rect x="485" y="10.9678" width="1" height="69.0321" fill="url(#paint97_linear)"/>
<rect x="490" y="10.3228" width="1" height="69.6772" fill="url(#paint98_linear)"/>
<rect x="495" y="9.67725" width="1" height="70.3224" fill="url(#paint99_linear)"/>
<rect x="500" y="9.03223" width="1" height="70.9675" fill="url(#paint100_linear)"/>
<rect x="505" y="8.38708" width="1" height="71.6127" fill="url(#paint101_linear)"/>
<rect x="510" y="7.7417" width="1" height="72.2579" fill="url(#paint102_linear)"/>
<rect x="515" y="7.09668" width="1" height="72.903" fill="url(#paint103_linear)"/>
<rect x="520" y="6.45154" width="1" height="73.5482" fill="url(#paint104_linear)"/>
<rect x="525" y="5.80615" width="1" height="74.1933" fill="url(#paint105_linear)"/>
<rect x="530" y="5.16113" width="1" height="74.8385" fill="url(#paint106_linear)"/>
<rect x="535" y="4.51611" width="1" height="75.4836" fill="url(#paint107_linear)"/>
<rect x="540" y="3.87109" width="1" height="76.1288" fill="url(#paint108_linear)"/>
<rect x="545" y="3.22607" width="1" height="76.774" fill="url(#paint109_linear)"/>
<rect x="550" y="2.58069" width="1" height="77.4191" fill="url(#paint110_linear)"/>
<rect x="555" y="1.93555" width="1" height="78.0643" fill="url(#paint111_linear)"/>
<rect x="560" y="1.29053" width="1" height="78.7094" fill="url(#paint112_linear)"/>
<rect x="565" y="0.64502" width="1" height="79.3546" fill="url(#paint113_linear)"/>
<rect x="570" width="1" height="79.9998" fill="url(#paint114_linear)"/>
</g>
<defs>
<linearGradient id="paint0_linear" x1="0.5" y1="73.5483" x2="0.5" y2="79.9999" gradientUnits="userSpaceOnUse">
<stop stop-color="#FF5824" stop-opacity="0"/>
<stop offset="1" stop-color="#FF5824"/>
</linearGradient>
<linearGradient id="paint1_linear" x1="5.5" y1="72.9031" x2="5.5" y2="79.9998" gradientUnits="userSpaceOnUse">
<stop stop-color="#FF5824" stop-opacity="0"/>
<stop offset="1" stop-color="#FF5824"/>
</linearGradient>
<linearGradient id="paint2_linear" x1="10.5" y1="72.2581" x2="10.5" y2="80" gradientUnits="userSpaceOnUse">
<stop stop-color="#FF5824" stop-opacity="0"/>
<stop offset="1" stop-color="#FF5824"/>
</linearGradient>
<linearGradient id="paint3_linear" x1="15.5" y1="71.6127" x2="15.5" y2="79.9997" gradientUnits="userSpaceOnUse">
<stop stop-color="#FF5824" stop-opacity="0"/>
<stop offset="1" stop-color="#FF5824"/>
</linearGradient>
<linearGradient id="paint4_linear" x1="20.5" y1="70.9675" x2="20.5" y2="79.9998" gradientUnits="userSpaceOnUse">
<stop stop-color="#FF5824" stop-opacity="0"/>
<stop offset="1" stop-color="#FF5824"/>
</linearGradient>
<linearGradient id="paint5_linear" x1="25.5" y1="70.3224" x2="25.5" y2="79.9998" gradientUnits="userSpaceOnUse">
<stop stop-color="#FF5824" stop-opacity="0"/>
<stop offset="1" stop-color="#FF5824"/>
</linearGradient>
<linearGradient id="paint6_linear" x1="30.5" y1="69.6771" x2="30.5" y2="79.9997" gradientUnits="userSpaceOnUse">
<stop stop-color="#FF5824" stop-opacity="0"/>
<stop offset="1" stop-color="#FF5824"/>
</linearGradient>
<linearGradient id="paint7_linear" x1="35.5" y1="69.032" x2="35.5" y2="79.9997" gradientUnits="userSpaceOnUse">
<stop stop-color="#FF5824" stop-opacity="0"/>
<stop offset="1" stop-color="#FF5824"/>
</linearGradient>
<linearGradient id="paint8_linear" x1="40.5" y1="68.3868" x2="40.5" y2="79.9997" gradientUnits="userSpaceOnUse">
<stop stop-color="#FF5824" stop-opacity="0"/>
<stop offset="1" stop-color="#FF5824"/>
</linearGradient>
<linearGradient id="paint9_linear" x1="45.5" y1="67.7415" x2="45.5" y2="79.9995" gradientUnits="userSpaceOnUse">
<stop stop-color="#FF5824" stop-opacity="0"/>
<stop offset="1" stop-color="#FF5824"/>
</linearGradient>
<linearGradient id="paint10_linear" x1="50.5" y1="67.0966" x2="50.5" y2="79.9997" gradientUnits="userSpaceOnUse">
<stop stop-color="#FF5824" stop-opacity="0"/>
<stop offset="1" stop-color="#FF5824"/>
</linearGradient>
<linearGradient id="paint11_linear" x1="55.5" y1="66.4514" x2="55.5" y2="79.9998" gradientUnits="userSpaceOnUse">
<stop stop-color="#FF5824" stop-opacity="0"/>
<stop offset="1" stop-color="#FF5824"/>
</linearGradient>
<linearGradient id="paint12_linear" x1="60.5" y1="65.8062" x2="60.5" y2="79.9997" gradientUnits="userSpaceOnUse">
<stop stop-color="#FF5824" stop-opacity="0"/>
<stop offset="1" stop-color="#FF5824"/>
</linearGradient>
<linearGradient id="paint13_linear" x1="65.5" y1="65.1611" x2="65.5" y2="79.9998" gradientUnits="userSpaceOnUse">
<stop stop-color="#FF5824" stop-opacity="0"/>
<stop offset="1" stop-color="#FF5824"/>
</linearGradient>
<linearGradient id="paint14_linear" x1="70.5" y1="64.5161" x2="70.5" y2="79.9999" gradientUnits="userSpaceOnUse">
<stop stop-color="#FF5824" stop-opacity="0"/>
<stop offset="1" stop-color="#FF5824"/>
</linearGradient>
<linearGradient id="paint15_linear" x1="75.5" y1="63.8708" x2="75.5" y2="79.9998" gradientUnits="userSpaceOnUse">
<stop stop-color="#FF5824" stop-opacity="0"/>
<stop offset="1" stop-color="#FF5824"/>
</linearGradient>
<linearGradient id="paint16_linear" x1="80.5" y1="63.2258" x2="80.5" y2="80" gradientUnits="userSpaceOnUse">
<stop stop-color="#FF5824" stop-opacity="0"/>
<stop offset="1" stop-color="#FF5824"/>
</linearGradient>
<linearGradient id="paint17_linear" x1="85.5" y1="62.5804" x2="85.5" y2="79.9997" gradientUnits="userSpaceOnUse">
<stop stop-color="#FF5824" stop-opacity="0"/>
<stop offset="1" stop-color="#FF5824"/>
</linearGradient>
<linearGradient id="paint18_linear" x1="90.5" y1="61.9353" x2="90.5" y2="79.9998" gradientUnits="userSpaceOnUse">
<stop stop-color="#FF5824" stop-opacity="0"/>
<stop offset="1" stop-color="#FF5824"/>
</linearGradient>
<linearGradient id="paint19_linear" x1="95.5" y1="61.2902" x2="95.5" y2="79.9998" gradientUnits="userSpaceOnUse">
<stop stop-color="#FF5824" stop-opacity="0"/>
<stop offset="1" stop-color="#FF5824"/>
</linearGradient>
<linearGradient id="paint20_linear" x1="100.5" y1="60.6448" x2="100.5" y2="79.9996" gradientUnits="userSpaceOnUse">
<stop stop-color="#FF5824" stop-opacity="0"/>
<stop offset="1" stop-color="#FF5824"/>
</linearGradient>
<linearGradient id="paint21_linear" x1="105.5" y1="59.9998" x2="105.5" y2="79.9997" gradientUnits="userSpaceOnUse">
<stop stop-color="#FF5824" stop-opacity="0"/>
<stop offset="1" stop-color="#FF5824"/>
</linearGradient>
<linearGradient id="paint22_linear" x1="110.5" y1="59.3547" x2="110.5" y2="79.9998" gradientUnits="userSpaceOnUse">
<stop stop-color="#FF5824" stop-opacity="0"/>
<stop offset="1" stop-color="#FF5824"/>
</linearGradient>
<linearGradient id="paint23_linear" x1="115.5" y1="58.7092" x2="115.5" y2="79.9995" gradientUnits="userSpaceOnUse">
<stop stop-color="#FF5824" stop-opacity="0"/>
<stop offset="1" stop-color="#FF5824"/>
</linearGradient>
<linearGradient id="paint24_linear" x1="120.5" y1="58.0642" x2="120.5" y2="79.9996" gradientUnits="userSpaceOnUse">
<stop stop-color="#FF5824" stop-opacity="0"/>
<stop offset="1" stop-color="#FF5824"/>
</linearGradient>
<linearGradient id="paint25_linear" x1="125.5" y1="57.4193" x2="125.5" y2="79.9999" gradientUnits="userSpaceOnUse">
<stop stop-color="#FF5824" stop-opacity="0"/>
<stop offset="1" stop-color="#FF5824"/>
</linearGradient>
<linearGradient id="paint26_linear" x1="130.5" y1="56.7739" x2="130.5" y2="79.9997" gradientUnits="userSpaceOnUse">
<stop stop-color="#FF5824" stop-opacity="0"/>
<stop offset="1" stop-color="#FF5824"/>
</linearGradient>
<linearGradient id="paint27_linear" x1="135.5" y1="56.1289" x2="135.5" y2="79.9998" gradientUnits="userSpaceOnUse">
<stop stop-color="#FF5824" stop-opacity="0"/>
<stop offset="1" stop-color="#FF5824"/>
</linearGradient>
<linearGradient id="paint28_linear" x1="140.5" y1="55.4836" x2="140.5" y2="79.9997" gradientUnits="userSpaceOnUse">
<stop stop-color="#FF5824" stop-opacity="0"/>
<stop offset="1" stop-color="#FF5824"/>
</linearGradient>
<linearGradient id="paint29_linear" x1="145.5" y1="54.8386" x2="145.5" y2="79.9998" gradientUnits="userSpaceOnUse">
<stop stop-color="#FF5824" stop-opacity="0"/>
<stop offset="1" stop-color="#FF5824"/>
</linearGradient>
<linearGradient id="paint30_linear" x1="150.5" y1="54.1936" x2="150.5" y2="80" gradientUnits="userSpaceOnUse">
<stop stop-color="#FF5824" stop-opacity="0"/>
<stop offset="1" stop-color="#FF5824"/>
</linearGradient>
<linearGradient id="paint31_linear" x1="155.5" y1="53.5483" x2="155.5" y2="79.9999" gradientUnits="userSpaceOnUse">
<stop stop-color="#FF5824" stop-opacity="0"/>
<stop offset="1" stop-color="#FF5824"/>
</linearGradient>
<linearGradient id="paint32_linear" x1="160.5" y1="52.9031" x2="160.5" y2="79.9998" gradientUnits="userSpaceOnUse">
<stop stop-color="#FF5824" stop-opacity="0"/>
<stop offset="1" stop-color="#FF5824"/>
</linearGradient>
<linearGradient id="paint33_linear" x1="165.5" y1="52.2581" x2="165.5" y2="79.9999" gradientUnits="userSpaceOnUse">
<stop stop-color="#FF5824" stop-opacity="0"/>
<stop offset="1" stop-color="#FF5824"/>
</linearGradient>
<linearGradient id="paint34_linear" x1="170.5" y1="51.6125" x2="170.5" y2="79.9996" gradientUnits="userSpaceOnUse">
<stop stop-color="#FF5824" stop-opacity="0"/>
<stop offset="1" stop-color="#FF5824"/>
</linearGradient>
<linearGradient id="paint35_linear" x1="175.5" y1="50.9675" x2="175.5" y2="79.9997" gradientUnits="userSpaceOnUse">
<stop stop-color="#FF5824" stop-opacity="0"/>
<stop offset="1" stop-color="#FF5824"/>
</linearGradient>
<linearGradient id="paint36_linear" x1="180.5" y1="50.3225" x2="180.5" y2="79.9998" gradientUnits="userSpaceOnUse">
<stop stop-color="#FF5824" stop-opacity="0"/>
<stop offset="1" stop-color="#FF5824"/>
</linearGradient>
<linearGradient id="paint37_linear" x1="185.5" y1="49.677" x2="185.5" y2="79.9995" gradientUnits="userSpaceOnUse">
<stop stop-color="#FF5824" stop-opacity="0"/>
<stop offset="1" stop-color="#FF5824"/>
</linearGradient>
<linearGradient id="paint38_linear" x1="190.5" y1="49.0321" x2="190.5" y2="79.9998" gradientUnits="userSpaceOnUse">
<stop stop-color="#FF5824" stop-opacity="0"/>
<stop offset="1" stop-color="#FF5824"/>
</linearGradient>
<linearGradient id="paint39_linear" x1="195.5" y1="48.3872" x2="195.5" y2="80" gradientUnits="userSpaceOnUse">
<stop stop-color="#FF5824" stop-opacity="0"/>
<stop offset="1" stop-color="#FF5824"/>
</linearGradient>
<linearGradient id="paint40_linear" x1="200.5" y1="47.7417" x2="200.5" y2="79.9997" gradientUnits="userSpaceOnUse">
<stop stop-color="#FF5824" stop-opacity="0"/>
<stop offset="1" stop-color="#FF5824"/>
</linearGradient>
<linearGradient id="paint41_linear" x1="205.5" y1="47.0967" x2="205.5" y2="79.9998" gradientUnits="userSpaceOnUse">
<stop stop-color="#FF5824" stop-opacity="0"/>
<stop offset="1" stop-color="#FF5824"/>
</linearGradient>
<linearGradient id="paint42_linear" x1="210.5" y1="46.4514" x2="210.5" y2="79.9997" gradientUnits="userSpaceOnUse">
<stop stop-color="#FF5824" stop-opacity="0"/>
<stop offset="1" stop-color="#FF5824"/>
</linearGradient>
<linearGradient id="paint43_linear" x1="215.5" y1="45.8062" x2="215.5" y2="79.9996" gradientUnits="userSpaceOnUse">
<stop stop-color="#FF5824" stop-opacity="0"/>
<stop offset="1" stop-color="#FF5824"/>
</linearGradient>
<linearGradient id="paint44_linear" x1="220.5" y1="45.1611" x2="220.5" y2="79.9997" gradientUnits="userSpaceOnUse">
<stop stop-color="#FF5824" stop-opacity="0"/>
<stop offset="1" stop-color="#FF5824"/>
</linearGradient>
<linearGradient id="paint45_linear" x1="225.5" y1="44.5161" x2="225.5" y2="79.9999" gradientUnits="userSpaceOnUse">
<stop stop-color="#FF5824" stop-opacity="0"/>
<stop offset="1" stop-color="#FF5824"/>
</linearGradient>
<linearGradient id="paint46_linear" x1="230.5" y1="43.8708" x2="230.5" y2="79.9998" gradientUnits="userSpaceOnUse">
<stop stop-color="#FF5824" stop-opacity="0"/>
<stop offset="1" stop-color="#FF5824"/>
</linearGradient>
<linearGradient id="paint47_linear" x1="235.5" y1="43.2258" x2="235.5" y2="79.9999" gradientUnits="userSpaceOnUse">
<stop stop-color="#FF5824" stop-opacity="0"/>
<stop offset="1" stop-color="#FF5824"/>
</linearGradient>
<linearGradient id="paint48_linear" x1="240.5" y1="42.5804" x2="240.5" y2="79.9997" gradientUnits="userSpaceOnUse">
<stop stop-color="#FF5824" stop-opacity="0"/>
<stop offset="1" stop-color="#FF5824"/>
</linearGradient>
<linearGradient id="paint49_linear" x1="245.5" y1="41.9353" x2="245.5" y2="79.9997" gradientUnits="userSpaceOnUse">
<stop stop-color="#FF5824" stop-opacity="0"/>
<stop offset="1" stop-color="#FF5824"/>
</linearGradient>
<linearGradient id="paint50_linear" x1="250.5" y1="41.2903" x2="250.5" y2="79.9998" gradientUnits="userSpaceOnUse">
<stop stop-color="#FF5824" stop-opacity="0"/>
<stop offset="1" stop-color="#FF5824"/>
</linearGradient>
<linearGradient id="paint51_linear" x1="255.5" y1="40.6448" x2="255.5" y2="79.9995" gradientUnits="userSpaceOnUse">
<stop stop-color="#FF5824" stop-opacity="0"/>
<stop offset="1" stop-color="#FF5824"/>
</linearGradient>
<linearGradient id="paint52_linear" x1="260.5" y1="40" x2="260.5" y2="79.9999" gradientUnits="userSpaceOnUse">
<stop stop-color="#FF5824" stop-opacity="0"/>
<stop offset="1" stop-color="#FF5824"/>
</linearGradient>
<linearGradient id="paint53_linear" x1="265.5" y1="39.355" x2="265.5" y2="80" gradientUnits="userSpaceOnUse">
<stop stop-color="#FF5824" stop-opacity="0"/>
<stop offset="1" stop-color="#FF5824"/>
</linearGradient>
<linearGradient id="paint54_linear" x1="270.5" y1="38.7095" x2="270.5" y2="79.9997" gradientUnits="userSpaceOnUse">
<stop stop-color="#FF5824" stop-opacity="0"/>
<stop offset="1" stop-color="#FF5824"/>
</linearGradient>
<linearGradient id="paint55_linear" x1="275.5" y1="38.0645" x2="275.5" y2="79.9998" gradientUnits="userSpaceOnUse">
<stop stop-color="#FF5824" stop-opacity="0"/>
<stop offset="1" stop-color="#FF5824"/>
</linearGradient>
<linearGradient id="paint56_linear" x1="280.5" y1="37.4193" x2="280.5" y2="79.9998" gradientUnits="userSpaceOnUse">
<stop stop-color="#FF5824" stop-opacity="0"/>
<stop offset="1" stop-color="#FF5824"/>
</linearGradient>
<linearGradient id="paint57_linear" x1="285.5" y1="36.7739" x2="285.5" y2="79.9996" gradientUnits="userSpaceOnUse">
<stop stop-color="#FF5824" stop-opacity="0"/>
<stop offset="1" stop-color="#FF5824"/>
</linearGradient>
<linearGradient id="paint58_linear" x1="290.5" y1="36.1289" x2="290.5" y2="79.9997" gradientUnits="userSpaceOnUse">
<stop stop-color="#FF5824" stop-opacity="0"/>
<stop offset="1" stop-color="#FF5824"/>
</linearGradient>
<linearGradient id="paint59_linear" x1="295.5" y1="35.4836" x2="295.5" y2="79.9996" gradientUnits="userSpaceOnUse">
<stop stop-color="#FF5824" stop-opacity="0"/>
<stop offset="1" stop-color="#FF5824"/>
</linearGradient>
<linearGradient id="paint60_linear" x1="300.5" y1="34.8386" x2="300.5" y2="79.9998" gradientUnits="userSpaceOnUse">
<stop stop-color="#FF5824" stop-opacity="0"/>
<stop offset="1" stop-color="#FF5824"/>
</linearGradient>
<linearGradient id="paint61_linear" x1="305.5" y1="34.1936" x2="305.5" y2="79.9999" gradientUnits="userSpaceOnUse">
<stop stop-color="#FF5824" stop-opacity="0"/>
<stop offset="1" stop-color="#FF5824"/>
</linearGradient>
<linearGradient id="paint62_linear" x1="310.5" y1="33.5483" x2="310.5" y2="79.9998" gradientUnits="userSpaceOnUse">
<stop stop-color="#FF5824" stop-opacity="0"/>
<stop offset="1" stop-color="#FF5824"/>
</linearGradient>
<linearGradient id="paint63_linear" x1="315.5" y1="32.9031" x2="315.5" y2="79.9997" gradientUnits="userSpaceOnUse">
<stop stop-color="#FF5824" stop-opacity="0"/>
<stop offset="1" stop-color="#FF5824"/>
</linearGradient>
<linearGradient id="paint64_linear" x1="320.5" y1="32.2581" x2="320.5" y2="79.9998" gradientUnits="userSpaceOnUse">
<stop stop-color="#FF5824" stop-opacity="0"/>
<stop offset="1" stop-color="#FF5824"/>
</linearGradient>
<linearGradient id="paint65_linear" x1="325.5" y1="31.6125" x2="325.5" y2="79.9995" gradientUnits="userSpaceOnUse">
<stop stop-color="#FF5824" stop-opacity="0"/>
<stop offset="1" stop-color="#FF5824"/>
</linearGradient>
<linearGradient id="paint66_linear" x1="330.5" y1="30.9678" x2="330.5" y2="79.9999" gradientUnits="userSpaceOnUse">
<stop stop-color="#FF5824" stop-opacity="0"/>
<stop offset="1" stop-color="#FF5824"/>
</linearGradient>
<linearGradient id="paint67_linear" x1="335.5" y1="30.3228" x2="335.5" y2="80" gradientUnits="userSpaceOnUse">
<stop stop-color="#FF5824" stop-opacity="0"/>
<stop offset="1" stop-color="#FF5824"/>
</linearGradient>
<linearGradient id="paint68_linear" x1="340.5" y1="29.6772" x2="340.5" y2="79.9997" gradientUnits="userSpaceOnUse">
<stop stop-color="#FF5824" stop-opacity="0"/>
<stop offset="1" stop-color="#FF5824"/>
</linearGradient>
<linearGradient id="paint69_linear" x1="345.5" y1="29.0322" x2="345.5" y2="79.9998" gradientUnits="userSpaceOnUse">
<stop stop-color="#FF5824" stop-opacity="0"/>
<stop offset="1" stop-color="#FF5824"/>
</linearGradient>
<linearGradient id="paint70_linear" x1="350.5" y1="28.3871" x2="350.5" y2="79.9998" gradientUnits="userSpaceOnUse">
<stop stop-color="#FF5824" stop-opacity="0"/>
<stop offset="1" stop-color="#FF5824"/>
</linearGradient>
<linearGradient id="paint71_linear" x1="355.5" y1="27.7417" x2="355.5" y2="79.9996" gradientUnits="userSpaceOnUse">
<stop stop-color="#FF5824" stop-opacity="0"/>
<stop offset="1" stop-color="#FF5824"/>
</linearGradient>
<linearGradient id="paint72_linear" x1="360.5" y1="27.0967" x2="360.5" y2="79.9998" gradientUnits="userSpaceOnUse">
<stop stop-color="#FF5824" stop-opacity="0"/>
<stop offset="1" stop-color="#FF5824"/>
</linearGradient>
<linearGradient id="paint73_linear" x1="365.5" y1="26.4515" x2="365.5" y2="79.9998" gradientUnits="userSpaceOnUse">
<stop stop-color="#FF5824" stop-opacity="0"/>
<stop offset="1" stop-color="#FF5824"/>
</linearGradient>
<linearGradient id="paint74_linear" x1="370.5" y1="25.8062" x2="370.5" y2="79.9995" gradientUnits="userSpaceOnUse">
<stop stop-color="#FF5824" stop-opacity="0"/>
<stop offset="1" stop-color="#FF5824"/>
</linearGradient>
<linearGradient id="paint75_linear" x1="375.5" y1="25.1611" x2="375.5" y2="79.9997" gradientUnits="userSpaceOnUse">
<stop stop-color="#FF5824" stop-opacity="0"/>
<stop offset="1" stop-color="#FF5824"/>
</linearGradient>
<linearGradient id="paint76_linear" x1="380.5" y1="24.5161" x2="380.5" y2="79.9998" gradientUnits="userSpaceOnUse">
<stop stop-color="#FF5824" stop-opacity="0"/>
<stop offset="1" stop-color="#FF5824"/>
</linearGradient>
<linearGradient id="paint77_linear" x1="385.5" y1="23.8708" x2="385.5" y2="79.9997" gradientUnits="userSpaceOnUse">
<stop stop-color="#FF5824" stop-opacity="0"/>
<stop offset="1" stop-color="#FF5824"/>
</linearGradient>
<linearGradient id="paint78_linear" x1="390.5" y1="23.2258" x2="390.5" y2="79.9999" gradientUnits="userSpaceOnUse">
<stop stop-color="#FF5824" stop-opacity="0"/>
<stop offset="1" stop-color="#FF5824"/>
</linearGradient>
<linearGradient id="paint79_linear" x1="395.5" y1="22.5804" x2="395.5" y2="79.9996" gradientUnits="userSpaceOnUse">
<stop stop-color="#FF5824" stop-opacity="0"/>
<stop offset="1" stop-color="#FF5824"/>
</linearGradient>
<linearGradient id="paint80_linear" x1="400.5" y1="21.9355" x2="400.5" y2="79.9999" gradientUnits="userSpaceOnUse">
<stop stop-color="#FF5824" stop-opacity="0"/>
<stop offset="1" stop-color="#FF5824"/>
</linearGradient>
<linearGradient id="paint81_linear" x1="405.5" y1="21.2905" x2="405.5" y2="80" gradientUnits="userSpaceOnUse">
<stop stop-color="#FF5824" stop-opacity="0"/>
<stop offset="1" stop-color="#FF5824"/>
</linearGradient>
<linearGradient id="paint82_linear" x1="410.5" y1="20.645" x2="410.5" y2="79.9997" gradientUnits="userSpaceOnUse">
<stop stop-color="#FF5824" stop-opacity="0"/>
<stop offset="1" stop-color="#FF5824"/>
</linearGradient>
<linearGradient id="paint83_linear" x1="415.5" y1="20" x2="415.5" y2="79.9998" gradientUnits="userSpaceOnUse">
<stop stop-color="#FF5824" stop-opacity="0"/>
<stop offset="1" stop-color="#FF5824"/>
</linearGradient>
<linearGradient id="paint84_linear" x1="420.5" y1="19.355" x2="420.5" y2="80" gradientUnits="userSpaceOnUse">
<stop stop-color="#FF5824" stop-opacity="0"/>
<stop offset="1" stop-color="#FF5824"/>
</linearGradient>
<linearGradient id="paint85_linear" x1="425.5" y1="18.7095" x2="425.5" y2="79.9996" gradientUnits="userSpaceOnUse">
<stop stop-color="#FF5824" stop-opacity="0"/>
<stop offset="1" stop-color="#FF5824"/>
</linearGradient>
<linearGradient id="paint86_linear" x1="430.5" y1="18.0645" x2="430.5" y2="79.9998" gradientUnits="userSpaceOnUse">
<stop stop-color="#FF5824" stop-opacity="0"/>
<stop offset="1" stop-color="#FF5824"/>
</linearGradient>
<linearGradient id="paint87_linear" x1="435.5" y1="17.4193" x2="435.5" y2="79.9998" gradientUnits="userSpaceOnUse">
<stop stop-color="#FF5824" stop-opacity="0"/>
<stop offset="1" stop-color="#FF5824"/>
</linearGradient>
<linearGradient id="paint88_linear" x1="440.5" y1="16.7739" x2="440.5" y2="79.9995" gradientUnits="userSpaceOnUse">
<stop stop-color="#FF5824" stop-opacity="0"/>
<stop offset="1" stop-color="#FF5824"/>
</linearGradient>
<linearGradient id="paint89_linear" x1="445.5" y1="16.1289" x2="445.5" y2="79.9997" gradientUnits="userSpaceOnUse">
<stop stop-color="#FF5824" stop-opacity="0"/>
<stop offset="1" stop-color="#FF5824"/>
</linearGradient>
<linearGradient id="paint90_linear" x1="450.5" y1="15.4836" x2="450.5" y2="79.9996" gradientUnits="userSpaceOnUse">
<stop stop-color="#FF5824" stop-opacity="0"/>
<stop offset="1" stop-color="#FF5824"/>
</linearGradient>
<linearGradient id="paint91_linear" x1="455.5" y1="14.8386" x2="455.5" y2="79.9997" gradientUnits="userSpaceOnUse">
<stop stop-color="#FF5824" stop-opacity="0"/>
<stop offset="1" stop-color="#FF5824"/>
</linearGradient>
<linearGradient id="paint92_linear" x1="460.5" y1="14.1936" x2="460.5" y2="79.9999" gradientUnits="userSpaceOnUse">
<stop stop-color="#FF5824" stop-opacity="0"/>
<stop offset="1" stop-color="#FF5824"/>
</linearGradient>
<linearGradient id="paint93_linear" x1="465.5" y1="13.5482" x2="465.5" y2="79.9996" gradientUnits="userSpaceOnUse">
<stop stop-color="#FF5824" stop-opacity="0"/>
<stop offset="1" stop-color="#FF5824"/>
</linearGradient>
<linearGradient id="paint94_linear" x1="470.5" y1="12.9033" x2="470.5" y2="79.9999" gradientUnits="userSpaceOnUse">
<stop stop-color="#FF5824" stop-opacity="0"/>
<stop offset="1" stop-color="#FF5824"/>
</linearGradient>
<linearGradient id="paint95_linear" x1="475.5" y1="12.2583" x2="475.5" y2="80" gradientUnits="userSpaceOnUse">
<stop stop-color="#FF5824" stop-opacity="0"/>
<stop offset="1" stop-color="#FF5824"/>
</linearGradient>
<linearGradient id="paint96_linear" x1="480.5" y1="11.6129" x2="480.5" y2="79.9998" gradientUnits="userSpaceOnUse">
<stop stop-color="#FF5824" stop-opacity="0"/>
<stop offset="1" stop-color="#FF5824"/>
</linearGradient>
<linearGradient id="paint97_linear" x1="485.5" y1="10.9678" x2="485.5" y2="79.9998" gradientUnits="userSpaceOnUse">
<stop stop-color="#FF5824" stop-opacity="0"/>
<stop offset="1" stop-color="#FF5824"/>
</linearGradient>
<linearGradient id="paint98_linear" x1="490.5" y1="10.3228" x2="490.5" y2="80" gradientUnits="userSpaceOnUse">
<stop stop-color="#FF5824" stop-opacity="0"/>
<stop offset="1" stop-color="#FF5824"/>
</linearGradient>
<linearGradient id="paint99_linear" x1="495.5" y1="9.67725" x2="495.5" y2="79.9996" gradientUnits="userSpaceOnUse">
<stop stop-color="#FF5824" stop-opacity="0"/>
<stop offset="1" stop-color="#FF5824"/>
</linearGradient>
<linearGradient id="paint100_linear" x1="500.5" y1="9.03223" x2="500.5" y2="79.9998" gradientUnits="userSpaceOnUse">
<stop stop-color="#FF5824" stop-opacity="0"/>
<stop offset="1" stop-color="#FF5824"/>
</linearGradient>
<linearGradient id="paint101_linear" x1="505.5" y1="8.38708" x2="505.5" y2="79.9998" gradientUnits="userSpaceOnUse">
<stop stop-color="#FF5824" stop-opacity="0"/>
<stop offset="1" stop-color="#FF5824"/>
</linearGradient>
<linearGradient id="paint102_linear" x1="510.5" y1="7.7417" x2="510.5" y2="79.9996" gradientUnits="userSpaceOnUse">
<stop stop-color="#FF5824" stop-opacity="0"/>
<stop offset="1" stop-color="#FF5824"/>
</linearGradient>
<linearGradient id="paint103_linear" x1="515.5" y1="7.09668" x2="515.5" y2="79.9997" gradientUnits="userSpaceOnUse">
<stop stop-color="#FF5824" stop-opacity="0"/>
<stop offset="1" stop-color="#FF5824"/>
</linearGradient>
<linearGradient id="paint104_linear" x1="520.5" y1="6.45154" x2="520.5" y2="79.9997" gradientUnits="userSpaceOnUse">
<stop stop-color="#FF5824" stop-opacity="0"/>
<stop offset="1" stop-color="#FF5824"/>
</linearGradient>
<linearGradient id="paint105_linear" x1="525.5" y1="5.80615" x2="525.5" y2="79.9995" gradientUnits="userSpaceOnUse">
<stop stop-color="#FF5824" stop-opacity="0"/>
<stop offset="1" stop-color="#FF5824"/>
</linearGradient>
<linearGradient id="paint106_linear" x1="530.5" y1="5.16113" x2="530.5" y2="79.9996" gradientUnits="userSpaceOnUse">
<stop stop-color="#FF5824" stop-opacity="0"/>
<stop offset="1" stop-color="#FF5824"/>
</linearGradient>
<linearGradient id="paint107_linear" x1="535.5" y1="4.51611" x2="535.5" y2="79.9998" gradientUnits="userSpaceOnUse">
<stop stop-color="#FF5824" stop-opacity="0"/>
<stop offset="1" stop-color="#FF5824"/>
</linearGradient>
<linearGradient id="paint108_linear" x1="540.5" y1="3.87109" x2="540.5" y2="79.9999" gradientUnits="userSpaceOnUse">
<stop stop-color="#FF5824" stop-opacity="0"/>
<stop offset="1" stop-color="#FF5824"/>
</linearGradient>
<linearGradient id="paint109_linear" x1="545.5" y1="3.22607" x2="545.5" y2="80" gradientUnits="userSpaceOnUse">
<stop stop-color="#FF5824" stop-opacity="0"/>
<stop offset="1" stop-color="#FF5824"/>
</linearGradient>
<linearGradient id="paint110_linear" x1="550.5" y1="2.58069" x2="550.5" y2="79.9998" gradientUnits="userSpaceOnUse">
<stop stop-color="#FF5824" stop-opacity="0"/>
<stop offset="1" stop-color="#FF5824"/>
</linearGradient>
<linearGradient id="paint111_linear" x1="555.5" y1="1.93555" x2="555.5" y2="79.9998" gradientUnits="userSpaceOnUse">
<stop stop-color="#FF5824" stop-opacity="0"/>
<stop offset="1" stop-color="#FF5824"/>
</linearGradient>
<linearGradient id="paint112_linear" x1="560.5" y1="1.29053" x2="560.5" y2="80" gradientUnits="userSpaceOnUse">
<stop stop-color="#FF5824" stop-opacity="0"/>
<stop offset="1" stop-color="#FF5824"/>
</linearGradient>
<linearGradient id="paint113_linear" x1="565.5" y1="0.64502" x2="565.5" y2="79.9996" gradientUnits="userSpaceOnUse">
<stop stop-color="#FF5824" stop-opacity="0"/>
<stop offset="1" stop-color="#FF5824"/>
</linearGradient>
<linearGradient id="paint114_linear" x1="570.5" y1="0" x2="570.5" y2="79.9998" gradientUnits="userSpaceOnUse">
<stop stop-color="#FF5824" stop-opacity="0"/>
<stop offset="1" stop-color="#FF5824"/>
</linearGradient>
</defs>
</svg>
