<svg width="32" height="32" viewBox="0 0 32 32" fill="none" xmlns="http://www.w3.org/2000/svg">
<path d="M27.3333 6.66669H8V25.3334H27.3333C28.4379 25.3334 29.3333 24.4379 29.3333 23.3334V8.66669C29.3333 7.56212 28.4379 6.66669 27.3333 6.66669Z" fill="#FF5824"/>
<path d="M10.6665 16C10.6665 20.4183 14.2482 24 18.6665 24C23.0848 24 26.6665 20.4183 26.6665 16C26.6665 11.5817 23.0848 8 18.6665 8C14.2482 8 10.6665 11.5817 10.6665 16Z" fill="#242731"/>
<path d="M19.0893 9.33325C20.5567 9.33325 21.7444 9.96921 21.7444 10.7469C21.7444 11.3683 20.6148 11.5391 19.231 13.5851C19.0457 13.5415 18.007 13.3852 17.1571 14.0357C16.7757 12.7493 16.4379 11.1539 16.4379 10.7433C16.4343 9.95467 17.6183 9.33325 19.0893 9.33325ZM11.9995 15.562C11.9995 14.0939 12.6351 12.9055 13.4124 12.9055C14.0335 12.9055 14.2042 14.0357 16.249 15.4203C16.2055 15.6056 16.0674 16.6304 16.6994 17.4953C15.4137 17.8769 13.8192 18.2149 13.4088 18.2149C12.6351 18.233 11.9995 17.0302 11.9995 15.562ZM18.2394 22.6666C16.7721 22.6666 15.5844 22.0306 15.5844 21.2529C15.5844 20.6315 16.7139 20.4607 18.0978 18.4147C18.9331 18.5928 19.7504 18.2876 20.1717 17.9641C20.553 19.2506 20.8908 20.8459 20.8908 21.2566C20.8945 22.0306 19.7104 22.6666 18.2394 22.6666ZM23.9163 19.0798C23.2953 19.0798 23.1245 17.9496 21.0797 16.565C21.1233 16.3797 21.3884 15.2858 20.6293 14.49C21.9151 14.1084 23.5095 13.7704 23.92 13.7704C24.6972 13.7704 25.3328 14.9588 25.3328 16.4269C25.3328 17.8951 24.6936 19.0798 23.9163 19.0798Z" fill="#FF5824"/>
<path d="M5.33317 9.33331H3.6665C3.11422 9.33331 2.6665 9.78103 2.6665 10.3333V21.6666C2.6665 22.2189 3.11422 22.6666 3.6665 22.6666H5.33317V9.33331Z" fill="#FF5824"/>
<path d="M5.99984 4H5.33317H3.99984C3.26346 4 2.6665 4.59695 2.6665 5.33333C2.6665 6.06971 3.26346 6.66667 3.99984 6.66667H4.6665C5.03469 6.66667 5.33317 6.96514 5.33317 7.33333V26.6667C5.33317 27.403 5.93012 28 6.6665 28C7.40288 28 7.99984 27.403 7.99984 26.6667V6C7.99984 4.89543 7.10441 4 5.99984 4Z" fill="#242731"/>
</svg>
