<svg width="32" height="32" viewBox="0 0 32 32" fill="none" xmlns="http://www.w3.org/2000/svg">
<path d="M27.3333 6.66663H8V25.3333H27.3333C28.4379 25.3333 29.3333 24.4379 29.3333 23.3333V8.66663C29.3333 7.56206 28.4379 6.66663 27.3333 6.66663Z" fill="#FF5824"/>
<path d="M10.6667 16C10.6667 20.4183 14.2484 24 18.6667 24C23.0849 24 26.6667 20.4183 26.6667 16C26.6667 11.5817 23.0849 8 18.6667 8C14.2484 8 10.6667 11.5817 10.6667 16Z" fill="white"/>
<path d="M19.0892 9.33325C20.5566 9.33325 21.7443 9.96921 21.7443 10.7469C21.7443 11.3683 20.6147 11.5391 19.2309 13.5851C19.0456 13.5415 18.0069 13.3852 17.157 14.0357C16.7756 12.7493 16.4378 11.1539 16.4378 10.7433C16.4342 9.95467 17.6182 9.33325 19.0892 9.33325ZM11.9994 15.562C11.9994 14.0939 12.635 12.9055 13.4123 12.9055C14.0334 12.9055 14.2041 14.0357 16.2489 15.4203C16.2054 15.6056 16.0673 16.6304 16.6993 17.4953C15.4136 17.8769 13.8191 18.2149 13.4087 18.2149C12.635 18.233 11.9994 17.0302 11.9994 15.562ZM18.2393 22.6666C16.772 22.6666 15.5843 22.0306 15.5843 21.2529C15.5843 20.6315 16.7138 20.4607 18.0977 18.4147C18.933 18.5928 19.7503 18.2876 20.1716 17.9641C20.5529 19.2506 20.8907 20.8459 20.8907 21.2566C20.8944 22.0306 19.7103 22.6666 18.2393 22.6666ZM23.9162 19.0798C23.2952 19.0798 23.1245 17.9496 21.0796 16.565C21.1232 16.3797 21.3883 15.2858 20.6292 14.49C21.915 14.1084 23.5095 13.7704 23.9199 13.7704C24.6971 13.7704 25.3328 14.9588 25.3328 16.4269C25.3328 17.8951 24.6935 19.0798 23.9162 19.0798Z" fill="#FF5824"/>
<path d="M5.33332 9.33337H3.66666C3.11437 9.33337 2.66666 9.78109 2.66666 10.3334V21.6667C2.66666 22.219 3.11437 22.6667 3.66666 22.6667H5.33332V9.33337Z" fill="#FF5824"/>
<path d="M5.99999 4H5.33332H3.99999C3.26361 4 2.66666 4.59695 2.66666 5.33333C2.66666 6.06971 3.26361 6.66667 3.99999 6.66667H4.66666C5.03485 6.66667 5.33332 6.96514 5.33332 7.33333V26.6667C5.33332 27.403 5.93028 28 6.66666 28C7.40304 28 7.99999 27.403 7.99999 26.6667V6C7.99999 4.89543 7.10456 4 5.99999 4Z" fill="white"/>
</svg>
