<svg width="276" height="234" viewBox="0 0 276 234" fill="none" xmlns="http://www.w3.org/2000/svg">
<g opacity="0.9">
<path d="M173.193 193.75L173.718 194.661L122.094 239.421C114.825 246.751 104.085 244.868 98.8495 240.845L90.4074 236.616L85.9614 239.074C78.9144 242.543 70.4242 240.661 65.0854 235.073L64.1689 234.042C56.7438 237.293 47.6578 235.57 42.3764 229.01L38.7103 224.888L97.3214 192.396C107.027 186.945 118.073 185.279 129.106 187.121C131.432 187.457 137.825 188.514 139.555 189.01L173.193 193.75Z" fill="url(#paint0_linear)"/>
<path d="M64.3857 233.665L88.6782 219.551" stroke="#F3C294" stroke-miterlimit="10" stroke-linecap="round" stroke-linejoin="round"/>
<path d="M90.7862 236.831L115.079 222.716" stroke="#F3C294" stroke-miterlimit="10" stroke-linecap="round" stroke-linejoin="round"/>
<path d="M193.248 182.155L193.773 183.066L258.294 160.674C268.267 158.036 272.008 147.78 271.147 141.227L271.711 131.791L276.06 129.165C282.583 124.788 285.201 116.484 283.037 109.059L282.604 107.749C289.129 102.935 292.181 94.1936 289.149 86.3333L287.418 81.0928L230.013 115.678C220.446 121.369 213.482 130.116 209.558 140.606C208.687 142.791 206.404 148.864 205.968 150.612L193.248 182.155Z" fill="url(#paint1_linear)"/>
<path d="M282.172 107.748L257.819 121.758" stroke="#F3C294" stroke-miterlimit="10" stroke-linecap="round" stroke-linejoin="round"/>
<path d="M271.709 132.226L247.356 146.237" stroke="#F3C294" stroke-miterlimit="10" stroke-linecap="round" stroke-linejoin="round"/>
<path d="M236.691 172.404L228.843 158.55L224.269 161.751L220.502 163.929C199.13 164.86 167.349 184.768 153.765 204.048L142.699 214.625L150.186 227.853C150.306 228.062 150.427 228.271 150.487 228.375L150.668 228.689C155.002 235.239 168.17 235.568 185.597 228.279C219.823 214.064 243.35 184.438 236.691 172.404Z" fill="url(#paint2_linear)"/>
<path d="M177.951 214.74C153.867 224.763 137.916 220.331 142.315 204.968C148.641 182.78 190.907 153.466 216.401 153.634C247.781 153.604 221.631 196.591 177.951 214.74Z" fill="url(#paint3_linear)"/>
<path d="M220.951 172.183C220.402 173.894 219.749 175.665 218.617 177.574C218.423 177.964 218.23 178.355 217.932 178.806C217.097 180.263 215.994 181.737 214.785 183.272C214.278 183.844 213.831 184.521 213.323 185.093C210.339 188.63 206.755 192.095 202.676 195.429C201.899 196.017 201.122 196.606 200.345 197.194C199.105 198.19 197.7 199.141 196.295 200.093C190.989 203.718 185.173 206.942 179.309 209.357C159.922 217.361 147.059 213.93 150.599 201.433C154.14 188.936 172.75 172.324 192.137 164.32C199.003 161.465 205.244 159.946 210.442 160.006C219.205 159.956 223.264 164.576 220.951 172.183Z" stroke="#ED541D" stroke-width="1.5" stroke-miterlimit="10"/>
<path d="M183.095 201.337C181.495 202.113 180.068 202.938 178.578 203.65C178.546 202.326 178.514 201.002 178.308 199.63C175.436 200.992 172.629 202.466 169.822 203.939C170.3 201.724 170.345 201.549 170.526 200.847C170.571 200.672 170.68 200.609 171.01 200.418C171.887 199.911 172.72 199.579 173.597 199.071C175.024 198.247 175.288 197.945 175.25 197.37C175.083 194.036 174.87 190.877 174.703 187.543C174.691 186.506 173.574 186.853 172.193 187.502C171.206 188.073 170.264 188.469 169.167 189.103C169.173 188.353 169.116 187.492 169.013 186.806C170.613 186.029 173.749 184.365 176.776 182.765C177.324 182.447 177.324 182.447 177.305 182.16C177.247 181.299 177.157 179.113 177.099 178.252C178.59 177.539 180.016 176.714 181.552 175.826C181.584 177.15 181.616 178.474 181.822 179.847C182.919 179.212 184.081 178.69 185.178 178.056C185.146 176.732 185.114 175.408 184.908 174.035C186.224 173.274 187.605 172.625 189.032 171.8C189.115 172.199 189.282 175.534 189.237 175.709C189.192 175.884 189.366 175.933 189.695 175.742C194.78 173.399 199.072 171.962 199.594 174.644C199.826 175.554 199.664 176.542 198.561 177.926C197.831 178.944 196.908 179.627 196.269 180.295C197.495 179.884 200.825 178.556 202.167 179.868C202.599 180.364 202.657 181.226 202.541 182.039C202.379 183.027 201.934 184.031 201.095 185.112C200.101 186.433 198.649 187.72 196.913 189.022C194.847 190.514 192.827 191.831 190.569 192.988C190.24 193.178 190.13 193.242 190.149 193.529C190.226 194.678 190.239 195.715 190.4 197.262C189.084 198.023 187.703 198.673 186.276 199.497C186.244 198.173 186.103 196.913 186.071 195.589C184.974 196.223 183.812 196.745 182.715 197.38C182.967 198.577 183.063 200.013 183.095 201.337ZM182.478 189.611C182.529 191.222 182.645 192.945 182.761 194.668C187.323 192.18 189.692 190.959 192.067 188.99C193.364 187.941 193.984 186.986 194.1 186.173C194.152 185.248 193.5 184.879 192.21 185.178C189.674 185.6 185.111 188.089 182.588 189.547C182.523 189.436 182.523 189.436 182.478 189.611ZM182.125 182.655C182.286 184.203 182.273 185.702 182.369 187.138C183.969 186.362 187.261 184.459 188.732 183.459C193.146 180.46 192.314 178.256 189.578 179.092C187.017 179.976 184.274 181.562 182.125 182.655Z" fill="url(#paint4_linear)"/>
<path d="M181.644 77.0243L173.1 74.6751L172.556 77.7301L171.927 80.0669C163.866 88.8386 159.165 109.151 161.392 122.059L161.19 130.562L169.345 132.807C169.474 132.842 169.604 132.877 169.669 132.894L169.863 132.946C174.149 133.811 179.471 128.761 183.475 119.046C191.38 100.006 189.004 79.1269 181.644 77.0243Z" fill="url(#paint5_linear)"/>
<path d="M175.133 116.742C169.579 130.148 161.546 134.683 157.238 126.925C151.004 115.73 156.14 87.603 166.259 77.6411C178.621 65.2861 185.218 92.4393 175.133 116.742Z" fill="url(#paint6_linear)"/>
<path d="M175.35 83.1279C175.807 84.015 176.246 84.9669 176.55 86.1612C176.627 86.3905 176.705 86.6199 176.765 86.9141C177.009 87.8142 177.154 88.8268 177.281 89.9043C177.306 90.3284 177.396 90.7698 177.421 91.1939C177.635 93.7556 177.585 96.5249 177.288 99.4372C177.213 99.9738 177.138 100.51 177.063 101.047C176.966 101.925 176.786 102.851 176.606 103.777C175.94 107.287 174.915 110.84 173.552 114.094C169.056 124.86 162.635 128.573 159.115 122.277C155.595 115.981 156.399 102.143 160.895 91.3764C162.48 87.5554 164.344 84.5046 166.417 82.4837C169.852 79.0174 173.27 79.2335 175.35 83.1279Z" stroke="#ED541D" stroke-width="1.5" stroke-miterlimit="10"/>
<path d="M171.891 109.458C171.565 110.392 171.327 111.276 171.019 112.142C170.486 111.635 169.953 111.128 169.332 110.671C168.735 112.335 168.208 114.018 167.681 115.7C166.998 114.643 166.946 114.556 166.742 114.21C166.691 114.123 166.709 114.055 166.764 113.851C166.911 113.307 167.108 112.849 167.255 112.305C167.493 111.42 167.478 111.198 167.237 110.987C165.86 109.745 164.533 108.589 163.156 107.346C162.743 106.944 162.439 107.52 162.15 108.318C161.986 108.93 161.77 109.456 161.587 110.136C161.294 109.839 160.933 109.524 160.622 109.295C160.948 108.361 161.53 106.475 162.094 104.656C162.185 104.316 162.185 104.316 162.065 104.211C161.703 103.896 160.808 103.073 160.446 102.758C160.754 101.892 160.992 101.007 161.248 100.055C161.781 100.562 162.315 101.069 162.936 101.526C163.119 100.846 163.372 100.184 163.555 99.5035C163.021 98.9966 162.488 98.4896 161.867 98.0322C162.086 97.2157 162.376 96.4177 162.614 95.5332C162.804 95.6568 164.181 96.8994 164.232 96.986C164.283 97.0725 164.371 97.023 164.426 96.8189C165.509 93.8992 166.636 91.6474 167.897 92.4943C168.346 92.76 168.671 93.2114 168.78 94.1886C168.893 94.875 168.798 95.5059 168.809 96.0193C169.131 95.3759 169.921 93.5449 170.967 93.5321C171.332 93.5567 171.694 93.872 171.968 94.2367C172.293 94.6881 172.512 95.257 172.606 96.0115C172.734 96.9207 172.668 97.9969 172.495 99.1906C172.268 100.589 171.99 101.9 171.554 103.242C171.499 103.446 171.481 103.514 171.601 103.619C172.083 104.04 172.496 104.442 173.169 104.986C172.949 105.802 172.66 106.6 172.422 107.485C171.888 106.978 171.337 106.539 170.803 106.032C170.62 106.712 170.368 107.374 170.184 108.055C170.754 108.425 171.357 108.951 171.891 109.458ZM167.035 105.099C167.689 105.711 168.413 106.342 169.136 106.973C169.956 104.201 170.41 102.791 170.572 101.084C170.671 100.162 170.54 99.544 170.266 99.1792C169.922 98.7958 169.52 98.9073 169.129 99.5322C168.295 100.695 167.475 103.466 167.054 105.031C166.984 105.013 166.984 105.013 167.035 105.099ZM164.16 102.509C164.832 103.053 165.417 103.647 166.02 104.172C166.345 103.238 166.895 101.197 167.081 100.226C167.642 97.3124 166.447 96.7748 165.697 98.1791C165.035 99.5338 164.577 101.235 164.16 102.509Z" fill="url(#paint7_linear)"/>
<path d="M95.7747 121.244L102.914 121.194L102.696 123.089L102.694 124.571C107.121 131.033 106.51 143.803 102.066 151.099L100.437 156.168L93.6222 156.217C93.514 156.217 93.4058 156.217 93.3517 156.218L93.1895 156.218C89.674 156.057 86.5957 152.23 85.5219 145.847C83.3738 133.328 89.6087 121.334 95.7747 121.244Z" fill="url(#paint8_linear)"/>
<path d="M92.4936 145.791C93.9972 154.604 99.2931 158.552 104.274 154.633C111.475 148.981 113.389 131.514 107.611 124.024C100.591 114.765 89.7549 129.813 92.4936 145.791Z" fill="url(#paint9_linear)"/>
<path d="M99.3867 125.848C98.8453 126.302 98.3039 126.797 97.8163 127.456C97.7079 127.58 97.5996 127.704 97.4912 127.869C97.112 128.363 96.7868 128.94 96.4615 129.559C96.353 129.806 96.1903 130.053 96.0818 130.301C95.3769 131.784 94.834 133.433 94.4532 135.204C94.3987 135.534 94.3443 135.863 94.2898 136.193C94.181 136.729 94.1262 137.305 94.0714 137.882C93.8524 140.066 93.9036 142.331 94.2796 144.472C95.5148 151.556 99.7298 154.763 103.79 151.587C107.851 148.41 110.133 140.087 108.897 133.003C108.468 130.491 107.659 128.392 106.471 126.869C104.527 124.276 101.823 123.868 99.3867 125.848Z" stroke="#ED541D" stroke-width="1.5" stroke-miterlimit="10"/>
<path d="M96.5456 141.987C96.6027 142.592 96.602 143.153 96.6592 143.714C97.1807 143.498 97.7021 143.281 98.2813 143.108C98.3958 144.187 98.4524 145.267 98.5089 146.346C99.2623 145.827 99.3203 145.784 99.5521 145.611C99.6101 145.567 99.6101 145.524 99.6103 145.395C99.6107 145.049 99.5532 144.747 99.5536 144.402C99.5543 143.84 99.6124 143.711 99.8441 143.624C101.177 143.104 102.451 142.628 103.783 142.108C104.189 141.935 104.304 142.323 104.362 142.841C104.361 143.23 104.419 143.575 104.418 144.007C104.708 143.877 105.055 143.747 105.345 143.661C105.288 143.056 105.231 141.847 105.175 140.681C105.175 140.466 105.175 140.466 105.291 140.422C105.639 140.292 106.508 139.946 106.855 139.816C106.798 139.255 106.799 138.693 106.799 138.089C106.278 138.305 105.757 138.522 105.177 138.695C105.178 138.263 105.121 137.832 105.121 137.4C105.642 137.183 106.164 136.967 106.743 136.793C106.744 136.275 106.687 135.757 106.687 135.196C106.513 135.239 105.181 135.759 105.123 135.802C105.065 135.846 105.007 135.803 105.007 135.673C104.778 133.773 104.375 132.263 103.216 132.566C102.811 132.653 102.463 132.87 102.173 133.431C101.941 133.82 101.882 134.209 101.766 134.511C101.651 134.08 101.421 132.871 100.61 132.699C100.321 132.656 99.9733 132.786 99.6835 132.959C99.3359 133.176 99.046 133.478 98.8138 133.91C98.5236 134.429 98.3491 135.077 98.2324 135.811C98.1155 136.675 98.0566 137.495 98.1135 138.359C98.1133 138.488 98.1133 138.531 97.9974 138.575C97.5339 138.748 97.1284 138.921 96.4912 139.138C96.4905 139.656 96.5478 140.174 96.5471 140.735C97.0685 140.519 97.5899 140.345 98.1113 140.129C98.1107 140.561 98.1681 140.992 98.1676 141.424C97.6463 141.554 97.067 141.771 96.5456 141.987ZM101.238 140.168C100.601 140.428 99.9056 140.688 99.2105 140.948C99.1547 139.178 99.0979 138.271 99.3308 137.234C99.4473 136.673 99.6794 136.327 99.9691 136.154C100.317 135.981 100.606 136.11 100.779 136.542C101.184 137.362 101.239 139.132 101.238 140.125C101.296 140.125 101.296 140.125 101.238 140.168ZM104.019 139.085C103.382 139.302 102.802 139.562 102.223 139.778C102.166 139.174 102.167 137.879 102.226 137.274C102.402 135.46 103.444 135.33 103.733 136.279C103.963 137.186 103.962 138.265 104.019 139.085Z" fill="url(#paint10_linear)"/>
</g>
<defs>
<linearGradient id="paint0_linear" x1="139.764" y1="207.848" x2="38.6044" y2="224.691" gradientUnits="userSpaceOnUse">
<stop stop-color="white"/>
<stop offset="0.367501" stop-color="#FFF0E2"/>
<stop offset="1" stop-color="#FFD6AF"/>
</linearGradient>
<linearGradient id="paint1_linear" x1="222.155" y1="160.212" x2="287.447" y2="81.0236" gradientUnits="userSpaceOnUse">
<stop stop-color="white"/>
<stop offset="0.367501" stop-color="#FFF0E2"/>
<stop offset="1" stop-color="#FFD6AF"/>
</linearGradient>
<linearGradient id="paint2_linear" x1="237.407" y1="172.754" x2="148.103" y2="224.24" gradientUnits="userSpaceOnUse">
<stop stop-color="#FF5824"/>
<stop offset="0.314133" stop-color="#FFBE79"/>
<stop offset="0.587019" stop-color="#FF5824"/>
<stop offset="0.807242" stop-color="#FFBE79"/>
<stop offset="1" stop-color="#FF9A24"/>
</linearGradient>
<linearGradient id="paint3_linear" x1="161.43" y1="220.688" x2="207.988" y2="149.627" gradientUnits="userSpaceOnUse">
<stop stop-color="#FF5824"/>
<stop offset="1" stop-color="#FF9A24"/>
</linearGradient>
<linearGradient id="paint4_linear" x1="195.279" y1="170.411" x2="174.972" y2="203.556" gradientUnits="userSpaceOnUse">
<stop stop-color="white"/>
<stop offset="0.367501" stop-color="#FFF0E2"/>
<stop offset="1" stop-color="#FFD6AF"/>
</linearGradient>
<linearGradient id="paint5_linear" x1="182.064" y1="76.8795" x2="167.289" y2="132.259" gradientUnits="userSpaceOnUse">
<stop stop-color="#FF5824"/>
<stop offset="0.314133" stop-color="#FFBE79"/>
<stop offset="0.587019" stop-color="#FF5824"/>
<stop offset="0.807242" stop-color="#FFBE79"/>
<stop offset="1" stop-color="#FF9A24"/>
</linearGradient>
<linearGradient id="paint6_linear" x1="170.958" y1="125.574" x2="161.306" y2="79.3905" gradientUnits="userSpaceOnUse">
<stop stop-color="#FF5824"/>
<stop offset="1" stop-color="#FF9A24"/>
</linearGradient>
<linearGradient id="paint7_linear" x1="164.53" y1="92.5306" x2="169.584" y2="113.518" gradientUnits="userSpaceOnUse">
<stop stop-color="white"/>
<stop offset="0.367501" stop-color="#FFF0E2"/>
<stop offset="1" stop-color="#FFD6AF"/>
</linearGradient>
<linearGradient id="paint8_linear" x1="95.4784" y1="121.092" x2="95.5218" y2="156.215" gradientUnits="userSpaceOnUse">
<stop stop-color="#FF5824"/>
<stop offset="0.314133" stop-color="#FFBE79"/>
<stop offset="0.587019" stop-color="#FF5824"/>
<stop offset="0.807242" stop-color="#FFBE79"/>
<stop offset="1" stop-color="#FF9A24"/>
</linearGradient>
<linearGradient id="paint9_linear" x1="93.8855" y1="151.679" x2="104.707" y2="123.393" gradientUnits="userSpaceOnUse">
<stop stop-color="#FF5824"/>
<stop offset="1" stop-color="#FF9A24"/>
</linearGradient>
<linearGradient id="paint10_linear" x1="105.827" y1="133.116" x2="100.518" y2="146.003" gradientUnits="userSpaceOnUse">
<stop stop-color="white"/>
<stop offset="0.367501" stop-color="#FFF0E2"/>
<stop offset="1" stop-color="#FFD6AF"/>
</linearGradient>
</defs>
</svg>
