<svg width="192" height="171" viewBox="0 0 192 171" fill="none" xmlns="http://www.w3.org/2000/svg">
<path d="M190.023 146.695L147.722 178.969L100.265 150.205V93.9269L149.307 65.6128L196.744 94.3819L190.023 146.695Z" fill="url(#paint0_linear)"/>
<path d="M149.307 65.6128L100.265 93.9269L149.494 123.904L196.744 94.3819L149.307 65.6128Z" fill="url(#paint1_linear)"/>
<path d="M196.694 150.64L147.707 178.969L147.652 122.681L196.724 94.382L196.694 150.64Z" fill="url(#paint2_linear)"/>
<path d="M133.745 161.396C139.765 157.876 139.705 146.572 133.61 136.147C127.516 125.723 117.695 120.125 111.675 123.644C105.655 127.163 105.716 138.467 111.81 148.892C117.905 159.317 127.726 164.915 133.745 161.396Z" fill="url(#paint3_linear)"/>
<g filter="url(#filter0_f)">
<path d="M122.002 130.037C126.623 132.413 130.594 137.302 132.471 142.502C134.168 146.909 134.276 151.248 132.399 153.968C129.367 158.376 122.688 156.86 117.237 150.525C115.36 148.355 113.916 145.945 112.905 143.535C111.966 141.297 111.389 138.955 111.352 136.717C111.172 129.83 115.829 126.904 122.002 130.037Z" fill="url(#paint4_linear)"/>
</g>
<path d="M123.689 146.077C124.06 145.977 124.467 145.948 124.81 145.898C126.275 147.52 127.719 149.157 129.19 150.714C130.069 151.643 131.02 152.429 131.913 153.329C132.927 154.344 133.378 155.516 133.12 156.559C132.67 158.403 131.849 159.86 130.805 161.054C130.198 161.747 129.241 161.389 128.262 160.253C127.926 159.867 127.626 159.424 127.333 158.989C125.746 156.616 124.896 154.13 124.21 151.615C123.717 149.807 123.46 148.092 123.46 146.47C123.474 146.291 123.574 146.113 123.689 146.077Z" fill="url(#paint5_linear)"/>
<path d="M129.269 138.953C128.111 140.218 126.739 141.089 124.96 141.254C124.803 141.268 124.546 141.182 124.374 141.018C123.953 140.603 123.552 140.118 123.095 139.617C123.095 139.567 123.088 139.46 123.081 139.353C123.017 137.853 123.009 136.381 122.867 134.851C122.745 133.53 122.459 132.136 122.245 130.772C121.973 129.035 122.445 128.235 123.788 128.742C125.41 129.35 127.068 130.107 128.711 131.022C130.205 131.858 130.912 133.272 130.826 134.937C130.748 136.695 130.169 137.981 129.269 138.953Z" fill="url(#paint6_linear)"/>
<path d="M108.877 132.951C109.449 132.865 110.106 132.951 110.763 133.087C112.321 133.408 113.915 134.551 115.487 135.745C116.973 136.874 118.395 138.21 119.702 139.839C119.831 140.003 119.96 140.282 119.974 140.461C120.031 141.004 120.031 141.525 120.06 142.061C118.923 142.297 117.744 142.476 116.623 142.79C115.822 143.019 115.094 143.405 114.35 143.769C113.164 144.348 112.135 143.726 111.056 141.725C110.635 140.946 110.235 140.153 109.885 139.353C109.299 138.01 108.698 136.666 108.22 135.316C107.741 133.951 107.991 133.087 108.877 132.951Z" fill="url(#paint7_linear)"/>
<path d="M122.611 139.989C123.525 140.482 124.311 141.497 124.683 142.576C125.019 143.49 125.04 144.39 124.669 144.955C124.068 145.87 122.747 145.555 121.668 144.24C121.296 143.79 121.01 143.29 120.81 142.79C120.624 142.326 120.51 141.84 120.503 141.375C120.467 139.946 121.389 139.339 122.611 139.989Z" fill="url(#paint8_linear)"/>
<path d="M129.626 149.285C128.233 148.192 126.925 146.884 125.711 145.355C125.582 145.191 125.446 144.898 125.432 144.719C125.389 144.162 125.396 143.633 125.389 143.162C126.718 142.876 128.054 142.64 129.341 142.29C130.105 142.083 130.77 141.647 131.513 141.389C132.356 141.097 133.263 141.64 134.028 142.933C135.378 145.227 136.4 147.62 137.215 150.028C137.686 151.436 137.35 152.286 136.414 152.422C136.1 152.465 135.743 152.429 135.393 152.379C133.492 152.107 131.563 150.814 129.626 149.285Z" fill="url(#paint9_linear)"/>
<path d="M120.552 139.353C120.517 139.31 120.431 139.21 120.352 139.117C119.223 137.788 118.123 136.402 116.958 135.137C115.958 134.044 114.893 133.08 113.85 132.058C112.528 130.757 111.964 129.421 112.45 128.235C113.036 126.806 113.729 125.47 114.543 124.305C115.286 123.248 116.401 123.698 117.644 125.377C118.952 127.149 119.874 129.071 120.531 131.1C121.388 133.723 121.931 136.245 121.924 138.596C121.924 138.81 121.839 139.039 121.703 139.096C121.353 139.232 120.96 139.267 120.552 139.353Z" fill="url(#paint10_linear)"/>
<path d="M117.058 145.127C118.015 144.355 119.13 143.855 120.452 143.769C120.58 143.762 120.802 143.876 120.945 144.019C121.359 144.462 121.745 144.948 122.145 145.42C122.231 147.042 122.274 148.678 122.424 150.357C122.531 151.565 122.767 152.836 122.981 154.087C123.324 156.095 122.781 156.788 121.195 156.23C120.58 156.016 119.952 155.759 119.323 155.437C118.273 154.901 117.215 154.373 116.172 153.687C115.114 153.001 114.485 151.872 114.457 150.65C114.435 149.857 114.557 149.128 114.707 148.449C115.057 146.834 116.036 145.948 117.058 145.127Z" fill="url(#paint11_linear)"/>
<path d="M110.149 120.626C110.51 120.414 110.506 119.735 110.139 119.108C109.773 118.481 109.183 118.144 108.822 118.356C108.461 118.567 108.465 119.246 108.832 119.873C109.198 120.5 109.788 120.837 110.149 120.626Z" fill="#2E2B2F"/>
<path d="M110.147 150.215C110.508 150.004 110.504 149.325 110.137 148.698C109.771 148.071 109.181 147.734 108.82 147.945C108.459 148.156 108.463 148.836 108.829 149.462C109.196 150.089 109.786 150.426 110.147 150.215Z" fill="#2E2B2F"/>
<path d="M136.442 135.801C136.803 135.59 136.799 134.911 136.433 134.284C136.066 133.657 135.476 133.32 135.115 133.531C134.754 133.742 134.758 134.422 135.125 135.048C135.491 135.675 136.081 136.012 136.442 135.801Z" fill="#2E2B2F"/>
<path d="M136.444 165.397C136.805 165.186 136.8 164.506 136.434 163.88C136.068 163.253 135.478 162.916 135.117 163.127C134.756 163.338 134.76 164.017 135.126 164.644C135.493 165.271 136.083 165.608 136.444 165.397Z" fill="#2E2B2F"/>
<path d="M128.098 200.725L85.7971 233L38.3402 204.236V147.958L87.3823 119.644L134.819 148.413L128.098 200.725Z" fill="url(#paint12_linear)"/>
<path d="M87.3823 119.644L38.3402 147.958L87.5689 177.935L134.819 148.413L87.3823 119.644Z" fill="url(#paint13_linear)"/>
<path d="M134.77 204.671L85.7824 233L85.7274 176.712L134.8 148.413L134.77 204.671Z" fill="url(#paint14_linear)"/>
<g filter="url(#filter1_f)">
<path d="M60.0777 184.068C64.6985 186.444 68.6694 191.333 70.5466 196.533C72.2433 200.94 72.3518 205.279 70.4746 207.999C67.4421 212.406 60.7635 210.891 55.3124 204.556C53.4352 202.386 51.9911 199.976 50.9803 197.566C50.0417 195.328 49.4641 192.986 49.428 190.748C49.2475 183.861 53.9045 180.935 60.0777 184.068Z" fill="url(#paint15_linear)"/>
</g>
<path d="M190.023 81.0817L147.722 113.356L100.265 84.5922V28.3141L149.307 0L196.744 28.7691L190.023 81.0817Z" fill="url(#paint16_linear)"/>
<path d="M149.307 0L100.265 28.3141L149.494 58.291L196.744 28.7691L149.307 0Z" fill="url(#paint17_linear)"/>
<path d="M196.694 85.0274L147.707 113.356L147.652 57.0684L196.724 28.7693L196.694 85.0274Z" fill="url(#paint18_linear)"/>
<path d="M133.745 95.7828C139.765 92.2635 139.705 80.9596 133.61 70.5348C127.516 60.11 117.695 54.5119 111.675 58.0312C105.655 61.5505 105.716 72.8545 111.81 83.2793C117.905 93.7041 127.726 99.3021 133.745 95.7828Z" fill="url(#paint19_linear)"/>
<g filter="url(#filter2_f)">
<path d="M122.002 64.4245C126.623 66.8004 130.594 71.6899 132.471 76.8894C134.168 81.2968 134.276 85.6353 132.399 88.3555C129.367 92.763 122.688 91.2479 117.237 84.9122C115.36 82.7429 113.916 80.3329 112.905 77.9225C111.966 75.6844 111.389 73.3425 111.352 71.1044C111.172 64.2177 115.829 61.2911 122.002 64.4245Z" fill="url(#paint20_linear)"/>
</g>
<path d="M123.689 80.4643C124.06 80.3642 124.467 80.3357 124.81 80.2856C126.275 81.9076 127.719 83.5439 129.19 85.1016C130.069 86.0305 131.02 86.8165 131.913 87.7168C132.927 88.7315 133.378 89.9032 133.12 90.9464C132.67 92.7899 131.849 94.2476 130.805 95.4409C130.198 96.134 129.241 95.7767 128.262 94.6406C127.926 94.2548 127.626 93.8117 127.333 93.3759C125.746 91.0036 124.896 88.5171 124.21 86.0019C123.717 84.1941 123.46 82.4792 123.46 80.8572C123.474 80.6786 123.574 80.5 123.689 80.4643Z" fill="url(#paint21_linear)"/>
<path d="M129.269 73.3403C128.111 74.605 126.739 75.4767 124.96 75.6411C124.803 75.6554 124.546 75.5696 124.374 75.4052C123.953 74.9908 123.552 74.5049 123.095 74.0048C123.095 73.9547 123.088 73.8476 123.081 73.7404C123.017 72.2399 123.009 70.7679 122.867 69.2388C122.745 67.9169 122.459 66.5236 122.245 65.1588C121.973 63.4225 122.445 62.6223 123.788 63.1296C125.41 63.7369 127.068 64.4943 128.711 65.4089C130.205 66.2449 130.912 67.6597 130.826 69.3245C130.748 71.0823 130.169 72.3685 129.269 73.3403Z" fill="url(#paint22_linear)"/>
<path d="M108.877 67.3382C109.449 67.2525 110.106 67.3382 110.763 67.4739C112.321 67.7955 113.915 68.9387 115.487 70.132C116.973 71.2609 118.395 72.5972 119.702 74.2263C119.831 74.3907 119.96 74.6693 119.974 74.848C120.031 75.391 120.031 75.9126 120.06 76.4485C118.923 76.6843 117.744 76.863 116.623 77.1773C115.822 77.406 115.094 77.7918 114.35 78.1563C113.164 78.735 112.135 78.1133 111.056 76.1126C110.635 75.3338 110.235 74.5407 109.885 73.7404C109.299 72.3971 108.698 71.0537 108.22 69.7033C107.741 68.3385 107.991 67.474 108.877 67.3382Z" fill="url(#paint23_linear)"/>
<path d="M122.611 74.3765C123.525 74.8695 124.311 75.8841 124.683 76.9631C125.019 77.8777 125.04 78.7779 124.669 79.3424C124.068 80.257 122.747 79.9426 121.668 78.6279C121.296 78.1777 121.01 77.6776 120.81 77.1775C120.624 76.713 120.51 76.2271 120.503 75.7626C120.467 74.3335 121.389 73.7262 122.611 74.3765Z" fill="url(#paint24_linear)"/>
<path d="M129.626 83.6724C128.233 82.5792 126.925 81.2716 125.711 79.7425C125.582 79.5782 125.446 79.2852 125.432 79.1066C125.389 78.5492 125.396 78.0204 125.389 77.5488C126.718 77.263 128.054 77.0272 129.341 76.6771C130.105 76.4699 130.77 76.034 131.513 75.7768C132.356 75.4838 133.263 76.0269 134.028 77.3202C135.378 79.6139 136.4 82.0076 137.215 84.4156C137.686 85.8232 137.35 86.6735 136.414 86.8092C136.1 86.8521 135.743 86.8164 135.393 86.7663C133.492 86.4948 131.563 85.2015 129.626 83.6724Z" fill="url(#paint25_linear)"/>
<path d="M120.552 73.7405C120.517 73.6976 120.431 73.5976 120.352 73.5047C119.223 72.1757 118.123 70.7894 116.958 69.5247C115.958 68.4315 114.893 67.4669 113.85 66.4451C112.528 65.1446 111.964 63.8085 112.45 62.6224C113.036 61.1933 113.729 59.8571 114.543 58.6924C115.286 57.6349 116.401 58.085 117.644 59.7642C118.952 61.5362 119.874 63.4583 120.531 65.4876C121.388 68.1099 121.931 70.6323 121.924 72.9831C121.924 73.1975 121.839 73.4261 121.703 73.4832C121.353 73.619 120.96 73.6547 120.552 73.7405Z" fill="url(#paint26_linear)"/>
<path d="M117.058 79.5139C118.015 78.7422 119.13 78.2421 120.452 78.1563C120.58 78.1492 120.802 78.2635 120.945 78.4064C121.359 78.8494 121.745 79.3353 122.145 79.8069C122.231 81.4288 122.274 83.0652 122.424 84.7443C122.531 85.9519 122.767 87.2237 122.981 88.4742C123.324 90.482 122.781 91.1751 121.195 90.6178C120.58 90.4034 119.952 90.1462 119.323 89.8246C118.273 89.2887 117.215 88.76 116.172 88.0741C115.114 87.3881 114.485 86.2591 114.457 85.0373C114.435 84.2442 114.557 83.5153 114.707 82.8365C115.057 81.2216 116.036 80.3356 117.058 79.5139Z" fill="url(#paint27_linear)"/>
<path d="M110.149 55.0129C110.51 54.8018 110.506 54.1225 110.139 53.4957C109.773 52.8688 109.183 52.5318 108.822 52.7429C108.461 52.954 108.465 53.6333 108.832 54.2602C109.198 54.887 109.788 55.224 110.149 55.0129Z" fill="#2E2B2F"/>
<path d="M110.147 84.6025C110.508 84.3913 110.504 83.7121 110.137 83.0852C109.771 82.4583 109.181 82.1214 108.82 82.3325C108.459 82.5436 108.463 83.2229 108.829 83.8497C109.196 84.4766 109.786 84.8136 110.147 84.6025Z" fill="#2E2B2F"/>
<path d="M136.442 70.1885C136.803 69.9774 136.799 69.298 136.433 68.6712C136.066 68.0443 135.476 67.7073 135.115 67.9185C134.754 68.1296 134.758 68.8089 135.125 69.4357C135.491 70.0626 136.081 70.3996 136.442 70.1885Z" fill="#2E2B2F"/>
<path d="M136.444 99.7842C136.805 99.5731 136.8 98.8938 136.434 98.2669C136.068 97.6401 135.478 97.3031 135.117 97.5142C134.756 97.7253 134.76 98.4046 135.126 99.0315C135.493 99.6583 136.083 99.9953 136.444 99.7842Z" fill="#2E2B2F"/>
<path d="M108.8 135.113L66.4993 167.387L19.0425 138.623V82.345L68.0846 54.0309L115.521 82.8L108.8 135.113Z" fill="url(#paint28_linear)"/>
<path d="M68.0846 54.0309L19.0425 82.345L68.2711 112.322L115.521 82.8L68.0846 54.0309Z" fill="url(#paint29_linear)"/>
<path d="M115.47 139.058L66.483 167.387L66.428 111.099L115.5 82.8L115.47 139.058Z" fill="url(#paint30_linear)"/>
<path d="M52.5229 149.814C58.5427 146.294 58.4822 134.99 52.3876 124.566C46.2931 114.141 36.4725 108.543 30.4526 112.062C24.4328 115.581 24.4933 126.885 30.5879 137.31C36.6824 147.735 46.5031 153.333 52.5229 149.814Z" fill="url(#paint31_linear)"/>
<g filter="url(#filter3_f)">
<path d="M40.7786 118.455C45.3994 120.831 49.3703 125.721 51.2475 130.92C52.9443 135.328 53.0527 139.666 51.1755 142.386C48.1431 146.794 41.4645 145.279 36.0133 138.943C34.1361 136.774 32.6921 134.364 31.6813 131.953C30.7427 129.715 30.1651 127.373 30.129 125.135C29.9485 118.248 34.6055 115.322 40.7786 118.455Z" fill="url(#paint32_linear)"/>
</g>
<path d="M42.4651 134.495C42.8367 134.395 43.2439 134.366 43.5869 134.316C45.0517 135.938 46.495 137.575 47.967 139.132C48.8459 140.061 49.7962 140.847 50.6894 141.748C51.704 142.762 52.1541 143.934 51.8969 144.977C51.4468 146.821 50.6251 148.278 49.5818 149.472C48.9745 150.165 48.017 149.807 47.0381 148.671C46.7023 148.286 46.4022 147.842 46.1092 147.407C44.5229 145.034 43.6727 142.548 42.9867 140.033C42.4937 138.225 42.2365 136.51 42.2365 134.888C42.2507 134.709 42.3508 134.531 42.4651 134.495Z" fill="url(#paint33_linear)"/>
<path d="M48.0453 127.371C46.8877 128.636 45.5158 129.507 43.7366 129.672C43.5794 129.686 43.3222 129.6 43.1507 129.436C42.7291 129.021 42.329 128.536 41.8717 128.035C41.8717 127.985 41.8645 127.878 41.8574 127.771C41.7931 126.271 41.7859 124.799 41.643 123.269C41.5216 121.948 41.2358 120.554 41.0214 119.189C40.7499 117.453 41.2214 116.653 42.5648 117.16C44.1868 117.768 45.8445 118.525 47.4879 119.44C48.9813 120.276 49.6887 121.69 49.603 123.355C49.5244 125.113 48.9456 126.399 48.0453 127.371Z" fill="url(#paint34_linear)"/>
<path d="M27.6536 121.369C28.2252 121.283 28.8826 121.369 29.5399 121.505C31.0976 121.826 32.691 122.969 34.263 124.163C35.7492 125.292 37.1712 126.628 38.4788 128.257C38.6074 128.421 38.736 128.7 38.7503 128.879C38.8075 129.422 38.8075 129.943 38.836 130.479C37.6999 130.715 36.521 130.894 35.3991 131.208C34.5989 131.437 33.87 131.823 33.1269 132.187C31.9408 132.766 30.9118 132.144 29.8329 130.143C29.4113 129.365 29.0112 128.571 28.6611 127.771C28.0752 126.428 27.4749 125.084 26.9962 123.734C26.5175 122.369 26.7675 121.505 27.6536 121.369Z" fill="url(#paint35_linear)"/>
<path d="M41.3873 128.407C42.3019 128.9 43.0879 129.915 43.4595 130.994C43.7953 131.908 43.8167 132.809 43.4452 133.373C42.845 134.288 41.5231 133.973 40.4441 132.659C40.0726 132.208 39.7868 131.708 39.5867 131.208C39.4009 130.744 39.2866 130.258 39.2794 129.793C39.2437 128.364 40.1655 127.757 41.3873 128.407Z" fill="url(#paint36_linear)"/>
<path d="M48.4029 137.703C47.0095 136.61 45.7019 135.302 44.4872 133.773C44.3586 133.609 44.2228 133.316 44.2085 133.137C44.1656 132.58 44.1728 132.051 44.1656 131.58C45.4947 131.294 46.8309 131.058 48.117 130.708C48.8816 130.501 49.5461 130.065 50.2892 129.808C51.1324 129.515 52.0398 130.058 52.8044 131.351C54.1549 133.645 55.1766 136.038 55.9912 138.446C56.4628 139.854 56.127 140.704 55.1909 140.84C54.8765 140.883 54.5192 140.847 54.1691 140.797C52.2685 140.526 50.3393 139.232 48.4029 137.703Z" fill="url(#paint37_linear)"/>
<path d="M39.3289 127.771C39.2932 127.728 39.2074 127.628 39.1288 127.535C37.9999 126.206 36.8995 124.82 35.7348 123.555C34.7345 122.462 33.6698 121.498 32.6266 120.476C31.3047 119.175 30.7402 117.839 31.2261 116.653C31.812 115.224 32.5051 113.888 33.3197 112.723C34.0628 111.666 35.1775 112.116 36.4208 113.795C37.7284 115.567 38.6501 117.489 39.3075 119.518C40.1649 122.141 40.708 124.663 40.7008 127.014C40.7008 127.228 40.6151 127.457 40.4793 127.514C40.1292 127.65 39.7362 127.685 39.3289 127.771Z" fill="url(#paint38_linear)"/>
<path d="M35.8354 133.544C36.7929 132.773 37.9076 132.273 39.2295 132.187C39.3581 132.18 39.5796 132.294 39.7225 132.437C40.1369 132.88 40.5228 133.366 40.9229 133.837C41.0087 135.459 41.0515 137.096 41.2016 138.775C41.3088 139.982 41.5445 141.254 41.7589 142.505C42.1019 144.513 41.5588 145.206 39.9726 144.648C39.3581 144.434 38.7293 144.177 38.1005 143.855C37.0501 143.319 35.9926 142.791 34.9494 142.105C33.8919 141.419 33.2631 140.29 33.2345 139.068C33.2131 138.275 33.3346 137.546 33.4846 136.867C33.8348 135.252 34.8136 134.366 35.8354 133.544Z" fill="url(#paint39_linear)"/>
<path d="M28.9265 109.044C29.2876 108.833 29.2833 108.153 28.9168 107.526C28.5504 106.9 27.9605 106.563 27.5994 106.774C27.2383 106.985 27.2426 107.664 27.6091 108.291C27.9756 108.918 28.5654 109.255 28.9265 109.044Z" fill="#2E2B2F"/>
<path d="M28.9244 138.633C29.2855 138.422 29.2812 137.743 28.9147 137.116C28.5483 136.489 27.9584 136.152 27.5973 136.363C27.2362 136.574 27.2405 137.254 27.607 137.88C27.9735 138.507 28.5633 138.844 28.9244 138.633Z" fill="#2E2B2F"/>
<path d="M55.2198 124.219C55.581 124.008 55.5766 123.329 55.2101 122.702C54.8437 122.075 54.2538 121.738 53.8927 121.949C53.5316 122.16 53.5359 122.84 53.9024 123.466C54.2689 124.093 54.8587 124.43 55.2198 124.219Z" fill="#2E2B2F"/>
<path d="M55.2212 153.815C55.5823 153.604 55.578 152.925 55.2115 152.298C54.8451 151.671 54.2552 151.334 53.8941 151.545C53.533 151.756 53.5373 152.435 53.9038 153.062C54.2703 153.689 54.8601 154.026 55.2212 153.815Z" fill="#2E2B2F"/>
<defs>
<filter id="filter0_f" x="51.3474" y="68.783" width="142.428" height="147.705" filterUnits="userSpaceOnUse" color-interpolation-filters="sRGB">
<feFlood flood-opacity="0" result="BackgroundImageFix"/>
<feBlend mode="normal" in="SourceGraphic" in2="BackgroundImageFix" result="shape"/>
<feGaussianBlur stdDeviation="30" result="effect1_foregroundBlur"/>
</filter>
<filter id="filter1_f" x="-10.577" y="122.814" width="142.428" height="147.705" filterUnits="userSpaceOnUse" color-interpolation-filters="sRGB">
<feFlood flood-opacity="0" result="BackgroundImageFix"/>
<feBlend mode="normal" in="SourceGraphic" in2="BackgroundImageFix" result="shape"/>
<feGaussianBlur stdDeviation="30" result="effect1_foregroundBlur"/>
</filter>
<filter id="filter2_f" x="51.3474" y="3.17041" width="142.428" height="147.705" filterUnits="userSpaceOnUse" color-interpolation-filters="sRGB">
<feFlood flood-opacity="0" result="BackgroundImageFix"/>
<feBlend mode="normal" in="SourceGraphic" in2="BackgroundImageFix" result="shape"/>
<feGaussianBlur stdDeviation="30" result="effect1_foregroundBlur"/>
</filter>
<filter id="filter3_f" x="-29.8761" y="57.2012" width="142.428" height="147.705" filterUnits="userSpaceOnUse" color-interpolation-filters="sRGB">
<feFlood flood-opacity="0" result="BackgroundImageFix"/>
<feBlend mode="normal" in="SourceGraphic" in2="BackgroundImageFix" result="shape"/>
<feGaussianBlur stdDeviation="30" result="effect1_foregroundBlur"/>
</filter>
<linearGradient id="paint0_linear" x1="151.571" y1="174.686" x2="134.392" y2="116.978" gradientUnits="userSpaceOnUse">
<stop stop-color="#595E72"/>
<stop offset="1" stop-color="#242731"/>
</linearGradient>
<linearGradient id="paint1_linear" x1="170.73" y1="126.674" x2="149.596" y2="85.3596" gradientUnits="userSpaceOnUse">
<stop stop-color="#595E72"/>
<stop offset="1" stop-color="#242731"/>
</linearGradient>
<linearGradient id="paint2_linear" x1="189.427" y1="166.376" x2="122.408" y2="111.216" gradientUnits="userSpaceOnUse">
<stop stop-color="#595E72"/>
<stop offset="1" stop-color="#242731"/>
</linearGradient>
<linearGradient id="paint3_linear" x1="39.1743" y1="169.983" x2="60.1416" y2="192.568" gradientUnits="userSpaceOnUse">
<stop stop-color="#595E72"/>
<stop offset="1" stop-color="#242731"/>
</linearGradient>
<linearGradient id="paint4_linear" x1="114.403" y1="153.867" x2="134.292" y2="136.234" gradientUnits="userSpaceOnUse">
<stop stop-color="#FF5824"/>
<stop offset="1" stop-color="#FF9A24"/>
</linearGradient>
<linearGradient id="paint5_linear" x1="124.786" y1="159.94" x2="135.255" y2="152.745" gradientUnits="userSpaceOnUse">
<stop stop-color="#FF5824"/>
<stop offset="1" stop-color="#FF9A24"/>
</linearGradient>
<linearGradient id="paint6_linear" x1="123.351" y1="140.057" x2="132.139" y2="133.474" gradientUnits="userSpaceOnUse">
<stop stop-color="#FF5824"/>
<stop offset="1" stop-color="#FF9A24"/>
</linearGradient>
<linearGradient id="paint7_linear" x1="109.626" y1="142.93" x2="117.496" y2="133.515" gradientUnits="userSpaceOnUse">
<stop stop-color="#FF5824"/>
<stop offset="1" stop-color="#FF9A24"/>
</linearGradient>
<linearGradient id="paint8_linear" x1="121.107" y1="144.934" x2="125.206" y2="141.467" gradientUnits="userSpaceOnUse">
<stop stop-color="#FF5824"/>
<stop offset="1" stop-color="#FF9A24"/>
</linearGradient>
<linearGradient id="paint9_linear" x1="127.029" y1="151.388" x2="134.962" y2="141.991" gradientUnits="userSpaceOnUse">
<stop stop-color="#FF5824"/>
<stop offset="1" stop-color="#FF9A24"/>
</linearGradient>
<linearGradient id="paint10_linear" x1="113.592" y1="137.876" x2="124.074" y2="130.784" gradientUnits="userSpaceOnUse">
<stop stop-color="#FF5824"/>
<stop offset="1" stop-color="#FF9A24"/>
</linearGradient>
<linearGradient id="paint11_linear" x1="115.63" y1="155.22" x2="124.399" y2="148.67" gradientUnits="userSpaceOnUse">
<stop stop-color="#FF5824"/>
<stop offset="1" stop-color="#FF9A24"/>
</linearGradient>
<linearGradient id="paint12_linear" x1="89.6463" y1="228.717" x2="72.4673" y2="171.009" gradientUnits="userSpaceOnUse">
<stop stop-color="#595E72"/>
<stop offset="1" stop-color="#242731"/>
</linearGradient>
<linearGradient id="paint13_linear" x1="108.805" y1="180.704" x2="87.6708" y2="139.39" gradientUnits="userSpaceOnUse">
<stop stop-color="#595E72"/>
<stop offset="1" stop-color="#242731"/>
</linearGradient>
<linearGradient id="paint14_linear" x1="127.503" y1="220.407" x2="60.4838" y2="165.247" gradientUnits="userSpaceOnUse">
<stop stop-color="#595E72"/>
<stop offset="1" stop-color="#242731"/>
</linearGradient>
<linearGradient id="paint15_linear" x1="52.4787" y1="207.898" x2="72.3676" y2="190.265" gradientUnits="userSpaceOnUse">
<stop stop-color="#FF5824"/>
<stop offset="1" stop-color="#FF9A24"/>
</linearGradient>
<linearGradient id="paint16_linear" x1="151.571" y1="109.073" x2="134.392" y2="51.3652" gradientUnits="userSpaceOnUse">
<stop stop-color="#595E72"/>
<stop offset="1" stop-color="#242731"/>
</linearGradient>
<linearGradient id="paint17_linear" x1="170.73" y1="61.0609" x2="149.596" y2="19.7468" gradientUnits="userSpaceOnUse">
<stop stop-color="#595E72"/>
<stop offset="1" stop-color="#242731"/>
</linearGradient>
<linearGradient id="paint18_linear" x1="189.427" y1="100.764" x2="122.408" y2="45.6036" gradientUnits="userSpaceOnUse">
<stop stop-color="#595E72"/>
<stop offset="1" stop-color="#242731"/>
</linearGradient>
<linearGradient id="paint19_linear" x1="39.1743" y1="104.37" x2="60.1416" y2="126.955" gradientUnits="userSpaceOnUse">
<stop stop-color="#595E72"/>
<stop offset="1" stop-color="#242731"/>
</linearGradient>
<linearGradient id="paint20_linear" x1="114.403" y1="88.2546" x2="134.292" y2="70.6215" gradientUnits="userSpaceOnUse">
<stop stop-color="#FF5824"/>
<stop offset="1" stop-color="#FF9A24"/>
</linearGradient>
<linearGradient id="paint21_linear" x1="124.786" y1="94.3273" x2="135.255" y2="87.1328" gradientUnits="userSpaceOnUse">
<stop stop-color="#FF5824"/>
<stop offset="1" stop-color="#FF9A24"/>
</linearGradient>
<linearGradient id="paint22_linear" x1="123.351" y1="74.4447" x2="132.139" y2="67.8615" gradientUnits="userSpaceOnUse">
<stop stop-color="#FF5824"/>
<stop offset="1" stop-color="#FF9A24"/>
</linearGradient>
<linearGradient id="paint23_linear" x1="109.626" y1="77.3169" x2="117.496" y2="67.9027" gradientUnits="userSpaceOnUse">
<stop stop-color="#FF5824"/>
<stop offset="1" stop-color="#FF9A24"/>
</linearGradient>
<linearGradient id="paint24_linear" x1="121.107" y1="79.3215" x2="125.206" y2="75.8549" gradientUnits="userSpaceOnUse">
<stop stop-color="#FF5824"/>
<stop offset="1" stop-color="#FF9A24"/>
</linearGradient>
<linearGradient id="paint25_linear" x1="127.029" y1="85.7756" x2="134.962" y2="76.3779" gradientUnits="userSpaceOnUse">
<stop stop-color="#FF5824"/>
<stop offset="1" stop-color="#FF9A24"/>
</linearGradient>
<linearGradient id="paint26_linear" x1="113.592" y1="72.2631" x2="124.074" y2="65.1717" gradientUnits="userSpaceOnUse">
<stop stop-color="#FF5824"/>
<stop offset="1" stop-color="#FF9A24"/>
</linearGradient>
<linearGradient id="paint27_linear" x1="115.63" y1="89.607" x2="124.399" y2="83.0573" gradientUnits="userSpaceOnUse">
<stop stop-color="#FF5824"/>
<stop offset="1" stop-color="#FF9A24"/>
</linearGradient>
<linearGradient id="paint28_linear" x1="70.3486" y1="163.104" x2="53.1696" y2="105.396" gradientUnits="userSpaceOnUse">
<stop stop-color="#595E72"/>
<stop offset="1" stop-color="#242731"/>
</linearGradient>
<linearGradient id="paint29_linear" x1="89.5073" y1="115.092" x2="68.373" y2="73.7777" gradientUnits="userSpaceOnUse">
<stop stop-color="#595E72"/>
<stop offset="1" stop-color="#242731"/>
</linearGradient>
<linearGradient id="paint30_linear" x1="108.203" y1="154.794" x2="41.1843" y2="99.6344" gradientUnits="userSpaceOnUse">
<stop stop-color="#595E72"/>
<stop offset="1" stop-color="#242731"/>
</linearGradient>
<linearGradient id="paint31_linear" x1="-42.0482" y1="158.401" x2="-21.0809" y2="180.986" gradientUnits="userSpaceOnUse">
<stop stop-color="#595E72"/>
<stop offset="1" stop-color="#242731"/>
</linearGradient>
<linearGradient id="paint32_linear" x1="33.1796" y1="142.285" x2="53.0686" y2="124.652" gradientUnits="userSpaceOnUse">
<stop stop-color="#FF5824"/>
<stop offset="1" stop-color="#FF9A24"/>
</linearGradient>
<linearGradient id="paint33_linear" x1="43.5623" y1="148.358" x2="54.0313" y2="141.164" gradientUnits="userSpaceOnUse">
<stop stop-color="#FF5824"/>
<stop offset="1" stop-color="#FF9A24"/>
</linearGradient>
<linearGradient id="paint34_linear" x1="42.1279" y1="128.475" x2="50.9157" y2="121.892" gradientUnits="userSpaceOnUse">
<stop stop-color="#FF5824"/>
<stop offset="1" stop-color="#FF9A24"/>
</linearGradient>
<linearGradient id="paint35_linear" x1="28.4027" y1="131.348" x2="36.2729" y2="121.933" gradientUnits="userSpaceOnUse">
<stop stop-color="#FF5824"/>
<stop offset="1" stop-color="#FF9A24"/>
</linearGradient>
<linearGradient id="paint36_linear" x1="39.8833" y1="133.352" x2="43.9827" y2="129.886" gradientUnits="userSpaceOnUse">
<stop stop-color="#FF5824"/>
<stop offset="1" stop-color="#FF9A24"/>
</linearGradient>
<linearGradient id="paint37_linear" x1="45.8057" y1="139.806" x2="53.7389" y2="130.409" gradientUnits="userSpaceOnUse">
<stop stop-color="#FF5824"/>
<stop offset="1" stop-color="#FF9A24"/>
</linearGradient>
<linearGradient id="paint38_linear" x1="32.3681" y1="126.294" x2="42.8501" y2="119.202" gradientUnits="userSpaceOnUse">
<stop stop-color="#FF5824"/>
<stop offset="1" stop-color="#FF9A24"/>
</linearGradient>
<linearGradient id="paint39_linear" x1="34.4072" y1="143.637" x2="43.1764" y2="137.088" gradientUnits="userSpaceOnUse">
<stop stop-color="#FF5824"/>
<stop offset="1" stop-color="#FF9A24"/>
</linearGradient>
</defs>
</svg>
