<svg width="198" height="146" viewBox="0 0 198 146" fill="none" xmlns="http://www.w3.org/2000/svg">
<path d="M134.723 151.863V141.318H107.584L75.5021 122.763C71.2245 120.28 63.7388 120.594 58.7961 123.455L27.9142 141.331H0.749023V152.464H0.775106C0.657734 154.136 1.58367 155.757 3.64421 156.946L59.9959 189.548C64.2735 192.03 71.7592 191.717 76.7019 188.855L130.654 157.638C133.51 155.992 134.892 153.862 134.723 151.863Z" fill="#312A91"/>
<path d="M134.723 151.863V141.318H107.584L75.5021 122.763C71.2245 120.28 63.7388 120.594 58.7961 123.455L27.9142 141.331H0.749023V152.464H0.775106C0.657734 154.136 1.58367 155.757 3.64421 156.946L59.9959 189.548C64.2735 192.03 71.7592 191.717 76.7019 188.855L130.654 157.638C133.51 155.992 134.892 153.862 134.723 151.863Z" fill="url(#paint0_linear)"/>
<path d="M75.5022 122.763C73.4416 121.574 70.6508 121.038 67.7426 121.103V191.207C70.8725 191.129 74.1328 190.345 76.702 188.855L130.654 157.638C133.51 155.992 134.879 153.849 134.723 151.863V141.318H107.584L75.5022 122.763Z" fill="url(#paint1_linear)"/>
<path d="M59.9956 178.415L3.64393 145.813C-0.633639 143.33 -0.0989429 139.005 4.84373 136.143L58.7958 104.926C63.7385 102.065 71.2243 101.751 75.5018 104.234L131.854 136.836C136.131 139.318 135.596 143.644 130.654 146.505L76.7016 177.722C71.759 180.584 64.2732 180.897 59.9956 178.415Z" fill="#312A91"/>
<path d="M59.9956 178.415L3.64393 145.813C-0.633639 143.33 -0.0989429 139.005 4.84373 136.143L58.7958 104.926C63.7385 102.065 71.2243 101.751 75.5018 104.234L131.854 136.836C136.131 139.318 135.596 143.644 130.654 146.505L76.7016 177.722C71.759 180.584 64.2732 180.897 59.9956 178.415Z" fill="url(#paint2_linear)"/>
<path d="M61.5087 171.215L16.0987 144.95C12.6428 142.951 13.0862 139.462 17.0638 137.162L60.5306 112.009C64.5213 109.709 70.5464 109.447 73.9893 111.447L119.399 137.711C122.855 139.71 122.412 143.199 118.434 145.499L74.9674 170.653C70.9768 172.953 64.9517 173.201 61.5087 171.215Z" fill="url(#paint3_linear)"/>
<path opacity="0.4" d="M17.0637 140.56L60.5306 115.406C64.5082 113.106 70.5463 112.845 73.9892 114.844L119.399 141.109C120.247 141.605 120.86 142.18 121.251 142.82C122.255 140.978 121.668 139.018 119.399 137.698L73.9892 111.434C70.5333 109.434 64.5082 109.683 60.5306 111.995L17.0637 137.149C14.0642 138.887 13.0731 141.292 14.2468 143.225C14.7684 142.272 15.7074 141.344 17.0637 140.56Z" fill="url(#paint4_linear)"/>
<path opacity="0.5" d="M61.8862 178.414L5.5345 145.812C1.25693 143.329 0.226664 139.696 6.7343 136.142L60.6864 104.925C63.1121 103.514 66.1638 102.73 69.1372 102.586C65.603 102.43 61.7428 103.214 58.7954 104.925L4.84331 136.142C-0.0993703 139.004 -0.634066 143.329 3.6435 145.812L59.9952 178.414C62.1731 179.668 65.1726 180.204 68.2504 180.06C65.8638 179.956 63.6207 179.407 61.8862 178.414Z" fill="white"/>
<path d="M130.654 151.222L76.7019 182.426C71.7592 185.288 64.2735 185.602 59.9959 183.119L3.64421 150.517C1.58367 149.328 0.657734 147.707 0.775106 146.035H0.749023V148.348H0.775106C0.657734 150.02 1.58367 151.641 3.64421 152.83L59.9959 185.432C64.2735 187.914 71.7592 187.601 76.7019 184.739L130.654 153.522C133.51 151.876 134.879 149.733 134.723 147.747V145.434C134.892 147.433 133.51 149.563 130.654 151.222Z" fill="url(#paint5_linear)"/>
<path d="M124.342 146.139C124.955 146.492 124.955 147.067 124.342 147.433C123.729 147.786 122.725 147.786 122.112 147.433C121.499 147.08 121.499 146.505 122.112 146.139C122.738 145.774 123.729 145.774 124.342 146.139Z" fill="#FCCC6B"/>
<path d="M127.811 144.127C128.424 144.48 128.424 145.055 127.811 145.421C127.198 145.774 126.194 145.774 125.581 145.421C124.968 145.068 124.968 144.493 125.581 144.127C126.207 143.774 127.198 143.774 127.811 144.127Z" fill="#FCCC6B"/>
<path opacity="0.7" d="M62.8519 164.851L27.2359 144.245C24.5233 142.677 24.8754 139.946 27.9923 138.142L62.0955 118.411C65.2254 116.608 69.9464 116.412 72.659 117.967L108.275 138.574C110.988 140.142 110.648 142.873 107.519 144.676L73.4154 164.407C70.2855 166.21 65.5514 166.419 62.8519 164.851Z" fill="url(#paint6_linear)"/>
<path opacity="0.4" d="M47.1372 111.682L0.749023 111.891V141.331H0.775106C0.657734 143.003 1.58367 144.624 3.64421 145.813L59.996 178.415C62.0565 179.604 64.8474 180.139 67.7426 180.061V106.063H56.84L47.1372 111.682Z" fill="url(#paint7_linear)"/>
<path opacity="0.4" d="M134.723 141.331C134.736 141.135 134.736 140.926 134.723 140.73V111.29L88.0348 111.499L75.489 104.247C71.2115 101.764 63.7257 102.078 58.7831 104.939L47.1241 111.682L0.749023 111.891V141.331H0.775106C0.657734 143.003 1.58367 144.624 3.6442 145.813L59.9959 178.415C64.2735 180.897 71.7592 180.584 76.7019 177.722L130.654 146.505C133.223 145.016 134.592 143.147 134.723 141.331Z" fill="url(#paint8_linear)"/>
<path d="M134.723 111.29V100.745H107.584L75.5021 82.1767C71.2245 79.694 63.7388 80.0076 58.7961 82.8692L27.9142 100.745H0.749023V111.878H0.775106C0.657734 113.55 1.58367 115.171 3.64421 116.36L59.9959 148.962C64.2735 151.445 71.7592 151.131 76.7019 148.269L130.654 117.052C133.51 115.419 134.892 113.276 134.723 111.29Z" fill="white"/>
<path d="M134.723 111.29V100.745H107.584L75.5021 82.1767C71.2245 79.694 63.7388 80.0076 58.7961 82.8692L27.9142 100.745H0.749023V111.878H0.775106C0.657734 113.55 1.58367 115.171 3.64421 116.36L59.9959 148.962C64.2735 151.445 71.7592 151.131 76.7019 148.269L130.654 117.052C133.51 115.419 134.892 113.276 134.723 111.29Z" fill="url(#paint9_linear)"/>
<path d="M75.5022 82.1897C73.4416 81.0006 70.6508 80.4649 67.7426 80.5302V150.634C70.8725 150.556 74.1328 149.772 76.702 148.282L130.654 117.065C133.51 115.419 134.879 113.276 134.723 111.29V100.745H107.584L75.5022 82.1897Z" fill="url(#paint10_linear)"/>
<path d="M59.9956 137.829L3.64393 105.227C-0.633639 102.744 -0.0989429 98.419 4.84373 95.5573L58.7958 64.3535C63.7385 61.4918 71.2243 61.1782 75.5018 63.661L131.854 96.263C136.131 98.7457 135.596 103.071 130.654 105.932L76.7016 137.136C71.759 139.998 64.2732 140.312 59.9956 137.829Z" fill="#312A91"/>
<path d="M59.9956 137.829L3.64393 105.227C-0.633639 102.744 -0.0989429 98.419 4.84373 95.5573L58.7958 64.3535C63.7385 61.4918 71.2243 61.1782 75.5018 63.661L131.854 96.263C136.131 98.7457 135.596 103.071 130.654 105.932L76.7016 137.136C71.759 139.998 64.2732 140.312 59.9956 137.829Z" fill="url(#paint11_linear)"/>
<path opacity="0.2" d="M61.8867 137.829L5.53493 105.227C1.25736 102.744 0.227091 99.1113 6.73473 95.5571L60.6868 64.3532C63.1125 62.942 66.1642 62.158 69.1376 62.0142C65.6034 61.8574 61.7432 62.6414 58.7958 64.3532L4.84373 95.5701C-0.0989432 98.4318 -0.633639 102.757 3.64393 105.24L59.9957 137.842C62.1736 139.096 65.1731 139.632 68.2508 139.488C65.8643 139.371 63.6212 138.835 61.8867 137.829Z" fill="white"/>
<path d="M130.654 110.637L76.7019 141.853C71.7592 144.715 64.2735 145.029 59.9959 142.546L3.64421 109.944C1.58367 108.755 0.657734 107.135 0.775106 105.462H0.749023V107.775H0.775106C0.657734 109.447 1.58367 111.068 3.64421 112.257L59.9959 144.859C64.2735 147.342 71.7592 147.028 76.7019 144.166L130.654 112.949C133.51 111.303 134.879 109.16 134.723 107.174V104.861C134.892 106.847 133.51 108.99 130.654 110.637Z" fill="url(#paint12_linear)"/>
<path opacity="0.2" d="M63.2692 103.11C64.443 103.789 64.443 104.887 63.2692 105.567C62.0955 106.246 60.2045 106.246 59.0308 105.567C57.8571 104.887 57.8571 103.789 59.0308 103.11C60.2045 102.43 62.0955 102.43 63.2692 103.11Z" fill="url(#paint13_linear)"/>
<path opacity="0.6" d="M69.868 99.2944C71.0417 99.9739 71.0417 101.072 69.868 101.751C68.6943 102.43 66.8033 102.43 65.6296 101.751C64.4558 101.072 64.4558 99.9739 65.6296 99.2944C66.8033 98.6149 68.6943 98.6149 69.868 99.2944Z" fill="url(#paint14_linear)"/>
<path d="M76.4671 95.4658C77.6409 96.1452 77.6409 97.2429 76.4671 97.9224C75.2934 98.6018 73.4024 98.6018 72.2287 97.9224C71.055 97.2429 71.055 96.1452 72.2287 95.4658C73.4024 94.7993 75.2934 94.7993 76.4671 95.4658Z" fill="url(#paint15_linear)"/>
<path opacity="0.5" d="M67.3772 129.819C65.2906 129.819 63.2953 129.401 61.7955 128.538L20.1283 104.43C18.6155 103.554 17.7809 102.326 17.7809 100.954C17.7809 99.3467 18.9546 97.7395 21.0151 96.5373L60.9217 73.4742C64.6907 71.292 70.4159 71.0698 73.7023 72.9645L115.369 97.0731C116.882 97.9486 117.717 99.1768 117.717 100.549C117.717 102.169 116.543 103.776 114.483 104.966L74.5891 128.029C72.5286 129.218 69.8942 129.819 67.3772 129.819ZM62.2259 127.807C65.2645 129.571 70.6245 129.335 74.1587 127.297L114.052 104.221C115.839 103.188 116.869 101.843 116.869 100.549C116.869 99.5035 116.191 98.5366 114.939 97.8179L73.2719 73.6963C70.2333 71.9323 64.8733 72.1675 61.3391 74.2059L21.4455 97.2821C19.6588 98.3144 18.6286 99.6603 18.6286 100.954C18.6286 101.999 19.3067 102.966 20.5587 103.685L62.2259 127.807Z" fill="white"/>
<path d="M152.469 209.167L96.1176 176.565C91.84 174.082 92.3747 169.757 97.3174 166.895L151.269 135.679C156.212 132.817 163.698 132.503 167.975 134.986L224.327 167.588C228.605 170.071 228.07 174.396 223.127 177.258L169.175 208.475C164.233 211.336 156.747 211.65 152.469 209.167Z" fill="#312A91"/>
<path d="M152.469 209.167L96.1176 176.565C91.84 174.082 92.3747 169.757 97.3174 166.895L151.269 135.679C156.212 132.817 163.698 132.503 167.975 134.986L224.327 167.588C228.605 170.071 228.07 174.396 223.127 177.258L169.175 208.475C164.233 211.336 156.747 211.65 152.469 209.167Z" fill="url(#paint16_linear)"/>
<path d="M153.982 201.967L108.572 175.703C105.116 173.703 105.56 170.214 109.537 167.915L153.004 142.761C156.995 140.461 163.02 140.2 166.463 142.199L211.873 168.463C215.329 170.463 214.886 173.952 210.908 176.251L167.441 201.405C163.45 203.705 157.425 203.953 153.982 201.967Z" fill="url(#paint17_linear)"/>
<path opacity="0.4" d="M109.537 171.312L153.004 146.158C156.982 143.858 163.02 143.597 166.463 145.596L211.873 171.861C212.721 172.357 213.334 172.932 213.725 173.573C214.729 171.73 214.142 169.77 211.873 168.45L166.463 142.186C163.007 140.187 156.982 140.435 153.004 142.748L109.537 167.902C106.538 169.64 105.547 172.044 106.72 173.978C107.242 173.024 108.181 172.096 109.537 171.312Z" fill="url(#paint18_linear)"/>
<path opacity="0.5" d="M154.36 209.166L98.0081 176.564C93.7306 174.082 92.7003 170.449 99.2079 166.895L153.16 135.678C155.586 134.267 158.637 133.482 161.611 133.339C158.077 133.182 154.216 133.966 151.269 135.678L97.3169 166.895C92.3743 169.756 91.8396 174.082 96.1171 176.564L152.469 209.166C154.647 210.421 157.646 210.957 160.724 210.813C158.337 210.708 156.094 210.159 154.36 209.166Z" fill="white"/>
<path opacity="0.4" d="M139.611 142.434L93.2227 142.643V172.083H93.2487C93.1314 173.756 94.0573 175.376 96.1178 176.565L152.47 209.167C154.53 210.356 157.321 210.892 160.216 210.813V136.815H149.314L139.611 142.434Z" fill="url(#paint19_linear)"/>
<path opacity="0.4" d="M227.197 172.083C227.21 171.887 227.21 171.678 227.197 171.482V142.042L180.508 142.251L167.963 134.999C163.685 132.516 156.199 132.83 151.257 135.692L139.598 142.434L93.2227 142.643V172.083H93.2487C93.1314 173.756 94.0573 175.376 96.1178 176.565L152.47 209.167C156.747 211.65 164.233 211.336 169.176 208.475L223.128 177.258C225.697 175.768 227.066 173.899 227.197 172.083Z" fill="url(#paint20_linear)"/>
<path d="M227.197 142.042V131.497H200.057L167.976 112.929C163.698 110.446 156.212 110.76 151.27 113.622L120.388 131.497H93.2227V142.63H93.2487C93.1314 144.303 94.0573 145.923 96.1178 147.112L152.47 179.714C156.747 182.197 164.233 181.883 169.176 179.022L223.128 147.805C225.984 146.171 227.366 144.028 227.197 142.042Z" fill="white"/>
<path d="M227.197 142.042V131.497H200.057L167.976 112.929C163.698 110.446 156.212 110.76 151.27 113.622L120.388 131.497H93.2227V142.63H93.2487C93.1314 144.303 94.0573 145.923 96.1178 147.112L152.47 179.714C156.747 182.197 164.233 181.883 169.176 179.022L223.128 147.805C225.984 146.171 227.366 144.028 227.197 142.042Z" fill="url(#paint21_linear)"/>
<path d="M167.976 112.942C165.915 111.753 163.124 111.217 160.216 111.283V181.387C163.346 181.308 166.606 180.524 169.176 179.035L223.128 147.818C225.984 146.171 227.353 144.028 227.197 142.042V131.497H200.058L167.976 112.942Z" fill="url(#paint22_linear)"/>
<path d="M152.469 168.581L96.1176 135.979C91.84 133.496 92.3747 129.171 97.3174 126.31L151.269 95.1058C156.212 92.2442 163.698 91.9306 167.975 94.4133L224.327 127.015C228.605 129.498 228.07 133.823 223.127 136.685L169.175 167.889C164.233 170.75 156.747 171.064 152.469 168.581Z" fill="#312A91"/>
<path d="M152.469 168.581L96.1176 135.979C91.84 133.496 92.3747 129.171 97.3174 126.31L151.269 95.1058C156.212 92.2442 163.698 91.9306 167.975 94.4133L224.327 127.015C228.605 129.498 228.07 133.823 223.127 136.685L169.175 167.889C164.233 170.75 156.747 171.064 152.469 168.581Z" fill="url(#paint23_linear)"/>
<path opacity="0.2" d="M154.36 168.581L98.0086 135.979C93.731 133.496 92.7007 129.864 99.2084 126.309L153.16 95.1055C155.586 93.6943 158.638 92.9103 161.611 92.7666C158.077 92.6098 154.217 93.3938 151.269 95.1055L97.3174 126.322C92.3747 129.184 91.84 133.509 96.1176 135.992L152.469 168.594C154.647 169.848 157.647 170.384 160.724 170.24C158.338 170.123 156.095 169.587 154.36 168.581Z" fill="white"/>
<path d="M223.128 141.389L169.176 172.606C164.233 175.467 156.747 175.781 152.47 173.298L96.1178 140.696C94.0573 139.507 93.1314 137.887 93.2487 136.214H93.2227V138.527H93.2487C93.1314 140.2 94.0573 141.82 96.1178 143.009L152.47 175.611C156.747 178.094 164.233 177.78 169.176 174.919L223.128 143.702C225.984 142.055 227.353 139.912 227.197 137.926V135.613C227.366 137.599 225.984 139.742 223.128 141.389Z" fill="url(#paint24_linear)"/>
<path opacity="0.2" d="M155.743 133.862C156.917 134.542 156.917 135.639 155.743 136.319C154.569 136.998 152.678 136.998 151.504 136.319C150.331 135.639 150.331 134.542 151.504 133.862C152.678 133.183 154.569 133.183 155.743 133.862Z" fill="url(#paint25_linear)"/>
<path opacity="0.6" d="M162.342 130.047C163.515 130.726 163.515 131.824 162.342 132.503C161.168 133.183 159.277 133.183 158.103 132.503C156.929 131.824 156.929 130.726 158.103 130.047C159.277 129.367 161.168 129.367 162.342 130.047Z" fill="url(#paint26_linear)"/>
<path d="M168.941 126.218C170.115 126.898 170.115 127.995 168.941 128.675C167.767 129.354 165.876 129.354 164.702 128.675C163.529 127.995 163.529 126.898 164.702 126.218C165.876 125.552 167.767 125.552 168.941 126.218Z" fill="url(#paint27_linear)"/>
<path opacity="0.5" d="M159.851 160.571C157.764 160.571 155.769 160.153 154.269 159.291L112.602 135.182C111.089 134.307 110.255 133.078 110.255 131.706C110.255 130.099 111.428 128.492 113.489 127.29L153.395 104.226C157.164 102.044 162.889 101.822 166.176 103.717L207.843 127.825C209.356 128.701 210.191 129.929 210.191 131.301C210.191 132.921 209.017 134.529 206.956 135.718L167.063 158.781C165.002 159.97 162.368 160.571 159.851 160.571ZM154.7 158.559C157.738 160.323 163.098 160.088 166.632 158.049L206.526 134.973C208.313 133.941 209.343 132.595 209.343 131.301C209.343 130.256 208.665 129.289 207.413 128.57L165.746 104.449C162.707 102.685 157.347 102.92 153.813 104.958L113.919 128.034C112.132 129.067 111.102 130.413 111.102 131.706C111.102 132.752 111.78 133.719 113.032 134.437L154.7 158.559Z" fill="white"/>
<path d="M135.437 90.4582V79.9132H108.298L76.216 61.3582C71.9384 58.8755 64.4527 59.1891 59.51 62.0508L28.628 79.9263H1.46289V91.0593H1.48897C1.3716 92.7319 2.29754 94.3522 4.35807 95.5413L60.7098 128.143C64.9874 130.626 72.4731 130.312 77.4158 127.451L131.368 96.2338C134.224 94.5874 135.606 92.4575 135.437 90.4582Z" fill="#312A91"/>
<path d="M135.437 90.4582V79.9132H108.298L76.216 61.3582C71.9384 58.8755 64.4527 59.1891 59.51 62.0508L28.628 79.9263H1.46289V91.0593H1.48897C1.3716 92.7319 2.29754 94.3522 4.35807 95.5413L60.7098 128.143C64.9874 130.626 72.4731 130.312 77.4158 127.451L131.368 96.2338C134.224 94.5874 135.606 92.4575 135.437 90.4582Z" fill="url(#paint28_linear)"/>
<path d="M76.216 61.3582C74.1555 60.1691 71.3646 59.6333 68.4564 59.6987V129.803C71.5863 129.724 74.8467 128.94 77.4158 127.451L131.368 96.2338C134.224 94.5874 135.593 92.4444 135.437 90.4582V79.9132H108.298L76.216 61.3582Z" fill="url(#paint29_linear)"/>
<path d="M60.7095 117.01L4.35779 84.4083C0.0802284 81.9256 0.614924 77.6004 5.5576 74.7388L59.5097 43.5218C64.4524 40.6602 71.9381 40.3466 76.2157 42.8293L132.567 75.4313C136.845 77.914 136.31 82.2392 131.368 85.1008L77.4155 116.318C72.4728 119.179 64.9871 119.493 60.7095 117.01Z" fill="#312A91"/>
<path d="M60.7095 117.01L4.35779 84.4083C0.0802284 81.9256 0.614924 77.6004 5.5576 74.7388L59.5097 43.5218C64.4524 40.6602 71.9381 40.3466 76.2157 42.8293L132.567 75.4313C136.845 77.914 136.31 82.2392 131.368 85.1008L77.4155 116.318C72.4728 119.179 64.9871 119.493 60.7095 117.01Z" fill="url(#paint30_linear)"/>
<path d="M62.2226 109.81L16.8126 83.5458C13.3566 81.5465 13.8 78.0576 17.7776 75.7579L61.2445 50.604C65.2352 48.3042 71.2603 48.0429 74.7032 50.0421L120.113 76.3067C123.569 78.3059 123.126 81.7948 119.148 84.0946L75.6813 109.248C71.6906 111.548 65.6655 111.796 62.2226 109.81Z" fill="url(#paint31_linear)"/>
<path opacity="0.4" d="M17.7776 79.1553L61.2444 54.0014C65.222 51.7016 71.2602 51.4403 74.7031 53.4395L120.113 79.7041C120.961 80.2007 121.574 80.7756 121.965 81.4159C122.969 79.5734 122.382 77.6134 120.113 76.2936L74.7031 50.0291C71.2472 48.0298 65.222 48.2781 61.2444 50.5909L17.7776 75.7448C14.7781 77.4827 13.7869 79.887 14.9607 81.821C15.4823 80.8671 16.4213 79.9393 17.7776 79.1553Z" fill="url(#paint32_linear)"/>
<path opacity="0.5" d="M62.6001 117.009L6.24837 84.4074C1.9708 81.9247 0.940531 78.2921 7.44817 74.7379L61.4003 43.5209C63.826 42.1097 66.8777 41.3257 69.8511 41.182C66.3169 41.0252 62.4566 41.8092 59.5093 43.5209L5.55717 74.7379C0.614497 77.5995 0.079801 81.9247 4.35737 84.4074L60.7091 117.009C62.887 118.264 65.8865 118.8 68.9643 118.656C66.5777 118.551 64.3346 118.003 62.6001 117.009Z" fill="white"/>
<path d="M131.368 89.8179L77.4158 121.022C72.4731 123.883 64.9874 124.197 60.7098 121.714L4.35807 89.1123C2.29754 87.9232 1.3716 86.3029 1.48897 84.6304H1.46289V86.9432H1.48897C1.3716 88.6158 2.29754 90.2361 4.35807 91.4252L60.7098 124.027C64.9874 126.51 72.4731 126.196 77.4158 123.335L131.368 92.1177C134.224 90.4713 135.593 88.3283 135.437 86.3421V84.0293C135.606 86.0285 134.224 88.1584 131.368 89.8179Z" fill="url(#paint33_linear)"/>
<path d="M121.587 86.7341C122.2 87.0869 122.2 87.6619 121.587 88.0277C120.974 88.3806 119.97 88.3806 119.357 88.0277C118.744 87.6749 118.744 87.1 119.357 86.7341C119.983 86.3813 120.974 86.3813 121.587 86.7341Z" fill="#FCCC6B"/>
<path d="M125.056 84.7349C125.669 85.0877 125.669 85.6626 125.056 86.0285C124.443 86.3813 123.439 86.3813 122.826 86.0285C122.213 85.6757 122.213 85.1007 122.826 84.7349C123.452 84.369 124.443 84.369 125.056 84.7349Z" fill="#FCCC6B"/>
<path d="M128.525 82.7226C129.138 83.0754 129.138 83.6503 128.525 84.0162C127.912 84.369 126.908 84.369 126.295 84.0162C125.682 83.6634 125.682 83.0885 126.295 82.7226C126.921 82.3698 127.912 82.3698 128.525 82.7226Z" fill="#FCCC6B"/>
<path opacity="0.7" d="M63.5658 103.447L27.9498 82.8401C25.2372 81.2721 25.5893 78.5411 28.7062 76.7379L62.8094 57.0068C65.9393 55.2036 70.6603 55.0076 73.3729 56.5625L108.989 77.1691C111.701 78.7371 111.362 81.4681 108.232 83.2713L74.1293 103.002C70.9993 104.806 66.2653 105.015 63.5658 103.447Z" fill="url(#paint34_linear)"/>
<path opacity="0.4" d="M47.8511 50.2774L1.46289 50.4864V79.9262H1.48897C1.3716 81.5988 2.29754 83.2191 4.35808 84.4082L60.7098 117.01C62.7704 118.199 65.5612 118.735 68.4564 118.657V44.6586H57.5538L47.8511 50.2774Z" fill="url(#paint35_linear)"/>
<path opacity="0.4" d="M135.437 79.9263C135.45 79.7303 135.45 79.5213 135.437 79.3252V49.8854L88.7487 50.0945L76.2029 42.8423C71.9253 40.3596 64.4396 40.6732 59.4969 43.5349L47.838 50.2774L1.46289 50.4865V79.9263H1.48897C1.3716 81.5989 2.29754 83.2192 4.35807 84.4083L60.7098 117.01C64.9873 119.493 72.4731 119.179 77.4157 116.318L131.368 85.1008C133.937 83.6112 135.306 81.7426 135.437 79.9263Z" fill="url(#paint36_linear)"/>
<path d="M135.437 49.8854V39.3404H108.298L76.216 20.7723C71.9384 18.2896 64.4527 18.6032 59.51 21.4648L28.628 39.3404H1.46289V50.4734H1.48897C1.3716 52.146 2.29754 53.7663 4.35807 54.9554L60.7098 87.5574C64.9874 90.0401 72.4731 89.7265 77.4158 86.8649L131.368 55.6479C134.224 54.0146 135.606 51.8716 135.437 49.8854Z" fill="white"/>
<path d="M135.437 49.8854V39.3404H108.298L76.216 20.7723C71.9384 18.2896 64.4527 18.6032 59.51 21.4648L28.628 39.3404H1.46289V50.4734H1.48897C1.3716 52.146 2.29754 53.7663 4.35807 54.9554L60.7098 87.5574C64.9874 90.0401 72.4731 89.7265 77.4158 86.8649L131.368 55.6479C134.224 54.0146 135.606 51.8716 135.437 49.8854Z" fill="url(#paint37_linear)"/>
<path d="M76.216 20.7852C74.1555 19.5961 71.3646 19.0603 68.4564 19.1257V89.2298C71.5863 89.1514 74.8467 88.3674 77.4158 86.8778L131.368 55.6609C134.224 54.0144 135.593 51.8714 135.437 49.8853V39.3402H108.298L76.216 20.7852Z" fill="url(#paint38_linear)"/>
<path d="M60.7095 76.4244L4.35779 43.8223C0.0802284 41.3396 0.614924 37.0145 5.5576 34.1528L59.5097 2.94896C64.4524 0.087299 71.9381 -0.226307 76.2157 2.25641L132.567 34.8584C136.845 37.3411 136.31 41.6663 131.368 44.528L77.4155 75.7318C72.4728 78.5935 64.9871 78.9071 60.7095 76.4244Z" fill="#312A91"/>
<path d="M60.7095 76.4244L4.35779 43.8223C0.0802284 41.3396 0.614924 37.0145 5.5576 34.1528L59.5097 2.94896C64.4524 0.087299 71.9381 -0.226307 76.2157 2.25641L132.567 34.8584C136.845 37.3411 136.31 41.6663 131.368 44.528L77.4155 75.7318C72.4728 78.5935 64.9871 78.9071 60.7095 76.4244Z" fill="url(#paint39_linear)"/>
<path opacity="0.2" d="M62.6005 76.424L6.24879 43.822C1.97123 41.3393 0.940958 37.7067 7.4486 34.1525L61.4007 2.94868C63.8264 1.53745 66.8781 0.753432 69.8515 0.609696C66.3173 0.452893 62.4571 1.23691 59.5097 2.94868L5.5576 34.1656C0.614924 37.0272 0.0802283 41.3524 4.3578 43.8351L60.7095 76.4371C62.8874 77.6915 65.8869 78.2272 68.9647 78.0835C66.5781 77.9659 64.335 77.4302 62.6005 76.424Z" fill="white"/>
<path d="M131.368 49.232L77.4158 80.4489C72.4731 83.3106 64.9874 83.6242 60.7098 81.1415L4.35807 48.5395C2.29754 47.3504 1.3716 45.7301 1.48897 44.0575H1.46289V46.3703H1.48897C1.3716 48.0429 2.29754 49.6632 4.35807 50.8523L60.7098 83.4543C64.9874 85.937 72.4731 85.6234 77.4158 82.7618L131.368 51.5449C134.224 49.8984 135.593 47.7554 135.437 45.7693V43.4564C135.606 45.4426 134.224 47.5856 131.368 49.232Z" fill="url(#paint40_linear)"/>
<path opacity="0.2" d="M63.9831 41.7055C65.1568 42.385 65.1568 43.4826 63.9831 44.1621C62.8094 44.8416 60.9184 44.8416 59.7447 44.1621C58.5709 43.4826 58.5709 42.385 59.7447 41.7055C60.9184 41.0261 62.8094 41.0261 63.9831 41.7055Z" fill="url(#paint41_linear)"/>
<path opacity="0.6" d="M70.5819 37.89C71.7556 38.5694 71.7556 39.6671 70.5819 40.3465C69.4081 41.026 67.5171 41.026 66.3434 40.3465C65.1697 39.6671 65.1697 38.5694 66.3434 37.89C67.5171 37.2105 69.4081 37.2105 70.5819 37.89Z" fill="url(#paint42_linear)"/>
<path d="M77.181 34.0613C78.3547 34.7408 78.3547 35.8385 77.181 36.5179C76.0073 37.1974 74.1163 37.1974 72.9426 36.5179C71.7688 35.8385 71.7688 34.7408 72.9426 34.0613C74.1163 33.3949 76.0073 33.3949 77.181 34.0613Z" fill="url(#paint43_linear)"/>
<path opacity="0.5" d="M68.0911 68.4142C66.0045 68.4142 64.0091 67.9961 62.5094 67.1337L20.8422 43.0252C19.3294 42.1497 18.4948 40.9214 18.4948 39.5494C18.4948 37.9421 19.6685 36.3349 21.729 35.1327L61.6356 12.0696C65.4046 9.88744 71.1297 9.6653 74.4161 11.56L116.083 35.6685C117.596 36.544 118.431 37.7723 118.431 39.1443C118.431 40.7646 117.257 42.3718 115.197 43.5609L75.303 66.624C73.2424 67.8131 70.6081 68.4142 68.0911 68.4142ZM62.9397 66.4019C65.9784 68.1659 71.3384 67.9307 74.8726 65.8923L114.766 42.8161C116.553 41.7838 117.583 40.4379 117.583 39.1443C117.583 38.0989 116.905 37.132 115.653 36.4133L73.9858 12.2918C70.9471 10.5277 65.5871 10.7629 62.0529 12.8014L22.1594 35.8776C20.3727 36.9098 19.3424 38.2557 19.3424 39.5494C19.3424 40.5947 20.0206 41.5617 21.2726 42.2804L62.9397 66.4019Z" fill="white"/>
<path d="M227.91 121.21V110.665H200.771L168.69 92.1104C164.412 89.6277 156.926 89.9413 151.984 92.803L121.102 110.679H93.9365V121.812H93.9626C93.8452 123.484 94.7712 125.104 96.8317 126.294L153.183 158.896C157.461 161.378 164.947 161.065 169.889 158.203L223.842 126.986C226.698 125.34 228.08 123.21 227.91 121.21Z" fill="#312A91"/>
<path d="M227.91 121.21V110.665H200.771L168.69 92.1104C164.412 89.6277 156.926 89.9413 151.984 92.803L121.102 110.679H93.9365V121.812H93.9626C93.8452 123.484 94.7712 125.104 96.8317 126.294L153.183 158.896C157.461 161.378 164.947 161.065 169.889 158.203L223.842 126.986C226.698 125.34 228.08 123.21 227.91 121.21Z" fill="url(#paint44_linear)"/>
<path d="M168.69 92.1104C166.629 90.9213 163.838 90.3855 160.93 90.4509V160.555C164.06 160.477 167.32 159.693 169.889 158.203L223.842 126.986C226.698 125.34 228.067 123.197 227.91 121.21V110.665H200.771L168.69 92.1104Z" fill="url(#paint45_linear)"/>
<path d="M153.183 147.763L96.8314 115.161C92.5539 112.678 93.0886 108.353 98.0312 105.491L151.983 74.274C156.926 71.4124 164.412 71.0988 168.689 73.5815L225.041 106.184C229.319 108.666 228.784 112.991 223.841 115.853L169.889 147.07C164.946 149.932 157.461 150.245 153.183 147.763Z" fill="#312A91"/>
<path d="M153.183 147.763L96.8314 115.161C92.5539 112.678 93.0886 108.353 98.0312 105.491L151.983 74.274C156.926 71.4124 164.412 71.0988 168.689 73.5815L225.041 106.184C229.319 108.666 228.784 112.991 223.841 115.853L169.889 147.07C164.946 149.932 157.461 150.245 153.183 147.763Z" fill="url(#paint46_linear)"/>
<path d="M154.696 140.563L109.286 114.298C105.83 112.299 106.274 108.81 110.251 106.51L153.718 81.3563C157.709 79.0565 163.734 78.7952 167.177 80.7944L212.587 107.059C216.043 109.058 215.599 112.547 211.622 114.847L168.155 140.001C164.164 142.301 158.139 142.549 154.696 140.563Z" fill="url(#paint47_linear)"/>
<path opacity="0.4" d="M110.251 109.908L153.718 84.7537C157.696 82.454 163.734 82.1926 167.177 84.1919L212.587 110.456C213.434 110.953 214.047 111.528 214.439 112.168C215.443 110.326 214.856 108.366 212.587 107.046L167.177 80.7814C163.721 78.7821 157.696 79.0304 153.718 81.3433L110.251 106.497C107.252 108.235 106.261 110.639 107.434 112.573C107.956 111.619 108.895 110.692 110.251 109.908Z" fill="url(#paint48_linear)"/>
<path opacity="0.5" d="M155.074 147.762L98.722 115.16C94.4444 112.677 93.4142 109.044 99.9218 105.49L153.874 74.2731C156.3 72.8619 159.351 72.0779 162.325 71.9342C158.791 71.7774 154.93 72.5614 151.983 74.2731L98.0308 105.49C93.0881 108.352 92.5534 112.677 96.831 115.16L153.183 147.762C155.361 149.016 158.36 149.552 161.438 149.408C159.051 149.303 156.808 148.755 155.074 147.762Z" fill="white"/>
<path d="M223.842 120.57L169.889 151.774C164.947 154.636 157.461 154.949 153.183 152.467L96.8317 119.865C94.7712 118.675 93.8452 117.055 93.9626 115.383H93.9365V117.695H93.9626C93.8452 119.368 94.7712 120.988 96.8317 122.177L153.183 154.779C157.461 157.262 164.947 156.949 169.889 154.087L223.842 122.87C226.698 121.224 228.067 119.081 227.91 117.094V114.781C228.08 116.781 226.698 118.911 223.842 120.57Z" fill="url(#paint49_linear)"/>
<path opacity="0.7" d="M156.039 134.199L120.423 113.592C117.711 112.024 118.063 109.293 121.18 107.49L155.283 87.7591C158.413 85.9559 163.134 85.7599 165.846 87.3149L201.462 107.921C204.175 109.489 203.836 112.22 200.706 114.024L166.603 133.755C163.473 135.558 158.739 135.767 156.039 134.199Z" fill="url(#paint50_linear)"/>
<path opacity="0.4" d="M140.325 81.0297L93.9365 81.2387V110.679H93.9626C93.8452 112.351 94.7712 113.971 96.8317 115.161L153.183 147.763C155.244 148.952 158.035 149.487 160.93 149.409V75.4109H150.027L140.325 81.0297Z" fill="url(#paint51_linear)"/>
<path opacity="0.4" d="M227.91 110.679C227.923 110.483 227.923 110.273 227.91 110.077V80.6376L181.222 80.8467L168.677 73.5945C164.399 71.1118 156.913 71.4254 151.971 74.2871L140.312 81.0296L93.9365 81.2387V110.679H93.9626C93.8452 112.351 94.7712 113.971 96.8317 115.16L153.183 147.763C157.461 150.245 164.947 149.932 169.889 147.07L223.841 115.853C226.411 114.363 227.78 112.495 227.91 110.679Z" fill="url(#paint52_linear)"/>
<path d="M227.91 80.6376V70.0926H200.771L168.69 51.5245C164.412 49.0418 156.926 49.3554 151.984 52.217L121.102 70.0926H93.9365V81.2256H93.9626C93.8452 82.8982 94.7712 84.5185 96.8317 85.7076L153.183 118.31C157.461 120.792 164.947 120.479 169.889 117.617L223.842 86.4001C226.698 84.7668 228.08 82.6238 227.91 80.6376Z" fill="white"/>
<path d="M227.91 80.6376V70.0926H200.771L168.69 51.5245C164.412 49.0418 156.926 49.3554 151.984 52.217L121.102 70.0926H93.9365V81.2256H93.9626C93.8452 82.8982 94.7712 84.5185 96.8317 85.7076L153.183 118.31C157.461 120.792 164.947 120.479 169.889 117.617L223.842 86.4001C226.698 84.7668 228.08 82.6238 227.91 80.6376Z" fill="url(#paint53_linear)"/>
<path d="M168.69 51.5376C166.629 50.3485 163.838 49.8128 160.93 49.8781V119.982C164.06 119.904 167.32 119.12 169.889 117.63L223.842 86.4133C226.698 84.7668 228.067 82.6239 227.91 80.6377V70.0927H200.771L168.69 51.5376Z" fill="url(#paint54_linear)"/>
<path d="M153.183 107.177L96.8314 74.5747C92.5539 72.0919 93.0886 67.7668 98.0312 64.9051L151.983 33.7013C156.926 30.8396 164.412 30.526 168.689 33.0087L225.041 65.6107C229.319 68.0935 228.784 72.4186 223.841 75.2803L169.889 106.484C164.946 109.346 157.461 109.659 153.183 107.177Z" fill="#312A91"/>
<path d="M153.183 107.177L96.8314 74.5747C92.5539 72.0919 93.0886 67.7668 98.0312 64.9051L151.983 33.7013C156.926 30.8396 164.412 30.526 168.689 33.0087L225.041 65.6107C229.319 68.0935 228.784 72.4186 223.841 75.2803L169.889 106.484C164.946 109.346 157.461 109.659 153.183 107.177Z" fill="url(#paint55_linear)"/>
<path opacity="0.2" d="M155.074 107.176L98.7224 74.5744C94.4449 72.0917 93.4146 68.459 99.9222 64.9048L153.874 33.701C156.3 32.2898 159.352 31.5058 162.325 31.362C158.791 31.2052 154.931 31.9892 151.983 33.701L98.0312 64.9179C93.0886 67.7796 92.5539 72.1047 96.8314 74.5874L153.183 107.189C155.361 108.444 158.361 108.98 161.438 108.836C159.052 108.718 156.809 108.183 155.074 107.176Z" fill="white"/>
<path d="M223.842 79.9843L169.889 111.201C164.947 114.063 157.461 114.377 153.183 111.894L96.8317 79.2918C94.7712 78.1027 93.8452 76.4824 93.9626 74.8098H93.9365V77.1227H93.9626C93.8452 78.7952 94.7712 80.4155 96.8317 81.6046L153.183 114.207C157.461 116.689 164.947 116.376 169.889 113.514L223.842 82.2972C226.698 80.6507 228.067 78.5078 227.91 76.5216V74.2087C228.08 76.1949 226.698 78.3379 223.842 79.9843Z" fill="url(#paint56_linear)"/>
<path opacity="0.2" d="M156.457 72.4579C157.63 73.1374 157.63 74.235 156.457 74.9145C155.283 75.594 153.392 75.594 152.218 74.9145C151.045 74.235 151.045 73.1374 152.218 72.4579C153.392 71.7784 155.283 71.7784 156.457 72.4579Z" fill="url(#paint57_linear)"/>
<path opacity="0.6" d="M163.055 68.6422C164.229 69.3217 164.229 70.4193 163.055 71.0988C161.882 71.7783 159.991 71.7783 158.817 71.0988C157.643 70.4193 157.643 69.3217 158.817 68.6422C159.991 67.9627 161.882 67.9627 163.055 68.6422Z" fill="url(#paint58_linear)"/>
<path d="M169.655 64.8136C170.828 65.4931 170.828 66.5907 169.655 67.2702C168.481 67.9497 166.59 67.9497 165.416 67.2702C164.242 66.5907 164.242 65.4931 165.416 64.8136C166.59 64.1472 168.481 64.1472 169.655 64.8136Z" fill="url(#paint59_linear)"/>
<path opacity="0.5" d="M160.565 99.1666C158.478 99.1666 156.483 98.7485 154.983 97.886L113.316 73.7775C111.803 72.902 110.968 71.6737 110.968 70.3017C110.968 68.6945 112.142 67.0872 114.203 65.8851L154.109 42.8219C157.878 40.6398 163.603 40.4176 166.89 42.3123L208.557 66.4208C210.07 67.2963 210.904 68.5246 210.904 69.8966C210.904 71.5169 209.731 73.1242 207.67 74.3133L167.777 97.3764C165.716 98.5655 163.082 99.1666 160.565 99.1666ZM155.413 97.1543C158.452 98.9183 163.812 98.6831 167.346 96.6447L207.24 73.5685C209.026 72.5362 210.057 71.1903 210.057 69.8966C210.057 68.8513 209.379 67.8843 208.127 67.1657L166.459 43.0441C163.421 41.28 158.061 41.5152 154.527 43.5537L114.633 66.6299C112.846 67.6622 111.816 69.0081 111.816 70.3017C111.816 71.3471 112.494 72.314 113.746 73.0327L155.413 97.1543Z" fill="white"/>
<defs>
<linearGradient id="paint0_linear" x1="98.609" y1="194.556" x2="75.3762" y2="142.135" gradientUnits="userSpaceOnUse">
<stop stop-color="#595E72"/>
<stop offset="1" stop-color="#242731"/>
</linearGradient>
<linearGradient id="paint1_linear" x1="116.671" y1="194.539" x2="85.5526" y2="159.419" gradientUnits="userSpaceOnUse">
<stop stop-color="#595E72"/>
<stop offset="1" stop-color="#242731"/>
</linearGradient>
<linearGradient id="paint2_linear" x1="98.6145" y1="183.775" x2="71.2216" y2="127.864" gradientUnits="userSpaceOnUse">
<stop stop-color="#595E72"/>
<stop offset="1" stop-color="#242731"/>
</linearGradient>
<linearGradient id="paint3_linear" x1="28.4779" y1="166.647" x2="65.7793" y2="96.0298" gradientUnits="userSpaceOnUse">
<stop stop-color="#FF5824"/>
<stop offset="1" stop-color="#FF9A24"/>
</linearGradient>
<linearGradient id="paint4_linear" x1="114.082" y1="141.217" x2="0.0441395" y2="138.913" gradientUnits="userSpaceOnUse">
<stop stop-color="#D73908"/>
<stop offset="1" stop-color="#EB8712"/>
</linearGradient>
<linearGradient id="paint5_linear" x1="19.0043" y1="183.165" x2="34.8424" y2="127.396" gradientUnits="userSpaceOnUse">
<stop stop-color="#FF5824"/>
<stop offset="1" stop-color="#FF9A24"/>
</linearGradient>
<linearGradient id="paint6_linear" x1="36.9482" y1="161.271" x2="66.202" y2="105.876" gradientUnits="userSpaceOnUse">
<stop stop-color="#862000"/>
<stop offset="1" stop-color="#5A3100"/>
</linearGradient>
<linearGradient id="paint7_linear" x1="34.2458" y1="174.831" x2="34.2458" y2="122.012" gradientUnits="userSpaceOnUse">
<stop stop-color="#FF5824"/>
<stop offset="1" stop-color="#FF9A24"/>
</linearGradient>
<linearGradient id="paint8_linear" x1="67.7409" y1="180.09" x2="67.7409" y2="150.061" gradientUnits="userSpaceOnUse">
<stop stop-color="#FF5A24"/>
<stop offset="1" stop-color="#FF9A24"/>
</linearGradient>
<linearGradient id="paint9_linear" x1="114.814" y1="140.196" x2="78.0345" y2="40.5129" gradientUnits="userSpaceOnUse">
<stop stop-color="#595E72"/>
<stop offset="1" stop-color="#242731"/>
</linearGradient>
<linearGradient id="paint10_linear" x1="124.774" y1="140.197" x2="70.6916" y2="66.8811" gradientUnits="userSpaceOnUse">
<stop stop-color="#595E72"/>
<stop offset="1" stop-color="#242731"/>
</linearGradient>
<linearGradient id="paint11_linear" x1="98.6145" y1="143.188" x2="71.2291" y2="87.2833" gradientUnits="userSpaceOnUse">
<stop stop-color="#595E72"/>
<stop offset="1" stop-color="#242731"/>
</linearGradient>
<linearGradient id="paint12_linear" x1="19.0043" y1="142.592" x2="34.8424" y2="86.8227" gradientUnits="userSpaceOnUse">
<stop stop-color="#FF5824"/>
<stop offset="1" stop-color="#FF9A24"/>
</linearGradient>
<linearGradient id="paint13_linear" x1="58.9679" y1="105.747" x2="61.0457" y2="101.82" gradientUnits="userSpaceOnUse">
<stop stop-color="#FF5824"/>
<stop offset="1" stop-color="#FF9A24"/>
</linearGradient>
<linearGradient id="paint14_linear" x1="65.5666" y1="101.932" x2="67.6444" y2="98.0044" gradientUnits="userSpaceOnUse">
<stop stop-color="#FF5824"/>
<stop offset="1" stop-color="#FF9A24"/>
</linearGradient>
<linearGradient id="paint15_linear" x1="72.1658" y1="98.1041" x2="74.2344" y2="94.1829" gradientUnits="userSpaceOnUse">
<stop stop-color="#FF5824"/>
<stop offset="1" stop-color="#FF9A24"/>
</linearGradient>
<linearGradient id="paint16_linear" x1="191.088" y1="214.527" x2="163.695" y2="158.616" gradientUnits="userSpaceOnUse">
<stop stop-color="#595E72"/>
<stop offset="1" stop-color="#242731"/>
</linearGradient>
<linearGradient id="paint17_linear" x1="120.952" y1="197.4" x2="158.253" y2="126.782" gradientUnits="userSpaceOnUse">
<stop stop-color="#FF5824"/>
<stop offset="1" stop-color="#FF9A24"/>
</linearGradient>
<linearGradient id="paint18_linear" x1="206.556" y1="171.969" x2="92.5178" y2="169.665" gradientUnits="userSpaceOnUse">
<stop stop-color="#D73908"/>
<stop offset="1" stop-color="#EB8712"/>
</linearGradient>
<linearGradient id="paint19_linear" x1="126.719" y1="205.584" x2="126.719" y2="152.764" gradientUnits="userSpaceOnUse">
<stop stop-color="#FF5824"/>
<stop offset="1" stop-color="#FF9A24"/>
</linearGradient>
<linearGradient id="paint20_linear" x1="160.214" y1="210.843" x2="160.214" y2="180.813" gradientUnits="userSpaceOnUse">
<stop stop-color="#FF5A24"/>
<stop offset="1" stop-color="#FF9A24"/>
</linearGradient>
<linearGradient id="paint21_linear" x1="207.287" y1="170.948" x2="170.508" y2="71.2653" gradientUnits="userSpaceOnUse">
<stop stop-color="#595E72"/>
<stop offset="1" stop-color="#242731"/>
</linearGradient>
<linearGradient id="paint22_linear" x1="217.247" y1="170.949" x2="163.165" y2="97.6334" gradientUnits="userSpaceOnUse">
<stop stop-color="#595E72"/>
<stop offset="1" stop-color="#242731"/>
</linearGradient>
<linearGradient id="paint23_linear" x1="191.088" y1="173.94" x2="163.703" y2="118.036" gradientUnits="userSpaceOnUse">
<stop stop-color="#595E72"/>
<stop offset="1" stop-color="#242731"/>
</linearGradient>
<linearGradient id="paint24_linear" x1="111.478" y1="173.345" x2="127.316" y2="117.575" gradientUnits="userSpaceOnUse">
<stop stop-color="#FF5824"/>
<stop offset="1" stop-color="#FF9A24"/>
</linearGradient>
<linearGradient id="paint25_linear" x1="151.441" y1="136.5" x2="153.519" y2="132.572" gradientUnits="userSpaceOnUse">
<stop stop-color="#FF5824"/>
<stop offset="1" stop-color="#FF9A24"/>
</linearGradient>
<linearGradient id="paint26_linear" x1="158.04" y1="132.684" x2="160.118" y2="128.757" gradientUnits="userSpaceOnUse">
<stop stop-color="#FF5824"/>
<stop offset="1" stop-color="#FF9A24"/>
</linearGradient>
<linearGradient id="paint27_linear" x1="164.639" y1="128.856" x2="166.708" y2="124.935" gradientUnits="userSpaceOnUse">
<stop stop-color="#FF5824"/>
<stop offset="1" stop-color="#FF9A24"/>
</linearGradient>
<linearGradient id="paint28_linear" x1="99.3229" y1="133.152" x2="76.09" y2="80.7306" gradientUnits="userSpaceOnUse">
<stop stop-color="#595E72"/>
<stop offset="1" stop-color="#242731"/>
</linearGradient>
<linearGradient id="paint29_linear" x1="117.385" y1="133.134" x2="86.2664" y2="98.0143" gradientUnits="userSpaceOnUse">
<stop stop-color="#595E72"/>
<stop offset="1" stop-color="#242731"/>
</linearGradient>
<linearGradient id="paint30_linear" x1="99.3283" y1="122.37" x2="71.9355" y2="66.4596" gradientUnits="userSpaceOnUse">
<stop stop-color="#595E72"/>
<stop offset="1" stop-color="#242731"/>
</linearGradient>
<linearGradient id="paint31_linear" x1="29.1917" y1="105.243" x2="66.4932" y2="34.6252" gradientUnits="userSpaceOnUse">
<stop stop-color="#FF5824"/>
<stop offset="1" stop-color="#FF9A24"/>
</linearGradient>
<linearGradient id="paint32_linear" x1="114.796" y1="79.8121" x2="0.758007" y2="77.5083" gradientUnits="userSpaceOnUse">
<stop stop-color="#D73908"/>
<stop offset="1" stop-color="#EB8712"/>
</linearGradient>
<linearGradient id="paint33_linear" x1="19.7182" y1="121.761" x2="35.5563" y2="65.9911" gradientUnits="userSpaceOnUse">
<stop stop-color="#FF5824"/>
<stop offset="1" stop-color="#FF9A24"/>
</linearGradient>
<linearGradient id="paint34_linear" x1="37.662" y1="99.8666" x2="66.9159" y2="44.4718" gradientUnits="userSpaceOnUse">
<stop stop-color="#862000"/>
<stop offset="1" stop-color="#5A3100"/>
</linearGradient>
<linearGradient id="paint35_linear" x1="34.9597" y1="113.427" x2="34.9597" y2="60.6074" gradientUnits="userSpaceOnUse">
<stop stop-color="#FF5824"/>
<stop offset="1" stop-color="#FF9A24"/>
</linearGradient>
<linearGradient id="paint36_linear" x1="68.4547" y1="118.686" x2="68.4547" y2="88.6562" gradientUnits="userSpaceOnUse">
<stop stop-color="#FF5A24"/>
<stop offset="1" stop-color="#FF9A24"/>
</linearGradient>
<linearGradient id="paint37_linear" x1="115.528" y1="78.7914" x2="78.7484" y2="-20.8915" gradientUnits="userSpaceOnUse">
<stop stop-color="#595E72"/>
<stop offset="1" stop-color="#242731"/>
</linearGradient>
<linearGradient id="paint38_linear" x1="125.488" y1="78.7923" x2="71.4055" y2="5.47654" gradientUnits="userSpaceOnUse">
<stop stop-color="#595E72"/>
<stop offset="1" stop-color="#242731"/>
</linearGradient>
<linearGradient id="paint39_linear" x1="99.3283" y1="81.7836" x2="71.9429" y2="25.8788" gradientUnits="userSpaceOnUse">
<stop stop-color="#595E72"/>
<stop offset="1" stop-color="#242731"/>
</linearGradient>
<linearGradient id="paint40_linear" x1="19.7182" y1="81.1878" x2="35.5563" y2="25.4182" gradientUnits="userSpaceOnUse">
<stop stop-color="#FF5824"/>
<stop offset="1" stop-color="#FF9A24"/>
</linearGradient>
<linearGradient id="paint41_linear" x1="59.6817" y1="44.3429" x2="61.7595" y2="40.4155" gradientUnits="userSpaceOnUse">
<stop stop-color="#FF5824"/>
<stop offset="1" stop-color="#FF9A24"/>
</linearGradient>
<linearGradient id="paint42_linear" x1="66.2805" y1="40.5273" x2="68.3582" y2="36.5999" gradientUnits="userSpaceOnUse">
<stop stop-color="#FF5824"/>
<stop offset="1" stop-color="#FF9A24"/>
</linearGradient>
<linearGradient id="paint43_linear" x1="72.8796" y1="36.6997" x2="74.9483" y2="32.7785" gradientUnits="userSpaceOnUse">
<stop stop-color="#FF5824"/>
<stop offset="1" stop-color="#FF9A24"/>
</linearGradient>
<linearGradient id="paint44_linear" x1="191.797" y1="163.904" x2="168.564" y2="111.483" gradientUnits="userSpaceOnUse">
<stop stop-color="#595E72"/>
<stop offset="1" stop-color="#242731"/>
</linearGradient>
<linearGradient id="paint45_linear" x1="209.859" y1="163.887" x2="178.74" y2="128.767" gradientUnits="userSpaceOnUse">
<stop stop-color="#595E72"/>
<stop offset="1" stop-color="#242731"/>
</linearGradient>
<linearGradient id="paint46_linear" x1="191.802" y1="153.122" x2="164.409" y2="97.2118" gradientUnits="userSpaceOnUse">
<stop stop-color="#595E72"/>
<stop offset="1" stop-color="#242731"/>
</linearGradient>
<linearGradient id="paint47_linear" x1="121.665" y1="135.995" x2="158.967" y2="65.3775" gradientUnits="userSpaceOnUse">
<stop stop-color="#FF5824"/>
<stop offset="1" stop-color="#FF9A24"/>
</linearGradient>
<linearGradient id="paint48_linear" x1="207.27" y1="110.564" x2="93.2316" y2="108.261" gradientUnits="userSpaceOnUse">
<stop stop-color="#D73908"/>
<stop offset="1" stop-color="#EB8712"/>
</linearGradient>
<linearGradient id="paint49_linear" x1="112.192" y1="152.513" x2="128.03" y2="96.7432" gradientUnits="userSpaceOnUse">
<stop stop-color="#FF5824"/>
<stop offset="1" stop-color="#FF9A24"/>
</linearGradient>
<linearGradient id="paint50_linear" x1="130.136" y1="130.619" x2="159.39" y2="75.2242" gradientUnits="userSpaceOnUse">
<stop stop-color="#862000"/>
<stop offset="1" stop-color="#5A3100"/>
</linearGradient>
<linearGradient id="paint51_linear" x1="127.433" y1="144.179" x2="127.433" y2="91.3597" gradientUnits="userSpaceOnUse">
<stop stop-color="#FF5824"/>
<stop offset="1" stop-color="#FF9A24"/>
</linearGradient>
<linearGradient id="paint52_linear" x1="160.928" y1="149.438" x2="160.928" y2="119.408" gradientUnits="userSpaceOnUse">
<stop stop-color="#FF5A24"/>
<stop offset="1" stop-color="#FF9A24"/>
</linearGradient>
<linearGradient id="paint53_linear" x1="208.001" y1="109.544" x2="171.222" y2="9.86066" gradientUnits="userSpaceOnUse">
<stop stop-color="#595E72"/>
<stop offset="1" stop-color="#242731"/>
</linearGradient>
<linearGradient id="paint54_linear" x1="217.961" y1="109.545" x2="163.879" y2="36.229" gradientUnits="userSpaceOnUse">
<stop stop-color="#595E72"/>
<stop offset="1" stop-color="#242731"/>
</linearGradient>
<linearGradient id="paint55_linear" x1="191.802" y1="112.536" x2="164.417" y2="56.6311" gradientUnits="userSpaceOnUse">
<stop stop-color="#595E72"/>
<stop offset="1" stop-color="#242731"/>
</linearGradient>
<linearGradient id="paint56_linear" x1="112.192" y1="111.94" x2="128.03" y2="56.1705" gradientUnits="userSpaceOnUse">
<stop stop-color="#FF5824"/>
<stop offset="1" stop-color="#FF9A24"/>
</linearGradient>
<linearGradient id="paint57_linear" x1="152.155" y1="75.0953" x2="154.233" y2="71.1678" gradientUnits="userSpaceOnUse">
<stop stop-color="#FF5824"/>
<stop offset="1" stop-color="#FF9A24"/>
</linearGradient>
<linearGradient id="paint58_linear" x1="158.754" y1="71.2796" x2="160.832" y2="67.3521" gradientUnits="userSpaceOnUse">
<stop stop-color="#FF5824"/>
<stop offset="1" stop-color="#FF9A24"/>
</linearGradient>
<linearGradient id="paint59_linear" x1="165.353" y1="67.4519" x2="167.422" y2="63.5308" gradientUnits="userSpaceOnUse">
<stop stop-color="#FF5824"/>
<stop offset="1" stop-color="#FF9A24"/>
</linearGradient>
</defs>
</svg>
