<svg width="64" height="64" viewBox="0 0 64 64" fill="none" xmlns="http://www.w3.org/2000/svg">
<path d="M-6.10352e-05 32C-6.10352e-05 30.8954 0.89537 30 1.99994 30H61.9999C63.1045 30 63.9999 30.8954 63.9999 32C63.9999 33.1046 63.1045 34 61.9999 34H1.99994C0.89537 34 -6.10352e-05 33.1046 -6.10352e-05 32Z" fill="#D2D7E4"/>
<path d="M29.9999 2C29.9999 0.895431 30.8954 0 31.9999 0C33.1045 0 33.9999 0.895431 33.9999 2V62C33.9999 63.1046 33.1045 64 31.9999 64C30.8954 64 29.9999 63.1046 29.9999 62V2Z" fill="#D2D7E4"/>
</svg>
