<svg width="32" height="32" viewBox="0 0 32 32" fill="none" xmlns="http://www.w3.org/2000/svg">
<path d="M20.2934 11.9397C20.2211 11.7844 20.0653 11.6847 19.8937 11.6847H14.6653L19.8253 3.53764C19.9113 3.40176 19.9166 3.22968 19.839 3.08894C19.7613 2.94773 19.613 2.86035 19.4524 2.86035H12.393C12.2258 2.86035 12.0731 2.95477 11.9981 3.10435L5.37984 16.3409C5.31143 16.4772 5.31893 16.6396 5.39923 16.7697C5.47999 16.8999 5.62161 16.9793 5.77471 16.9793H10.3117L5.36789 28.721C5.28361 28.9217 5.35864 29.1547 5.54436 29.2685C5.61582 29.3122 5.69524 29.3334 5.77424 29.3334C5.90087 29.3334 6.02574 29.2791 6.11224 29.1767L20.2312 12.4105C20.3419 12.279 20.3658 12.0955 20.2934 11.9397Z" fill="#FF5824"/>
<path d="M26.646 18.1904C26.6098 18.1128 26.5319 18.0629 26.4461 18.0629H23.8317L26.4119 13.9891C26.4549 13.9211 26.4576 13.8351 26.4187 13.7647C26.3799 13.6941 26.3058 13.6504 26.2255 13.6504H22.6955C22.6118 13.6504 22.5355 13.6976 22.498 13.7724L19.1886 20.3912C19.1544 20.4594 19.1582 20.5405 19.1983 20.6056C19.2387 20.6707 19.3095 20.7104 19.3861 20.7104H21.6548L19.1826 26.5817C19.1405 26.6821 19.178 26.7986 19.2709 26.8555C19.3066 26.8774 19.3463 26.8879 19.3858 26.8879C19.4491 26.8879 19.5116 26.8608 19.5548 26.8096L26.6149 18.4258C26.6702 18.3601 26.6822 18.2683 26.646 18.1904Z" fill="white"/>
</svg>
