<svg width="32" height="32" viewBox="0 0 32 32" fill="none" xmlns="http://www.w3.org/2000/svg">
<ellipse cx="12.0004" cy="13.2683" rx="5.33333" ry="5.33333" fill="#FF5824"/>
<path d="M21.5772 18.6667C20.7689 18.6667 20.2712 17.7368 20.5884 16.9933C21.0679 15.8695 21.3334 14.6324 21.3334 13.3333C21.3334 13.2431 21.3321 13.1532 21.3295 13.0635C21.3148 12.5447 21.6489 12.0569 22.1666 12.0185C22.3317 12.0062 22.4985 12 22.6667 12C26.0099 12 28.7784 14.4609 29.2594 17.6701C29.3412 18.2163 28.8856 18.6667 28.3334 18.6667H21.5772Z" fill="#242731"/>
<path d="M12 20C7.18262 20 3.21769 23.6497 2.71943 28.3349C2.66103 28.8841 3.11437 29.3333 3.66666 29.3333H20.3333C20.8856 29.3333 21.339 28.8841 21.2805 28.3349C20.7823 23.6497 16.8174 20 12 20Z" fill="#FF5824"/>
<circle cx="22.6667" cy="6.66663" r="4" fill="#242731"/>
</svg>
