<svg width="32" height="32" viewBox="0 0 32 32" fill="none" xmlns="http://www.w3.org/2000/svg">
<ellipse cx="12.0003" cy="13.2683" rx="5.33333" ry="5.33333" fill="#FF5824"/>
<path d="M21.5774 18.6667C20.7691 18.6667 20.2714 17.7368 20.5886 16.9933C21.0682 15.8695 21.3336 14.6324 21.3336 13.3333C21.3336 13.2431 21.3323 13.1532 21.3297 13.0635C21.315 12.5447 21.6491 12.0569 22.1668 12.0185C22.3319 12.0062 22.4987 12 22.6669 12C26.0101 12 28.7786 14.4609 29.2596 17.6701C29.3415 18.2163 28.8858 18.6667 28.3336 18.6667H21.5774Z" fill="white"/>
<path d="M11.9998 20C7.18247 20 3.21753 23.6497 2.71928 28.3349C2.66088 28.8841 3.11422 29.3333 3.6665 29.3333H20.3332C20.8855 29.3333 21.3388 28.8841 21.2804 28.3349C20.7821 23.6497 16.8172 20 11.9998 20Z" fill="#FF5824"/>
<circle cx="22.6665" cy="6.66669" r="4" fill="white"/>
</svg>
