<svg xmlns="http://www.w3.org/2000/svg" xmlns:xlink="http://www.w3.org/1999/xlink" preserveAspectRatio="xMidYMid meet" width="157" height="17" viewBox="0 0 157 17" style="width:100%;height:100%"><defs><animate attributeType="XML" attributeName="opacity" dur="0s" from="0" to="1" xlink:href="#time_group"/></defs><g id="_R_G"><g id="_R_G_L_0_G" transform=" translate(78.89, 8.75) scale(3.61, 3.61) translate(111.86, 2)"><path id="_R_G_L_0_G_D_0_P_0" fill="#ffffff" fill-opacity="1" fill-rule="nonzero" d=" M-90.61 -0.59 C-90.61,-0.59 -90.61,-2.42 -90.61,-2.42 C-90.61,-2.42 -92.44,-2.42 -92.44,-2.42 C-92.44,-2.42 -92.44,-1.62 -92.44,-1.62 C-92.44,-1.62 -91.51,-1.62 -91.51,-1.62 C-91.51,-1.62 -91.51,-1.02 -91.51,-1.02 C-91.74,-0.85 -92.03,-0.77 -92.38,-0.77 C-92.75,-0.77 -93.05,-0.89 -93.29,-1.15 C-93.53,-1.4 -93.65,-1.72 -93.65,-2.1 C-93.65,-2.46 -93.53,-2.77 -93.3,-3.03 C-93.06,-3.29 -92.78,-3.42 -92.44,-3.42 C-92.21,-3.42 -92.02,-3.39 -91.85,-3.32 C-91.69,-3.25 -91.52,-3.14 -91.34,-2.99 C-91.34,-2.99 -90.76,-3.7 -90.76,-3.7 C-90.99,-3.89 -91.24,-4.04 -91.49,-4.13 C-91.74,-4.23 -92.05,-4.27 -92.41,-4.27 C-93.04,-4.27 -93.56,-4.06 -93.98,-3.64 C-94.4,-3.22 -94.61,-2.7 -94.61,-2.1 C-94.61,-1.47 -94.41,-0.95 -94,-0.54 C-93.59,-0.13 -93.06,0.07 -92.41,0.07 C-91.73,0.07 -91.14,-0.15 -90.61,-0.59z "/><path id="_R_G_L_0_G_D_1_P_0" fill="#ffffff" fill-opacity="1" fill-rule="nonzero" d=" M-97.92 0 C-97.92,0 -97.92,-2.67 -97.92,-2.67 C-97.92,-2.67 -95.89,0 -95.89,0 C-95.89,0 -95.1,0 -95.1,0 C-95.1,0 -95.1,-4.2 -95.1,-4.2 C-95.1,-4.2 -96.01,-4.2 -96.01,-4.2 C-96.01,-4.2 -96.01,-1.61 -96.01,-1.61 C-96.01,-1.61 -97.98,-4.2 -97.98,-4.2 C-97.98,-4.2 -98.83,-4.2 -98.83,-4.2 C-98.83,-4.2 -98.83,0 -98.83,0 C-98.83,0 -97.92,0 -97.92,0z "/><path id="_R_G_L_0_G_D_2_P_0" fill="#ffffff" fill-opacity="1" fill-rule="nonzero" d=" M-99.55 0 C-99.55,0 -99.55,-4.2 -99.55,-4.2 C-99.55,-4.2 -100.47,-4.2 -100.47,-4.2 C-100.47,-4.2 -100.47,0 -100.47,0 C-100.47,0 -99.55,0 -99.55,0z "/><path id="_R_G_L_0_G_D_3_P_0" fill="#ffffff" fill-opacity="1" fill-rule="nonzero" d=" M-104 0 C-104,0 -104,-2.67 -104,-2.67 C-104,-2.67 -101.97,0 -101.97,0 C-101.97,0 -101.18,0 -101.18,0 C-101.18,0 -101.18,-4.2 -101.18,-4.2 C-101.18,-4.2 -102.1,-4.2 -102.1,-4.2 C-102.1,-4.2 -102.1,-1.61 -102.1,-1.61 C-102.1,-1.61 -104.06,-4.2 -104.06,-4.2 C-104.06,-4.2 -104.92,-4.2 -104.92,-4.2 C-104.92,-4.2 -104.92,0 -104.92,0 C-104.92,0 -104,0 -104,0z "/><path id="_R_G_L_0_G_D_4_P_0" fill="#ffffff" fill-opacity="1" fill-rule="nonzero" d=" M-105.63 0 C-105.63,0 -105.63,-4.2 -105.63,-4.2 C-105.63,-4.2 -106.55,-4.2 -106.55,-4.2 C-106.55,-4.2 -106.55,0 -106.55,0 C-106.55,0 -105.63,0 -105.63,0z "/><path id="_R_G_L_0_G_D_5_P_0" fill="#ffffff" fill-opacity="1" fill-rule="nonzero" d=" M-110.56 0 C-110.56,0 -110.56,-2.72 -110.56,-2.72 C-110.56,-2.72 -109.39,-0.95 -109.39,-0.95 C-109.39,-0.95 -109.37,-0.95 -109.37,-0.95 C-109.37,-0.95 -108.19,-2.74 -108.19,-2.74 C-108.19,-2.74 -108.19,0 -108.19,0 C-108.19,0 -107.27,0 -107.27,0 C-107.27,0 -107.27,-4.2 -107.27,-4.2 C-107.27,-4.2 -108.26,-4.2 -108.26,-4.2 C-108.26,-4.2 -109.37,-2.42 -109.37,-2.42 C-109.37,-2.42 -110.47,-4.2 -110.47,-4.2 C-110.47,-4.2 -111.47,-4.2 -111.47,-4.2 C-111.47,-4.2 -111.47,0 -111.47,0 C-111.47,0 -110.56,0 -110.56,0z "/><path id="_R_G_L_0_G_D_6_P_0" fill="#ffffff" fill-opacity="1" fill-rule="nonzero" d=" M-114.58 0 C-114.58,0 -114.58,-3.35 -114.58,-3.35 C-114.58,-3.35 -113.3,-3.35 -113.3,-3.35 C-113.3,-3.35 -113.3,-4.2 -113.3,-4.2 C-113.3,-4.2 -116.78,-4.2 -116.78,-4.2 C-116.78,-4.2 -116.78,-3.35 -116.78,-3.35 C-116.78,-3.35 -115.51,-3.35 -115.51,-3.35 C-115.51,-3.35 -115.51,0 -115.51,0 C-115.51,0 -114.58,0 -114.58,0z "/><path id="_R_G_L_0_G_D_7_P_0" fill="#ffffff" fill-opacity="1" fill-rule="nonzero" d=" M-119.56 -3.37 C-119.56,-3.37 -118.64,-3.37 -118.64,-3.37 C-118.42,-3.37 -118.24,-3.31 -118.11,-3.21 C-117.98,-3.11 -117.92,-2.96 -117.92,-2.77 C-117.92,-2.58 -117.98,-2.43 -118.1,-2.33 C-118.23,-2.22 -118.4,-2.16 -118.63,-2.16 C-118.63,-2.16 -119.56,-2.16 -119.56,-2.16 C-119.56,-2.16 -119.56,-3.37 -119.56,-3.37z  M-119.56 0 C-119.56,0 -119.56,-1.34 -119.56,-1.34 C-119.56,-1.34 -118.85,-1.34 -118.85,-1.34 C-118.85,-1.34 -117.94,0 -117.94,0 C-117.94,0 -116.86,0 -116.86,0 C-116.86,0 -117.88,-1.5 -117.88,-1.5 C-117.28,-1.72 -116.98,-2.16 -116.98,-2.8 C-116.98,-3.21 -117.1,-3.53 -117.34,-3.77 C-117.63,-4.06 -118.03,-4.2 -118.57,-4.2 C-118.57,-4.2 -120.49,-4.2 -120.49,-4.2 C-120.49,-4.2 -120.49,0 -120.49,0 C-120.49,0 -119.56,0 -119.56,0z "/><path id="_R_G_L_0_G_D_8_P_0" fill="#ffffff" fill-opacity="1" fill-rule="nonzero" d=" M-123.04 -3.12 C-123.04,-3.12 -122.48,-1.76 -122.48,-1.76 C-122.48,-1.76 -123.59,-1.76 -123.59,-1.76 C-123.59,-1.76 -123.04,-3.12 -123.04,-3.12z  M-124.31 0 C-124.31,0 -123.92,-0.94 -123.92,-0.94 C-123.92,-0.94 -122.15,-0.94 -122.15,-0.94 C-122.15,-0.94 -121.76,0 -121.76,0 C-121.76,0 -120.8,0 -120.8,0 C-120.8,0 -122.6,-4.23 -122.6,-4.23 C-122.6,-4.23 -123.45,-4.23 -123.45,-4.23 C-123.45,-4.23 -125.25,0 -125.25,0 C-125.25,0 -124.31,0 -124.31,0z "/><path id="_R_G_L_0_G_D_9_P_0" fill="#ffffff" fill-opacity="1" fill-rule="nonzero" d=" M-128.86 0 C-128.86,0 -128.86,-2.72 -128.86,-2.72 C-128.86,-2.72 -127.69,-0.95 -127.69,-0.95 C-127.69,-0.95 -127.66,-0.95 -127.66,-0.95 C-127.66,-0.95 -126.48,-2.74 -126.48,-2.74 C-126.48,-2.74 -126.48,0 -126.48,0 C-126.48,0 -125.56,0 -125.56,0 C-125.56,0 -125.56,-4.2 -125.56,-4.2 C-125.56,-4.2 -126.56,-4.2 -126.56,-4.2 C-126.56,-4.2 -127.66,-2.42 -127.66,-2.42 C-127.66,-2.42 -128.77,-4.2 -128.77,-4.2 C-128.77,-4.2 -129.76,-4.2 -129.76,-4.2 C-129.76,-4.2 -129.76,0 -129.76,0 C-129.76,0 -128.86,0 -128.86,0z "/><path id="_R_G_L_0_G_D_10_P_0" fill="#ffffff" fill-opacity="1" fill-rule="nonzero" d=" M-130.65 -0.28 C-130.37,-0.51 -130.23,-0.83 -130.23,-1.24 C-130.23,-1.59 -130.34,-1.86 -130.55,-2.05 C-130.77,-2.24 -131.11,-2.39 -131.56,-2.51 C-131.93,-2.61 -132.18,-2.69 -132.29,-2.76 C-132.41,-2.83 -132.47,-2.93 -132.47,-3.07 C-132.47,-3.18 -132.42,-3.27 -132.33,-3.34 C-132.23,-3.41 -132.1,-3.44 -131.93,-3.44 C-131.6,-3.44 -131.23,-3.31 -130.84,-3.03 C-130.84,-3.03 -130.36,-3.73 -130.36,-3.73 C-130.8,-4.08 -131.32,-4.26 -131.92,-4.26 C-132.35,-4.26 -132.7,-4.14 -132.98,-3.91 C-133.25,-3.68 -133.39,-3.37 -133.39,-2.99 C-133.39,-2.79 -133.36,-2.61 -133.29,-2.47 C-133.23,-2.32 -133.13,-2.2 -133,-2.11 C-132.87,-2.01 -132.72,-1.93 -132.58,-1.87 C-132.43,-1.82 -132.24,-1.76 -131.99,-1.7 C-131.65,-1.61 -131.43,-1.53 -131.32,-1.45 C-131.21,-1.38 -131.15,-1.28 -131.15,-1.16 C-131.15,-1.04 -131.2,-0.94 -131.31,-0.86 C-131.42,-0.79 -131.57,-0.76 -131.75,-0.76 C-132.18,-0.76 -132.6,-0.93 -133.01,-1.27 C-133.01,-1.27 -133.55,-0.61 -133.55,-0.61 C-133.05,-0.16 -132.46,0.06 -131.77,0.06 C-131.31,0.06 -130.94,-0.05 -130.65,-0.28z "/></g></g><g id="time_group"/></svg>