<svg width="96" height="96" viewBox="0 0 96 96" fill="none" xmlns="http://www.w3.org/2000/svg">
<path d="M41.5 90C62.2107 90 79 72.9868 79 52C79 31.0132 62.2107 14 41.5 14C20.7893 14 4 31.0132 4 52C4 72.9868 20.7893 90 41.5 90Z" fill="#EAEEF9"/>
<path d="M59.8531 89.1835C54.1245 89.335 47.2653 89.1835 42.4413 89.1077C37.6173 89.2592 30.7581 89.335 25.0295 89.1835C30.6827 85.9265 32.6425 79.9427 32.944 76.004H51.8632C52.3155 79.9427 54.2753 86.0022 59.8531 89.1835Z" fill="url(#paint0_linear)"/>
<path d="M23.6325 90.1681H61.3254C61.7777 90.1681 62.2299 89.7894 62.2299 89.2592C62.2299 88.8047 61.8531 88.3503 61.3254 88.3503H23.6325C23.1803 88.3503 22.728 88.729 22.728 89.2592C22.8034 89.7894 23.1803 90.1681 23.6325 90.1681Z" fill="#D2DCEB"/>
<path d="M78.2446 25.8614V75.398C78.2446 76.6099 77.2647 77.5189 76.1341 77.5189H9.12516C7.99453 77.5189 7.01465 76.5342 7.01465 75.398V25.8614C7.01465 24.7253 7.99453 23.7406 9.12516 23.7406H76.1341C77.3401 23.7406 78.2446 24.6495 78.2446 25.8614Z" fill="#F5F8FF"/>
<path d="M78.2446 25.8614V68.5053H7.01465V25.8614C7.01465 24.7253 7.99453 23.7406 9.12516 23.7406H76.1341C77.3401 23.7406 78.2446 24.6495 78.2446 25.8614Z" fill="url(#paint1_linear)"/>
<path d="M75.1046 26.2402H11.0002C10.448 26.2402 10.0002 26.6879 10.0002 27.2402V65.93H76.1046V27.2402C76.1046 26.6879 75.6569 26.2402 75.1046 26.2402Z" fill="url(#paint2_linear)"/>
<rect x="16.0522" y="31" width="54" height="9" rx="2" fill="white"/>
<rect x="16.0522" y="43" width="54" height="9" rx="2" fill="white"/>
<rect x="29.0522" y="55" width="28" height="9" rx="4.5" fill="#FF5824"/>
<path d="M30.0325 33.447V36.1515C30.0325 36.6009 29.8787 36.9562 29.571 37.2175C29.2653 37.4789 28.8468 37.6095 28.3155 37.6095C27.7923 37.6095 27.3769 37.4826 27.0692 37.2288C26.7615 36.975 26.6045 36.6263 26.5984 36.1826V33.447H27.5215V36.1572C27.5215 36.426 27.5913 36.6225 27.7308 36.7466C27.8723 36.8688 28.0672 36.9299 28.3155 36.9299C28.8345 36.9299 29.0981 36.6798 29.1063 36.1797V33.447H30.0325Z" fill="#B4B8C5"/>
<path d="M33.1128 36.4758C33.1128 36.316 33.0513 36.1938 32.9282 36.1092C32.8051 36.0227 32.5835 35.9325 32.2635 35.8385C31.9435 35.7426 31.6901 35.6486 31.5034 35.5565C30.9947 35.3046 30.7403 34.9652 30.7403 34.5384C30.7403 34.3166 30.808 34.1192 30.9434 33.9462C31.0808 33.7713 31.2768 33.635 31.5311 33.5373C31.7876 33.4395 32.0748 33.3906 32.3928 33.3906C32.7128 33.3906 32.9979 33.4442 33.2482 33.5514C33.4985 33.6567 33.6924 33.8061 33.8298 33.9998C33.9693 34.1934 34.0391 34.4134 34.0391 34.6597H33.1159C33.1159 34.4717 33.0513 34.326 32.922 34.2226C32.7928 34.1173 32.6112 34.0646 32.3774 34.0646C32.1517 34.0646 31.9763 34.1088 31.8512 34.1972C31.726 34.2837 31.6635 34.3984 31.6635 34.5412C31.6635 34.6747 31.7363 34.7866 31.8819 34.8768C32.0296 34.9671 32.2461 35.0517 32.5312 35.1306C33.0564 35.2754 33.439 35.455 33.679 35.6693C33.919 35.8836 34.0391 36.1506 34.0391 36.4702C34.0391 36.8255 33.8924 37.1047 33.599 37.3078C33.3057 37.509 32.9107 37.6095 32.4143 37.6095C32.0696 37.6095 31.7558 37.5522 31.4727 37.4375C31.1896 37.3209 30.9731 37.1621 30.8234 36.9609C30.6757 36.7597 30.6018 36.5266 30.6018 36.2615H31.5281C31.5281 36.7146 31.8235 36.9412 32.4143 36.9412C32.6338 36.9412 32.8051 36.9007 32.9282 36.8199C33.0513 36.7372 33.1128 36.6225 33.1128 36.4758Z" fill="#B4B8C5"/>
<path d="M37.3624 35.7736H35.59V36.8735H37.6701V37.5531H34.6668V33.447H37.664V34.1323H35.59V35.1109H37.3624V35.7736Z" fill="#B4B8C5"/>
<path d="M39.8703 36.05H39.1349V37.5531H38.2117V33.447H39.8765C40.4058 33.447 40.814 33.5551 41.1012 33.7713C41.3884 33.9876 41.532 34.2931 41.532 34.6879C41.532 34.968 41.4654 35.2021 41.332 35.3901C41.2007 35.5762 41.0007 35.7248 40.732 35.8357L41.7013 37.5137V37.5531H40.7104L39.8703 36.05ZM39.1349 35.3647H39.8796C40.1114 35.3647 40.2909 35.3111 40.4181 35.204C40.5453 35.0949 40.6089 34.9455 40.6089 34.7556C40.6089 34.5619 40.5484 34.4096 40.4273 34.2987C40.3083 34.1878 40.1247 34.1323 39.8765 34.1323H39.1349V35.3647Z" fill="#B4B8C5"/>
<path d="M45.8801 37.5531H44.957L43.1599 34.8515V37.5531H42.2367V33.447H43.1599L44.96 36.1544V33.447H45.8801V37.5531Z" fill="#B4B8C5"/>
<path d="M49.2712 36.7071H47.6526L47.3449 37.5531H46.3632L48.0311 33.447H48.8865L50.5636 37.5531H49.582L49.2712 36.7071ZM47.9018 36.0218H49.0219L48.4588 34.4848L47.9018 36.0218Z" fill="#B4B8C5"/>
<path d="M52.1884 33.447L53.3392 36.4251L54.484 33.447H55.6964V37.5531H54.7701V36.4307L54.8625 34.4933L53.6531 37.5531H53.0192L51.813 34.4961L51.9053 36.4307V37.5531H50.9821V33.447H52.1884Z" fill="#B4B8C5"/>
<path d="M59.1982 35.7736H57.4258V36.8735H59.5059V37.5531H56.5026V33.447H59.4998V34.1323H57.4258V35.1109H59.1982V35.7736Z" fill="#B4B8C5"/>
<path d="M42.5161 75.0194C43.4736 75.0194 44.2497 74.2395 44.2497 73.2773C44.2497 72.3152 43.4736 71.5352 42.5161 71.5352C41.5586 71.5352 40.7825 72.3152 40.7825 73.2773C40.7825 74.2395 41.5586 75.0194 42.5161 75.0194Z" fill="#DBDFE6"/>
<path d="M16.7265 22.1395C17.7162 21.8162 18.2578 20.7479 17.9361 19.7533C17.6144 18.7588 16.5513 18.2146 15.5616 18.5379C14.5719 18.8611 14.0303 19.9294 14.352 20.924C14.6737 21.9185 15.7368 22.4627 16.7265 22.1395Z" fill="#EAEEF9"/>
<path d="M20.5 16C21.3284 16 22 15.3284 22 14.5C22 13.6716 21.3284 13 20.5 13C19.6716 13 19 13.6716 19 14.5C19 15.3284 19.6716 16 20.5 16Z" fill="url(#paint3_linear)"/>
<path d="M89.8856 41.4241C91.0534 40.3517 91.135 38.5311 90.0678 37.3577C89.0007 36.1842 87.1889 36.1022 86.0212 37.1746C84.8534 38.247 84.7718 40.0675 85.839 41.241C86.9061 42.4145 88.7179 42.4964 89.8856 41.4241Z" fill="#EAEEF9"/>
<path d="M90.1527 28.5763C90.6444 28.1248 90.6787 27.3582 90.2294 26.8641C89.7801 26.3701 89.0172 26.3355 88.5255 26.7871C88.0338 27.2386 87.9995 28.0051 88.4488 28.4992C88.8982 28.9933 89.661 29.0278 90.1527 28.5763Z" fill="#EAEEF9"/>
<path d="M82.5 26C83.3284 26 84 25.5523 84 25C84 24.4477 83.3284 24 82.5 24C81.6716 24 81 24.4477 81 25C81 25.5523 81.6716 26 82.5 26Z" fill="url(#paint4_linear)"/>
<path d="M91.6715 23.1089C91.5875 23.3601 91.5875 23.6951 91.5036 23.9463C91.3356 24.5325 91.1678 25.035 90.9999 25.6211C90.9159 25.9561 90.7478 26.207 90.6639 26.542C88.9005 30.4778 85.6258 33.4088 81.6793 34.9161C81.3434 35.0836 80.9235 35.1674 80.5877 35.3349C80.3358 35.4186 80.0838 35.5025 79.9159 35.5025C77.6487 36.0887 75.2136 36.1726 72.7786 35.6701C64.1298 33.9116 58.5041 25.3698 60.3514 16.7444C62.1147 8.11904 70.6794 2.5081 79.3281 4.35042C82.435 5.02036 85.206 6.52787 87.3892 8.70515C91.0838 12.3898 92.763 17.8332 91.6715 23.1089Z" fill="url(#paint5_linear)"/>
<path fill-rule="evenodd" clip-rule="evenodd" d="M68 17.6533C68 17.0914 68.4477 16.636 69 16.636H83C83.5523 16.636 84 17.0914 84 17.6533V25.1426C84 26.8718 82.9257 28.4121 81.3214 28.9833L77.3214 30.4075C76.4659 30.7121 75.5341 30.7121 74.6786 30.4075L70.6786 28.9833C69.0743 28.4121 68 26.8718 68 25.1426V17.6533ZM76.9014 23.2733C77.5532 22.9437 78 22.2678 78 21.4875C78 20.3829 77.1046 19.4875 76 19.4875C74.8954 19.4875 74 20.3829 74 21.4875C74 22.2676 74.4466 22.9434 75.0981 23.2731V24.8828C75.0981 25.3808 75.5018 25.7845 75.9998 25.7845C76.4978 25.7845 76.9014 25.3808 76.9014 24.8828V23.2733Z" fill="url(#paint6_linear)"/>
<path fill-rule="evenodd" clip-rule="evenodd" d="M70 14.636C70 11.3223 72.6863 8.63599 76 8.63599C79.3137 8.63599 82 11.3223 82 14.636V16.636H80V14.636C80 12.4268 78.2091 10.636 76 10.636C73.7909 10.636 72 12.4268 72 14.636V16.636H70V14.636Z" fill="url(#paint7_linear)"/>
<defs>
<linearGradient id="paint0_linear" x1="42.4818" y1="88.8504" x2="42.4818" y2="77.0354" gradientUnits="userSpaceOnUse">
<stop stop-color="#F5F8FF"/>
<stop offset="0.9913" stop-color="#D0DBEA"/>
</linearGradient>
<linearGradient id="paint1_linear" x1="78.2446" y1="67.3578" x2="4.76632" y2="25.2308" gradientUnits="userSpaceOnUse">
<stop stop-color="#242731"/>
<stop offset="1" stop-color="#3B3F4E"/>
</linearGradient>
<linearGradient id="paint2_linear" x1="76.1046" y1="65.93" x2="12.0372" y2="23.3062" gradientUnits="userSpaceOnUse">
<stop stop-color="#333643"/>
<stop offset="1" stop-color="#676C84"/>
</linearGradient>
<linearGradient id="paint3_linear" x1="19.4087" y1="15.7162" x2="21.5691" y2="13.3502" gradientUnits="userSpaceOnUse">
<stop stop-color="#FF5824"/>
<stop offset="1" stop-color="#FF9A24"/>
</linearGradient>
<linearGradient id="paint4_linear" x1="81.0761" y1="25.0279" x2="83.9863" y2="25.0279" gradientUnits="userSpaceOnUse">
<stop stop-color="#FF66A9"/>
<stop offset="1" stop-color="#F53689"/>
</linearGradient>
<linearGradient id="paint5_linear" x1="64.3599" y1="32.9729" x2="87.4035" y2="7.73588" gradientUnits="userSpaceOnUse">
<stop stop-color="#FF5824"/>
<stop offset="1" stop-color="#FF9A24"/>
</linearGradient>
<linearGradient id="paint6_linear" x1="69.9547" y1="16.1259" x2="83.2487" y2="30.6178" gradientUnits="userSpaceOnUse">
<stop stop-color="white"/>
<stop offset="0.367501" stop-color="#FFF0E2"/>
<stop offset="1" stop-color="#FFD6AF"/>
</linearGradient>
<linearGradient id="paint7_linear" x1="76.2852" y1="9.34102" x2="76.2852" y2="16.636" gradientUnits="userSpaceOnUse">
<stop stop-color="white"/>
<stop offset="1" stop-color="#FFD6AF"/>
</linearGradient>
</defs>
</svg>
